<?xml version="1.0" encoding="utf-8"?>
<!-- Generator: Adobe Illustrator 27.3.1, SVG Export Plug-In . SVG Version: 6.00 Build 0)  -->
<svg version="1.1" id="Layer_1" xmlns="http://www.w3.org/2000/svg" xmlns:xlink="http://www.w3.org/1999/xlink" x="0px" y="0px"
	 viewBox="0 0 1366 400" style="enable-background:new 0 0 1366 400;" xml:space="preserve">
<style type="text/css">
	.st0{clip-path:url(#XMLID_00000157300581016220272040000006781853455325853064_);}
	.st1{fill:url(#SVGID_1_);}
	.st2{fill:url(#SVGID_00000114072831388163356110000014134247792928670356_);}
	.st3{fill:none;stroke:#333333;stroke-width:0.75;stroke-miterlimit:10;}
	.st4{clip-path:url(#SVGID_00000099623702216415503580000007689846963836936884_);}
	.st5{fill:#262626;}
	.st6{clip-path:url(#SVGID_00000016033880529588877790000008122067900386941085_);}
	.st7{clip-path:url(#SVGID_00000010275841916089200680000000796574208011062956_);}
	.st8{fill:#282828;}
	.st9{fill:#B6754D;}
	.st10{fill:#B67525;}
	.st11{fill:#F2EADB;}
	.st12{fill:none;stroke:#232323;stroke-width:1.9187;stroke-linecap:round;stroke-linejoin:round;}
	.st13{fill:none;stroke:#232323;stroke-width:1.9187;stroke-linecap:round;stroke-linejoin:round;stroke-dasharray:5.0343,5.0343;}
	.st14{fill:#0F0F0F;}
	.st15{fill:#84A9AC;}
	.st16{fill:#84A9AC;stroke:#111111;stroke-miterlimit:10;}
	.st17{fill:none;}
	.st18{fill:#FFFFFF;}
	.st19{font-family:'ArialMT';}
	.st20{font-size:4.8734px;}
	.st21{font-size:9.2735px;}
	.st22{fill:#333333;}
	.st23{fill:#3B6978;stroke:#111111;stroke-miterlimit:10;}
	.st24{fill:#3B6978;}
	.st25{fill:url(#SVGID_00000146470682563570171130000002387383705419037106_);}
	.st26{fill:#71AEE1;stroke:#772C8B;stroke-width:0.25;stroke-miterlimit:10;}
	.st27{font-size:33px;}
	.st28{font-size:35.8227px;}
</style>
<g>
	<g>
		<defs>
			
				<rect id="XMLID_27_" x="0.4" y="0" transform="matrix(-1 -1.224647e-16 1.224647e-16 -1 1366.4 400)" width="1365.6" height="400"/>
		</defs>
		<clipPath id="XMLID_00000026857789033592722320000010675174586894786709_">
			<use xlink:href="#XMLID_27_"  style="overflow:visible;"/>
		</clipPath>
		<g style="clip-path:url(#XMLID_00000026857789033592722320000010675174586894786709_);">
			
				<linearGradient id="SVGID_1_" gradientUnits="userSpaceOnUse" x1="878.3052" y1="298.1912" x2="1266.2745" y2="298.1912" gradientTransform="matrix(-1 0 0 1 1190.2767 0)">
				<stop  offset="0" style="stop-color:#38B0EF"/>
				<stop  offset="4.422938e-03" style="stop-color:#3AAEEB"/>
				<stop  offset="2.560000e-02" style="stop-color:#43A4E0"/>
				<stop  offset="5.530000e-02" style="stop-color:#48A0D9"/>
				<stop  offset="0.1379" style="stop-color:#499FD7"/>
				<stop  offset="0.1394" style="stop-color:#6A85B3"/>
				<stop  offset="0.1412" style="stop-color:#896A8C"/>
				<stop  offset="0.1431" style="stop-color:#A8526E"/>
				<stop  offset="0.1452" style="stop-color:#C03E53"/>
				<stop  offset="0.1475" style="stop-color:#D2303E"/>
				<stop  offset="0.15" style="stop-color:#E0242F"/>
				<stop  offset="0.1531" style="stop-color:#E81E27"/>
				<stop  offset="0.1579" style="stop-color:#EA1C24"/>
				<stop  offset="0.2926" style="stop-color:#E71C28"/>
				<stop  offset="0.4191" style="stop-color:#DD1C32"/>
				<stop  offset="0.5425" style="stop-color:#CD1B47"/>
				<stop  offset="0.6638" style="stop-color:#B51B61"/>
				<stop  offset="0.7827" style="stop-color:#981B82"/>
				<stop  offset="0.881" style="stop-color:#7C1AA2"/>
				<stop  offset="0.8921" style="stop-color:#7F1AA1"/>
				<stop  offset="0.8962" style="stop-color:#831A9A"/>
				<stop  offset="0.8986" style="stop-color:#8B1A91"/>
				<stop  offset="1" style="stop-color:#6F1AB4"/>
			</linearGradient>
			<ellipse class="st1" cx="47.4" cy="298.2" rx="194" ry="209.8"/>
			
				<linearGradient id="SVGID_00000062904227472104943390000003504393917183982751_" gradientUnits="userSpaceOnUse" x1="12.2064" y1="-91.281" x2="71.7294" y2="78.4733" gradientTransform="matrix(-1 0 0 1 1190.2767 0)">
				<stop  offset="0" style="stop-color:#38B0EF"/>
				<stop  offset="4.422938e-03" style="stop-color:#3AAEEB"/>
				<stop  offset="2.560000e-02" style="stop-color:#43A4E0"/>
				<stop  offset="5.530000e-02" style="stop-color:#48A0D9"/>
				<stop  offset="0.1379" style="stop-color:#499FD7"/>
				<stop  offset="0.1394" style="stop-color:#6A85B3"/>
				<stop  offset="0.1412" style="stop-color:#896A8C"/>
				<stop  offset="0.1431" style="stop-color:#A8526E"/>
				<stop  offset="0.1452" style="stop-color:#C03E53"/>
				<stop  offset="0.1475" style="stop-color:#D2303E"/>
				<stop  offset="0.15" style="stop-color:#E0242F"/>
				<stop  offset="0.1531" style="stop-color:#E81E27"/>
				<stop  offset="0.1579" style="stop-color:#EA1C24"/>
				<stop  offset="0.2926" style="stop-color:#E71C28"/>
				<stop  offset="0.4191" style="stop-color:#DD1C32"/>
				<stop  offset="0.5425" style="stop-color:#CD1B47"/>
				<stop  offset="0.6638" style="stop-color:#B51B61"/>
				<stop  offset="0.7827" style="stop-color:#981B82"/>
				<stop  offset="0.881" style="stop-color:#7C1AA2"/>
				<stop  offset="0.8921" style="stop-color:#7F1AA1"/>
				<stop  offset="0.8962" style="stop-color:#831A9A"/>
				<stop  offset="0.8986" style="stop-color:#8B1A91"/>
				<stop  offset="1" style="stop-color:#6F1AB4"/>
			</linearGradient>
			
				<ellipse style="fill:url(#SVGID_00000062904227472104943390000003504393917183982751_);" cx="1149" cy="-8.4" rx="83.4" ry="90.2"/>
			<ellipse class="st3" cx="-32.7" cy="75.6" rx="155.8" ry="168.5"/>
			<ellipse class="st3" cx="1266.1" cy="390.4" rx="114.2" ry="123.4"/>
			<g>
				<defs>
					
						<rect id="SVGID_00000059291135756298043970000010158246186861568939_" x="1247.7" y="361.1" transform="matrix(-1 -1.224647e-16 1.224647e-16 -1 2566.1218 798.6682)" width="70.8" height="76.5"/>
				</defs>
				<clipPath id="SVGID_00000154409691535889863100000016383588432394785158_">
					<use xlink:href="#SVGID_00000059291135756298043970000010158246186861568939_"  style="overflow:visible;"/>
				</clipPath>
				<g style="clip-path:url(#SVGID_00000154409691535889863100000016383588432394785158_);">
					<polygon class="st5" points="1206.4,392.8 1289.1,482.2 1288.9,482.4 1206.3,393 					"/>
					<polygon class="st5" points="1210.4,388.6 1293,477.9 1292.8,478.1 1210.2,388.8 					"/>
					<polygon class="st5" points="1214.3,384.3 1296.9,473.7 1296.8,473.9 1214.1,384.5 					"/>
					<polygon class="st5" points="1218.2,380.1 1300.9,469.4 1300.7,469.6 1218.1,380.3 					"/>
					<polygon class="st5" points="1222.2,375.8 1304.8,465.2 1304.6,465.4 1222,376 					"/>
					<polygon class="st5" points="1226.1,371.6 1308.7,460.9 1308.6,461.1 1225.9,371.7 					"/>
					<polygon class="st5" points="1230,367.3 1312.7,456.7 1312.5,456.9 1229.9,367.5 					"/>
					<polygon class="st5" points="1234,363.1 1316.6,452.4 1316.4,452.6 1233.8,363.2 					"/>
					<polygon class="st5" points="1237.9,358.8 1320.5,448.2 1320.4,448.4 1237.7,359 					"/>
					<polygon class="st5" points="1241.8,354.6 1324.5,443.9 1324.3,444.1 1241.7,354.7 					"/>
					<polygon class="st5" points="1245.8,350.3 1328.4,439.7 1328.2,439.9 1245.6,350.5 					"/>
					<polygon class="st5" points="1249.7,346.1 1332.3,435.4 1332.2,435.6 1249.5,346.2 					"/>
					<polygon class="st5" points="1253.6,341.8 1336.3,431.2 1336.1,431.4 1253.5,342 					"/>
					<polygon class="st5" points="1257.6,337.6 1340.2,426.9 1340,427.1 1257.4,337.7 					"/>
					<polygon class="st5" points="1261.5,333.3 1344.1,422.7 1344,422.8 1261.3,333.5 					"/>
					<polygon class="st5" points="1265.4,329.1 1348.1,418.4 1347.9,418.6 1265.3,329.2 					"/>
					<polygon class="st5" points="1269.3,324.8 1352,414.2 1351.8,414.3 1269.2,325 					"/>
					<polygon class="st5" points="1273.3,320.5 1355.9,409.9 1355.8,410.1 1273.1,320.7 					"/>
					<polygon class="st5" points="1277.2,316.3 1359.9,405.7 1359.7,405.8 1277,316.5 					"/>
				</g>
			</g>
		</g>
	</g>
	<g>
		<defs>
			
				<rect id="SVGID_00000122688067756466442230000001877914363621824655_" x="827.1" y="139.5" transform="matrix(-1 -1.224647e-16 1.224647e-16 -1 1697.5132 325.8983)" width="43.3" height="46.9"/>
		</defs>
		<clipPath id="SVGID_00000110460606679078568180000007545708107435600567_">
			<use xlink:href="#SVGID_00000122688067756466442230000001877914363621824655_"  style="overflow:visible;"/>
		</clipPath>
		<g style="clip-path:url(#SVGID_00000110460606679078568180000007545708107435600567_);">
			<polygon class="st5" points="772.1,156.4 854.8,245.8 854.6,246 772,156.6 			"/>
			<polygon class="st5" points="776.1,152.2 858.7,241.6 858.5,241.7 775.9,152.4 			"/>
			<polygon class="st5" points="780,147.9 862.6,237.3 862.5,237.5 779.8,148.1 			"/>
			<polygon class="st5" points="783.9,143.7 866.6,233.1 866.4,233.2 783.8,143.9 			"/>
			<polygon class="st5" points="787.9,139.4 870.5,228.8 870.3,229 787.7,139.6 			"/>
			<polygon class="st5" points="791.8,135.2 874.4,224.6 874.3,224.7 791.6,135.4 			"/>
			<polygon class="st5" points="795.7,130.9 878.4,220.3 878.2,220.5 795.6,131.1 			"/>
			<polygon class="st5" points="799.7,126.7 882.3,216 882.1,216.2 799.5,126.9 			"/>
			<polygon class="st5" points="803.6,122.4 886.2,211.8 886.1,212 803.4,122.6 			"/>
			<polygon class="st5" points="807.5,118.2 890.2,207.5 890,207.7 807.4,118.4 			"/>
			<polygon class="st5" points="811.5,113.9 894.1,203.3 893.9,203.5 811.3,114.1 			"/>
			<polygon class="st5" points="815.4,109.7 898,199 897.9,199.2 815.2,109.9 			"/>
			<polygon class="st5" points="819.3,105.4 902,194.8 901.8,195 819.2,105.6 			"/>
			<polygon class="st5" points="823.2,101.2 905.9,190.5 905.7,190.7 823.1,101.3 			"/>
			<polygon class="st5" points="827.2,96.9 909.8,186.3 909.7,186.5 827,97.1 			"/>
			<polygon class="st5" points="831.1,92.7 913.8,182 913.6,182.2 830.9,92.8 			"/>
			<polygon class="st5" points="835,88.4 917.7,177.8 917.5,178 834.9,88.6 			"/>
			<polygon class="st5" points="839,84.2 921.6,173.5 921.5,173.7 838.8,84.3 			"/>
			<polygon class="st5" points="842.9,79.9 925.5,169.3 925.4,169.5 842.7,80.1 			"/>
		</g>
	</g>
	<g>
		<defs>
			
				<rect id="SVGID_00000005238861857883834940000008199318966879082395_" x="48.8" y="290.8" transform="matrix(-1 -1.224647e-16 1.224647e-16 -1 168.465 658.1012)" width="70.8" height="76.5"/>
		</defs>
		<clipPath id="SVGID_00000029737275149878870300000003152325811195518901_">
			<use xlink:href="#SVGID_00000005238861857883834940000008199318966879082395_"  style="overflow:visible;"/>
		</clipPath>
		<g style="clip-path:url(#SVGID_00000029737275149878870300000003152325811195518901_);">
			<polygon class="st5" points="7.6,322.5 90.2,411.9 90.1,412.1 7.4,322.7 			"/>
			<polygon class="st5" points="11.5,318.3 94.2,407.7 94,407.8 11.4,318.5 			"/>
			<polygon class="st5" points="15.5,314 98.1,403.4 97.9,403.6 15.3,314.2 			"/>
			<polygon class="st5" points="19.4,309.8 102,399.2 101.9,399.3 19.2,310 			"/>
			<polygon class="st5" points="23.3,305.5 106,394.9 105.8,395.1 23.2,305.7 			"/>
			<polygon class="st5" points="27.3,301.3 109.9,390.7 109.7,390.8 27.1,301.5 			"/>
			<polygon class="st5" points="31.2,297 113.8,386.4 113.7,386.6 31,297.2 			"/>
			<polygon class="st5" points="35.1,292.8 117.8,382.1 117.6,382.3 35,293 			"/>
			<polygon class="st5" points="39.1,288.5 121.7,377.9 121.5,378.1 38.9,288.7 			"/>
			<polygon class="st5" points="43,284.3 125.6,373.6 125.5,373.8 42.8,284.5 			"/>
			<polygon class="st5" points="46.9,280 129.6,369.4 129.4,369.6 46.8,280.2 			"/>
			<polygon class="st5" points="50.9,275.8 133.5,365.1 133.3,365.3 50.7,276 			"/>
			<polygon class="st5" points="54.8,271.5 137.4,360.9 137.3,361.1 54.6,271.7 			"/>
			<polygon class="st5" points="58.7,267.3 141.4,356.6 141.2,356.8 58.6,267.4 			"/>
			<polygon class="st5" points="62.7,263 145.3,352.4 145.1,352.6 62.5,263.2 			"/>
			<polygon class="st5" points="66.6,258.8 149.2,348.1 149.1,348.3 66.4,258.9 			"/>
			<polygon class="st5" points="70.5,254.5 153.2,343.9 153,344.1 70.4,254.7 			"/>
			<polygon class="st5" points="74.5,250.3 157.1,339.6 156.9,339.8 74.3,250.4 			"/>
			<polygon class="st5" points="78.4,246 161,335.4 160.9,335.6 78.2,246.2 			"/>
		</g>
	</g>
</g>
<g>
	<path class="st8" d="M1240.6,110.4c-1.1-0.5-2.4-1.4-3.6-1.3c-0.9,0.1-1.1,0.6-1.8,0.9c-1.5,0.7-3.5,0.6-5.1,1
		c-1.8,0.5-3.6,0.8-5.5,0.8c-2,0.1-3.9,0.1-4.6,2.3c-1.1,0.2-2.3,0.9-3.3,1.5c-1.6,1-1.4,1.5-1.6,3.2c-0.3,1.9-1.2,3.6-0.8,5.7
		c0.6,2.9,2.9,5.3,3.3,8.4c0.2,1.5,0.2,3.2,0.7,4.6c0.9,2.7-0.5,5.2-0.8,8c-0.2,1.4-0.5,3.3,0,4.6c0.4,1,0.9,1.3,1,2.5
		c0.1,1.7-0.4,3.5-0.5,5.2c-0.2,3,0.1,6.1-0.7,9.1c-0.7,2.7-1.2,5.2-1.6,8.1c-0.2,1.2-1.2,3.8-0.8,4.9c0.3,0.9,2.1,2,3,2.5
		c1.3,0.8,3.3,0.9,4.5,1.7c0.9,0.7,1.1,2.6,1.5,3.2c-1.9,2.2-3.7,4.2-6,6.1c-1.6,1.3-2.8,2.4-3.2,4.5c-0.3,1.3-0.4,2.7,0,4
		c0.5,1.4,1.8,2.4,1.9,3.9c0.1,1.8-1.2,3.7-1.6,5.4c-0.4,1.8-0.7,3.8-0.7,5.7c0,2,0.1,3.9,0.3,5.8c0.2,1.9,0.6,2.3,1.8,3.8
		c1.5,1.9,2.6,4,4,6c1.2,1.6,1.9,3.4,3,5.1c0,2.3-0.4,4.9-1.3,7c-0.5,1.1-0.7,1-0.5,2.1c0.4,2,2.1,2.4,2.3,4.4c0.5,3.9,0,8.1-0.2,12
		c-0.1,1.7-0.6,3.9,0.2,5.4c0.7,1.4,1.3,3.6,1.3,5.2c0.1,1.9-0.2,3.9-0.3,5.8c-0.2,4.1-0.3,7.7,1.2,11.6c1.2,3,2.7,5.8,4,8.7
		c0.8,1.9,0.7,4,0.6,6.2c-0.1,2.8-0.6,5.6,0.6,8.3c1.1,2.4,1.8,2.5,0.6,4.8c-2,3.6,2.9,6.1,0.6,9.5c-1.8,2.5-7,4-6.7,7.7
		c-0.2-0.1-0.3-0.1-0.5-0.1c1.7,2.1,3.2,5,4.8,7.2c0.8,1.2,1.9,2.2,2.3,3.6c0.3,0.9,0.1,1.8,0.8,2.5c0.7,0.7,1.7,0.5,2.6,0.6
		c1.3,0.2,1.1,0.4,2.3,1.1c1,0.6,2.5,0.3,3.6,0.5c1.3,0.3,2.5,0.9,3.7,1.6c1.5,0.8,2.2,1,3.9,1c1.7,0,1.6,0.3,2.8,1.3
		c2.1,1.6,4.2,0.9,6.6,1.4c1.9,0.4,2.7,2.1,4.7,2.3c6.4,0.7,13-0.9,19.4-0.6c1.8,0.1,3.3-0.4,5-0.8c1.5-0.4,1.9,0.1,3.2,0.3
		c1.3,0.2,3.5-0.6,4.6-1.3c1.2-0.9,1.4-2.1,1.6-3.6c0.2-1.4,1.9-2.4,2.5-3.6c0.6-1.1,0.5-2.2,0.4-3.5c-0.1-2.3-0.3-4.7-0.5-7.1
		c-0.1-1.5-0.6-3.3-0.1-4.8c-0.4-1.5,2.9-4.5,3-6.5c0.1-1.5-0.6-3-0.7-4.5c-0.1-1.6,0-3.1-0.1-4.7c-0.6-6.7-0.9-13.6-0.9-20.4
		c0-1.9,0.4-5.2-0.3-6.9c0.5-1.5,3.1-1.6,3.9-2.8c0.7-1,0.6-2.2,0.5-3.5c-0.5-4.6-1.5-9.2-1.7-13.8c-0.3-8.2-1.3-16.6-0.5-24.8
		c0.2-2.5,0.7-5,0.8-7.4c0.1-1.5,0.7-3.8,0.2-5.1c-1-2.5,1.8-4.5,1.8-6.8c0-1-0.7-1.9-0.6-3c0.1-1.2,0.8-2,1.5-3
		c2-2.8,1.8-4.2,0.5-7.4c-1.6-4.4-3.1-8.8-4.5-13.2c-0.8-2.4-0.9-7.2-2.2-9c-1.6-2.1,2.7-4.6,4-6.1c1.5-1.8,1-4.3,0.6-6.6
		c-0.6-4.3-2.6-8.6-3.1-12.9c-0.3-2.4,0.4-6.8-1-8.8c-2.7-4,0.7-10.6,1.2-15.3c0.1-1.1,0.4-3-1-3.3c2.2-2.1-0.4-3.4-1-5
		c-0.4-1,0.3-2.5,0-3.5c-0.3-1.1-1.5-2.3-2.3-3c-2.3-1.9,0-6.2-2.6-7.6c-0.1-2.2,0.5-4.9-1-6.6c-0.8-0.9-2.1-1.4-3-2.4
		c-0.8-0.9-1.1-1.8-2.2-2.5c-2-1.3-5.8-2-7.9-1.2c-1.6,0.6-2.9,1.5-4.6,2.1c-2.6,0.8-5.4,1.2-8.1,1.5c-6.1,0.5-12.2,0.8-18.4,0.8
		C1247,111.5,1242,112.3,1240.6,110.4z"/>
	<path class="st9" d="M1238.8,92.7c1.8,0.5,3.1,2.1,3.8,3.9c0.7,1.7,0.8,3.6,0.8,5.5c0,1.6,0,3.2-0.8,4.6c-0.5,0.7-1.1,1.3-1.8,1.9
		c-1.7,1.3-3.5,2.3-5.5,2.9c1.6,1.5,3.2,3.1,4.8,4.6c0.9,0.9,1.9,1.8,3.1,2.3c1.6,0.8,3.5,0.8,5.3,0.5c4.5-0.7,8.4-3.2,12.6-4.8
		c4.2-1.6,9.3-2.3,13,0.4c2.6,1.9,4.6,5.5,7.8,5.4c1.7-0.1,3.2-1.3,4.1-2.7c0.9-1.3,1.4-3,0.9-4.6c-0.6-1.8-2.4-2.9-4.2-3.4
		c-2.8-0.8-5.8-0.5-8.7-0.3c-2.9,0.2-5.9,0.1-8.5-1.2c-2.6-1.3-4.5-4.4-3.6-7.2c1.3-0.3,1.9-1.9,2.1-3.2c0.2-1.3,0.2-2.7,0.9-3.8
		c1-1.5,3.2-2.3,3.2-4.1c0-0.6-0.4-1.2-0.5-1.9c-0.2-1.3,0.4-2.5,0.8-3.8c1.1-3.4,0-7.1-1.1-10.5c-0.6-1.7-1.1-3.5-2.1-5
		c-0.6-1-1.5-2-2.3-2.9c-1.8-1.9-3.9-3.6-6.4-4.6s-5.3-1.3-7.8-0.2c-1.5,0.6-2.9,1.7-4.5,2c-1,0.2-2.1,0-3.1,0.3
		c-0.8,0.3-1.5,0.9-2.2,1.5c-1.2,1.2-2.4,2.4-3.7,3.5c-1.5,1.4-3,3.2-2.5,5.2c0.2,0.8,0.8,1.5,1.1,2.4c1.1,3-2.5,6.4-1.2,9.4
		c0.4,0.9,1.3,1.6,1.8,2.4c0.6,1,0.8,2.2,1.4,3.2C1236.4,91.5,1237.7,93,1238.8,92.7z"/>
	<path class="st8" d="M1167,93.2c1,0.7,2.3,1.5,3.5,1.8c1.4-2.9,2.6-6,4.5-8.7c1.3-2,2.6-4,3.5-6.1c0.5-1.1,1-2.8,1.7-3.7
		c0.5-0.5,1-0.3,1.3-1.1c0.2-0.6-0.3-1.6-0.5-1.7c1.3-0.3,1.6-1.7,2.1-2.8c0.9-2.1,2.4-3.8,3.7-5.6c1-1.4,2-3,2.9-4.5
		c0.4-0.6,0.6-1.7,1.1-2.3c0.4-0.5,1-0.3,1.5-0.7c0.9-0.7,1.1-1.5,1.4-2.7c0.5-2.3,1.7-4.3,1.1-6.7c-2.1-0.1-4.1-0.4-6-0.6
		c-0.1,1.8,0.3,2.5,0.9,3.8c0.8,1.8-0.5,3.2-1.7,4.7c-3,3.5-4.8,7.6-7.9,11c-1.4,1.6-3.2,3.4-3.7,5.4c-0.7,2.7-2.7,4.4-3.9,6.9
		C1170.5,83.8,1170.1,90.2,1167,93.2z"/>
	<path class="st9" d="M1218,136.7c-0.5-0.4-1.2-0.3-1.9-0.1c-9.4,1.8-19.1,2.2-28.6,1.2c-2-0.2-4.6-0.2-5.9-1.7
		c-3.1-3.7-4.2-8.6-4.9-13.3c-0.9-6-1.4-12.1-1.4-18.3c-0.1-6-0.4-10.1-1.8-13.3c-0.2-0.4-0.4-0.8-0.5-1.2c0-0.4,0.1-0.8,0.3-1.1
		c1.7-4.5,4.2-8.8,7.2-12.6c0.1-0.2,0.3-0.4,0.4-0.6c0.1-0.3,0.1-0.7,0-1.1c-0.2-0.8-0.3-1.6-0.5-2.5c-0.1-0.6-0.1-1.4,0.5-1.5
		c0.5-0.1,0.9,0.4,1.1,0.9c0.6,1.3,1.2,2.5,1.8,3.8c0.3,0.5,0.5,1.1,0.6,1.7c0.1,0.5,0.1,1,0.1,1.5c0,2,0.5,4,0.1,5.9
		c-0.3,1.5-0.9,2.8-1.1,4.3c-0.4,2.5,0.1,5.1,0.6,7.6c2,9.4,4.3,18.5,8.4,27.1c3.5,0.1,7,0.1,10.4-0.7c1.2-0.3,2.3-0.7,3.5-1.1
		c3.1-1.1,6.1-2.1,9.2-3.2c-0.4,2.4-0.8,5.5-0.2,7.8c0.3,1,0.7,1.9,1,2.9C1217.3,131.5,1217.9,134.1,1218,136.7z"/>
	<path class="st9" d="M1166.9,77.2c-0.3-0.5-0.5-1.2-0.1-1.7s1.2-0.5,1.8-0.3c0.4,0.1,1,0.3,1,0.7c0,0.2-0.1,0.4-0.1,0.5
		c0,0.2,0.1,0.3,0.2,0.4c0.4,0.4,0.7,0.9,1.1,1.3s0.8,0.9,1.4,0.8c0-0.6-0.3-1.2-0.6-1.8c-0.5-0.9-0.9-1.9-1.4-2.8
		c-0.1-0.2-0.2-0.4-0.2-0.7c0-0.4,0.4-0.6,0.8-0.6s0.7,0.2,1.1,0.3c0.3,0.2,0.7,0.4,0.7,0.7c0,0.2,0,0.4,0,0.6s0.2,0.4,0.3,0.5
		c0.5,0.5,1,1,1.6,1.3c-0.3-0.8-0.6-1.6-0.8-2.5c-0.1-0.4-0.2-0.9-0.1-1.3s0.4-0.8,0.8-1c0.4-0.1,0.9,0.1,1.2,0.5
		c0.3,0.4,0.4,0.8,0.5,1.3s0.2,0.9,0.3,1.4c0.1,0.4,0.1,0.9-0.2,1.1c-0.2,0.1-0.5,0.1-0.7,0.2c-0.3,0.1-0.4,0.3-0.6,0.5
		c-0.9,1-1.5,2.3-2.1,3.5c-0.4,0.8-1.9,3.9-1.9,3.9s-0.7-1.4-1-2c-0.4-0.9-1-1.7-1.6-2.5C1168.1,79.1,1166.9,77.8,1166.9,77.2z"/>
	<path class="st10" d="M1176.6,69.3c-0.1-0.1-0.1-0.3-0.1-0.4c0-0.4,0.4-0.6,0.8-0.7c0.2-0.1,0.3-0.1,0.5-0.1c0.3,0,0.6,0.2,0.9,0.4
		c0.2,0.2,0.4,0.3,0.6,0.5s0.4,0.4,0.5,0.6s0.1,0.5,0,0.7c-0.2,0.4-0.7,0.5-1.1,0.4c-0.2,0-0.5-0.1-0.8-0.1
		c-0.6,0.1-0.4,0.4-0.8-0.2C1176.9,70.1,1176.8,69.6,1176.6,69.3z"/>
	<path class="st9" d="M1289.6,149.8c1.4-1.8,3.2-3.2,4.9-4.7c1.8-1.4,3.6-2.9,5.4-4.3c2.1-1.7,4.3-3.4,5.9-5.6c1.4-1.9,2.4-4,3.6-6
		s2.8-3.8,5-4.7c0.8-0.3,1.6-0.5,2.5-0.4c0.6,0.1,1.2,0.4,1.7,0.8c1,0.7,1.9,1.5,2.7,2.4c0.4,0.5,0.7,1,0.5,1.6
		c-0.3,0.8-1.4,0.9-2.2,0.5c-0.8-0.3-1.5-0.9-2.4-0.9c-1.3,3.7-2.6,7.7-3.5,11.5c-1.3,5.7-2.3,11.8-6.1,16.3
		c-1.9,2.2-4.3,3.8-6.7,5.3c-2.1,1.4-4.4,2.8-7,2.7c-1.2-0.1-2.3-0.5-3.5-0.9c-0.4-0.1-0.8-0.3-1.1-0.6c-0.4-0.3-0.6-0.7-0.9-1.1
		C1287.3,160.1,1288.2,151.6,1289.6,149.8z"/>
	<path class="st9" d="M1327.4,130.2c-0.1-1.1-0.7-2.1-1.4-3c-0.8-1.1-1.7-2.1-2.8-3c-0.3-0.3-0.7-0.5-1.1-0.6
		c-0.9-0.1-1.5,1.1-1.3,2s0.9,1.6,1.6,2.3c1.2,1.3,2.2,3,2,4.7c-1.8-0.9-3.4-2.2-5.2-3.3c-0.9-0.5-1.8-1-2.8-1.3
		c-1.6-0.5-2.8,1.6-1.7,2.8l0,0c-0.1,0-0.2,0-0.2-0.1c-2-0.5-3.5,2.1-1.9,3.5c0.5,0.5,1.1,0.9,1.6,1.3c1.8,1.3,3.8,2.7,4.1,4.9
		c-1.6-1.2-3.3-2.5-4.9-3.7l0,0c-1-0.7-2.3,0.5-1.6,1.5c0.9,1.4,2,2.7,3.2,3.8c-0.2,0.2-0.4,0.4-0.6,0.6c0.1,0.1,0.2,0.2,0.2,0.2
		c0.2,0.1,0.4,0.3,0.6,0.4c0.3,0.2,0.7,0.5,0.9,0.8l0.1,0.1c1.2,0.2,2.4,0.5,3.6,0.4c0.2,0,0.3-0.1,0.4-0.2c0.1-0.1,0.2-0.3,0.2-0.4
		c0.1-0.5,0.1-1.1-0.1-1.6c-0.1-0.2-0.2-0.3-0.2-0.5c-0.1-0.5,0.3-0.9,0.6-1.2c0.5-0.7,0.8-1.6,0.6-2.5c1.6,0,3.2-1.5,3.4-3.1
		c0.1-0.4,0-0.9,0.3-1.3c0.3-0.6,1.1-0.8,1.6-1.1C1327.2,132.3,1327.5,131.2,1327.4,130.2z"/>
	<path class="st8" d="M1311.3,131.4c-4.4,3.7-7.4,8.6-11.7,12.4c-1.5,1.3-1.8,2.3,0.4,3c0.1,0.8-0.8,1.6-0.3,2.3
		c0.5,0.8,1.3,0.2,1.9,0c0.1,1.4-0.3,3.8,1.7,2.4c0.8,1.1,0.6,1.7,2.3,1.5c0.8-0.1,0.7,0.1,1.2-0.9c0.9-1.6,1.6-2.8,2.4-4.3
		c-0.7,2-1.6,4.2-1.9,6.3c0.2,0.1,0.5,0.3,0.7,0.3c1.7-3.8,5.4-7.1,8.5-9.8c-0.5-0.1-1.2-0.6-1.6-1c-0.5-0.6-0.2-0.7-0.2-1.3
		c-1.9-2.2-4.4-4-2-5.2c1,0.4,0.5,0.3,1.4,0.8c1.4,0.8,2.4,1.9,3.8,2.6c0.5-2.2-3.5-4.3-4.7-5.6c-0.6-0.6-1.8-2.2-1.3-3.1
		c0.6-1,2.7,1,3.5,1.5c1.2,0.7,2.6,1.3,3.9,1.8c0.1-0.6-2.6-2.2-3.2-2.8c-0.7-0.8-1.8-1.8-1.6-3c0.3-1.9,3.4,0.1,4.4,0.4
		c1.6,0.6,4,2.8,5.3,3.7c2.2-3-2.4-4.7-3-6.9c-0.2-0.8-0.1-2.5,1.1-2.3c0.5,0.1,1.6,1.3,1.9,1.6c0.6,0.5,1.8,1.8,1.8,1.8
		c2.1-1.8,5.6-3.2,8.2-4.1c1.6-0.5,3.2-1.1,4.8-1.6c0.3-0.1,2.1-0.4,2.3-0.9c0.2-0.5-0.7-1.2-1-1.4c-0.9-0.7-2.4-0.6-3.2-1.4
		c-1.6-1.6,4.4-3.1,4.5-4.8c0-0.8-1.4-2.4-2.1-2.7c-0.7-0.3-1.8,0.2-2.6,0.2c-0.1-0.9-2-1.7-2.8-1.9c0.2-0.7,1.3-2.6,0.9-3.2
		c-0.2-0.3-1.9-0.6-2.3-0.6c-1.6,0.2-3.2,2.1-4.7,2.6c-1.2,0.4-2.1-0.8-3.4-0.5c-1.2,0.3-2.9,2.5-3.7,3.4c-1.3,1.4-2.6,3.2-3.5,5
		c-0.1,0.1-0.5,1-0.4,1.1c0.1,0.4,0.8,0.4,1,0.7c0.5,0.9-0.4,1.8-0.8,2.5c-0.5,0.9-1,1.8-1.6,2.7c-0.4,0.5-0.8,1-0.8,1.7
		C1316.3,124.8,1311.6,129.8,1311.3,131.4z"/>
	<path class="st9" d="M1227.8,334.9c-1.9,0.5-3.7,2.2-5.4,3.1c-1.5,0.7-3,1.7-4.2,2.8c-0.6,0.6-1.3,1.5-1.7,2.3
		c-0.3,0.5-0.2,0.9-0.4,1.4c-0.2,0.4-0.5,0.5-0.7,0.8c-0.6,0.7-0.8,1.5,0.1,2.1c-0.1-0.5-0.2-1.1-0.7-1.3c-0.1,0.8-0.4,1.5-0.4,2.2
		c0,1.4,1,1.8,2.3,2.4c1.4,0.7,2.5,0.5,4.1,0.5c2.4,0,4.7-0.1,7.1-0.4c1.5-0.2,3.4-0.2,4.7-0.9c0-1.4,0.6-2.7,0.7-4.1
		c0-1.3-0.2-3-0.7-4.2s-1-2.5-1.6-3.6C1230.3,336.6,1228.9,335.7,1227.8,334.9z"/>
	<path class="st9" d="M1265.3,320.4c-0.3,0.7,0.1,1.5,0.1,2.2c0.1,1.6,0,3.3,0,4.9c0.1,2.8,0.3,5.6,0.3,8.4c0,3.5,0.4,6.9,0.4,10.4
		c0,3.4,0.4,6.8-0.1,10.2c-0.3,1.8-1,5,0.3,6.3c2.7,2.7,6.4,2.8,9.9,1.9c1.7-0.4,4.3-0.6,5.7-1.7c1-0.8,1.3-2.1,1.6-3.2
		c0.3-1.4,0.2-2.8-0.5-3.9c-0.8-1.3-1.5-2.5-2.6-3.7c-0.6-0.7-1.4-1.1-1.8-1.9c-0.3-0.7-0.4-1.5-0.6-2.3c-0.2-1.3-0.2-2.6-0.2-3.9
		c0-2.7,0.6-5.2,0.4-7.9c-0.2-2.6,0-5.1,0.3-7.7c0.5-4.9,1.8-9.6,2.2-14.4c-2.6,0.2-5.5,1.7-8.1,2.5
		C1270.7,317.2,1266.2,318.2,1265.3,320.4z"/>
	<g>
		<path class="st11" d="M1237,77.3c0.7-0.8,1.6-1.5,2.5-2c0.8-0.5,2.2-1.4,3-0.7c0.7,0.6,0.6,1.8,0.6,2.6c0,1.3,0,2.5,0,3.8
			c0,0.9,0.1,2,1,2.4c0.3,0.1,0.5-0.3,0.3-0.4c-1-0.4-0.7-1.9-0.7-2.8c0-1.3,0-2.6,0-3.9c0-0.8-0.2-1.8-1-2.3
			c-1-0.6-2.2,0.1-3.1,0.5c-1.1,0.6-2.2,1.3-3,2.3C1236.4,77.2,1236.7,77.6,1237,77.3L1237,77.3z"/>
	</g>
	<g>
		<path class="st11" d="M1245.9,82.5c0.3,0,0.6,0.1,0.8,0.1c0.2,0,0.5,0.1,0.8,0.1s0.4-0.3,0.5-0.5s0.2-0.4,0.2-0.7
			c0.1-0.4,0.2-1-0.2-1.4c-0.4-0.3-0.9-0.5-1.3-0.6c-0.1,0-0.3,0-0.3,0.2c0,0.1,0,0.3,0.2,0.3c0.4,0.1,0.8,0.2,1.1,0.4
			c0.1,0.1,0.2,0.2,0.2,0.4c0,0.2-0.1,0.4-0.1,0.6s-0.1,0.4-0.2,0.6c0,0,0,0.2-0.1,0.2c0,0-0.1,0-0.2,0c-0.4,0-0.9-0.1-1.3-0.1
			c-0.1,0-0.2,0.1-0.2,0.2C1245.6,82.4,1245.7,82.5,1245.9,82.5L1245.9,82.5z"/>
	</g>
	<g>
		<path class="st11" d="M1246,80.2c0.2-2.1-0.5-4.3,0.5-6.3c0.4-0.8,1.1-1.4,2-1.5c0.6-0.1,1.2,0.1,1.7,0.2c0.6,0.2,1.2,0.3,1.8,0.5
			c1.3,0.4,2.6,0.8,3.9,1.2c0.3,0.1,0.4-0.4,0.1-0.5c-1.3-0.4-2.5-0.7-3.8-1.1c-1.2-0.3-2.4-0.9-3.7-0.8c-2,0.1-3,2.2-3.1,4
			c-0.1,1.4,0.2,2.9,0,4.3C1245.4,80.5,1245.9,80.5,1246,80.2L1246,80.2z"/>
	</g>
	<g>
		<path class="st11" d="M1249.2,75.5c0.3-0.5,1-0.6,1.6-0.5c0.8,0.1,1.5,0.4,2.1,0.9c0-0.2,0-0.3,0.1-0.5c-0.7,0.2-1.4,0.3-2,0.5
			c-0.3,0.1-0.7,0.2-1,0.2c-0.1,0-0.5,0.1-0.6,0c-0.2-0.3-0.6,0-0.4,0.3c0.4,0.6,1.2,0.3,1.8,0.1c0.8-0.2,1.6-0.4,2.4-0.6
			c0.2-0.1,0.2-0.3,0.1-0.5c-0.7-0.5-1.6-0.9-2.4-0.9c-0.7,0-1.5,0.2-1.9,0.8C1248.6,75.6,1249,75.8,1249.2,75.5L1249.2,75.5z"/>
	</g>
	<g>
		<path class="st11" d="M1239.1,78.8c-0.1-0.6,0.3-1.3,0.9-1.5c0.7-0.4,1.6,0.1,2.3,0.4c0-0.1,0-0.3,0-0.4
			C1241.3,78,1240.2,78.5,1239.1,78.8c-0.4,0-0.3,0.4,0,0.4c1.2-0.2,2.4-0.7,3.5-1.4c0.1-0.1,0.2-0.3,0-0.4
			c-0.8-0.4-1.8-0.9-2.8-0.4c-0.7,0.3-1.2,1.2-1.1,2C1238.6,79.2,1239.1,79.2,1239.1,78.8L1239.1,78.8z"/>
	</g>
	<g>
		<path class="st11" d="M1248.4,74.8c1.3-1.3,3.4-1.2,4.7,0.1c0.2,0.2,0.6-0.1,0.4-0.4c-1.4-1.5-3.9-1.6-5.4-0.1
			C1247.8,74.7,1248.2,75,1248.4,74.8L1248.4,74.8z"/>
	</g>
	<g>
		<path class="st11" d="M1238.5,78.1c0.1-0.6,0.5-1.2,1.1-1.5c0.6-0.4,1.4-0.4,2.2-0.3c0.3,0.1,0.4-0.4,0.1-0.5
			c-0.9-0.2-1.8-0.1-2.6,0.3c-0.7,0.4-1.2,1.1-1.3,1.8c0,0.1,0,0.3,0.2,0.3C1238.3,78.3,1238.5,78.3,1238.5,78.1L1238.5,78.1z"/>
	</g>
	<g>
		<path class="st11" d="M1250,77.6c0.7,0.1,1.4,0.1,2.1-0.1c0.3-0.1,0.2-0.6-0.1-0.5c-0.6,0.1-1.2,0.2-1.8,0.1c-0.1,0-0.3,0-0.3,0.2
			C1249.8,77.4,1249.9,77.6,1250,77.6L1250,77.6z"/>
	</g>
	<g>
		<path class="st11" d="M1241.7,78.9C1241.7,78.9,1241.7,79,1241.7,78.9C1241.8,78.9,1241.7,78.9,1241.7,78.9
			C1241.7,79,1241.7,79,1241.7,78.9c-0.1,0.1-0.1,0.2-0.2,0.2c-0.1,0.1-0.1,0.1-0.2,0.2s-0.1,0.1-0.2,0.2c0.1,0,0,0,0,0s0,0-0.1,0
			l-0.1,0.1c-0.1,0.1-0.2,0.2-0.1,0.3c0.1,0.1,0.2,0.2,0.3,0.1c0.4-0.2,0.7-0.6,1-0.9c0,0,0-0.1,0-0.2s-0.1-0.1-0.1-0.1
			c-0.1,0-0.1,0-0.2,0C1241.8,78.8,1241.8,78.9,1241.7,78.9L1241.7,78.9z"/>
	</g>
	<g>
		<path class="st11" d="M1243.5,88c0.3-0.6,0.6-1.2,1-1.7c0.1-0.1,0.2-0.3,0.3-0.4c0.1-0.2,0.3-0.2,0.5-0.2c0.3,0,0.5,0,0.8-0.2
			s0.6-0.2,0.9-0.2c0.3,0.1,0.7,0.2,1,0.3c0.7,0.3,1.4,0.5,2.1,0.8c0-0.2,0-0.3,0-0.5c-0.7,0.1-1.5,0-2.2-0.1c-0.3,0-0.6,0-1,0.1
			c-0.3,0.1-0.6,0.3-0.9,0.3c-0.6,0-1.2,0-1.7,0.3s-0.9,0.8-1.2,1.2C1242.9,88,1243.3,88.2,1243.5,88c0.3-0.4,0.7-0.9,1.2-1.1
			c0.6-0.3,1.2,0,1.8-0.2c0.2-0.1,0.5-0.3,0.7-0.3c0.3-0.1,0.7,0,1.1,0.1c0.6,0.1,1.3,0.2,1.9,0.1c0.3,0,0.2-0.4,0-0.5
			c-0.8-0.3-1.5-0.6-2.3-0.9c-0.3-0.1-0.7-0.3-1.1-0.3s-0.6,0.1-1,0.2c-0.2,0.1-0.3,0.1-0.5,0.1s-0.3,0-0.5,0
			c-0.3,0.1-0.5,0.4-0.7,0.6c-0.5,0.6-0.9,1.3-1.2,2C1242.9,88,1243.3,88.3,1243.5,88L1243.5,88z"/>
	</g>
	<g>
		<path class="st11" d="M1244.9,88.9c0.3-0.2,0.6-0.3,0.9-0.4s0.6,0,0.9-0.1s0.5-0.3,0.9-0.3c0.3,0,0.7,0.1,1,0.1
			c0.3,0.1,0.4-0.4,0.1-0.5s-0.7-0.2-1.1-0.2c-0.2,0-0.4,0-0.5,0.1c-0.2,0.1-0.3,0.2-0.5,0.2c-0.3,0.1-0.7,0.1-1.1,0.1
			c-0.3,0.1-0.7,0.2-1,0.4C1244.4,88.7,1244.6,89.1,1244.9,88.9L1244.9,88.9z"/>
	</g>
	<g>
		<path class="st11" d="M1257.2,80.1c0,0.8-0.2,1.6-0.7,2.3c-0.1,0.1,0,0.3,0.1,0.3c0.1,0.1,0.3,0,0.3-0.1c0.5-0.8,0.8-1.7,0.8-2.6
			C1257.7,79.8,1257.2,79.8,1257.2,80.1L1257.2,80.1z"/>
	</g>
	<g>
		<path class="st11" d="M1237,74.6c-0.2,0.8-0.4,1.7-0.4,2.6c0,0.4,0.1,0.7,0.2,1.1s0.4,0.8,0.5,1.3c0.2,0.9-0.1,1.7-0.3,2.6
			c-0.1,0.8,0,1.6,0.2,2.4c0.6,2.3,0.9,4.8,1.7,7c0.4,1.1,1,2.1,1.9,2.8c0.3,0.2,0.5-0.3,0.3-0.4c-0.8-0.5-1.3-1.5-1.7-2.4
			c-0.4-1.1-0.7-2.2-0.9-3.3c-0.2-1.1-0.4-2.2-0.7-3.2c-0.2-0.8-0.4-1.6-0.4-2.4s0.3-1.6,0.4-2.4c0-0.9-0.6-1.7-0.7-2.6
			s0.1-1.9,0.3-2.8C1237.6,74.4,1237.1,74.3,1237,74.6L1237,74.6z"/>
	</g>
	<g>
		<path class="st11" d="M1260.2,87.5c-0.1,1.9-1.2,3.8-2.8,4.8c-0.3,0.2,0,0.6,0.3,0.4c1.8-1.1,2.9-3.1,3.1-5.2
			C1260.7,87.2,1260.2,87.2,1260.2,87.5L1260.2,87.5z"/>
	</g>
	<g>
		<path class="st11" d="M1245.8,93.3c1.2-0.3,2.4-0.4,3.6-0.4c0.3,0,0.3-0.5,0-0.5c-1.2,0-2.5,0.1-3.7,0.4
			C1245.3,92.9,1245.5,93.4,1245.8,93.3L1245.8,93.3z"/>
	</g>
	<g>
		<path class="st11" d="M1260.6,87.7c0.4,0.1,0.8,0.1,1.2-0.1c0.1-0.1,0.2-0.2,0.1-0.3c-0.1-0.1-0.2-0.1-0.3-0.1l0,0l0,0l0,0h-0.1
			h-0.1c0,0-0.1,0,0,0l0,0c-0.1,0-0.2,0-0.2,0s0,0-0.1,0l0,0l0,0h-0.1c-0.1,0-0.3,0-0.3,0.2C1260.4,87.5,1260.5,87.6,1260.6,87.7
			L1260.6,87.7z"/>
	</g>
	<g>
		<path class="st11" d="M1260.7,82.1c-0.1,0.3,0,0.6,0.1,0.8c0.1,0.2,0.3,0.5,0.3,0.8s-0.2,0.7-0.3,1c-0.1,0.3-0.1,0.7,0.1,0.9
			c0.1,0.1,0.3,0.2,0.4,0.1s0.2-0.2,0.3-0.3c0.2-0.2-0.1-0.6-0.4-0.4c-0.1,0.1-0.2,0.2-0.3,0.3c0.1,0,0.3,0,0.4,0.1
			c-0.2-0.2-0.1-0.5,0-0.8s0.3-0.6,0.3-1c0-0.3-0.2-0.5-0.3-0.8c-0.1-0.2-0.2-0.4-0.2-0.6C1261.3,81.9,1260.8,81.8,1260.7,82.1
			L1260.7,82.1z"/>
	</g>
	<g>
		<path class="st11" d="M1244.7,67.6c0.6,0.5,1.4,0.3,2.1-0.1c0.5-0.2,0.9-0.4,1.4-0.3s0.9,0.4,1.3,0.7c0.7,0.6,1.4,1.1,2.3,1.3
			c0.9,0.2,1.8,0.1,2.8,0.1c0.9,0,1.9,0.2,2.5,1c0.2,0.3,0.6,0,0.4-0.3c-1.1-1.4-3-1.2-4.5-1.2c-0.5,0-1,0-1.4-0.2
			c-0.5-0.2-0.9-0.4-1.3-0.8c-0.7-0.6-1.4-1.2-2.3-1.2c-0.5,0-0.9,0.2-1.4,0.5c-0.4,0.2-1,0.5-1.4,0.1
			C1244.8,67,1244.4,67.4,1244.7,67.6L1244.7,67.6z"/>
	</g>
	<g>
		<path class="st11" d="M1254.6,70.4c0.9,0.1,2,0.2,2.5,1.2c0.1,0.1,0.2,0.2,0.3,0.1c0.1-0.1,0.1-0.2,0.1-0.3
			c-0.5-1.1-1.8-1.3-2.9-1.4c-0.1,0-0.2,0.1-0.2,0.2C1254.3,70.3,1254.4,70.4,1254.6,70.4L1254.6,70.4z"/>
	</g>
	<g>
		<path class="st11" d="M1255.3,71.6c0.7,0.4,0.7,1.4,0.9,2.1c0.2,0.6,0.6,1.2,1.3,1.3c0.4,0,0.7-0.1,1-0.3c0.3-0.2,0.7-0.3,1.1-0.3
			c0.7,0,1.4,0.2,2,0.7c0.2,0.2,0.6-0.1,0.4-0.4c-0.5-0.5-1.1-0.7-1.8-0.8c-0.7-0.1-1.4,0.1-2,0.4c-0.4,0.2-0.8,0.2-1.1-0.2
			c-0.3-0.3-0.3-0.7-0.4-1.1c-0.1-0.7-0.3-1.4-1-1.8C1255.3,71,1255,71.5,1255.3,71.6L1255.3,71.6z"/>
	</g>
	<g>
		<path class="st11" d="M1259,76c0.9,0,1.8,0.4,2.4,1.1c0.1,0.1,0.2,0.2,0.3,0.1c0.1-0.1,0.2-0.2,0.1-0.3c-0.7-0.9-1.7-1.4-2.8-1.3
			C1258.7,75.5,1258.7,76,1259,76L1259,76z"/>
	</g>
	<g>
		<path class="st11" d="M1259.1,76.9c0.4,0.3,0.4,0.9,0.5,1.4s0.3,0.9,0.6,1.3c0.7,0.8,1.8,1.1,2.7,1.4c0.3,0.1,0.4-0.4,0.1-0.5
			c-1-0.3-2-0.6-2.6-1.4c-0.3-0.4-0.4-0.9-0.4-1.4c-0.1-0.5-0.2-0.9-0.6-1.2C1259.1,76.2,1258.8,76.7,1259.1,76.9L1259.1,76.9z"/>
	</g>
	<g>
		<path class="st11" d="M1259.9,80.4c0.6,0.8,1.5,1.3,2.6,1.3c0.3,0,0.3-0.5,0-0.5c-0.8,0-1.7-0.4-2.1-1.1c-0.1-0.1-0.2-0.2-0.3-0.1
			C1259.8,80.1,1259.8,80.3,1259.9,80.4L1259.9,80.4z"/>
	</g>
	<g>
		<path class="st11" d="M1243.4,67.4c-0.5,0-1-0.3-1.2-0.8c-0.3-0.6-0.3-1.3-0.2-1.9c0-0.1-0.1-0.2-0.2-0.2s-0.2,0.1-0.2,0.2
			c-0.1,0.7-0.1,1.6,0.3,2.2c0.3,0.6,0.9,1,1.6,1C1243.7,67.9,1243.7,67.4,1243.4,67.4L1243.4,67.4z"/>
	</g>
	<g>
		<path class="st11" d="M1242.4,67.9c-1,0.3-2-0.2-2.5-1.1c-0.4-0.8-0.4-2.2,0.5-2.6c0.3-0.1,0-0.6-0.3-0.4c-0.6,0.2-0.9,0.8-1,1.4
			s0,1.3,0.2,1.9c0.5,1.1,1.9,1.8,3.1,1.4C1242.8,68.3,1242.7,67.9,1242.4,67.9L1242.4,67.9z"/>
	</g>
	<g>
		<path class="st11" d="M1239.5,69.2c-0.1,0-0.3,0-0.4,0s-0.1,0-0.2,0h-0.1c0,0-0.1,0,0,0l0,0c-0.1,0-0.1,0-0.2,0l0,0l0,0l0,0h-0.1
			c0,0,0,0-0.1,0l0,0l0,0l0,0l0,0l0,0l0,0c-0.1-0.1-0.2-0.2-0.3-0.1c-0.1,0.1-0.2,0.2-0.1,0.3c0.3,0.6,1.1,0.6,1.6,0.5
			c0.1,0,0.3-0.1,0.2-0.2C1239.7,69.4,1239.6,69.2,1239.5,69.2L1239.5,69.2z"/>
	</g>
	<g>
		<path class="st11" d="M1238.1,70.2c-0.8,0.2-1.4-0.7-1.6-1.2c-0.3-0.7-0.2-1.5,0.4-2c0.2-0.2-0.1-0.6-0.4-0.4
			c-0.8,0.6-0.9,1.8-0.5,2.6c0.3,0.8,1.2,1.8,2.2,1.5C1238.6,70.6,1238.4,70.1,1238.1,70.2L1238.1,70.2z"/>
	</g>
	<g>
		<path class="st11" d="M1237.4,71.6c-0.4,0.2-0.8,0.1-1.1-0.1c-0.4-0.2-0.7-0.5-1-0.8c-0.2-0.2-0.6,0.1-0.4,0.4
			c0.4,0.4,0.7,0.8,1.2,1s1.1,0.3,1.5,0C1237.9,71.9,1237.7,71.4,1237.4,71.6L1237.4,71.6z"/>
	</g>
	<g>
		<path class="st11" d="M1237.3,73L1237.3,73L1237.3,73c-0.1,0.1-0.2,0.1-0.3,0.2c0,0,0,0,0.1,0c-0.1,0-0.2,0.1-0.3,0.1
			c0,0,0,0,0.1,0h-0.1c-0.1,0-0.3,0.1-0.2,0.2c0,0.1,0.1,0.3,0.2,0.2c0.4,0,0.7-0.2,1-0.4c0.1-0.1,0.1-0.3,0-0.4
			C1237.6,72.9,1237.4,72.9,1237.3,73L1237.3,73z"/>
	</g>
	<g>
		<path class="st11" d="M1237.2,74.2L1237.2,74.2L1237.2,74.2C1237.2,74.2,1237.2,74.3,1237.2,74.2
			C1237.1,74.3,1237.1,74.3,1237.2,74.2c-0.1,0.1-0.1,0.1-0.1,0.2c0,0,0,0,0.1,0c0,0-0.1,0.1-0.2,0.1c0,0,0,0,0.1,0
			c-0.1,0-0.1,0-0.2,0c0,0,0,0,0.1,0h-0.1c-0.1,0-0.1,0-0.2,0.1c0,0-0.1,0.1-0.1,0.2s0,0.1,0.1,0.2c0.1,0,0.1,0.1,0.2,0.1
			c0.2,0,0.4,0,0.5-0.1c0.1,0,0.2-0.1,0.2-0.2c0.1-0.1,0.1-0.2,0.2-0.3c0-0.1,0-0.1,0-0.2s-0.1-0.1-0.1-0.1c-0.1,0-0.1,0-0.2,0
			c0,0,0,0-0.1,0C1237.2,74.2,1237.2,74.2,1237.2,74.2L1237.2,74.2z"/>
	</g>
	<g>
		<path class="st11" d="M1235,73.4L1235,73.4L1235,73.4C1234.8,73.4,1235,73.4,1235,73.4c-0.2,0-0.2,0-0.3-0.1c-0.1,0,0.1,0,0,0l0,0
			c0,0-0.1,0-0.1-0.1l0,0l0,0l0,0l-0.1-0.1l-0.1-0.1l0,0l0,0c0-0.1-0.1-0.1-0.1-0.2l0,0l0,0l0,0v-0.1l0,0l0,0l0,0v-0.1
			c0-0.1-0.1-0.3-0.2-0.2c-0.1,0-0.3,0.1-0.2,0.2c0,0.7,0.7,1.4,1.4,1.4c0.1,0,0.3-0.1,0.2-0.2C1235.2,73.5,1235.1,73.4,1235,73.4
			L1235,73.4z"/>
	</g>
	<g>
		<path class="st11" d="M1237,81.4c-0.2,0-0.4,0-0.5,0c0,0,0,0-0.1,0l0,0h-0.1c-0.1,0-0.2,0-0.2-0.1c0,0-0.1,0-0.1-0.1l0,0l0,0
			l-0.1-0.1l0,0c0-0.1,0,0,0,0s0-0.1-0.1-0.1c0,0,0-0.1,0,0l0,0c0,0,0,0,0-0.1c0,0,0-0.1,0,0v-0.1c0-0.1-0.1-0.3-0.2-0.2
			c-0.1,0-0.2,0.1-0.2,0.2c0,0.4,0.2,0.8,0.6,1s0.8,0.2,1.3,0.2c0.1,0,0.3-0.1,0.2-0.2C1237.2,81.5,1237.1,81.4,1237,81.4L1237,81.4
			z"/>
	</g>
	<g>
		<path class="st11" d="M1236.4,79.3c-0.1,0-0.2,0-0.3,0c0,0-0.1,0,0,0c0,0,0,0-0.1,0h-0.1h-0.1l0,0c0,0,0,0-0.1,0s-0.2-0.1-0.2-0.1
			l0,0c0,0,0,0-0.1,0l-0.1-0.1c0,0,0,0,0-0.1c-0.1-0.1,0,0,0,0l-0.1-0.1c0,0,0-0.1-0.1-0.1c0,0,0-0.1,0,0c0,0,0,0,0-0.1v-0.1
			c0,0,0,0,0-0.1c0,0,0-0.1,0,0c0-0.1-0.1-0.2-0.2-0.2s-0.3,0.1-0.2,0.2c0.1,0.5,0.3,0.9,0.7,1.2c0.4,0.3,0.8,0.5,1.3,0.4
			c0.1,0,0.2-0.1,0.2-0.2C1236.6,79.5,1236.5,79.3,1236.4,79.3L1236.4,79.3z"/>
	</g>
	<g>
		<path class="st11" d="M1233.1,82.6c-0.3,1.1,0,2.3,0.8,3.2c0.8,0.9,2,1.4,3.2,1.5c0.3,0,0.3-0.5,0-0.5c-1-0.1-2-0.6-2.8-1.3
			c-0.7-0.7-1-1.8-0.7-2.8C1233.6,82.4,1233.2,82.3,1233.1,82.6L1233.1,82.6z"/>
	</g>
	<g>
		<path class="st11" d="M1235.8,85.7c0.3,0.2,0.6,0.3,0.9,0.2c0.1,0,0.3-0.1,0.2-0.2c0-0.1-0.1-0.3-0.2-0.2c-0.1,0-0.1,0-0.2,0
			c0,0,0,0,0.1,0c-0.1,0-0.2,0-0.3-0.1c0,0,0,0,0.1,0c-0.1,0-0.1-0.1-0.2-0.1c-0.1-0.1-0.3,0-0.3,0.1
			C1235.7,85.4,1235.7,85.6,1235.8,85.7L1235.8,85.7z"/>
	</g>
	<g>
		<path class="st11" d="M1236.8,88.9c0.3,0.1,0.6,0.2,1,0.3c0.1,0,0.3,0,0.3-0.2c0-0.1,0-0.3-0.2-0.3c-0.3-0.1-0.6-0.2-1-0.3
			c-0.1,0-0.3,0-0.3,0.2C1236.6,88.7,1236.7,88.8,1236.8,88.9L1236.8,88.9z"/>
	</g>
	<g>
		<path class="st11" d="M1243.9,65.4c-0.3-0.6-0.3-1.4,0-2c0-0.1-0.1-0.3-0.2-0.3s-0.3,0-0.3,0.2c-0.3,0.8-0.2,1.7,0.1,2.4
			c0.1,0.1,0.2,0.2,0.3,0.1C1243.9,65.7,1244,65.5,1243.9,65.4L1243.9,65.4z"/>
	</g>
	<g>
		<path class="st11" d="M1247.6,65.1c0-0.1,0-0.1,0-0.2c0,0,0-0.1,0,0v-0.1c0-0.1,0-0.2,0-0.3c0,0,0,0,0-0.1v-0.1v-0.1
			c0,0,0,0,0-0.1s0.1-0.2,0.1-0.3s0-0.3-0.2-0.3c-0.1,0-0.3,0-0.3,0.2c-0.2,0.5-0.2,1-0.1,1.5c0,0.1,0.2,0.2,0.3,0.2
			C1247.6,65.3,1247.7,65.2,1247.6,65.1L1247.6,65.1z"/>
	</g>
	<g>
		<path class="st11" d="M1250.8,67.1c0.9-0.3,1.6-1,2-1.9c0.5-1,0.5-2.1,0.3-3.2c-0.1-0.3-0.5-0.2-0.5,0.1c0.4,1.7-0.1,3.8-1.9,4.5
			C1250.3,66.7,1250.5,67.2,1250.8,67.1L1250.8,67.1z"/>
	</g>
	<g>
		<path class="st11" d="M1250.8,64.6c0.4-0.6,0.5-1.5,0.2-2.2c0-0.1-0.2-0.2-0.3-0.2c-0.1,0-0.2,0.2-0.2,0.3
			c0.2,0.6,0.2,1.2-0.2,1.8C1250.2,64.7,1250.7,64.9,1250.8,64.6L1250.8,64.6z"/>
	</g>
	<g>
		<path class="st11" d="M1252.7,68.2c0.7,0,1.4-0.2,2-0.4c0.7-0.2,1.4-0.3,2.1-0.2c1.3,0.1,2.5,0.6,3.3,1.6c0.2,0.3,0.5-0.1,0.4-0.4
			c-0.8-1-2-1.6-3.3-1.8c-0.7-0.1-1.5,0-2.2,0.1c-0.8,0.2-1.5,0.5-2.4,0.5C1252.4,67.7,1252.4,68.2,1252.7,68.2L1252.7,68.2z"/>
	</g>
	<g>
		<path class="st11" d="M1255,66.4c0.7-0.2,1.3-0.6,1.8-1.1s1.1-1.1,1.4-1.7c0.2-0.3-0.3-0.5-0.4-0.3c-0.3,0.6-0.8,1.1-1.3,1.6
			c-0.5,0.4-1,0.9-1.6,1C1254.6,66,1254.7,66.5,1255,66.4L1255,66.4z"/>
	</g>
	<g>
		<path class="st11" d="M1259,65.4L1259,65.4C1259.1,65.3,1259.1,65.3,1259,65.4c0.1-0.1,0.2-0.2,0.3-0.2c0,0,0,0-0.1,0
			c0,0,0.1,0,0.2-0.1c0.1,0,0.1-0.1,0.1-0.1c0-0.1,0-0.1,0-0.2s-0.1-0.1-0.1-0.1c-0.1,0-0.1,0-0.2,0c-0.2,0.1-0.4,0.2-0.6,0.3
			c0,0-0.1,0.1-0.1,0.2s0,0.1,0.1,0.2c0,0,0.1,0.1,0.2,0.1C1258.9,65.4,1259,65.4,1259,65.4L1259,65.4z"/>
	</g>
	<g>
		<path class="st11" d="M1258.6,72c0.7,1.2,2.2,0.8,3.3,0.5c1.2-0.3,3.1-0.4,3.9,0.8c0.2,0.3,0.6,0,0.4-0.3
			c-0.7-1.1-2.1-1.3-3.3-1.2c-0.7,0.1-1.4,0.3-2.1,0.4c-0.6,0.1-1.3,0-1.7-0.5C1258.9,71.5,1258.4,71.7,1258.6,72L1258.6,72z"/>
	</g>
	<g>
		<path class="st11" d="M1261,71c0.6-0.3,1.3-0.3,1.9,0c0.1,0,0.3-0.1,0.3-0.2s0-0.3-0.2-0.3c-0.7-0.3-1.6-0.2-2.3,0.1
			c-0.1,0.1-0.2,0.2-0.1,0.3C1260.8,71,1260.9,71.1,1261,71L1261,71z"/>
	</g>
	<g>
		<path class="st11" d="M1262.9,77.8c0.7,0.6,1.7,0.9,2.6,0.7c0.9-0.2,1.6-0.7,2.1-1.5c0.2-0.3-0.3-0.5-0.4-0.3
			c-0.8,1.3-2.7,1.7-3.9,0.7C1263,77.3,1262.6,77.6,1262.9,77.8L1262.9,77.8z"/>
	</g>
	<g>
		<path class="st11" d="M1266.7,75.4c-0.4,0.6-1.1,0.9-1.8,1c-0.1,0-0.2,0.1-0.2,0.2s0.1,0.3,0.2,0.2c0.8-0.1,1.6-0.5,2.1-1.1
			c0.1-0.1,0.1-0.3,0-0.4C1266.9,75.3,1266.8,75.3,1266.7,75.4L1266.7,75.4z"/>
	</g>
	<g>
		<path class="st11" d="M1264.4,82.3c0.7,0.3,1.5,0.2,2.2-0.1c0.3-0.1,0.6-0.4,0.9-0.6c0.2-0.2,0.4-0.6,0.7-0.8
			c0.3-0.1,0.2-0.6-0.1-0.5c-0.4,0.1-0.6,0.4-0.8,0.7c-0.2,0.3-0.5,0.5-0.8,0.6c-0.6,0.3-1.3,0.4-2,0.1
			C1264.3,81.7,1264.1,82.2,1264.4,82.3L1264.4,82.3z"/>
	</g>
	<g>
		<path class="st11" d="M1263,86.3c0.8,0.5,1.7,0.9,2.7,0.9c0.8,0,1.6-0.3,2.1-1c0.2-0.3-0.2-0.5-0.4-0.3c-0.4,0.6-1.1,0.8-1.8,0.8
			c-0.8,0-1.6-0.4-2.3-0.9C1263,85.7,1262.7,86.1,1263,86.3L1263,86.3z"/>
	</g>
	<g>
		<path class="st11" d="M1262.8,84.8c0.8,0.3,1.6,0.7,2.5,0.6c0.7-0.1,1.4-0.4,1.9-1c0.2-0.3-0.2-0.5-0.4-0.3
			c-0.4,0.5-1,0.7-1.6,0.8c-0.7,0-1.5-0.2-2.2-0.5c-0.1-0.1-0.3,0-0.3,0.1C1262.6,84.6,1262.6,84.8,1262.8,84.8L1262.8,84.8z"/>
	</g>
	<g>
		<path class="st11" d="M1261.2,88c-0.1,4.5-0.1,8.9-0.2,13.4c0,0.3,0.5,0.3,0.5,0c0.1-4.5,0.1-8.9,0.2-13.4
			C1261.7,87.7,1261.2,87.7,1261.2,88L1261.2,88z"/>
	</g>
	<g>
		<path class="st11" d="M1261.1,87.7c0,0.5,0.6,0.8,1,1c0.5,0.2,1,0.4,1.5,0.4c1,0.1,2.1-0.1,3-0.7c0.3-0.2,0-0.6-0.3-0.4
			c-0.7,0.5-1.6,0.7-2.4,0.7c-0.4,0-0.8-0.1-1.2-0.2c-0.2-0.1-0.4-0.2-0.6-0.3c-0.2-0.1-0.5-0.3-0.5-0.5
			C1261.6,87.3,1261.1,87.3,1261.1,87.7L1261.1,87.7z"/>
	</g>
	<g>
		<path class="st11" d="M1266.3,89c-0.5,0.8-1.4,1.2-2.2,1.2c-0.3,0-0.3,0.5,0,0.5c1.1,0,2.1-0.5,2.7-1.4
			C1266.9,89,1266.4,88.7,1266.3,89L1266.3,89z"/>
	</g>
	<g>
		<path class="st11" d="M1261.6,94.2c0.5,0.6,1.4,0.9,2.1,0.4c0.1-0.1,0.2-0.2,0.1-0.3c-0.1-0.1-0.2-0.2-0.3-0.1c0,0-0.1,0-0.1,0.1
			c0,0,0,0-0.1,0c0,0-0.1,0,0,0c-0.1,0-0.1,0-0.2,0.1l0,0l0,0h-0.1h-0.1c0,0,0,0-0.1,0l0,0c-0.1,0-0.1,0-0.2-0.1c0,0,0,0-0.1,0l0,0
			c0,0-0.1,0-0.1-0.1c0,0-0.1,0-0.1-0.1l0,0c0,0,0,0-0.1,0c0,0,0,0-0.1-0.1l0,0l0,0c-0.1-0.1-0.2-0.2-0.3-0.1
			C1261.6,93.9,1261.5,94.1,1261.6,94.2L1261.6,94.2z"/>
	</g>
	<g>
		<path class="st11" d="M1262.8,96.3c0.1,0,0.1,0,0.2,0h0.1c0,0,0.1,0,0.1-0.1c0,0,0,0,0.1-0.1V96c0,0,0,0,0-0.1c0,0,0-0.1-0.1-0.1
			c0,0,0,0-0.1,0h-0.1c-0.1,0-0.1,0-0.2,0h-0.1c0,0-0.1,0-0.1,0.1c0,0,0,0-0.1,0.1v0.1c0,0,0,0,0,0.1c0,0,0,0.1,0.1,0.1
			C1262.6,96.3,1262.6,96.3,1262.8,96.3C1262.7,96.3,1262.8,96.3,1262.8,96.3L1262.8,96.3z"/>
	</g>
	<g>
		<path class="st11" d="M1248.3,99.3c2.7,0.4,5.5-0.2,7.8-1.7c0.3-0.2,0-0.6-0.3-0.4c-2.2,1.4-4.9,2-7.4,1.6
			C1248.2,98.8,1248,99.3,1248.3,99.3L1248.3,99.3z"/>
	</g>
	<g>
		<path class="st11" d="M1245.4,105.2c0.7,2.5,1.6,4.9,2.6,7.2c0.1,0.3,0.6,0.2,0.5-0.1c-1-2.4-1.8-4.8-2.6-7.2
			C1245.8,104.7,1245.3,104.8,1245.4,105.2L1245.4,105.2z"/>
	</g>
	<g>
		<path class="st11" d="M1258.6,102.8c-0.7,3.7-1.8,7.3-3.3,10.8c-0.1,0.3,0.3,0.5,0.4,0.3c1.5-3.5,2.6-7.1,3.3-10.9
			C1259.1,102.6,1258.7,102.5,1258.6,102.8L1258.6,102.8z"/>
	</g>
	<g>
		<path class="st11" d="M1190.5,123.9c-0.9,0.3-1.7,0.8-2.4,1.6c-0.1,0.1-0.1,0.3,0,0.4s0.3,0.1,0.4,0c0.6-0.7,1.3-1.2,2.1-1.4
			C1190.9,124.3,1190.8,123.8,1190.5,123.9L1190.5,123.9z"/>
	</g>
	<g>
		<path class="st11" d="M1180.5,75.8c-0.2,0.8,0.1,1.6,0.1,2.4c0,0.5-0.3,0.9-0.6,1.2c-0.3,0.3-0.5,0.7-0.8,1
			c-0.5,0.7-1.1,1.4-1.4,2.1c-0.4,0.8-0.6,1.7-0.6,2.6c0,1.1,0.2,2.2,0.4,3.2c0.1,0.3,0.5,0.2,0.5-0.1c-0.2-1.2-0.4-2.4-0.3-3.6
			s0.6-2.2,1.3-3.1c0.3-0.4,0.7-0.9,1-1.3s0.7-0.8,0.9-1.3c0.4-1-0.2-2,0-3C1181,75.6,1180.6,75.5,1180.5,75.8L1180.5,75.8z"/>
	</g>
	<g>
		<path class="st11" d="M1178.9,91.8c0.4,0,0.7,0,1.1,0.1c0.1,0,0.3-0.1,0.2-0.2c0-0.1-0.1-0.2-0.2-0.2c-0.4,0-0.7,0-1.1-0.1
			c-0.1,0-0.3,0.1-0.2,0.2C1178.6,91.7,1178.7,91.8,1178.9,91.8L1178.9,91.8z"/>
	</g>
	<g>
		<path class="st11" d="M1174.7,75.4c0.3,0.1,0.7,0.1,1.1-0.1c0.1-0.1,0.2-0.2,0.1-0.3c-0.1-0.1-0.2-0.2-0.3-0.1h-0.1c0,0-0.1,0,0,0
			l0,0c-0.1,0-0.1,0-0.2,0c0,0,0,0,0.1,0c-0.1,0-0.2,0-0.3,0c0,0,0,0,0.1,0c-0.1,0-0.2,0-0.2-0.1c-0.1,0-0.1,0-0.2,0
			s-0.1,0.1-0.1,0.1c0,0.1,0,0.1,0,0.2C1174.6,75.3,1174.7,75.4,1174.7,75.4L1174.7,75.4z"/>
	</g>
	<g>
		<path class="st11" d="M1167.9,77.8c0.6,0.1,1.2,0,1.7-0.4c0.1-0.1,0.2-0.2,0.1-0.3c-0.1-0.1-0.2-0.2-0.3-0.1
			c-0.1,0.1-0.2,0.1-0.3,0.2h-0.1h-0.1c-0.1,0-0.1,0-0.2,0.1c-0.1,0-0.1,0-0.2,0l0,0c0,0,0,0-0.1,0h-0.1c-0.1,0-0.1,0-0.2,0h-0.1
			h-0.1c-0.1,0-0.3,0-0.3,0.2C1167.7,77.7,1167.7,77.8,1167.9,77.8L1167.9,77.8z"/>
	</g>
	<g>
		<path class="st11" d="M1171.8,75.3c0.3-0.1,0.7-0.2,1-0.3c0.1,0,0.2-0.2,0.2-0.3c0-0.1-0.2-0.2-0.3-0.2c-0.3,0.1-0.7,0.2-1,0.3
			c-0.1,0-0.2,0.2-0.2,0.3C1171.5,75.2,1171.6,75.3,1171.8,75.3L1171.8,75.3z"/>
	</g>
	<g>
		<path class="st11" d="M1168.4,76.1c0.2-0.1,0.5-0.3,0.6-0.4s0.1-0.3,0-0.4s-0.2-0.1-0.4,0c0,0-0.1,0.1-0.2,0.1c0,0,0,0,0.1,0
			c-0.1,0.1-0.3,0.2-0.4,0.3c-0.1,0-0.1,0.1-0.1,0.1c0,0.1,0,0.1,0,0.2s0.1,0.1,0.1,0.1C1168.3,76.1,1168.4,76.1,1168.4,76.1
			L1168.4,76.1z"/>
	</g>
	<g>
		<path class="st11" d="M1177.4,69.8c0.2,0.1,0.5,0.2,0.7,0.3c0.1,0,0.1,0,0.2,0s0.1-0.1,0.1-0.1c0-0.1,0-0.1,0-0.2
			s-0.1-0.1-0.1-0.1c-0.2-0.1-0.5-0.2-0.7-0.3c-0.1,0-0.1,0-0.2,0s-0.1,0.1-0.1,0.1C1177.3,69.6,1177.3,69.6,1177.4,69.8
			C1177.3,69.7,1177.3,69.7,1177.4,69.8L1177.4,69.8z"/>
	</g>
	<g>
		<path class="st11" d="M1236.3,116.7c1.7,2.8,3.6,5.3,5.8,7.7c1,1.1,2.1,2.3,3.5,2.9c1.4,0.7,2.9,0.6,4.4,0c1.6-0.6,3-1.6,4.4-2.5
			s2.7-1.9,4-2.9c2.3-1.8,4.8-3.9,7.7-4.6c2.6-0.6,5.8,0.1,7.2,2.6c0.2,0.3,0.6,0,0.4-0.3c-1.2-2.1-3.7-3-6-3
			c-2.9,0.1-5.4,1.6-7.6,3.3c-1.3,1-2.5,2-3.8,2.9c-1.4,1-2.8,2-4.3,2.8c-1.4,0.8-3,1.7-4.7,1.5c-1.5-0.1-2.8-1.2-3.8-2.2
			c-2.6-2.6-4.9-5.5-6.7-8.6C1236.5,116.2,1236.1,116.4,1236.3,116.7L1236.3,116.7z"/>
	</g>
	<g>
		<path class="st11" d="M1244.6,121.6c1,1,2.5,1.4,4,1.4c1.7-0.1,3.3-0.8,4.8-1.5c1.7-0.8,3.5-1.7,5.2-2.5s3.3-1.6,5-2.4
			c1.6-0.7,3.4-1.3,5.1-1.3c1.6,0,3,0.7,4.2,1.7c2.4,2.3,3,5.7,3.5,8.9c0.5,3.5,1,7.4,3.7,10c0.2,0.2,0.6-0.1,0.4-0.4
			c-2.4-2.3-3-5.7-3.5-8.8c-0.5-3.2-0.9-6.6-3-9.2c-0.9-1.1-2.1-2-3.5-2.4c-1.6-0.5-3.3-0.3-4.9,0.2c-1.7,0.5-3.3,1.3-4.9,2.1
			c-1.7,0.8-3.4,1.7-5.1,2.5c-0.9,0.5-1.9,0.9-2.8,1.4c-0.9,0.4-1.8,0.8-2.8,1.1c-1.7,0.4-3.6,0.3-4.9-1
			C1244.7,121.1,1244.4,121.4,1244.6,121.6L1244.6,121.6z"/>
	</g>
	<g>
		<path class="st11" d="M1276.3,120.6c0.6,2.2,2.9,3.9,5.2,3.6c0.3,0,0.3-0.5,0-0.5c-2.1,0.2-4.2-1.2-4.7-3.2
			C1276.7,120.1,1276.2,120.3,1276.3,120.6L1276.3,120.6z"/>
	</g>
	<g>
		<path class="st11" d="M1284.8,120.1c-0.7,2.7-2.7,4.9-5.2,6.1c-0.3,0.1,0,0.6,0.3,0.4c2.6-1.2,4.6-3.6,5.4-6.4
			C1285.4,119.9,1284.9,119.8,1284.8,120.1L1284.8,120.1z"/>
	</g>
	<g>
		<path class="st11" d="M1282.7,126.7c-0.4,0.9-1.1,1.6-1.9,2c-0.1,0.1-0.2,0.2-0.1,0.3s0.2,0.1,0.3,0.1c1-0.5,1.8-1.3,2.2-2.3
			c0.1-0.1-0.1-0.3-0.2-0.3S1282.8,126.6,1282.7,126.7L1282.7,126.7z"/>
	</g>
	<g>
		<path class="st11" d="M1289.5,115.9c-0.8,4.9-2.5,9.7-5.1,14c-0.7,1.2-1.5,2.3-2,3.6c-0.1,0.3,0.4,0.4,0.5,0.1
			c0.4-1.2,1.1-2.2,1.8-3.3c0.7-1.1,1.3-2.1,1.8-3.3c1.1-2.2,2-4.5,2.6-6.9c0.4-1.4,0.7-2.7,0.9-4.1
			C1290,115.8,1289.6,115.6,1289.5,115.9L1289.5,115.9z"/>
	</g>
	<g>
		<path class="st11" d="M1286.8,132.4c-0.4,2.1-1,4.2-1.8,6.2c-0.4,1-0.8,2-1.3,3c-0.4,0.8-0.9,1.6-1.7,2.1c-0.3,0.2,0,0.6,0.3,0.4
			c0.8-0.4,1.3-1.2,1.7-2c0.5-1,0.9-2,1.3-3c0.8-2.1,1.5-4.3,1.9-6.5C1287.3,132.2,1286.8,132.1,1286.8,132.4L1286.8,132.4z"/>
	</g>
	<g>
		<path class="st11" d="M1240.4,125.8c3.4,3.6,6,8.9,11.2,9.9c1.3,0.3,2.7,0.2,4-0.3c0.3-0.1,0.2-0.6-0.1-0.5
			c-2.3,1-4.9,0.4-6.9-0.9c-2-1.3-3.6-3.2-5.1-5.1c-0.9-1.2-1.8-2.3-2.8-3.4C1240.5,125.2,1240.2,125.6,1240.4,125.8L1240.4,125.8z"
			/>
	</g>
	<g>
		<path class="st11" d="M1244.9,133.6c1.3,3.1,4.3,5.3,7.7,5.5c0.3,0,0.3-0.5,0-0.5c-3.1-0.2-6-2.2-7.2-5.1
			C1245.3,133.1,1244.8,133.3,1244.9,133.6L1244.9,133.6z"/>
	</g>
	<g>
		<path class="st11" d="M1261.1,124.6c0.5,4.8-0.3,9.6-0.3,14.5c0,2.3,0.2,4.7,0.7,7c0.6,2.2,1.5,4.3,2.7,6.2
			c1.3,2.2,2.9,4.2,4.4,6.2c0.2,0.3,0.6-0.1,0.4-0.4c-2.7-3.5-5.6-7.1-6.8-11.4c-1.3-4.6-0.9-9.4-0.6-14c0.2-2.7,0.3-5.4,0-8
			C1261.6,124.3,1261.1,124.3,1261.1,124.6L1261.1,124.6z"/>
	</g>
	<g>
		<path class="st11" d="M1265.1,139.7c-0.4,3.6,0.6,7.3,2.7,10.2c0.2,0.3,0.6,0,0.4-0.3c-2.1-2.8-3.1-6.4-2.7-9.9
			C1265.6,139.4,1265.1,139.4,1265.1,139.7L1265.1,139.7z"/>
	</g>
	<g>
		<path class="st11" d="M1220.1,117.8c0.5,4.2,0.9,8.4,1.7,12.6c0.4,2.1,0.8,4.1,1.4,6.2c0.6,2,1.3,4,1.9,6c0.6,2.1,0.6,4.3,0.5,6.5
			s-0.3,4.4-0.4,6.6c-0.3,4.5-0.6,8.9-0.8,13.4c-0.1,1.1-0.1,2.2-0.2,3.3c0,0.6-0.1,1.1-0.1,1.7c0,0.5,0,1.1-0.2,1.5
			s-0.6,0.6-1.1,0.8s-1,0.4-1.5,0.6c-1,0.4-2,0.8-3,1.2c-0.5,0.2-1,0.4-1.6,0.6c-0.3,0.1-0.2,0.6,0.1,0.5c2.1-0.8,4.1-1.6,6.2-2.4
			c0.4-0.2,0.8-0.3,1-0.7c0.3-0.3,0.4-0.7,0.4-1.1c0.1-1.1,0.1-2.2,0.2-3.3c0.3-4.5,0.6-9,0.8-13.5c0.1-2.3,0.3-4.5,0.4-6.8
			c0.1-2.2,0.4-4.5,0.1-6.7c-0.3-2.1-1.1-4.1-1.7-6.1c-0.7-2-1.2-4.1-1.6-6.2c-0.9-4.3-1.4-8.6-1.9-12.9c-0.1-0.5-0.1-1.1-0.2-1.6
			C1220.5,117.4,1220,117.4,1220.1,117.8L1220.1,117.8z"/>
	</g>
	<g>
		<path class="st11" d="M1222.4,140.9c0.3,4.2,0.4,8.4,0.2,12.6c-0.2,4.2-0.7,8.4-1.4,12.6c-0.4,2.3-0.9,4.6-1.5,6.9
			c-0.1,0.3,0.4,0.4,0.5,0.1c1-4.1,1.8-8.2,2.3-12.4s0.8-8.5,0.7-12.7c0-2.4-0.1-4.8-0.3-7.1
			C1222.9,140.6,1222.4,140.6,1222.4,140.9L1222.4,140.9z"/>
	</g>
	<g>
		<path class="st11" d="M1219.6,158c-0.2,2.4-0.6,4.7-1.4,7c-0.1,0.3,0.4,0.4,0.5,0.1c0.8-2.3,1.2-4.7,1.4-7.1
			C1220.1,157.7,1219.6,157.7,1219.6,158L1219.6,158z"/>
	</g>
	<g>
		<path class="st11" d="M1226.1,114.8c0.4,7.3,1.5,14.5,3,21.6c0.8,3.6,1.8,7.1,2.7,10.6c0.9,3.5,1.7,7,1.8,10.6
			c0.1,4.2-0.7,8.4-1.5,12.5c-0.1,0.3,0.4,0.4,0.5,0.1c0.7-3.6,1.4-7.3,1.5-11c0.1-3.6-0.5-7.2-1.4-10.7s-1.9-7-2.8-10.5
			c-0.8-3.6-1.5-7.2-2.1-10.8c-0.6-4.1-1.1-8.2-1.3-12.3C1226.5,114.5,1226,114.5,1226.1,114.8L1226.1,114.8z"/>
	</g>
	<g>
		<path class="st11" d="M1236.5,155.2c0.3,3.7,0.6,7.3,0.6,11c0,1.8-0.2,3.6-0.3,5.4c-0.1,1.7-0.1,3.3,0.2,5c0.3,1.8,1,3.5,1.9,5.1
			c0.2,0.3,0.6,0,0.4-0.3c-0.8-1.4-1.4-3-1.8-4.6s-0.4-3.3-0.3-4.9c0.1-1.8,0.3-3.5,0.3-5.3s0-3.6-0.1-5.4c-0.1-2-0.3-4-0.5-6.1
			C1237,154.9,1236.5,154.9,1236.5,155.2L1236.5,155.2z"/>
	</g>
	<g>
		<path class="st11" d="M1233.2,179.5c0.3,1.3,0.5,2.6,0.8,3.9c0.1,0.3,0.5,0.2,0.5-0.1c-0.3-1.3-0.5-2.6-0.8-3.9
			C1233.7,179.1,1233.2,179.2,1233.2,179.5L1233.2,179.5z"/>
	</g>
	<g>
		<path class="st11" d="M1229.6,186.8c5.4-1.2,10.8-2.4,16.1-4c5.2-1.6,10.4-3.5,15.2-6.2c2.7-1.5,5.2-3.2,7.6-5.1
			c0.2-0.2-0.1-0.6-0.4-0.4c-4.2,3.4-9,6.1-14.1,8.2c-5,2.1-10.3,3.6-15.6,4.9c-3,0.7-6,1.4-9,2.1
			C1229.2,186.4,1229.3,186.8,1229.6,186.8L1229.6,186.8z"/>
	</g>
	<g>
		<path class="st11" d="M1266.3,175.2c-3,3.5-7.2,5.6-11.4,7.4c-4.8,2.1-9.7,4-14.7,5.7c-2.8,1-5.6,1.9-8.5,2.7
			c-0.3,0.1-0.2,0.6,0.1,0.5c5.1-1.5,10.2-3.2,15.2-5.2c2.5-0.9,4.9-1.9,7.4-3c2.1-0.9,4.3-1.9,6.3-3.1c2.2-1.3,4.3-2.8,6-4.8
			C1266.8,175.3,1266.5,174.9,1266.3,175.2L1266.3,175.2z"/>
	</g>
	<g>
		<path class="st11" d="M1217.8,196.9c3.7-1.7,7.8-2.8,11.8-3.2c1.2-0.1,2.3-0.2,3.5-0.2c-0.1-0.1-0.2-0.2-0.2-0.3
			c-0.4,1.5-2.2,2.1-3.6,2.5c-2,0.6-3.9,1.2-5.9,1.7c-1.2,0.3-2.3,0.6-3.5,0.8c-0.3,0.1-0.2,0.5,0.1,0.5c2.1-0.5,4.3-1,6.4-1.6
			c1.1-0.3,2.1-0.6,3.2-1c0.8-0.2,1.5-0.5,2.2-0.9s1.3-1.1,1.5-1.9c0-0.2-0.1-0.3-0.2-0.3c-4.2,0.1-8.4,0.8-12.3,2.2
			c-1.1,0.4-2.2,0.8-3.3,1.3C1217.3,196.6,1217.5,197,1217.8,196.9L1217.8,196.9z"/>
	</g>
	<g>
		<path class="st11" d="M1236.2,193.9c4.7,1.3,9.8,0.9,14.4-1c1.3-0.5,2.5-1.2,3.7-2c0.3-0.2,0-0.6-0.3-0.4c-4,2.7-8.8,4-13.6,3.6
			c-1.4-0.1-2.7-0.3-4-0.7C1236,193.3,1235.9,193.8,1236.2,193.9L1236.2,193.9z"/>
	</g>
	<g>
		<path class="st11" d="M1267,181c-2.7,6-8.2,10.4-13.6,14c-5.7,3.7-12,6.6-18.8,7.5c-3.7,0.5-7.6,0.4-11.3-0.6
			c-0.3-0.1-0.4,0.4-0.1,0.5c6.7,1.7,13.7,0.7,20.1-1.7c3.2-1.2,6.3-2.8,9.3-4.6c2.9-1.8,5.6-3.8,8.2-6c2.7-2.5,5.2-5.4,6.7-8.8
			C1267.6,180.9,1267.1,180.7,1267,181L1267,181z"/>
	</g>
	<g>
		<path class="st11" d="M1258.7,195c-3.1,2.7-6.6,4.8-10.3,6.4c-3.8,1.6-7.8,2.7-11.9,3.1c-2.3,0.2-4.6,0.3-6.8,0.1
			c-0.3,0-0.3,0.5,0,0.5c4.1,0.3,8.3-0.1,12.3-1.1s7.9-2.5,11.4-4.7c2-1.2,3.9-2.6,5.7-4.1C1259.3,195.2,1258.9,194.8,1258.7,195
			L1258.7,195z"/>
	</g>
	<g>
		<path class="st11" d="M1218.8,203c2.3,4,5.8,7.2,9.9,9.1c4.4,2.1,9.3,2.6,14,1.6c2.7-0.6,5.4-1.6,7.7-3.2c0.3-0.2,0-0.6-0.3-0.4
			c-4.1,2.7-9,3.9-13.9,3.5c-4.5-0.4-8.9-2.2-12.4-5.2c-1.9-1.6-3.5-3.6-4.8-5.7C1219.1,202.5,1218.7,202.8,1218.8,203L1218.8,203z"
			/>
	</g>
	<g>
		<path class="st11" d="M1273.2,189c-0.8,3.3-2.1,6.5-3.7,9.5s-3.6,5.8-6,8.2c-2.4,2.5-5.1,4.8-8.1,6.6c-3.1,1.9-6.5,3.4-10,4.3
			c-3.5,1-7.1,1.5-10.7,1.5c-0.5,0-0.9,0-1.4,0c-0.3,0-0.3,0.5,0,0.5c3.7,0.1,7.4-0.3,11-1.2s7-2.3,10.2-4.1
			c3.1-1.7,5.9-3.9,8.4-6.4c2.4-2.4,4.6-5.2,6.3-8.1c1.7-3,3.1-6.2,4.1-9.5c0.1-0.4,0.2-0.8,0.3-1.2
			C1273.7,188.8,1273.2,188.7,1273.2,189L1273.2,189z"/>
	</g>
	<g>
		<path class="st11" d="M1271.8,199.3c-1.2,5.5-3.7,10.6-7.2,15c-3.6,4.4-8.2,7.8-13.4,10c-3,1.2-6.1,2.1-9.3,2.5
			c-0.3,0-0.3,0.5,0,0.5c5.7-0.7,11.3-2.9,16-6.2s8.5-7.6,11.1-12.7c1.5-2.8,2.6-5.8,3.2-8.9
			C1272.4,199.1,1271.9,198.9,1271.8,199.3L1271.8,199.3z"/>
	</g>
	<g>
		<path class="st11" d="M1218.6,209.6c1.3,2.3,2.3,4.8,3.1,7.3c0.4,1.3,0.7,2.5,1,3.8c0.1,0.6,0.3,1.2,0.3,1.8
			c0,0.4-0.1,0.9-0.5,1.1c-0.4,0.1-0.7-0.2-0.9-0.4c-0.3-0.3-0.5-0.5-0.7-0.8c-0.4-0.6-0.8-1.2-1.1-1.9c-0.1-0.3-0.6,0-0.4,0.3
			c0.3,0.7,0.7,1.3,1.1,1.9c0.4,0.5,0.8,1.1,1.4,1.4c0.5,0.2,1,0.1,1.3-0.3c0.3-0.4,0.3-0.9,0.3-1.4c0-0.7-0.2-1.3-0.4-1.9
			c-0.2-0.7-0.3-1.4-0.5-2.1c-0.4-1.5-0.9-2.9-1.5-4.3c-0.6-1.6-1.4-3.1-2.2-4.6C1218.8,209,1218.4,209.3,1218.6,209.6L1218.6,209.6
			z"/>
	</g>
	<g>
		<path class="st11" d="M1228.9,222.9c2.7,3.5,6.4,6.1,10.5,7.8c4,1.7,8.6,2.8,13,2.3c2.4-0.3,4.8-1,6.8-2.4c0.3-0.2,0-0.6-0.3-0.4
			c-3.6,2.5-8.2,2.9-12.5,2.2c-4.2-0.7-8.4-2.4-11.9-4.8c-2-1.4-3.8-3.1-5.3-5C1229.1,222.3,1228.7,222.6,1228.9,222.9L1228.9,222.9
			z"/>
	</g>
	<g>
		<path class="st11" d="M1255.2,235.7c-2.2,2-4.9,3.4-7.8,3.9c-0.3,0.1-0.2,0.5,0.1,0.5c3-0.5,5.8-2,8.1-4
			C1255.8,235.8,1255.5,235.4,1255.2,235.7L1255.2,235.7z"/>
	</g>
	<g>
		<path class="st11" d="M1269.1,212.7c-1.5,5.8-3.4,11.5-5.5,17.1c-1.1,2.8-2.3,5.6-3.6,8.3c-1.3,2.7-2.6,5.3-4,8
			c-1.4,2.8-2.6,5.9-2.1,9.1c0,0.3,0.5,0.2,0.5-0.1c-0.4-2.9,0.6-5.8,1.9-8.3c1.3-2.7,2.7-5.2,3.9-7.9c2.5-5.4,4.7-10.9,6.6-16.5
			c1-3.2,2-6.4,2.8-9.6C1269.6,212.5,1269.1,212.4,1269.1,212.7L1269.1,212.7z"/>
	</g>
	<g>
		<path class="st11" d="M1259.5,259.2c2.1-1.4,4.2-2.7,6.3-4.1c1.7-1.1,3.3-2.1,4.8-3.4c1.4-1.2,2.7-2.6,3.4-4.3
			c0.4-0.8,0.6-1.7,0.7-2.5c0.1-1,0-2-0.6-2.8s-1.6-1.1-2.4-1.5c-0.7-0.4-1.4-1-2-1.6c-1.2-1.3-2-2.9-2.3-4.6
			c-0.3-1.7-0.2-3.6,0.6-5.2c0.5-1,1.1-1.7,2.1-2.1c0.9-0.4,2-0.5,3-0.6c0.8-0.1,1.7-0.1,2.5,0.1c0.8,0.1,1.6,0.4,2.1,0.9
			c0.6,0.7,0.6,1.7,0.2,2.5c-0.5,0.9-1.5,1.5-2.5,1.8c-0.5,0.2-1,0.3-1.5,0.4c0.1,0.1,0.2,0.1,0.3,0.2c-0.2-1.8-0.1-3.6,0.3-5.4
			c0.1-0.3-0.4-0.4-0.5-0.1c-0.5,1.8-0.6,3.7-0.3,5.6c0,0.1,0.2,0.2,0.3,0.2c1.9-0.4,4.4-1.2,4.7-3.5c0.1-0.8-0.2-1.6-0.8-2.2
			c-0.6-0.5-1.4-0.8-2.2-0.9c-0.9-0.1-1.7-0.1-2.6-0.1c-1,0.1-2.1,0.2-3,0.5c-1,0.4-1.7,1-2.3,1.9c-0.5,0.8-0.8,1.7-0.9,2.7
			c-0.6,3.5,0.9,7.3,3.8,9.4c0.4,0.3,0.7,0.5,1.1,0.7c0.5,0.2,0.9,0.4,1.3,0.7c1,0.7,1.1,1.8,1.1,2.9c-0.2,1.9-1.2,3.6-2.4,5
			c-1.3,1.5-3,2.7-4.6,3.8c-2.1,1.4-4.2,2.7-6.3,4.1c-0.6,0.4-1.1,0.7-1.7,1.1C1259,259,1259.2,259.4,1259.5,259.2L1259.5,259.2z"/>
	</g>
	<g>
		<path class="st11" d="M1276.3,231.9c1.8-0.5,3.5-1.4,4.8-2.7c0.4-0.3,0.7-0.7,1-1s0.7-0.7,0.8-1.1c0.1-0.4-0.1-0.7-0.5-0.9
			s-0.8-0.4-1.1-0.6c-0.6-0.4-1.3-1.2-0.7-1.9c0.5-0.5,1.4-0.6,2.1-0.7c1.7-0.2,3.3-0.8,4.7-1.8c1.6-1.2,2.8-2.7,3.4-4.6
			c0.1-0.3-0.4-0.4-0.5-0.1c-1.1,3.3-4.2,5.6-7.6,6c-0.7,0.1-1.5,0.2-2.1,0.5c-0.6,0.4-0.9,1-0.7,1.7c0.2,0.7,0.9,1.2,1.6,1.6
			c0.2,0.1,0.3,0.2,0.5,0.2c0.3,0.1,0.5,0.2,0.3,0.5c-0.2,0.4-0.6,0.8-0.9,1.1c-1.4,1.5-3.3,2.6-5.3,3.2
			C1275.8,231.5,1276,232,1276.3,231.9L1276.3,231.9z"/>
	</g>
	<g>
		<path class="st11" d="M1282.9,225.8c-0.1-0.8-0.3-1.5-0.4-2.3c0-0.1-0.2-0.2-0.3-0.2c-0.1,0-0.2,0.2-0.2,0.3
			c0.1,0.8,0.3,1.5,0.4,2.3c0,0.1,0.2,0.2,0.3,0.2C1282.8,226,1282.9,225.9,1282.9,225.8L1282.9,225.8z"/>
	</g>
	<g>
		<path class="st11" d="M1285.6,161.4c0,5.9-3,11.2-6.1,16c-2.9,4.6-5.9,9.3-9.7,13.2c-2.1,2.2-4.4,4.1-7.1,5.6
			c-0.3,0.2,0,0.6,0.3,0.4c4.8-2.6,8.5-6.8,11.7-11.2c1.7-2.3,3.2-4.6,4.7-7c1.6-2.5,3.2-5,4.4-7.7c1.4-3,2.3-6.1,2.3-9.4
			C1286.1,161.1,1285.6,161.1,1285.6,161.4L1285.6,161.4z"/>
	</g>
	<g>
		<path class="st11" d="M1267.7,187.5c2.2-3.1,4.1-6.4,5.8-9.8c1.7-3.4,3.2-6.9,4.7-10.4c0.8-2,1.6-4,2.4-6c-0.2,0-0.3,0-0.5,0
			c0.9,5.7-0.7,11.7-4.1,16.4c-1,1.3-2.1,2.5-3.3,3.6c-0.2,0.2,0.1,0.6,0.4,0.4c4.5-3.9,7.3-9.5,7.8-15.4c0.1-1.7,0.1-3.4-0.2-5
			c0-0.3-0.4-0.2-0.5,0c-1.4,3.5-2.8,7.1-4.4,10.5c-1.5,3.5-3.2,6.9-5.1,10.2c-1.1,1.8-2.2,3.7-3.4,5.4
			C1267.1,187.5,1267.5,187.7,1267.7,187.5L1267.7,187.5z"/>
	</g>
	<g>
		<path class="st11" d="M1280.3,146c1.6,0.8,2.5,2.5,3.2,4.1c0.8,2,1.7,4.1,1.9,6.2c0,0.3,0.5,0.3,0.5,0c-0.2-2.3-1.1-4.4-1.9-6.5
			c-0.7-1.7-1.7-3.4-3.4-4.2C1280.3,145.4,1280,145.8,1280.3,146L1280.3,146z"/>
	</g>
	<g>
		<path class="st11" d="M1279.6,147.4c2.1,1.3,2.8,3.8,3.4,6.1c0.1,0.3,0.6,0.2,0.5-0.1c-0.6-2.4-1.3-5-3.6-6.4
			C1279.5,146.9,1279.3,147.3,1279.6,147.4L1279.6,147.4z"/>
	</g>
	<g>
		<path class="st11" d="M1279.1,149.4c-0.3,0.8-0.2,1.7-0.1,2.5c0.1,0.9,0.4,1.8,0.7,2.6c0.6,1.7,1.5,3.3,2.4,4.9
			c0.2,0.3,0.6,0,0.4-0.3c-0.8-1.5-1.7-3-2.3-4.6c-0.3-0.8-0.5-1.6-0.7-2.4c-0.2-0.9-0.3-1.8,0-2.6
			C1279.7,149.2,1279.2,149.1,1279.1,149.4L1279.1,149.4z"/>
	</g>
	<g>
		<path class="st11" d="M1277.9,153.4c-0.5,2.3-0.6,4.7-0.1,7c0.1,0.3,0.5,0.2,0.5-0.1c-0.4-2.2-0.4-4.5,0.1-6.7
			C1278.5,153.2,1278,153.1,1277.9,153.4L1277.9,153.4z"/>
	</g>
	<g>
		<path class="st11" d="M1276.1,157.7c-1.6,3.1-2.2,6.7-1.5,10.2c0.1,0.3,0.5,0.2,0.5-0.1c-0.7-3.3-0.2-6.8,1.4-9.8
			C1276.7,157.6,1276.3,157.4,1276.1,157.7L1276.1,157.7z"/>
	</g>
	<g>
		<path class="st11" d="M1287.1,165.8c1.7,3.4,2.9,7,3.7,10.7c0.9,3.7,1.4,7.4,1.9,11.2c0.3,2.1,0.5,4.3,0.7,6.4
			c0,0.3,0.5,0.3,0.5,0c-0.4-3.8-0.8-7.6-1.3-11.4c-0.6-3.8-1.4-7.6-2.6-11.2c-0.7-2-1.5-4-2.4-5.9
			C1287.4,165.3,1287,165.6,1287.1,165.8L1287.1,165.8z"/>
	</g>
	<g>
		<path class="st11" d="M1285.3,172.4c2,4.7,3.8,9.5,5.3,14.4c1.5,4.8,2.8,9.8,3.8,14.7c0.6,2.8,1.1,5.6,1.5,8.5
			c0,0.3,0.5,0.2,0.5-0.1c-0.7-5.1-1.7-10.1-2.9-15.1c-1.2-5-2.7-9.9-4.5-14.7c-1-2.7-2-5.4-3.2-8
			C1285.6,171.8,1285.1,172.1,1285.3,172.4L1285.3,172.4z"/>
	</g>
	<g>
		<path class="st11" d="M1295.8,209.7c-1.2,0.1-2.3-0.1-3.5,0c-1,0.1-1.9,0.6-2.5,1.4c-0.6,0.7-1,1.8-0.7,2.7s1.1,1.5,1.9,2.1
			c0.2,0.1,0.4,0,0.4-0.2c0-1.4,0-2.8,0-4.2c0-0.3-0.5-0.3-0.5,0c0,1.4,0,2.8,0,4.2c0.1-0.1,0.3-0.1,0.4-0.2c-0.7-0.5-1.4-1-1.7-1.8
			c-0.2-0.9,0.3-1.8,0.9-2.5c1.5-1.5,3.6-0.8,5.4-1C1296.1,210.1,1296.1,209.6,1295.8,209.7L1295.8,209.7z"/>
	</g>
	<g>
		<path class="st11" d="M1286.3,181.7c1.9,6.6,2.6,13.5,2.1,20.3c-0.1,1.9-0.4,3.9-0.7,5.8c-0.1,0.3,0.4,0.4,0.5,0.1
			c1.2-6.8,1.2-13.8,0-20.6c-0.3-1.9-0.8-3.8-1.3-5.7C1286.6,181.2,1286.2,181.4,1286.3,181.7L1286.3,181.7z"/>
	</g>
	<g>
		<path class="st11" d="M1293.2,187.4c0.3,2.6,1.1,5.1,2.3,7.4c0.6,1.2,1.3,2.2,2.1,3.3c0.4,0.5,0.8,1,1.3,1.5
			c0.1,0.1,0.2,0.1,0,0.2c-0.1,0.1-0.2,0.1-0.3,0.2c-0.3,0.1-0.5,0.3-0.8,0.5c-1.1,0.8-1.9,1.8-2.2,3.1c-0.1,0.3,0.4,0.4,0.5,0.1
			c0.3-1.2,1.1-2.2,2.1-2.9c0.2-0.2,0.5-0.3,0.7-0.4c0.2-0.1,0.5-0.2,0.6-0.5c0.1-0.2,0.1-0.4-0.1-0.6c-0.2-0.3-0.4-0.5-0.7-0.7
			c-1.7-2-3.1-4.4-4-6.9c-0.5-1.4-0.8-2.9-1-4.4C1293.7,187.1,1293.2,187.1,1293.2,187.4L1293.2,187.4z"/>
	</g>
	<g>
		<path class="st11" d="M1293.4,210.2c0,2,0.6,3.9,1.7,5.6c0-0.1,0.1-0.2,0.1-0.3c-1,0.6-2,1.3-3,1.9c-0.3,0.2,0,0.6,0.3,0.4
			c1-0.6,2-1.3,3-1.9c0.1-0.1,0.2-0.2,0.1-0.3c-1.1-1.6-1.7-3.4-1.7-5.3C1293.9,209.9,1293.4,209.9,1293.4,210.2L1293.4,210.2z"/>
	</g>
	<g>
		<path class="st11" d="M1282.1,180.5c0.4,5,0.5,10.1,0.3,15.1c-0.2,5.1-0.7,10.1-1.5,15.1c-0.5,2.8-1,5.6-1.7,8.4
			c-0.1,0.3,0.4,0.4,0.5,0.1c1.2-4.9,2-9.9,2.6-14.9s0.8-10.1,0.8-15.2c0-2.9-0.2-5.7-0.4-8.6
			C1282.6,180.2,1282.1,180.2,1282.1,180.5L1282.1,180.5z"/>
	</g>
	<g>
		<path class="st11" d="M1279.9,183.5c0.1,4.2-0.3,8.5-0.9,12.6c-0.7,4.2-1.7,8.3-3.1,12.3c-0.8,2.3-1.7,4.5-2.6,6.7
			c-0.1,0.3,0.3,0.5,0.4,0.3c1.8-3.9,3.2-7.9,4.3-12c1.1-4.1,1.8-8.3,2.2-12.6c0.2-2.4,0.3-4.8,0.3-7.2
			C1280.4,183.1,1279.9,183.1,1279.9,183.5L1279.9,183.5z"/>
	</g>
	<g>
		<path class="st11" d="M1277.5,193.2c-0.5,3.9-2,7.6-4.3,10.8c-0.2,0.3,0.2,0.5,0.4,0.3c2.3-3.2,3.8-7,4.3-11
			C1278.1,193.1,1277.6,192.9,1277.5,193.2L1277.5,193.2z"/>
	</g>
	<g>
		<path class="st11" d="M1293.2,168.2c0.3,2.7,0.8,5.3,1.4,7.9c0.6,2.5,1.3,5,2.4,7.3c0.5,1.2,1.2,2.4,2.2,3.4
			c0.2,0.2,0.6-0.1,0.4-0.4c-1.6-1.7-2.5-4-3.2-6.3c-0.8-2.5-1.5-5-1.9-7.6c-0.3-1.5-0.5-2.9-0.7-4.4
			C1293.7,167.9,1293.2,167.9,1293.2,168.2L1293.2,168.2z"/>
	</g>
	<g>
		<path class="st11" d="M1297.2,174.2c1.1,2.5,2.4,4.8,4,7c0.2,0.3,0.6,0,0.4-0.3c-1.6-2.2-2.9-4.5-4-7
			C1297.5,173.7,1297.1,173.9,1297.2,174.2L1297.2,174.2z"/>
	</g>
	<g>
		<path class="st11" d="M1289.3,145.9c1.7-2.9,4.2-5.3,7.1-7c0.9-0.5,1.7-0.9,2.6-1.2c0.3-0.1,0.2-0.6-0.1-0.5
			c-3.3,1.2-6.2,3.3-8.4,6c-0.6,0.8-1.2,1.6-1.7,2.4C1288.7,145.9,1289.1,146.2,1289.3,145.9L1289.3,145.9z"/>
	</g>
	<g>
		<path class="st11" d="M1290.3,142.4c0.6-3.2,2.8-6.1,5.7-7.7c0.8-0.4,1.7-0.8,2.6-1c0.3-0.1,0.2-0.6-0.1-0.5
			c-3.3,0.8-6.2,3.2-7.7,6.2c-0.4,0.9-0.7,1.8-0.9,2.8C1289.7,142.6,1290.2,142.7,1290.3,142.4L1290.3,142.4z"/>
	</g>
	<g>
		<path class="st11" d="M1291,133.8c1.6-2.2,3.9-3.9,6.4-4.7c0.3-0.1,0.2-0.6-0.1-0.5c-2.7,0.8-5.1,2.6-6.7,4.9
			C1290.4,133.8,1290.8,134,1291,133.8L1291,133.8z"/>
	</g>
	<g>
		<path class="st11" d="M1291.3,129.6c-0.1-1.9,0.8-3.7,2.4-4.8c0.3-0.2,0-0.6-0.3-0.4c-1.7,1.2-2.7,3.2-2.6,5.3
			C1290.8,129.9,1291.3,129.9,1291.3,129.6L1291.3,129.6z"/>
	</g>
	<g>
		<path class="st11" d="M1291.4,123.9c0.1-0.1,0.1-0.2,0.2-0.3c0,0,0-0.1,0.1-0.1l0,0l0,0c0-0.1,0.1-0.1,0.1-0.2l0.1-0.1
			c0,0,0,0,0.1-0.1l0,0l0,0c0.1-0.1,0.2-0.2,0.3-0.2c0.1-0.1,0.2-0.2,0.1-0.3c-0.1-0.1-0.2-0.2-0.3-0.1c-0.5,0.3-1,0.7-1.2,1.3
			c-0.1,0.1,0,0.3,0.1,0.3C1291.1,124.1,1291.3,124.1,1291.4,123.9L1291.4,123.9z"/>
	</g>
	<g>
		<path class="st11" d="M1239.9,131.9c1.8,4.4,3.6,8.9,5.7,13.1c1.1,2.1,2.2,4.2,3.5,6.2c1.1,1.8,2.4,3.5,3.9,4.9
			c0.8,0.7,1.8,1.5,2.9,1.9c0.9,0.4,2.2,0.2,2.7-0.8c0.1-0.3-0.3-0.5-0.4-0.3c-0.4,1-1.7,0.8-2.5,0.4c-0.9-0.5-1.7-1.1-2.4-1.8
			c-1.5-1.4-2.7-3-3.7-4.7c-2.4-3.8-4.3-7.8-6.1-11.9c-1-2.4-2-4.7-2.9-7.1C1240.3,131.5,1239.8,131.6,1239.9,131.9L1239.9,131.9z"
			/>
	</g>
	<g>
		<path class="st11" d="M1257.9,138.4c-0.2,2.4-0.5,4.8-1,7.1c-0.5,1.9-1.2,4-2.9,5.2c-0.3,0.2,0,0.6,0.3,0.4c1.7-1.2,2.5-3.3,3-5.2
			c0.6-2.4,0.9-5,1.1-7.5C1258.5,138.1,1258,138.1,1257.9,138.4L1257.9,138.4z"/>
	</g>
	<g>
		<path class="st11" d="M1234.5,125.7c0.7,6.9,2.4,13.7,5,20.2c1.3,3.2,2.8,6.3,4.5,9.3c1.7,2.9,3.6,5.8,6,8.1
			c2.6,2.5,5.8,4.5,9.4,5c0.3,0,0.5-0.4,0.1-0.5c-6.7-1-11.4-6.5-14.7-12c-3.5-5.8-6.1-12.1-7.9-18.7c-1-3.7-1.7-7.5-2.1-11.3
			C1235,125.4,1234.5,125.4,1234.5,125.7L1234.5,125.7z"/>
	</g>
	<g>
		<path class="st11" d="M1266.4,159.7c0.1,4.4-2.1,8.6-5.7,11.1c-1,0.7-2,1.2-3.1,1.6c-0.3,0.1-0.2,0.6,0.1,0.5
			c4.2-1.5,7.5-4.9,8.7-9.2c0.4-1.3,0.5-2.6,0.5-3.9C1266.8,159.4,1266.3,159.4,1266.4,159.7L1266.4,159.7z"/>
	</g>
	<g>
		<path class="st11" d="M1244.3,166c0.8,2.6,2.7,4.7,5.1,5.9c0.3,0.1,0.5-0.3,0.3-0.4c-2.3-1.1-4.1-3.1-4.9-5.6
			C1244.6,165.6,1244.2,165.7,1244.3,166L1244.3,166z"/>
	</g>
	<g>
		<path class="st11" d="M1268.5,123.1c1.6,6.7,2.8,13.5,3.4,20.4c0.2,1.9,0.3,3.9,0.4,5.8c0,0.3,0.5,0.3,0.5,0
			c-0.4-6.9-1.2-13.8-2.6-20.6c-0.4-1.9-0.8-3.8-1.3-5.7C1268.9,122.6,1268.5,122.8,1268.5,123.1L1268.5,123.1z"/>
	</g>
	<g>
		<path class="st11" d="M1274,140.4c0.3,1.1,0.5,2.2,0.6,3.3c0,0.3,0.5,0.3,0.5,0c-0.1-1.2-0.3-2.3-0.6-3.4
			C1274.4,140,1274,140.1,1274,140.4L1274,140.4z"/>
	</g>
	<g>
		<path class="st11" d="M1272.2,165.2c-0.9,1.9-1,4.2-0.2,6.2c0.1,0.3,0.6,0.2,0.5-0.1c-0.7-1.9-0.7-4,0.2-5.9
			C1272.7,165.1,1272.3,164.9,1272.2,165.2L1272.2,165.2z"/>
	</g>
	<g>
		<path class="st11" d="M1226.6,238.2c5.1,4.3,10,8.9,14.6,13.8c0.6,0.7,1.3,1.4,1.9,2c0.5,0.5,1.1,1.1,1.9,1c0.1,0,0.2-0.1,0.2-0.2
			c0-1,0.3-1.9,0.8-2.8c0.2-0.3-0.3-0.5-0.4-0.3c-0.5,0.9-0.8,2-0.9,3c0.1-0.1,0.2-0.2,0.2-0.2c-0.7,0-1.3-0.6-1.7-1.1
			c-0.6-0.6-1.1-1.2-1.7-1.8c-1.1-1.2-2.3-2.4-3.4-3.5c-2.3-2.3-4.6-4.5-7.1-6.7c-1.4-1.2-2.8-2.4-4.2-3.6
			C1226.7,237.6,1226.4,238,1226.6,238.2L1226.6,238.2z"/>
	</g>
	<g>
		<path class="st11" d="M1244.8,254.6c-0.3-0.8-0.6-1.7-0.8-2.5c-0.1-0.4-0.2-0.8-0.3-1.2c0-0.1-0.1-0.4,0.1-0.5
			c0.1-0.1,0.3,0,0.4,0.1c0.3,0.1,0.5,0.4,0.7,0.6c0.3,0.3,0.5,0.6,0.8,0.8c0.5,0.6,1,1.1,1.6,1.7c2,2.2,4,4.5,6.3,6.6
			c1.2,1.1,2.6,2.2,4,3.1c0-0.2,0-0.3,0.1-0.5c-1.3,0.3-2.6,0.4-3.9,0.5c0.1,0.1,0.1,0.3,0.2,0.4c0.2-0.4,0.4-0.9,0.6-1.3
			c0.1-0.3-0.3-0.5-0.4-0.3c-0.2,0.4-0.4,0.9-0.6,1.3c-0.1,0.2,0,0.4,0.2,0.4c1.3-0.1,2.7-0.2,4-0.5c0.2,0,0.2-0.3,0.1-0.5
			c-2.8-1.8-5.1-4.1-7.3-6.6c-1.1-1.2-2.2-2.4-3.3-3.6c-0.6-0.6-1.1-1.2-1.7-1.8c-0.4-0.4-0.9-1-1.6-1c-1,0.1-0.6,1.3-0.4,1.8
			c0.3,1,0.6,2,0.9,3C1244.5,255,1245,254.9,1244.8,254.6L1244.8,254.6z"/>
	</g>
	<g>
		<path class="st11" d="M1243.7,250c1.8-0.9,3.2-2.3,4.7-3.6c1.6-1.4,3.3-2.9,4.9-4.3c0.2-0.2-0.1-0.6-0.4-0.4
			c-1.6,1.4-3.2,2.8-4.8,4.2c-1.5,1.3-3,2.7-4.7,3.6C1243.1,249.7,1243.4,250.1,1243.7,250L1243.7,250z"/>
	</g>
	<g>
		<path class="st11" d="M1258.3,262.7c-0.9-5.8,1.8-11.4,4.9-16.2c0.9-1.4,1.8-2.7,2.8-4.1c0.2-0.3-0.2-0.5-0.4-0.3
			c-3.4,4.8-6.9,9.9-7.7,15.8c-0.2,1.6-0.2,3.2,0,4.9C1257.9,263.2,1258.3,263,1258.3,262.7L1258.3,262.7z"/>
	</g>
	<g>
		<path class="st11" d="M1292.2,219.9c-0.6,4.5-1,9-1.2,13.5s-0.4,9.1-0.6,13.6c-0.2,4.3-0.5,8.6-1.1,12.8c-0.5,4.1-1.3,8.1-2.4,12
			s-2.6,7.7-4.5,11.2c-0.2,0.4-0.5,0.9-0.8,1.3c-0.2,0.3,0.3,0.5,0.4,0.3c2.1-3.5,3.7-7.2,4.9-11.1c1.2-3.9,2.1-7.9,2.7-11.9
			c0.6-4.2,1-8.3,1.2-12.5c0.3-4.6,0.4-9.1,0.6-13.7c0.2-4.5,0.5-9.1,1.1-13.6c0.1-0.6,0.2-1.2,0.2-1.8
			C1292.7,219.7,1292.2,219.6,1292.2,219.9L1292.2,219.9z"/>
	</g>
	<g>
		<path class="st11" d="M1293.2,236.6c-0.2,9.6-0.3,19.3-0.3,28.9c0,9.6,0,19.2,0.2,28.7c0.1,5.4,0.2,10.8,0.3,16.2
			c0,0.3,0.5,0.3,0.5,0c-0.2-9.6-0.4-19.2-0.4-28.9c-0.1-9.6-0.1-19.2,0-28.7c0-5.4,0.1-10.8,0.2-16.2
			C1293.7,236.3,1293.2,236.3,1293.2,236.6L1293.2,236.6z"/>
	</g>
	<g>
		<path class="st11" d="M1281.7,313.6c2.9-0.7,5.8,0.3,8.2,1.9c2.5,1.8,4.2,4.4,5.5,7.1c0.7,1.6,1.3,3.3,1.8,5
			c0.1,0.3,0.6,0.2,0.5-0.1c-0.9-3.1-2.1-6.2-4-8.9c-1.8-2.5-4.2-4.4-7.2-5.3c-1.6-0.5-3.3-0.6-4.9-0.2
			C1281.2,313.2,1281.4,313.7,1281.7,313.6L1281.7,313.6z"/>
	</g>
	<g>
		<path class="st11" d="M1297,328.8c-0.2,1.8-0.9,3.6-2.1,5c-0.6,0.7-1.2,1.4-1.8,2.1c-0.6,0.7-1,1.4-1.4,2.2
			c-0.4,0.8-0.7,1.7-1,2.5c-0.3,0.9-0.6,1.8-0.6,2.7c0.1,1.6,1.2,2.9,2.4,3.8c1.5,1.1,3.3,1.9,4.4,3.4c0.2,0.3,0.6,0,0.4-0.3
			c-1-1.3-2.4-2.1-3.8-2.9c-1.3-0.8-2.7-2-2.9-3.6c-0.1-0.9,0.2-1.8,0.5-2.7c0.3-0.8,0.6-1.7,0.9-2.5c0.4-0.8,0.9-1.6,1.5-2.3
			c0.6-0.7,1.2-1.3,1.7-2c1.2-1.5,1.9-3.3,2.1-5.3C1297.6,328.5,1297.1,328.5,1297,328.8L1297,328.8z"/>
	</g>
	<g>
		<path class="st11" d="M1297.6,349.7c-1.2-4.5-2.3-9.1-2.2-13.8c0-0.3-0.5-0.3-0.5,0c-0.2,4.7,1,9.4,2.2,13.9
			C1297.2,350.1,1297.7,350,1297.6,349.7L1297.6,349.7z"/>
	</g>
	<g>
		<path class="st11" d="M1290.8,344.3c-1.2-6.8,0.4-13.7,0.2-20.5c0-1.9-0.2-3.8-0.6-5.6c-0.1-0.3-0.5-0.2-0.5,0.1
			c1.4,6.8-0.1,13.7-0.1,20.5c0,1.9,0.1,3.8,0.5,5.6C1290.4,344.8,1290.9,344.6,1290.8,344.3L1290.8,344.3z"/>
	</g>
	<g>
		<path class="st11" d="M1290.1,345.7c0.7,3,1,6.1,0.9,9.2c0,0.3,0.5,0.3,0.5,0c0.1-3.1-0.3-6.2-0.9-9.3
			C1290.5,345.3,1290,345.4,1290.1,345.7L1290.1,345.7z"/>
	</g>
	<g>
		<path class="st11" d="M1286.3,316.3c0.1,4.7-0.4,9.3-0.5,14c-0.2,4.6,0.2,9.2,0.3,13.8c0,2.6,0,5.2-0.3,7.7c0,0.3,0.5,0.3,0.5,0
			c0.5-4.6,0.3-9.1,0.1-13.7c-0.1-2.3-0.2-4.6-0.1-7c0.1-2.3,0.2-4.7,0.4-7c0.1-2.6,0.3-5.3,0.2-7.9
			C1286.8,315.9,1286.2,315.9,1286.3,316.3L1286.3,316.3z"/>
	</g>
	<g>
		<path class="st11" d="M1282.4,328.5c0.3,4.7,0.4,9.5,0.3,14.2c0,1.3-0.1,2.7-0.1,4c0,0.3,0.5,0.3,0.5,0c0.2-4.7,0.2-9.5,0-14.2
			c0-1.3-0.1-2.7-0.2-4C1282.9,328.1,1282.4,328.1,1282.4,328.5L1282.4,328.5z"/>
	</g>
	<g>
		<path class="st11" d="M1262.7,322c-3.3,1.7-6.8,2.9-10.5,3.7c-3.6,0.7-7.4,1-11.1,0.7c-2.1-0.2-4.2-0.5-6.2-1
			c-0.3-0.1-0.4,0.4-0.1,0.5c3.7,0.9,7.5,1.2,11.2,1.1c3.8-0.2,7.5-0.9,11.1-2c2-0.7,4-1.5,5.8-2.5
			C1263.3,322.3,1263,321.8,1262.7,322L1262.7,322z"/>
	</g>
	<g>
		<path class="st11" d="M1263,261.5c-0.5,4.3-1.2,8.6-2.3,12.9c-1.1,4.2-2.5,8.4-4.2,12.4s-3.7,7.9-6,11.6s-4.8,7.3-7.7,10.6
			c-1.4,1.7-2.9,3.3-4.5,4.9c-1.7,1.7-3.4,3.2-5.3,4.5c-0.5,0.3-1,0.6-1.5,0.9c-0.3,0.2,0,0.6,0.3,0.4c4-2.3,7.3-5.7,10.4-9.2
			c2.9-3.3,5.5-6.8,7.9-10.5s4.5-7.6,6.3-11.7c1.8-4,3.3-8.1,4.5-12.4c1.2-4.2,2.1-8.5,2.6-12.9c0.1-0.5,0.1-1.1,0.2-1.6
			C1263.6,261.2,1263.1,261.2,1263,261.5L1263,261.5z"/>
	</g>
	<g>
		<path class="st11" d="M1263.2,274.9c-1,7.6-2.2,15.1-4.6,22.4c-2,6.1-4.7,12.2-9.3,16.9c-2.4,2.4-5.2,4.3-8.5,5.2
			c-0.3,0.1-0.2,0.6,0.1,0.5c6-1.7,10.5-6.5,13.5-11.8c1.7-2.9,3-6,4.1-9.2c1.3-3.6,2.2-7.4,3-11.2c0.9-4.2,1.5-8.5,2.1-12.8
			C1263.7,274.6,1263.2,274.6,1263.2,274.9L1263.2,274.9z"/>
	</g>
	<g>
		<path class="st11" d="M1259.5,306.1c-1.1,3.7-3.1,7.1-5.8,9.8c-2.8,2.9-6.4,5-10.3,6.1c-2.2,0.6-4.6,0.9-6.9,0.9
			c-0.3,0-0.3,0.5,0,0.5c4.2,0.1,8.5-0.9,12.2-3c3.5-1.9,6.5-4.7,8.6-8.1c1.2-1.9,2.1-3.9,2.7-6.1
			C1260.1,305.9,1259.6,305.8,1259.5,306.1L1259.5,306.1z"/>
	</g>
	<g>
		<path class="st11" d="M1258.5,315.4c-2,2.9-5.1,5-8.6,5.9c-1,0.2-2,0.4-3,0.4c-0.3,0-0.3,0.5,0,0.5c3.7-0.1,7.3-1.6,9.9-4.2
			c0.8-0.7,1.4-1.5,2-2.4C1259.1,315.4,1258.7,315.2,1258.5,315.4L1258.5,315.4z"/>
	</g>
	<g>
		<path class="st11" d="M1254.2,267.2c-0.7,5.7-2,11.4-3.8,16.8c-1.9,5.4-4.4,10.7-7.4,15.6c-1.7,2.8-3.5,5.4-5.6,8
			c-0.2,0.2,0.2,0.6,0.4,0.4c3.6-4.6,6.7-9.5,9.3-14.7c2.5-5.2,4.5-10.7,5.9-16.3c0.8-3.2,1.3-6.4,1.7-9.6
			C1254.7,266.9,1254.2,266.9,1254.2,267.2L1254.2,267.2z"/>
	</g>
	<g>
		<path class="st11" d="M1250.2,264.8c-0.3,4.4-1.6,8.7-3.7,12.6s-5,7.4-8.4,10.1c-1.9,1.5-4.1,2.9-6.3,3.9c-0.3,0.1,0,0.6,0.3,0.4
			c4.1-1.9,7.7-4.7,10.7-8.1c2.9-3.4,5.2-7.3,6.6-11.6c0.8-2.4,1.3-4.9,1.5-7.4C1250.7,264.5,1250.2,264.5,1250.2,264.8
			L1250.2,264.8z"/>
	</g>
	<g>
		<path class="st11" d="M1249,262.8c-3.7,5.4-10,8.4-16.4,9.4c-2,0.3-4,0.5-6.1,0.5c-0.3,0-0.3,0.5,0,0.5c6.9-0.1,14-1.7,19.3-6.2
			c1.3-1.1,2.5-2.4,3.5-3.9C1249.6,262.8,1249.2,262.5,1249,262.8L1249,262.8z"/>
	</g>
	<g>
		<path class="st11" d="M1250.3,258.6c-5.6,4.5-12.5,8-19.9,7.6c-1,0-2-0.1-3-0.4c-0.9-0.2-1.8-0.5-2.4-1.2
			c-0.1,0.1-0.1,0.3-0.2,0.4c4-0.1,8-0.6,11.9-1.5c0.3-0.1,0.2-0.6-0.1-0.5c-3.9,0.8-7.8,1.3-11.7,1.5c-0.2,0-0.3,0.3-0.2,0.4
			c1.2,1.2,3,1.5,4.6,1.6c1.9,0.2,3.9,0.1,5.8-0.2c3.7-0.6,7.3-2,10.5-3.9c1.8-1.1,3.5-2.3,5.1-3.6
			C1250.9,258.7,1250.5,258.4,1250.3,258.6L1250.3,258.6z"/>
	</g>
	<g>
		<path class="st11" d="M1237.9,251.2c-3,0.8-6.1,0.6-9.1-0.1c-0.7-0.2-1.4-0.4-2.2-0.6c-0.7-0.2-1.4-0.4-1.9-0.9
			c-0.3-0.2-0.5-0.5-0.6-0.8c-0.1-0.2-0.1-0.3-0.1-0.5c0-0.1,0-0.2,0-0.2c0.1-0.2,0.2-0.1,0.3-0.1c0.7,0.3,1.4,0.6,2.1,0.9
			c1.5,0.6,3,1.2,4.7,1c0.3,0,0.3-0.5,0-0.5c-1.7,0.2-3.3-0.5-4.8-1.1c-0.4-0.2-0.7-0.3-1.1-0.5c-0.3-0.1-0.7-0.4-1-0.3
			c-0.7,0-0.7,1.1-0.5,1.5c0.6,1.5,2.4,1.9,3.7,2.2c1.6,0.5,3.2,0.8,4.9,1c1.9,0.2,3.8,0,5.7-0.5
			C1238.4,251.6,1238.2,251.1,1237.9,251.2L1237.9,251.2z"/>
	</g>
	<g>
		<path class="st11" d="M1278.4,233.4c0.7,9.7-1.9,19.3-1.5,29.1c0.2,5,0.9,9.9,0.8,14.9c0,5-0.5,9.9-1,14.9
			c-0.5,5.6-1,11.2-1.5,16.8c0,0.3,0.5,0.3,0.5,0c0.4-5,0.9-10,1.3-15c0.4-4.9,1-9.9,1.1-14.9c0.1-2.5,0-5-0.1-7.5
			c-0.2-2.5-0.4-4.9-0.6-7.4c-0.3-4.9,0.1-9.7,0.6-14.5c0.6-5.4,1.2-10.9,0.8-16.3C1278.9,233,1278.4,233,1278.4,233.4L1278.4,233.4
			z"/>
	</g>
	<g>
		<path class="st11" d="M1275.4,312.3c0.3,0,0.3-0.5,0-0.5S1275.1,312.3,1275.4,312.3L1275.4,312.3z"/>
	</g>
	<g>
		<path class="st11" d="M1265.4,259c0.2,6.8,0.3,13.6,0.4,20.3c0.1,6.8,0.1,13.6,0.1,20.3c0,3.8,0,7.7-0.1,11.5c0,0.3,0.5,0.3,0.5,0
			c0.1-6.8,0.1-13.6,0.1-20.3c0-6.8-0.1-13.6-0.2-20.3c-0.1-3.8-0.1-7.7-0.2-11.5C1265.9,258.7,1265.4,258.7,1265.4,259L1265.4,259z
			"/>
	</g>
	<g>
		<path class="st11" d="M1270.2,272.9c1,6.6,1.5,13.2,1.7,19.8c0,1.8,0.1,3.7,0,5.5c0,0.3,0.5,0.3,0.5,0c0-6.7-0.3-13.3-1.1-19.9
			c-0.2-1.9-0.5-3.7-0.7-5.6C1270.7,272.4,1270.2,272.6,1270.2,272.9L1270.2,272.9z"/>
	</g>
	<g>
		<path class="st11" d="M1230.2,333.1c2.1,0.4,3.7,1.9,4.9,3.6c1.3,2,2.1,4.4,2.4,6.8c0.2,1.4,0.3,2.9,0.1,4.3c0,0.3,0.5,0.3,0.5,0
			c0.2-2.7-0.1-5.4-1-7.9c-0.7-2.2-1.9-4.3-3.6-5.8c-0.9-0.8-2-1.3-3.2-1.5C1230,332.5,1229.9,333,1230.2,333.1L1230.2,333.1z"/>
	</g>
	<g>
		<path class="st11" d="M1235.1,331.1c1.3,0.8,2.5,1.7,3.1,3.1c0.6,1.3,0.7,2.8,0.7,4.2c0,0.3,0.5,0.3,0.5,0
			c-0.1-1.5-0.2-3.1-0.8-4.5c-0.7-1.5-1.9-2.4-3.3-3.3C1235.1,330.5,1234.9,330.9,1235.1,331.1L1235.1,331.1z"/>
	</g>
	<g>
		<path class="st11" d="M1240.4,329.5c0.8,4.9,1,9.8,0.6,14.7c-0.1,1.4-0.3,2.8-0.5,4.2c0,0.3,0.4,0.5,0.5,0.1c0.8-5,1-10,0.5-15
			c-0.1-1.4-0.3-2.8-0.5-4.2C1240.8,329.1,1240.3,329.2,1240.4,329.5L1240.4,329.5z"/>
	</g>
	<g>
		<path class="st11" d="M1246.9,327.1c0.9,5.9,0.4,12-0.5,17.9c-0.2,1.7-0.5,3.3-0.8,5c-0.1,0.3,0.4,0.5,0.5,0.1
			c1-6,1.9-12,1.7-18.1c-0.1-1.7-0.2-3.4-0.5-5C1247.4,326.7,1246.9,326.8,1246.9,327.1L1246.9,327.1z"/>
	</g>
	<g>
		<path class="st11" d="M1249.8,327.6c0.9,6.6,0.2,13.2-0.8,19.7c-0.3,1.8-0.6,3.6-0.9,5.4c-0.1,0.3,0.4,0.4,0.5,0.1
			c1.1-6.6,2.3-13.2,2.2-19.9c0-1.9-0.2-3.7-0.4-5.5C1250.2,327.2,1249.7,327.3,1249.8,327.6L1249.8,327.6z"/>
	</g>
	<g>
		<path class="st11" d="M1256,328.5c0.2,6.2,0.1,12.5-0.4,18.7c-0.1,1.8-0.3,3.5-0.5,5.3c0,0.3,0.5,0.3,0.5,0
			c0.6-6.2,0.9-12.4,0.9-18.7c0-1.8,0-3.6-0.1-5.3C1256.5,328.2,1256,328.2,1256,328.5L1256,328.5z"/>
	</g>
	<g>
		<path class="st11" d="M1259.2,329.4c0.7,6.8,1,13.7,0.8,20.5c-0.1,1.9-0.1,3.9-0.3,5.8c0,0.3,0.5,0.3,0.5,0
			c0.4-6.8,0.4-13.7,0-20.6c-0.1-1.9-0.3-3.9-0.5-5.8C1259.6,329,1259.1,329,1259.2,329.4L1259.2,329.4z"/>
	</g>
	<g>
		<path class="st11" d="M1267,361.1c0.7,0.9,1.6,1.5,2.6,1.7c0.5,0.1,1.1,0.1,1.6,0.1c0.3,0,0.6,0,1,0c0.3,0.1,0.6,0.2,0.8,0.3
			c1.2,0.5,2.5,0,3.8-0.3s2.7-0.6,4-1.1c0.5-0.2,1.1-0.5,1.3-1c0.3-0.5,0.3-1.2,0.4-1.7c0-0.3-0.5-0.3-0.5,0c0,0.5,0,1-0.3,1.4
			c-0.3,0.5-0.8,0.7-1.3,0.9c-1.1,0.4-2.3,0.7-3.5,1c-0.6,0.1-1.2,0.3-1.8,0.4c-0.6,0.1-1.2,0.3-1.8,0c-0.5-0.2-0.9-0.4-1.4-0.5
			s-1.1,0.1-1.6,0c-1.1-0.1-2.2-0.7-2.9-1.6C1267.2,360.6,1266.8,360.9,1267,361.1L1267,361.1z"/>
	</g>
	<g>
		<path class="st11" d="M1269.7,354.6c0.6,1,0.9,2.2,1.3,3.3c0.2,0.5,0.5,1,0.9,1.4c0.2,0.3,0.5,0.5,0.6,0.8s0.1,0.7,0,1.1
			c0,0.3,0.4,0.5,0.5,0.1c0.1-0.7,0.1-1.3-0.3-1.9c-0.2-0.3-0.4-0.5-0.6-0.7c-0.2-0.3-0.3-0.5-0.5-0.8c-0.6-1.2-0.8-2.5-1.5-3.6
			C1269.9,354,1269.5,354.3,1269.7,354.6L1269.7,354.6z"/>
	</g>
	<g>
		<path class="st11" d="M1272.7,356.8c0-0.1,0.1-0.1,0.1-0.2l0,0l0,0l0.1-0.1l0.1-0.1l0,0l0,0c0.1,0,0.1-0.1,0.2-0.1l0,0l0,0h0.1
			h0.1l0,0c0.1,0,0,0,0,0c0.1,0,0.2,0,0.2,0s0,0,0.1,0c0,0,0.1,0,0,0l0,0c0,0,0,0,0.1,0s0.3,0,0.3-0.2c0-0.1,0-0.3-0.2-0.3
			c-0.8-0.2-1.6,0.2-1.9,0.9c-0.1,0.1,0,0.3,0.1,0.3C1272.5,356.9,1272.7,356.9,1272.7,356.8L1272.7,356.8z"/>
	</g>
	<g>
		<path class="st11" d="M1275.3,357.3c0.3,0.8,0.5,1.6,0.8,2.4c0.1,0.3,0.6,0.2,0.5-0.1c-0.3-0.8-0.5-1.6-0.8-2.4
			C1275.7,356.8,1275.2,356.9,1275.3,357.3L1275.3,357.3z"/>
	</g>
	<g>
		<path class="st11" d="M1278.1,356.7c0,0,0,0.1,0.1,0.1l0,0l0,0l0,0c0,0.1,0.1,0.1,0.1,0.2s0,0.2,0,0.2l0,0l0,0v0.1v0.1
			c0,0.1,0.1,0.3,0.2,0.2c0.1,0,0.3-0.1,0.2-0.2c0-0.4-0.1-0.7-0.3-1.1c-0.1-0.1-0.2-0.2-0.3-0.1
			C1278.1,356.4,1278.1,356.6,1278.1,356.7L1278.1,356.7z"/>
	</g>
	<g>
		<path class="st11" d="M1268.9,360.7c0.6-0.3,1.3-0.5,2-0.5c0.3,0,0.3-0.5,0-0.5c-0.8,0-1.6,0.2-2.2,0.6
			C1268.4,360.4,1268.6,360.8,1268.9,360.7L1268.9,360.7z"/>
	</g>
	<g>
		<path class="st11" d="M1215,346.8c0.1,0.5,0.7,0.4,1,0.7c0.3,0.4,0.5,0.9,0.9,1.2c1,0.8,2.2,0.7,3.4,0.5c1.4-0.2,2.8-0.4,4.2-0.6
			c0.7-0.1,1.4-0.2,2.1-0.3c0.7-0.1,1.3-0.2,2-0.3c1.4-0.3,2.4-1.3,3.7-1.8c0.3-0.1,0.2-0.6-0.1-0.5c-1.1,0.4-1.9,1.1-2.9,1.5
			c-0.6,0.2-1.2,0.3-1.8,0.4c-0.7,0.1-1.3,0.2-2,0.3c-1.3,0.2-2.6,0.4-3.9,0.6c-1.2,0.2-2.6,0.6-3.8,0.1c-0.6-0.2-0.8-0.7-1.2-1.1
			c-0.1-0.2-0.3-0.4-0.5-0.5c-0.1-0.1-0.6-0.2-0.6-0.3C1215.4,346.4,1214.9,346.5,1215,346.8L1215,346.8z"/>
	</g>
	<g>
		<path class="st11" d="M1217.2,346.4c0.8-0.5,1.6-0.9,2.5-1.2c0.9-0.3,1.9-0.4,2.8-0.6c0.3-0.1,0.2-0.5-0.1-0.5
			c-1,0.2-2,0.3-2.9,0.6c-0.9,0.3-1.7,0.7-2.5,1.2C1216.7,346.2,1217,346.6,1217.2,346.4L1217.2,346.4z"/>
	</g>
	<g>
		<path class="st11" d="M1218.6,343.6c0.9-0.5,1.9-0.9,3-1.2c0.3-0.1,0.2-0.6-0.1-0.5c-1.1,0.3-2.1,0.7-3.1,1.2
			C1218.1,343.3,1218.3,343.8,1218.6,343.6L1218.6,343.6z"/>
	</g>
	<g>
		<path class="st11" d="M1219.3,341.5c0.2,0.7,0.4,1.4,0.6,2.1c0.1,0.3,0.6,0.2,0.5-0.1c-0.2-0.7-0.4-1.4-0.6-2.1
			C1219.7,341,1219.2,341.1,1219.3,341.5L1219.3,341.5z"/>
	</g>
	<g>
		<path class="st11" d="M1229.3,339.3c0.1,0.1,0.3,0.2,0.4,0.4l0.1,0.1l0,0l0,0c0,0,0,0,0,0.1c0.1,0.1,0.1,0.2,0.2,0.2
			c0.1,0.1,0.2,0.2,0.3,0.1c0.1-0.1,0.2-0.2,0.1-0.3c-0.2-0.3-0.5-0.6-0.8-0.9c-0.1,0-0.1-0.1-0.2-0.1s-0.1,0-0.2,0.1
			C1229.2,339.1,1229.1,339.2,1229.3,339.3L1229.3,339.3z"/>
	</g>
	<g>
		<path class="st11" d="M1222.7,350.6c3,0.1,6.1-0.2,9-1c0.3-0.1,0.2-0.6-0.1-0.5c-2.9,0.7-5.9,1.1-8.9,0.9
			C1222.4,350.1,1222.4,350.6,1222.7,350.6L1222.7,350.6z"/>
	</g>
	<g>
		<path class="st11" d="M1288.7,280.9c-0.4,7.8-1,15.5-1.8,23.3c-0.2,2.2-0.5,4.4-0.7,6.5c0,0.3,0.5,0.3,0.5,0
			c0.9-7.7,1.7-15.5,2.1-23.2c0.1-2.2,0.3-4.4,0.4-6.6C1289.2,280.6,1288.7,280.6,1288.7,280.9L1288.7,280.9z"/>
	</g>
	<g>
		<path class="st11" d="M1297.8,220.1c0.2,4.5-0.2,8.9-0.5,13.4c-0.3,4.4-0.6,8.9-0.5,13.3c0.2,4.4,1,8.8,1.1,13.3
			c0.1,4.4-0.3,8.7-0.7,13.1c-0.4,4.4-0.7,8.8-0.3,13.1c0,0.5,0.1,1.1,0.2,1.6c0,0.3,0.5,0.3,0.5,0c-0.5-4.4-0.3-8.8,0-13.1
			c0.3-4.4,0.8-8.7,0.8-13.1c0-2.2-0.1-4.4-0.3-6.6c-0.2-2.2-0.5-4.5-0.7-6.7c-0.3-4.4,0-8.9,0.3-13.3c0.3-4.5,0.7-8.9,0.6-13.4
			c0-0.6,0-1.1,0-1.7C1298.2,219.8,1297.7,219.8,1297.8,220.1L1297.8,220.1z"/>
	</g>
	<g>
		<path class="st11" d="M1297.1,293.8c0.3,4.5,0.5,9,0.5,13.5c0,1.3,0,2.6-0.1,3.9c0,0.3,0.5,0.3,0.5,0c0.2-4.5,0.1-9-0.1-13.5
			c-0.1-1.3-0.2-2.6-0.3-3.8C1297.5,293.4,1297,293.4,1297.1,293.8L1297.1,293.8z"/>
	</g>
	<g>
		<path class="st11" d="M1286.7,227.4c0.2,4.7,0.3,9.3,0.2,14c-0.1,4.7-0.4,9.3-0.9,14c-0.3,2.6-0.6,5.3-1,7.9
			c0,0.3,0.4,0.5,0.5,0.1c0.7-4.6,1.2-9.3,1.5-14s0.5-9.4,0.4-14c0-2.6-0.1-5.3-0.2-7.9C1287.2,227.1,1286.7,227.1,1286.7,227.4
			L1286.7,227.4z"/>
	</g>
	<g>
		<path class="st11" d="M1299.7,205.3c0.4,3.2,0.9,6.5,1.3,9.7c0,0.3,0.5,0.2,0.5-0.1c-0.4-3.2-0.9-6.5-1.3-9.7
			C1300.1,204.9,1299.6,205,1299.7,205.3L1299.7,205.3z"/>
	</g>
	<g>
		<path class="st11" d="M1325.7,109.1c-1.9,2.1-3.7,4.2-5.5,6.4c-0.2,0.2,0.1,0.6,0.4,0.4c1.8-2.2,3.6-4.3,5.5-6.4
			C1326.3,109.2,1325.9,108.9,1325.7,109.1L1325.7,109.1z"/>
	</g>
	<g>
		<path class="st11" d="M1332.8,107.7c-3.6,3.9-7.2,7.8-10.6,11.9c-1,1.1-1.9,2.3-2.9,3.5c-0.2,0.2,0.2,0.6,0.4,0.4
			c3.4-4.1,6.8-8.1,10.4-12c1-1.1,2-2.2,3.1-3.3C1333.3,107.9,1333,107.5,1332.8,107.7L1332.8,107.7z"/>
	</g>
	<g>
		<path class="st11" d="M1334.8,110.2c-3.4,3.3-6.9,6.5-10.3,9.8c-0.2,0.2,0.1,0.6,0.4,0.4c3.4-3.3,6.9-6.5,10.3-9.8
			C1335.4,110.3,1335,110,1334.8,110.2L1334.8,110.2z"/>
	</g>
	<g>
		<path class="st11" d="M1337,112.2c-3.8,2.6-7.4,5.5-10.9,8.5c-0.2,0.2,0.1,0.6,0.4,0.4c3.4-3,7-5.8,10.8-8.4
			C1337.5,112.4,1337.3,112,1337,112.2L1337,112.2z"/>
	</g>
	<g>
		<path class="st11" d="M1339.6,112.6c-3.8,2.8-7.6,5.6-11.5,8.3c-1.1,0.8-2.2,1.6-3.3,2.4c-0.3,0.2,0,0.6,0.3,0.4
			c3.8-2.8,7.6-5.6,11.5-8.3c1.1-0.8,2.2-1.6,3.3-2.4C1340.1,112.9,1339.8,112.4,1339.6,112.6L1339.6,112.6z"/>
	</g>
	<g>
		<path class="st11" d="M1325.8,125.7c3.5-2,7.2-3.8,11-5.3c1.1-0.4,2.1-0.8,3.2-1.2c0.3-0.1,0.2-0.6-0.1-0.5
			c-3.9,1.3-7.7,2.9-11.3,4.9c-1,0.5-2,1.1-3.1,1.7C1325.3,125.4,1325.5,125.8,1325.8,125.7L1325.8,125.7z"/>
	</g>
	<g>
		<path class="st11" d="M1319.9,124.6c-0.5,0.6-1,1.1-1.5,1.7c-0.1,0.1-0.1,0.3,0,0.4s0.3,0.1,0.4,0c0.5-0.6,1-1.1,1.5-1.7
			c0.1-0.1,0.1-0.3,0-0.4C1320.1,124.5,1319.9,124.5,1319.9,124.6L1319.9,124.6z"/>
	</g>
	<g>
		<path class="st11" d="M1310.7,133.6c-2.7,3-5.5,6-8.3,9c-0.8,0.8-1.6,1.7-2.4,2.5c-0.2,0.2,0.1,0.6,0.4,0.4
			c2.9-2.9,5.7-5.9,8.4-8.9c0.8-0.9,1.6-1.7,2.3-2.6C1311.2,133.8,1310.9,133.4,1310.7,133.6L1310.7,133.6z"/>
	</g>
	<g>
		<path class="st11" d="M1312.2,135.4c-2.8,3.2-5.5,6.4-8.3,9.6c-0.8,0.9-1.6,1.8-2.3,2.7c-0.2,0.2,0.1,0.6,0.4,0.4
			c2.8-3.2,5.5-6.4,8.3-9.6c0.8-0.9,1.6-1.8,2.3-2.7C1312.8,135.5,1312.4,135.2,1312.2,135.4L1312.2,135.4z"/>
	</g>
	<g>
		<path class="st11" d="M1309.5,142.1c-2.1,2.2-4.2,4.4-6.2,6.7c-0.2,0.2,0.1,0.6,0.4,0.4c2-2.3,4.1-4.5,6.2-6.7
			C1310.1,142.3,1309.7,141.9,1309.5,142.1L1309.5,142.1z"/>
	</g>
	<g>
		<path class="st11" d="M1312,142c-3,3.1-6,6.3-9,9.4c-0.2,0.2,0.1,0.6,0.4,0.4c3-3.1,6-6.3,9-9.4
			C1312.6,142.1,1312.2,141.7,1312,142L1312,142z"/>
	</g>
	<g>
		<path class="st11" d="M1313.9,144.8c-0.9,0.8-1.7,1.6-2.6,2.4c-0.2,0.2,0.1,0.6,0.4,0.4c0.9-0.8,1.7-1.6,2.6-2.4
			C1314.5,144.9,1314.2,144.6,1313.9,144.8L1313.9,144.8z"/>
	</g>
</g>
<g>
	<g>
		<g>
			<g>
				<path class="st12" d="M676.7,48.5c0.8,0,1.7,0,2.5,0"/>
				<path class="st13" d="M684.3,48.7c81.5,3.9,146.3,71.2,146.3,153.6c0,83.3-66.2,151.1-148.8,153.7"/>
				<path class="st12" d="M679.2,356.1c-0.8,0-1.7,0-2.5,0"/>
			</g>
		</g>
		<circle class="st14" cx="678.1" cy="48.5" r="5.2"/>
		<path class="st14" d="M673,354.9c0-2.9,2.3-5.2,5.2-5.2s5.2,2.3,5.2,5.2s-2.3,5.2-5.2,5.2S673,357.8,673,354.9z"/>
	</g>
	<path class="st15" d="M767.4,201.6c0,3-0.2,6-0.5,8.9c-4.5,43.7-41.3,77.7-86.1,77.7v-18c34.4,0,62.8-26.2,66.2-59.7
		c0.2-2.2,0.3-4.5,0.3-6.8c0-36.7-29.8-66.5-66.5-66.5V115C728.7,115,767.4,153.7,767.4,201.6z"/>
	<path class="st16" d="M1003.4,10.9H844.8c-17.2,0-31.1,13.9-31.1,31.1l0,0c0,17.2,13.9,31.1,31.1,31.1h158.6
		c17.2,0,31.1-13.9,31.1-31.1l0,0C1034.4,24.8,1020.5,10.9,1003.4,10.9z"/>
	<g>
		<g>
			<rect x="843.8" y="39.1" class="st17" width="114.7" height="23.5"/>
			<text transform="matrix(1 0 0 1 843.761 42.5139)" class="st18 st19 st20">I can make a logo for you , the type you want , and the </text>
			<text transform="matrix(1 0 0 1 843.761 49.7339)" class="st18 st19 st20">model you desire , well make your expectations real</text>
			<text transform="matrix(1 0 0 1 843.761 56.9539)" class="st18 st19 st20">tell us your ideas and well realise it</text>
		</g>
		<g>
			<g>
				<text transform="matrix(1 0 0 1 843.0574 31.4206)" class="st18 st19 st21">Logo Design</text>
			</g>
		</g>
	</g>
	<g>
		<g>
			<g>
				
					<rect x="762.1" y="63.9" transform="matrix(0.6107 -0.7919 0.7919 0.6107 255.1724 648.8213)" class="st14" width="50.7" height="1.9"/>
			</g>
			<g>
				<path class="st14" d="M771.3,93.2c-4.7,0-8.6-3.9-8.6-8.6s3.9-8.6,8.6-8.6c4.7,0,8.6,3.9,8.6,8.6
					C779.9,89.4,776,93.2,771.3,93.2z"/>
				<path class="st15" d="M766.3,84.6c0-2.7,2.2-5,5-5s5,2.2,5,5s-2.2,5-5,5S766.3,87.4,766.3,84.6z"/>
			</g>
		</g>
		<g>
			<ellipse class="st22" cx="805.9" cy="44" rx="23.9" ry="23.9"/>
		</g>
	</g>
	<path class="st23" d="M1068.3,90.8H909.7c-17.2,0-31.1,13.9-31.1,31.1l0,0c0,17.2,13.9,31.1,31.1,31.1h158.6
		c17.2,0,31.1-13.9,31.1-31.1l0,0C1099.4,104.7,1085.5,90.8,1068.3,90.8z"/>
	<g>
		<g>
			<g>
				<g>
					<rect x="908.7" y="118.9" class="st17" width="114.7" height="23.5"/>
					<text transform="matrix(1 0 0 1 908.7263 122.3635)" class="st18 st19 st20">I can make modern and wonderful business card </text>
					<text transform="matrix(1 0 0 1 908.7263 129.5835)" class="st18 st19 st20">with any model you want with your own logo and </text>
					<text transform="matrix(1 0 0 1 908.7263 136.8035)" class="st18 st19 st20">informtions</text>
				</g>
				<g>
					<g>
						<text transform="matrix(1 0 0 1 908.0222 111.2693)" class="st18 st19 st21">Business Card Design</text>
					</g>
				</g>
			</g>
		</g>
	</g>
	<g>
		<g>
			<g>
				
					<rect x="814.6" y="133.4" transform="matrix(0.9219 -0.3874 0.3874 0.9219 13.8244 337.288)" class="st14" width="57.9" height="1.9"/>
			</g>
			<g>
				
					<ellipse transform="matrix(0.8864 -0.4629 0.4629 0.8864 25.7556 395.3231)" class="st14" cx="818.4" cy="145.2" rx="8.6" ry="8.6"/>
				<path class="st24" d="M813.4,145.2c0-2.7,2.2-5,5-5s5,2.2,5,5s-2.2,5-5,5C815.6,150.2,813.4,148,813.4,145.2z"/>
			</g>
		</g>
		<g>
			<ellipse class="st22" cx="870.8" cy="123.9" rx="23.9" ry="23.9"/>
		</g>
	</g>
	<path class="st16" d="M1081.9,170.6H923.3c-17.2,0-31.1,13.9-31.1,31.1l0,0c0,17.2,13.9,31.1,31.1,31.1h158.6
		c17.2,0,31.1-13.9,31.1-31.1l0,0C1112.9,184.5,1099,170.6,1081.9,170.6z"/>
	<g>
		<g>
			<g>
				<g>
					<rect x="922.3" y="198.8" class="st17" width="114.7" height="23.5"/>
					<text transform="matrix(1 0 0 1 922.2595 202.2121)" class="st18 st19 st20">I can make wonderful and modern T-shirts Design</text>
					<text transform="matrix(1 0 0 1 922.2595 209.4321)" class="st18 st19 st20">exactly as you wish and with the size you want </text>
				</g>
				<g>
					<g>
						<text transform="matrix(1 0 0 1 921.5565 191.1184)" class="st18 st19 st21">T-shirt Design</text>
					</g>
				</g>
			</g>
		</g>
	</g>
	<g>
		<g>
			<g>
				<rect x="827.2" y="201.3" class="st14" width="54.4" height="1.9"/>
			</g>
			<g>
				<path class="st14" d="M829.8,210.9c-4.7,0-8.6-3.9-8.6-8.6c0-4.7,3.9-8.6,8.6-8.6c4.7,0,8.6,3.9,8.6,8.6
					S834.5,210.9,829.8,210.9z"/>
				<path class="st15" d="M824.8,202.4c0-2.7,2.2-5,5-5s5,2.2,5,5s-2.2,5-5,5S824.8,205.1,824.8,202.4z"/>
			</g>
		</g>
		<g>
			<ellipse class="st22" cx="884.4" cy="203.7" rx="23.9" ry="23.9"/>
		</g>
	</g>
	<path class="st23" d="M1064.7,250.5H906.1c-17.2,0-31.1,13.9-31.1,31.1l0,0c0,17.2,13.9,31.1,31.1,31.1h158.6
		c17.2,0,31.1-13.9,31.1-31.1l0,0C1095.8,264.4,1081.9,250.5,1064.7,250.5z"/>
	<g>
		<g>
			<g>
				<g>
					<rect x="905.1" y="278.6" class="st17" width="114.7" height="23.5"/>
					<text transform="matrix(1 0 0 1 905.116 282.0603)" class="st18 st19 st20">Ill make you a portfolio or any other front-end Website</text>
					<text transform="matrix(1 0 0 1 905.116 289.2803)" class="st18 st19 st20">like mine if you need or any different type you like</text>
					<text transform="matrix(1 0 0 1 905.116 296.5003)" class="st18 st19 st20">and also i can make Web Design for you</text>
				</g>
				<g>
					<g>
						<text transform="matrix(1 0 0 1 904.4128 270.9675)" class="st18 st19 st21">Front-end Web Development &amp; Design</text>
					</g>
				</g>
			</g>
		</g>
	</g>
	<g>
		<g>
			<g>
				
					<rect x="841.9" y="240.6" transform="matrix(0.3875 -0.9219 0.9219 0.3875 266.9871 942.5997)" class="st14" width="1.9" height="59.6"/>
			</g>
			<g>
				<ellipse class="st14" cx="818.1" cy="260.4" rx="8.6" ry="8.6"/>
				<path class="st24" d="M813.1,260.4c0-2.7,2.2-5,5-5s5,2.2,5,5s-2.2,5-5,5S813.1,263.2,813.1,260.4z"/>
			</g>
		</g>
		<g>
			<ellipse class="st22" cx="867.2" cy="283.6" rx="23.9" ry="23.9"/>
		</g>
	</g>
	<path class="st16" d="M1003.4,330.3H844.8c-17.2,0-31.1,13.9-31.1,31.1l0,0c0,17.2,13.9,31.1,31.1,31.1h158.6
		c17.2,0,31.1-13.9,31.1-31.1l0,0C1034.4,344.2,1020.5,330.3,1003.4,330.3z"/>
	<g>
		<g>
			<g>
				<g>
					<rect x="843.8" y="358.5" class="st17" width="114.7" height="23.5"/>
					<text transform="matrix(1 0 0 1 843.761 361.9089)" class="st18 st19 st20">Like book cover Design , magazine cover Design</text>
					<text transform="matrix(1 0 0 1 843.761 369.1289)" class="st18 st19 st20">brochure</text>
					<text transform="matrix(1 0 0 1 862.411 369.1289)" class="st18 st19 st20"> </text>
					<text transform="matrix(1 0 0 1 864.6111 369.1289)" class="st18 st19 st20">Design</text>
					<text transform="matrix(1 0 0 1 878.801 369.1289)" class="st18 st19 st20"> </text>
					<text transform="matrix(1 0 0 1 881.001 369.1289)" class="st18 st19 st20">,</text>
					<text transform="matrix(1 0 0 1 882.011 369.1289)" class="st18 st19 st20"> </text>
					<text transform="matrix(1 0 0 1 884.2111 369.1289)" class="st18 st19 st20">dvertisements</text>
					<text transform="matrix(1 0 0 1 913.2111 369.1289)" class="st18 st19 st20"> </text>
					<text transform="matrix(1 0 0 1 915.411 369.1289)" class="st18 st19 st20">Design</text>
					<text transform="matrix(1 0 0 1 929.6011 369.1289)" class="st18 st19 st20"> </text>
					<text transform="matrix(1 0 0 1 931.801 369.1289)" class="st18 st19 st20">,</text>
					<text transform="matrix(1 0 0 1 932.811 369.1289)" class="st18 st19 st20"> </text>
					<text transform="matrix(1 0 0 1 935.011 369.1289)" class="st18 st19 st20">comic</text>
					<text transform="matrix(1 0 0 1 947.261 369.1289)" class="st18 st19 st20"> </text>
					<text transform="matrix(1 0 0 1 949.4611 369.1289)" class="st18 st19 st20">strip </text>
					<text transform="matrix(1 0 0 1 843.761 376.3489)" class="st18 st19 st20">Design ..... </text>
				</g>
				<g>
					<g>
						<text transform="matrix(1 0 0 1 843.0574 350.8161)" class="st18 st19 st21">Other Graphic Design services</text>
					</g>
				</g>
			</g>
		</g>
	</g>
	<g>
		<g>
			<g>
				
					<rect x="785.4" y="312.3" transform="matrix(0.7919 -0.6106 0.6106 0.7919 -43.573 550.749)" class="st14" width="1.9" height="54"/>
			</g>
			<g>
				<ellipse class="st14" cx="771.1" cy="320.3" rx="8.6" ry="8.6"/>
				<path class="st15" d="M766.2,320.3c0-2.7,2.2-5,5-5s5,2.2,5,5s-2.2,5-5,5S766.2,323,766.2,320.3z"/>
			</g>
		</g>
		<g>
			<circle class="st22" cx="805.9" cy="363.4" r="23.9"/>
		</g>
	</g>
	<path class="st24" d="M767.4,201.6c0,3-0.2,6-0.5,8.9h-20c0.2-2.2,0.3-4.5,0.3-6.8c0-36.7-29.8-66.5-66.5-66.5V115
		C728.7,115,767.4,153.7,767.4,201.6z"/>
</g>
<linearGradient id="SVGID_00000178905934774411882780000007578485083909878683_" gradientUnits="userSpaceOnUse" x1="640.0996" y1="210.9281" x2="739.7611" y2="180.1368" gradientTransform="matrix(1 0 0 1 0 2)">
	<stop  offset="0" style="stop-color:#71AEE1"/>
	<stop  offset="1.600000e-02" style="stop-color:#6FA7DB"/>
	<stop  offset="4.830001e-02" style="stop-color:#6DA0D6"/>
	<stop  offset="0.1379" style="stop-color:#6C9ED5"/>
	<stop  offset="0.139" style="stop-color:#7A8CBC"/>
	<stop  offset="0.1408" style="stop-color:#8F7196"/>
	<stop  offset="0.1428" style="stop-color:#A15975"/>
	<stop  offset="0.145" style="stop-color:#AF465A"/>
	<stop  offset="0.1473" style="stop-color:#BB3745"/>
	<stop  offset="0.1499" style="stop-color:#C32C36"/>
	<stop  offset="0.153" style="stop-color:#C8262E"/>
	<stop  offset="0.1579" style="stop-color:#C9242B"/>
	<stop  offset="0.3106" style="stop-color:#C5252F"/>
	<stop  offset="0.4541" style="stop-color:#BB273A"/>
	<stop  offset="0.5939" style="stop-color:#A82A4D"/>
	<stop  offset="0.7314" style="stop-color:#8F2F68"/>
	<stop  offset="0.8662" style="stop-color:#6E358A"/>
	<stop  offset="0.881" style="stop-color:#6A368E"/>
	<stop  offset="0.8929" style="stop-color:#6C358E"/>
	<stop  offset="0.8972" style="stop-color:#732F8C"/>
	<stop  offset="0.8986" style="stop-color:#772C8B"/>
	<stop  offset="1" style="stop-color:#614093"/>
</linearGradient>
<path style="fill:url(#SVGID_00000178905934774411882780000007578485083909878683_);" d="M729.2,201.6c0,0-3.4-18.8-12.9-33.2
	c-9.5-14.5-30.8-17.9-31.3-18.7c-0.6-0.8-2.7-3.2-4.1-3.8c-1.4-0.6-3.4-6.5-3.4-6.5c-0.8,7.3,2.2,8.1,3.1,8.9
	c0.8,0.7,1.8,2.3,2.2,4.2s8.2,19.1,8.4,22.1s-9.4,2.9-9.6,2.9c3.8-3.2,2.6-13.4,2.6-13.4s0.8-0.1,0.6-0.3c0.4-2.4-2.7-8-2.7-8
	l0.6-0.2c-0.6-1-4.1-4.5-8-6.5c-3.9-2.1-7.5-1.5-7.5-1.5s0.3-1.1,3.9-4.3c3.7-3.2,4.9-6.8,4.6-6.2c-0.3,0.6-5.4,5.2-7.2,6.4
	s-5.2,4.3-5.7,4.8c-0.8-1.7,0.4-4.1,0.2-4c-2.8,1.6-1.6,5.1-1.6,5.1s-0.4,0.4-3.1,2.5c-2.7,2.1-3.4,7.4-4,6.2s0-3.4-0.1-3.5
	c-1.9,1.9-0.9,5.5-0.9,5.7c-2.2,2-0.3,5.4-0.3,5.4c0.1-0.2,0.3-0.4,0.5-0.6v0.1l1.3,0.8l-0.2-1.2l1.9,1l-0.3-1.1l0,0
	c0.5,0,0.9,0.1,0.9,0.1s-0.7-1,1.4-2.6c2-1.6,3.8-0.3,3.8-0.3c-1.3,0.1-2.2,2.1-2.2,2.6s-1.3,1.8-2.1,2.1s-1.1,1.6-1.1,1.6l1.7,0.5
	l2.6-2.6l3.1-3.2c2.4-0.8,1.9,3.2,2.4,3.1c2.5,0.1,1.4-4.8,1.5-4.8c6.3,3.1,0.2,8.6,0.2,8.6l-8.3,3l0.8,0.6l-7.2,2.6
	c0,0,1,0.9,1,1.1c-9.7,4.5-3,16.8-3,16.8l-8.8-11c0,0-0.8-2.1-3.5-3c-2.7-1-7.3,1.2-7.3,1.2l-1.3,1.8l0.6,2.1l1.1-2.1l3.1-0.2
	l-2.8,3.5l-0.3,2.4v2.2l1.5,1.7l-0.6-1.6l0.6-1.6l0.8,0.8l0.1,1.9l1.4,1.2l-0.6-2.5l2-1.7l4,0.6c0,0,10.5,18.5,13.1,19.2
	s6.4-6.4,6.4-6.4c2.2,1.7,18.5,4.7,15.6,5.8s-3.8,4.9-3.3,7.6s9.9,8.3,10.9,10.6s-3.8,7.6-3.8,7.6s-5.4,0.5-5.7,0.5
	c-0.2,0-1.8-0.4-3.2-0.7c-0.5-0.6-0.9-1.1-1.2-1.7c-3.9-7.3-14-14.4-20.7-9.9c-6.8,4.5-7.1,9.3-6.8,14.8s5.4,12.4,5.4,12.4l0.3,2.6
	l-3,1.5l9.4,2.4l0.6,4.4l16.8,7.5l-8.4-12.9c0,0-7.9-2.1-8.2-2.2c-0.3-0.1-5.5-5.4-6.2-6.3c-0.7-0.9-8.9-21,5-20.5
	c5.8,0.2,8.9,4.1,12,8.7h-0.1c0,0-1.3,2.9-1.1,4.1c0.2,1.2,1,4.3,1,4.3l0.4-3.2l0.8-2.1l1.1-0.1c0.2,0.4,0.5,0.7,0.7,1
	c-0.4,0.3-0.8,0.6-0.9,0.8c-0.4,0.7-0.9,1.8-0.9,1.8l0.8,4l0.8-2.9l0.8-0.1l1.1-1.4c0.5,0.6,0.9,1.1,1.5,1.7
	c-0.3,0.4-0.5,0.6-0.5,0.7c0,0.2,0.5,2.7,0.5,2.7s-0.6,0.5-0.5,0.7s1.6,3.4,1.7,3.2s1-3.2,1-3.2l0.6-0.1c0,0,0.2-0.5,0.4-1.1
	c2.9,2.2,6.7,3.9,11.7,4.2c21.8,0.8,26.8-14.7,26.8-14.7l1.3-10.1h1.1l-3.8-9.4l1.1-0.7l-11-14.5l1.2-0.5l-9-5.3l0.7-0.9
	c0,0-8.8-3.7-9.1-3.7c0.3-2.3,2.3-3.4,3.4-3.5c9.7-0.1,18.1,14.8,18.1,14.8s-1.3-9.4,0.5-10.5c5-0.7,12.1,29.1,12.1,29.1l-2.5-18.9
	l10.7,39.1l-2.5-29.3c0,0,3,8.7,2.9,8.5c2.8,4.6,3,19.8,3,19.8C737.9,230.9,729.2,201.6,729.2,201.6z M687,232.9
	c0,0,5.5-5.1,6.6-6.9c1-1.8-4.2-6.3-4.2-6.3l8.2-3.2c0,0,13.2,9.2,5.4,19.7c-4.6,6.2-13.8,6.2-21.3,3.5c1.9-0.1,4.7-0.3,4.7-0.3
	l0.2-1l-0.9-0.9L687,232.9z"/>
<path class="st26" d="M658.9,156.5c0.1,0,0.2,0,0.2,0c0.2-0.1,0.3-0.3,0.4-0.4c0-0.1,0.1-0.1,0.1-0.2c0.1-0.1,0.1-0.2,0.2-0.4
	c0-0.1,0.1-0.3,0-0.4c-0.1,0-0.3,0-0.5,0c-0.1,0-0.1,0-0.2,0c-0.2,0-0.3,0.2-0.4,0.3c-0.1,0.1-0.2,0.2-0.3,0.3l-0.1,0.1
	c0,0.1-0.2,0.5-0.1,0.6C658.4,156.6,658.8,156.5,658.9,156.5z"/>
<text transform="matrix(1 0 0 1 797.1608 53.6741)" class="st24 st19 st27">1</text>
<text transform="matrix(1 0 0 1 861.0111 134.3374)" class="st15 st19 st27">2</text>
<text transform="matrix(1 0 0 1 876.191 213.9523)" class="st24 st19 st27">3</text>
<text transform="matrix(1 0 0 1 857.9177 292.8687)" class="st15 st19 st27">4</text>
<text transform="matrix(1 0 0 1 796.5239 374.3538)" class="st24 st19 st27">5</text>
<text transform="matrix(1 0 0 1 12.9914 123.6048)" class="st18 st19 st28">Our commitment to serving your needs</text>
<text transform="matrix(1 0 0 1 12.9914 166.6048)" class="st18 st19 st28"> extends beyond web development and </text>
<text transform="matrix(1 0 0 1 12.9914 209.6048)" class="st18 st19 st28">web design. We proudly offer a </text>
<text transform="matrix(1 0 0 1 12.9914 252.6048)" class="st18 st19 st28">comprehensive range of graphic design </text>
<text transform="matrix(1 0 0 1 12.9914 295.5048)" class="st18 st19 st28">services across various categories</text>
</svg>
