<?xml version="1.0" encoding="utf-8"?>
<!-- Generator: Adobe Illustrator 27.3.1, SVG Export Plug-In . SVG Version: 6.00 Build 0)  -->
<svg version="1.1" id="Layer_1" xmlns="http://www.w3.org/2000/svg" xmlns:xlink="http://www.w3.org/1999/xlink" x="0px" y="0px"
	 viewBox="0 0 190 55" style="enable-background:new 0 0 190 55;" xml:space="preserve">
<style type="text/css">
	.st0{fill:#FF0000;}
	.st1{fill:#F1F2F2;}
	.st2{fill:#231F20;}
	.st3{fill:#0071BC;}
</style>
<g>
	<path d="M70.1,6.5c0,0.8-0.2,1.4-0.6,1.8c-0.4,0.4-0.9,0.6-1.6,0.6c-0.7,0-1.2-0.2-1.6-0.6c-0.4-0.4-0.6-1-0.6-1.8
		c0-0.8,0.2-1.4,0.6-1.8c0.4-0.4,0.9-0.6,1.6-0.6s1.3,0.2,1.6,0.6C69.9,5.2,70.1,5.8,70.1,6.5z M66.8,6.5c0,0.5,0.1,0.9,0.3,1.2
		c0.2,0.3,0.5,0.4,0.9,0.4c0.8,0,1.2-0.5,1.2-1.6c0-1-0.4-1.6-1.2-1.6c-0.4,0-0.7,0.1-0.9,0.4C66.9,5.6,66.8,6,66.8,6.5z"/>
	<path d="M74.8,4.2v3c0,0.3-0.1,0.6-0.2,0.9c-0.2,0.3-0.4,0.5-0.7,0.6c-0.3,0.1-0.6,0.2-1,0.2c-0.6,0-1.1-0.2-1.4-0.5
		c-0.3-0.3-0.5-0.7-0.5-1.2v-3h1v2.8c0,0.4,0.1,0.6,0.2,0.8C72.4,8,72.6,8.1,73,8.1c0.3,0,0.6-0.1,0.7-0.3c0.1-0.2,0.2-0.4,0.2-0.8
		V4.2H74.8z"/>
	<path d="M76.9,7.1v1.8h-1V4.2h1.3c0.6,0,1.1,0.1,1.4,0.3c0.3,0.2,0.5,0.6,0.5,1c0,0.3-0.1,0.5-0.2,0.7c-0.1,0.2-0.4,0.4-0.6,0.5
		l1.4,2h-1.1l-1.1-1.8H76.9z M76.9,6.3h0.3c0.3,0,0.5-0.1,0.7-0.2c0.1-0.1,0.2-0.3,0.2-0.5c0-0.2-0.1-0.4-0.2-0.5
		C77.8,5.1,77.6,5,77.2,5h-0.3V6.3z"/>
	<path class="st0" d="M84.7,8.8l-0.3-1.1h-1.7l-0.3,1.1h-1.1L83,4.2h1.2l1.6,4.6H84.7z M84.2,6.9c-0.3-1-0.5-1.6-0.5-1.7
		c0-0.1-0.1-0.2-0.1-0.3c-0.1,0.3-0.3,0.9-0.6,2H84.2z"/>
	<path class="st0" d="M90.2,6.5c0,0.8-0.2,1.3-0.6,1.7c-0.4,0.4-1.1,0.6-1.9,0.6h-1.3V4.2h1.4c0.8,0,1.3,0.2,1.8,0.6
		C90,5.2,90.2,5.8,90.2,6.5z M89.2,6.5c0-1-0.4-1.5-1.3-1.5h-0.5v3h0.4C88.7,8,89.2,7.5,89.2,6.5z"/>
	<path class="st0" d="M93.8,4.2h1l-1.6,4.6h-1.1l-1.6-4.6h1L92.4,7c0,0.2,0.1,0.4,0.1,0.6c0.1,0.2,0.1,0.4,0.1,0.4
		c0-0.2,0.1-0.5,0.2-1L93.8,4.2z"/>
	<path class="st0" d="M98,8.8l-0.3-1.1H96l-0.3,1.1h-1.1l1.6-4.6h1.2l1.6,4.6H98z M97.5,6.9c-0.3-1-0.5-1.6-0.5-1.7
		c0-0.1-0.1-0.2-0.1-0.3c-0.1,0.3-0.3,0.9-0.6,2H97.5z"/>
	<path class="st0" d="M103.8,8.8h-1.2l-2-3.5h0c0,0.6,0.1,1.1,0.1,1.3v2.2h-0.9V4.2h1.2l2,3.5h0c0-0.6,0-1,0-1.3V4.2h0.9V8.8z"/>
	<path class="st0" d="M106.7,8.8h-1V5h-1.3V4.2h3.5V5h-1.3V8.8z"/>
	<path class="st0" d="M111.3,8.8l-0.3-1.1h-1.7l-0.3,1.1h-1.1l1.6-4.6h1.2l1.6,4.6H111.3z M110.7,6.9c-0.3-1-0.5-1.6-0.5-1.7
		c0-0.1-0.1-0.2-0.1-0.3c-0.1,0.3-0.3,0.9-0.6,2H110.7z"/>
	<path class="st0" d="M114.6,6.3h1.8v2.4c-0.3,0.1-0.6,0.2-0.8,0.2c-0.3,0-0.5,0.1-0.8,0.1c-0.7,0-1.2-0.2-1.6-0.6
		c-0.4-0.4-0.6-1-0.6-1.8c0-0.7,0.2-1.3,0.6-1.7c0.4-0.4,1-0.6,1.8-0.6c0.5,0,0.9,0.1,1.4,0.3l-0.3,0.8C115.7,5.1,115.4,5,115,5
		c-0.4,0-0.8,0.1-1,0.4c-0.3,0.3-0.4,0.7-0.4,1.1c0,0.5,0.1,0.9,0.3,1.1c0.2,0.3,0.5,0.4,0.9,0.4c0.2,0,0.4,0,0.6-0.1v-1h-0.9V6.3z"
		/>
	<path class="st0" d="M120.2,8.8h-2.7V4.2h2.7V5h-1.7v1h1.6v0.8h-1.6V8h1.7V8.8z"/>
	<path class="st0" d="M123.9,7.6c0,0.4-0.1,0.7-0.4,1c-0.3,0.2-0.7,0.4-1.3,0.4c-0.5,0-0.9-0.1-1.3-0.3V7.7c0.3,0.1,0.6,0.2,0.8,0.3
		c0.2,0.1,0.4,0.1,0.6,0.1c0.2,0,0.4,0,0.5-0.1c0.1-0.1,0.2-0.2,0.2-0.4c0-0.1,0-0.2-0.1-0.2c-0.1-0.1-0.1-0.1-0.2-0.2
		c-0.1-0.1-0.3-0.2-0.6-0.3c-0.3-0.1-0.5-0.3-0.6-0.4c-0.1-0.1-0.3-0.3-0.3-0.4c-0.1-0.2-0.1-0.4-0.1-0.6c0-0.4,0.1-0.7,0.4-1
		c0.3-0.2,0.7-0.4,1.1-0.4c0.2,0,0.5,0,0.7,0.1c0.2,0.1,0.4,0.1,0.7,0.2l-0.3,0.8c-0.2-0.1-0.4-0.2-0.6-0.2c-0.2,0-0.3-0.1-0.5-0.1
		c-0.2,0-0.3,0-0.4,0.1c-0.1,0.1-0.1,0.2-0.1,0.3c0,0.1,0,0.2,0.1,0.2c0,0.1,0.1,0.1,0.2,0.2c0.1,0.1,0.3,0.2,0.6,0.3
		c0.4,0.2,0.7,0.4,0.9,0.6C123.8,7,123.9,7.3,123.9,7.6z"/>
</g>
<g>
	<path d="M16.3,50.9h-0.6v-0.1l0.2,0v-1.4l-0.2,0v-0.1h0.6v0.1l-0.2,0v1.4l0.2,0V50.9z"/>
	<path d="M18,50.9h-0.3l-0.9-1.5h0l0,0.1c0,0.1,0,0.3,0,0.4v1h-0.2v-1.8h0.3l0.1,0.1l0.6,0.9l0.3,0.5h0c0,0,0-0.1,0-0.2
		c0-0.1,0-0.2,0-0.3v-1H18V50.9z"/>
	<path d="M19.9,50.9h-0.3l-0.9-1.5h0l0,0.1c0,0.1,0,0.3,0,0.4v1h-0.2v-1.8h0.3l0.1,0.1l0.6,0.9l0.3,0.5h0c0,0,0-0.1,0-0.2
		c0-0.1,0-0.2,0-0.3v-1h0.2V50.9z"/>
	<path d="M21.9,50c0,0.3-0.1,0.5-0.2,0.7c-0.1,0.2-0.3,0.2-0.6,0.2c-0.3,0-0.5-0.1-0.6-0.2c-0.1-0.2-0.2-0.4-0.2-0.7
		c0-0.3,0.1-0.5,0.2-0.7c0.1-0.2,0.3-0.2,0.6-0.2c0.3,0,0.5,0.1,0.6,0.2C21.8,49.5,21.9,49.8,21.9,50z M20.5,50c0,0.2,0,0.4,0.1,0.5
		c0.1,0.1,0.2,0.2,0.4,0.2c0.2,0,0.3-0.1,0.4-0.2c0.1-0.1,0.1-0.3,0.1-0.5c0-0.2,0-0.4-0.1-0.5c-0.1-0.1-0.2-0.2-0.4-0.2
		c-0.2,0-0.3,0.1-0.4,0.2C20.5,49.6,20.5,49.8,20.5,50z"/>
	<path d="M22,49.2h0.2l0.4,1.1c0.1,0.1,0.1,0.3,0.1,0.4c0-0.1,0.1-0.2,0.1-0.4l0.4-1.1h0.2l-0.6,1.8h-0.2L22,49.2z"/>
	<path d="M24.8,50.9l-0.2-0.5h-0.7l-0.2,0.5h-0.2l0.7-1.8h0.2l0.7,1.8H24.8z M24.5,50.2l-0.2-0.5l-0.1-0.3c0,0.1,0,0.2-0.1,0.3
		L24,50.2H24.5z"/>
	<path d="M25.7,50.9h-0.2v-1.6H25v-0.2h1.3v0.2h-0.5V50.9z"/>
	<path d="M27,50.9h-0.6v-0.1l0.2,0v-1.4l-0.2,0v-0.1H27v0.1l-0.2,0v1.4l0.2,0V50.9z"/>
	<path d="M28.9,50c0,0.3-0.1,0.5-0.2,0.7c-0.1,0.2-0.3,0.2-0.6,0.2c-0.3,0-0.5-0.1-0.6-0.2c-0.1-0.2-0.2-0.4-0.2-0.7
		c0-0.3,0.1-0.5,0.2-0.7c0.1-0.2,0.3-0.2,0.6-0.2c0.3,0,0.5,0.1,0.6,0.2C28.9,49.5,28.9,49.8,28.9,50z M27.5,50c0,0.2,0,0.4,0.1,0.5
		c0.1,0.1,0.2,0.2,0.4,0.2c0.2,0,0.3-0.1,0.4-0.2c0.1-0.1,0.1-0.3,0.1-0.5c0-0.2,0-0.4-0.1-0.5c-0.1-0.1-0.2-0.2-0.4-0.2
		c-0.2,0-0.3,0.1-0.4,0.2C27.6,49.6,27.5,49.8,27.5,50z"/>
	<path d="M30.7,50.9h-0.3l-0.9-1.5h0l0,0.1c0,0.1,0,0.3,0,0.4v1h-0.2v-1.8h0.3l0.1,0.1l0.6,0.9l0.3,0.5h0c0,0,0-0.1,0-0.2
		c0-0.1,0-0.2,0-0.3v-1h0.2V50.9z"/>
</g>
<g>
	<path d="M55.7,50c0,0.2,0,0.4-0.1,0.6c-0.1,0.1-0.2,0.3-0.4,0.3l0.4,0.4h-0.3l-0.3-0.4l-0.1,0c-0.3,0-0.5-0.1-0.6-0.2
		C54.1,50.6,54,50.3,54,50c0-0.3,0.1-0.5,0.2-0.7c0.1-0.2,0.3-0.2,0.6-0.2c0.3,0,0.5,0.1,0.6,0.2C55.6,49.5,55.7,49.8,55.7,50z
		 M54.3,50c0,0.2,0,0.4,0.1,0.5c0.1,0.1,0.2,0.2,0.4,0.2c0.2,0,0.3-0.1,0.4-0.2c0.1-0.1,0.1-0.3,0.1-0.5c0-0.2,0-0.4-0.1-0.5
		c-0.1-0.1-0.2-0.2-0.4-0.2c-0.2,0-0.3,0.1-0.4,0.2C54.3,49.6,54.3,49.8,54.3,50z"/>
	<path d="M57.4,49.2v1.1c0,0.2-0.1,0.4-0.2,0.5c-0.1,0.1-0.3,0.2-0.5,0.2c-0.2,0-0.4-0.1-0.5-0.2c-0.1-0.1-0.2-0.3-0.2-0.5v-1.1h0.2
		v1.1c0,0.1,0,0.3,0.1,0.3c0.1,0.1,0.2,0.1,0.3,0.1c0.1,0,0.3,0,0.3-0.1c0.1-0.1,0.1-0.2,0.1-0.3v-1.1H57.4z"/>
	<path d="M59,50.9l-0.2-0.5H58l-0.2,0.5h-0.2l0.7-1.8h0.2l0.7,1.8H59z M58.7,50.2l-0.2-0.5l-0.1-0.3c0,0.1,0,0.2-0.1,0.3l-0.2,0.5
		H58.7z"/>
	<path d="M59.4,50.9v-1.8h0.2v1.6h0.8v0.2H59.4z"/>
	<path d="M61.2,50.9h-0.6v-0.1l0.2,0v-1.4l-0.2,0v-0.1h0.6v0.1l-0.2,0v1.4l0.2,0V50.9z"/>
	<path d="M62.1,50.9h-0.2v-1.6h-0.6v-0.2h1.3v0.2h-0.5V50.9z"/>
	<path d="M63.4,50l0.5-0.9h0.2l-0.6,1.1v0.7h-0.2v-0.7l-0.6-1.1h0.2L63.4,50z"/>
</g>
<g>
	<path d="M88.8,50.9h-1v-1.8h1v0.2h-0.8v0.5h0.7v0.2h-0.7v0.6h0.8V50.9z"/>
	<path d="M90.4,50.9h-0.3l-0.5-0.8l-0.5,0.8H89l0.6-0.9L89,49.2h0.2l0.4,0.7l0.4-0.7h0.2L89.8,50L90.4,50.9z"/>
	<path d="M91.8,49.7c0,0.2-0.1,0.3-0.2,0.4c-0.1,0.1-0.3,0.1-0.5,0.1h-0.2v0.7h-0.2v-1.8h0.5C91.6,49.2,91.8,49.3,91.8,49.7z
		 M90.9,50h0.2c0.2,0,0.3,0,0.4-0.1c0.1-0.1,0.1-0.1,0.1-0.3c0-0.1,0-0.2-0.1-0.3c-0.1-0.1-0.2-0.1-0.3-0.1h-0.2V50z"/>
	<path d="M93.2,50.9h-1v-1.8h1v0.2h-0.8v0.5h0.7v0.2h-0.7v0.6h0.8V50.9z"/>
	<path d="M93.8,50.2v0.7h-0.2v-1.8H94c0.2,0,0.4,0,0.5,0.1c0.1,0.1,0.2,0.2,0.2,0.4c0,0.2-0.1,0.4-0.4,0.5l0.5,0.8h-0.3l-0.4-0.7
		H93.8z M93.8,50H94c0.1,0,0.2,0,0.3-0.1c0.1-0.1,0.1-0.1,0.1-0.3c0-0.1,0-0.2-0.1-0.2c-0.1-0.1-0.2-0.1-0.3-0.1h-0.3V50z"/>
	<path d="M95.6,50.9h-0.6v-0.1l0.2,0v-1.4l-0.2,0v-0.1h0.6v0.1l-0.2,0v1.4l0.2,0V50.9z"/>
	<path d="M96.9,50.9h-1v-1.8h1v0.2h-0.8v0.5h0.7v0.2h-0.7v0.6h0.8V50.9z"/>
	<path d="M98.7,50.9h-0.3l-0.9-1.5h0l0,0.1c0,0.1,0,0.3,0,0.4v1h-0.2v-1.8h0.3l0.1,0.1l0.6,0.9l0.3,0.5h0c0,0,0-0.1,0-0.2
		c0-0.1,0-0.2,0-0.3v-1h0.2V50.9z"/>
	<path d="M99.9,49.3c-0.2,0-0.3,0.1-0.4,0.2c-0.1,0.1-0.2,0.3-0.2,0.5c0,0.2,0.1,0.4,0.2,0.5c0.1,0.1,0.3,0.2,0.4,0.2
		c0.1,0,0.3,0,0.4-0.1v0.2c-0.1,0-0.1,0-0.2,0.1c-0.1,0-0.1,0-0.2,0c-0.3,0-0.5-0.1-0.6-0.2c-0.1-0.2-0.2-0.4-0.2-0.7
		c0-0.2,0-0.3,0.1-0.5c0.1-0.1,0.2-0.2,0.3-0.3c0.1-0.1,0.3-0.1,0.5-0.1c0.2,0,0.3,0,0.5,0.1l-0.1,0.2
		C100.2,49.4,100,49.3,99.9,49.3z"/>
	<path d="M101.7,50.9h-1v-1.8h1v0.2h-0.8v0.5h0.7v0.2h-0.7v0.6h0.8V50.9z"/>
</g>
<g>
	<path d="M123,50.9h-0.2v-0.8h-0.9v0.8h-0.2v-1.8h0.2v0.7h0.9v-0.7h0.2V50.9z"/>
	<path d="M124.6,50.9l-0.2-0.5h-0.7l-0.2,0.5h-0.2l0.7-1.8h0.2l0.7,1.8H124.6z M124.3,50.2l-0.2-0.5l-0.1-0.3c0,0.1,0,0.2-0.1,0.3
		l-0.2,0.5H124.3z"/>
	<path d="M126.2,49.7c0,0.2-0.1,0.3-0.2,0.4c-0.1,0.1-0.3,0.1-0.5,0.1h-0.2v0.7h-0.2v-1.8h0.5C126,49.2,126.2,49.3,126.2,49.7z
		 M125.3,50h0.2c0.2,0,0.3,0,0.4-0.1c0.1-0.1,0.1-0.1,0.1-0.3c0-0.1,0-0.2-0.1-0.3c-0.1-0.1-0.2-0.1-0.3-0.1h-0.2V50z"/>
	<path d="M127.7,49.7c0,0.2-0.1,0.3-0.2,0.4c-0.1,0.1-0.3,0.1-0.5,0.1h-0.2v0.7h-0.2v-1.8h0.5C127.5,49.2,127.7,49.3,127.7,49.7z
		 M126.8,50h0.2c0.2,0,0.3,0,0.4-0.1c0.1-0.1,0.1-0.1,0.1-0.3c0-0.1,0-0.2-0.1-0.3c-0.1-0.1-0.2-0.1-0.3-0.1h-0.2V50z"/>
	<path d="M128.5,50l0.5-0.9h0.2l-0.6,1.1v0.7h-0.2v-0.7l-0.6-1.1h0.2L128.5,50z"/>
	<path d="M130.9,49.3c-0.2,0-0.3,0.1-0.4,0.2c-0.1,0.1-0.2,0.3-0.2,0.5c0,0.2,0.1,0.4,0.2,0.5c0.1,0.1,0.3,0.2,0.4,0.2
		c0.1,0,0.3,0,0.4-0.1v0.2c-0.1,0-0.1,0-0.2,0.1c-0.1,0-0.1,0-0.2,0c-0.3,0-0.5-0.1-0.6-0.2c-0.1-0.2-0.2-0.4-0.2-0.7
		c0-0.2,0-0.3,0.1-0.5c0.1-0.1,0.2-0.2,0.3-0.3c0.1-0.1,0.3-0.1,0.5-0.1c0.2,0,0.3,0,0.5,0.1l-0.1,0.2
		C131.1,49.4,131,49.3,130.9,49.3z"/>
	<path d="M131.7,50.9v-1.8h0.2v1.6h0.8v0.2H131.7z"/>
	<path d="M133.5,50.9h-0.6v-0.1l0.2,0v-1.4l-0.2,0v-0.1h0.6v0.1l-0.2,0v1.4l0.2,0V50.9z"/>
	<path d="M134.8,50.9h-1v-1.8h1v0.2H134v0.5h0.7v0.2H134v0.6h0.8V50.9z"/>
	<path d="M136.6,50.9h-0.3l-0.9-1.5h0l0,0.1c0,0.1,0,0.3,0,0.4v1h-0.2v-1.8h0.3l0.1,0.1l0.6,0.9l0.3,0.5h0c0,0,0-0.1,0-0.2
		c0-0.1,0-0.2,0-0.3v-1h0.2V50.9z"/>
	<path d="M137.6,50.9h-0.2v-1.6h-0.6v-0.2h1.3v0.2h-0.5V50.9z"/>
	<path d="M139.4,50.5c0,0.2-0.1,0.3-0.2,0.4c-0.1,0.1-0.3,0.1-0.5,0.1c-0.2,0-0.4,0-0.5-0.1v-0.2c0.1,0,0.2,0.1,0.2,0.1
		c0.1,0,0.2,0,0.2,0c0.1,0,0.2,0,0.3-0.1c0.1-0.1,0.1-0.1,0.1-0.2c0-0.1,0-0.1,0-0.1c0,0-0.1-0.1-0.1-0.1c-0.1,0-0.1-0.1-0.3-0.1
		c-0.2-0.1-0.3-0.1-0.3-0.2c-0.1-0.1-0.1-0.2-0.1-0.3c0-0.1,0.1-0.2,0.2-0.3c0.1-0.1,0.2-0.1,0.4-0.1c0.2,0,0.3,0,0.5,0.1l-0.1,0.2
		c-0.2-0.1-0.3-0.1-0.4-0.1c-0.1,0-0.2,0-0.2,0.1c-0.1,0-0.1,0.1-0.1,0.2c0,0.1,0,0.1,0,0.1c0,0,0.1,0.1,0.1,0.1
		c0.1,0,0.1,0.1,0.2,0.1c0.1,0,0.2,0.1,0.3,0.1c0.1,0,0.1,0.1,0.1,0.2C139.4,50.3,139.4,50.4,139.4,50.5z"/>
</g>
<g>
	<path d="M162,50.5c0,0.2-0.1,0.3-0.2,0.4c-0.1,0.1-0.3,0.1-0.5,0.1c-0.2,0-0.4,0-0.5-0.1v-0.2c0.1,0,0.2,0.1,0.2,0.1
		c0.1,0,0.2,0,0.2,0c0.1,0,0.2,0,0.3-0.1c0.1-0.1,0.1-0.1,0.1-0.2c0-0.1,0-0.1,0-0.1c0,0-0.1-0.1-0.1-0.1c-0.1,0-0.1-0.1-0.3-0.1
		c-0.2-0.1-0.3-0.1-0.3-0.2c-0.1-0.1-0.1-0.2-0.1-0.3c0-0.1,0.1-0.2,0.2-0.3c0.1-0.1,0.2-0.1,0.4-0.1c0.2,0,0.3,0,0.5,0.1l-0.1,0.2
		c-0.2-0.1-0.3-0.1-0.4-0.1c-0.1,0-0.2,0-0.2,0.1c-0.1,0-0.1,0.1-0.1,0.2c0,0.1,0,0.1,0,0.1c0,0,0.1,0.1,0.1,0.1
		c0.1,0,0.1,0.1,0.2,0.1c0.1,0,0.2,0.1,0.3,0.1c0.1,0,0.1,0.1,0.1,0.2C162,50.3,162,50.4,162,50.5z"/>
	<path d="M163.7,49.2v1.1c0,0.2-0.1,0.4-0.2,0.5c-0.1,0.1-0.3,0.2-0.5,0.2c-0.2,0-0.4-0.1-0.5-0.2c-0.1-0.1-0.2-0.3-0.2-0.5v-1.1
		h0.2v1.1c0,0.1,0,0.3,0.1,0.3c0.1,0.1,0.2,0.1,0.3,0.1c0.1,0,0.3,0,0.3-0.1c0.1-0.1,0.1-0.2,0.1-0.3v-1.1H163.7z"/>
	<path d="M165.3,49.7c0,0.2-0.1,0.3-0.2,0.4c-0.1,0.1-0.3,0.1-0.5,0.1h-0.2v0.7h-0.2v-1.8h0.5C165.1,49.2,165.3,49.3,165.3,49.7z
		 M164.4,50h0.2c0.2,0,0.3,0,0.4-0.1c0.1-0.1,0.1-0.1,0.1-0.3c0-0.1,0-0.2-0.1-0.3c-0.1-0.1-0.2-0.1-0.3-0.1h-0.2V50z"/>
	<path d="M166.8,49.7c0,0.2-0.1,0.3-0.2,0.4c-0.1,0.1-0.3,0.1-0.5,0.1h-0.2v0.7h-0.2v-1.8h0.5C166.5,49.2,166.8,49.3,166.8,49.7z
		 M165.9,50h0.2c0.2,0,0.3,0,0.4-0.1c0.1-0.1,0.1-0.1,0.1-0.3c0-0.1,0-0.2-0.1-0.3c-0.1-0.1-0.2-0.1-0.3-0.1h-0.2V50z"/>
	<path d="M168.7,50c0,0.3-0.1,0.5-0.2,0.7c-0.1,0.2-0.3,0.2-0.6,0.2c-0.3,0-0.5-0.1-0.6-0.2c-0.1-0.2-0.2-0.4-0.2-0.7
		c0-0.3,0.1-0.5,0.2-0.7c0.1-0.2,0.3-0.2,0.6-0.2c0.3,0,0.5,0.1,0.6,0.2C168.6,49.5,168.7,49.8,168.7,50z M167.3,50
		c0,0.2,0,0.4,0.1,0.5c0.1,0.1,0.2,0.2,0.4,0.2c0.2,0,0.3-0.1,0.4-0.2c0.1-0.1,0.1-0.3,0.1-0.5c0-0.2,0-0.4-0.1-0.5
		c-0.1-0.1-0.2-0.2-0.4-0.2c-0.2,0-0.3,0.1-0.4,0.2C167.3,49.6,167.3,49.8,167.3,50z"/>
	<path d="M169.3,50.2v0.7h-0.2v-1.8h0.5c0.2,0,0.4,0,0.5,0.1c0.1,0.1,0.2,0.2,0.2,0.4c0,0.2-0.1,0.4-0.4,0.5l0.5,0.8h-0.3l-0.4-0.7
		H169.3z M169.3,50h0.3c0.1,0,0.2,0,0.3-0.1c0.1-0.1,0.1-0.1,0.1-0.3c0-0.1,0-0.2-0.1-0.2c-0.1-0.1-0.2-0.1-0.3-0.1h-0.3V50z"/>
	<path d="M171.1,50.9h-0.2v-1.6h-0.6v-0.2h1.3v0.2h-0.5V50.9z"/>
</g>
<path class="st1" d="M23.2,46.2L23.2,46.2c-6.7,0-12.1-5.4-12.1-12.1l0,0c0-6.7,5.4-12.1,12.1-12.1l0,0c6.7,0,12.1,5.4,12.1,12.1
	l0,0C35.3,40.8,29.9,46.2,23.2,46.2z"/>
<path class="st1" d="M59,46.2L59,46.2c-6.7,0-12.1-5.4-12.1-12.1l0,0c0-6.7,5.4-12.1,12.1-12.1l0,0c6.7,0,12.1,5.4,12.1,12.1l0,0
	C71.1,40.8,65.6,46.2,59,46.2z"/>
<path class="st1" d="M94.7,46.2L94.7,46.2c-6.7,0-12.1-5.4-12.1-12.1l0,0c0-6.7,5.4-12.1,12.1-12.1l0,0c6.7,0,12.1,5.4,12.1,12.1
	l0,0C106.8,40.8,101.4,46.2,94.7,46.2z"/>
<path class="st1" d="M130.5,46.2L130.5,46.2c-6.7,0-12.1-5.4-12.1-12.1l0,0c0-6.7,5.4-12.1,12.1-12.1l0,0c6.7,0,12.1,5.4,12.1,12.1
	l0,0C142.6,40.8,137.1,46.2,130.5,46.2z"/>
<path class="st1" d="M166.2,46.2L166.2,46.2c-6.7,0-12.1-5.4-12.1-12.1l0,0c0-6.7,5.4-12.1,12.1-12.1l0,0c6.7,0,12.1,5.4,12.1,12.1
	l0,0C178.3,40.8,172.9,46.2,166.2,46.2z"/>
<g>
	<g>
		<circle class="st1" cx="126.2" cy="32.2" r="2"/>
		<path class="st2" d="M126.2,34.4c-1.2,0-2.2-1-2.2-2.2c0-1.2,1-2.2,2.2-2.2c1.2,0,2.2,1,2.2,2.2C128.4,33.4,127.4,34.4,126.2,34.4
			z M126.2,30.4c-1,0-1.8,0.8-1.8,1.8c0,1,0.8,1.8,1.8,1.8c1,0,1.8-0.8,1.8-1.8C128,31.2,127.2,30.4,126.2,30.4z"/>
	</g>
	<g>
		<path class="st1" d="M128.3,36.8h-4.1v-0.6c0-1.1,0.9-2,2-2l0,0c1.1,0,2,0.9,2,2V36.8z"/>
		<path class="st2" d="M128.3,37h-4.1c-0.1,0-0.2-0.1-0.2-0.2v-0.6c0-1.2,1-2.2,2.2-2.2c1.2,0,2.2,1,2.2,2.2v0.6
			C128.5,37,128.4,37,128.3,37z M124.4,36.7h3.7v-0.4c0-1-0.8-1.9-1.9-1.9c-1,0-1.9,0.8-1.9,1.9V36.7z"/>
	</g>
</g>
<g>
	<g>
		<circle class="st1" cx="134.8" cy="32.2" r="2"/>
		<path class="st2" d="M134.8,34.4c-1.2,0-2.2-1-2.2-2.2c0-1.2,1-2.2,2.2-2.2c1.2,0,2.2,1,2.2,2.2C137,33.4,136,34.4,134.8,34.4z
			 M134.8,30.4c-1,0-1.8,0.8-1.8,1.8c0,1,0.8,1.8,1.8,1.8s1.8-0.8,1.8-1.8C136.6,31.2,135.8,30.4,134.8,30.4z"/>
	</g>
	<g>
		<path class="st1" d="M136.8,36.8h-4.1v-0.6c0-1.1,0.9-2,2-2l0,0c1.1,0,2,0.9,2,2V36.8z"/>
		<path class="st2" d="M136.8,37h-4.1c-0.1,0-0.2-0.1-0.2-0.2v-0.6c0-1.2,1-2.2,2.2-2.2c1.2,0,2.2,1,2.2,2.2v0.6
			C137,37,136.9,37,136.8,37z M132.9,36.7h3.7v-0.4c0-1-0.8-1.9-1.9-1.9c-1,0-1.9,0.8-1.9,1.9V36.7z"/>
	</g>
</g>
<g>
	<g>
		<path class="st1" d="M133.1,32.7c0,1.5-1.2,2.6-2.6,2.6c-1.5,0-2.6-1.2-2.6-2.6c0-1.5,1.2-2.6,2.6-2.6
			C131.9,30,133.1,31.2,133.1,32.7z"/>
		<path class="st2" d="M130.5,35.5c-1.6,0-2.8-1.3-2.8-2.8c0-1.6,1.3-2.8,2.8-2.8s2.8,1.3,2.8,2.8C133.3,34.2,132.1,35.5,130.5,35.5
			z M130.5,30.2c-1.4,0-2.5,1.1-2.5,2.5c0,1.4,1.1,2.5,2.5,2.5c1.4,0,2.5-1.1,2.5-2.5C132.9,31.3,131.8,30.2,130.5,30.2z"/>
	</g>
	<g>
		<path class="st3" d="M133.2,38.8h-5.4V38c0-1.5,1.2-2.7,2.7-2.7l0,0c1.5,0,2.7,1.2,2.7,2.7V38.8z"/>
		<path class="st2" d="M133.2,39h-5.4c-0.1,0-0.2-0.1-0.2-0.2V38c0-1.6,1.3-2.9,2.9-2.9c1.6,0,2.9,1.3,2.9,2.9v0.8
			C133.4,39,133.3,39,133.2,39z M128,38.7h5V38c0-1.4-1.1-2.5-2.5-2.5c-1.4,0-2.5,1.1-2.5,2.5V38.7z"/>
	</g>
</g>
<g>
	<g>
		<path class="st1" d="M19.8,32.4c0-1.8,1.4-3.2,3.2-3.2s3.2,1.4,3.2,3.2c0,0.6-0.1,1.1-0.4,1.5l-0.8,1.3l-0.3,1.8H23h-1.7l-0.3-1.8
			l-0.8-1.3C19.9,33.4,19.8,32.9,19.8,32.4z"/>
		<path class="st2" d="M24.7,37.2h-3.4c-0.1,0-0.2-0.1-0.2-0.2l-0.3-1.8L20,34c-0.3-0.5-0.4-1.1-0.4-1.6c0-1.9,1.5-3.4,3.4-3.4
			s3.4,1.5,3.4,3.4c0,0.6-0.1,1.1-0.4,1.6l-0.8,1.3l-0.3,1.8C24.9,37.2,24.8,37.2,24.7,37.2z M21.4,36.9h3.1l0.2-1.7
			c0,0,0-0.1,0-0.1l0.8-1.3c0.2-0.4,0.4-0.9,0.4-1.4c0-1.7-1.3-3-3-3s-3,1.3-3,3c0,0.5,0.1,1,0.4,1.4l0.8,1.3c0,0,0,0,0,0.1
			L21.4,36.9z"/>
	</g>
	<g>
		<polygon class="st1" points="21.9,33.7 23,37.1 23.9,33.7 		"/>
		<path class="st2" d="M23,37.3c-0.1,0-0.2-0.1-0.2-0.1l-1.1-3.4c0-0.1,0-0.1,0-0.2c0,0,0.1-0.1,0.2-0.1h2c0.1,0,0.1,0,0.2,0.1
			c0,0,0,0.1,0,0.2l-0.9,3.4C23.1,37.2,23,37.3,23,37.3C23,37.3,23,37.3,23,37.3z M22.1,33.9l0.8,2.5l0.7-2.5H22.1z"/>
	</g>
	<g>
		<rect x="21.2" y="37.1" class="st3" width="3.5" height="2.1"/>
		<path class="st2" d="M24.7,39.3h-3.5c-0.1,0-0.2-0.1-0.2-0.2v-2.1c0-0.1,0.1-0.2,0.2-0.2h3.5c0.1,0,0.2,0.1,0.2,0.2v2.1
			C24.9,39.2,24.8,39.3,24.7,39.3z M21.4,38.9h3.1v-1.7h-3.1V38.9z"/>
	</g>
</g>
<g>
	<g>
		<path class="st3" d="M53.9,38.6h3.7v-6.2h-3.7c-0.2,0-0.4,0.2-0.4,0.4v5.5C53.5,38.4,53.7,38.6,53.9,38.6z"/>
		<path class="st2" d="M57.6,38.8h-3.7c-0.3,0-0.6-0.2-0.6-0.6v-5.5c0-0.3,0.2-0.6,0.6-0.6h3.7c0.1,0,0.2,0.1,0.2,0.2v6.2
			C57.8,38.7,57.7,38.8,57.6,38.8z M53.9,32.6c-0.1,0-0.2,0.1-0.2,0.2v5.5c0,0.1,0.1,0.2,0.2,0.2h3.5v-5.8H53.9z"/>
	</g>
	<g>
		<path class="st1" d="M56.8,39.2h-1c-0.4,0-0.8-0.3-0.8-0.8v-5.8c0-0.4,0.3-0.8,0.8-0.8h1c0.4,0,0.8,0.4,0.8,0.8v5.8
			C57.6,38.8,57.3,39.2,56.8,39.2z"/>
		<path class="st2" d="M56.8,39.4h-1c-0.5,0-1-0.4-1-1v-5.8c0-0.5,0.4-1,1-1h1c0.5,0,1,0.4,1,1v5.8C57.8,38.9,57.4,39.4,56.8,39.4z
			 M55.9,32c-0.3,0-0.6,0.3-0.6,0.6v5.8c0,0.3,0.3,0.6,0.6,0.6h1c0.3,0,0.6-0.3,0.6-0.6v-5.8c0-0.3-0.3-0.6-0.6-0.6H55.9z"/>
	</g>
	<g>
		<path class="st1" d="M60.7,32.9c0,0,1.8-4.8-0.4-3.6c0,2-2.7,3.6-2.7,3.6v5.3h6c0.3,0,0.6-0.2,0.7-0.6l0.7-3.8
			c0-0.2,0-0.4-0.2-0.6c-0.1-0.2-0.3-0.3-0.6-0.3H60.7z"/>
		<path class="st2" d="M63.6,38.4h-6c-0.1,0-0.2-0.1-0.2-0.2v-5.3c0-0.1,0-0.1,0.1-0.2c0,0,2.6-1.5,2.6-3.4c0-0.1,0-0.1,0.1-0.2
			c0.5-0.3,0.9-0.3,1.1-0.1c0.7,0.6,0,2.8-0.3,3.6h3.4c0.3,0,0.5,0.1,0.7,0.3c0.2,0.2,0.2,0.5,0.2,0.8l-0.7,3.8
			C64.5,38.1,64.1,38.4,63.6,38.4z M57.8,38h5.8c0.3,0,0.5-0.2,0.5-0.4l0.7-3.8c0-0.2,0-0.3-0.1-0.4c-0.1-0.1-0.2-0.2-0.4-0.2h-3.7
			c-0.1,0-0.1,0-0.2-0.1c0-0.1,0-0.1,0-0.2c0.5-1.2,0.9-3.1,0.5-3.5c-0.1-0.1-0.4,0-0.6,0.1c-0.1,1.9-2.2,3.3-2.7,3.6V38z"/>
	</g>
	<g>
		<path class="st1" d="M56.9,37.6c0,0.3-0.3,0.6-0.6,0.6c-0.3,0-0.6-0.3-0.6-0.6s0.3-0.6,0.6-0.6C56.7,37,56.9,37.3,56.9,37.6z"/>
		<path class="st2" d="M56.4,38.4c-0.4,0-0.8-0.3-0.8-0.8s0.3-0.8,0.8-0.8c0.4,0,0.8,0.3,0.8,0.8S56.8,38.4,56.4,38.4z M56.4,37.2
			c-0.2,0-0.4,0.2-0.4,0.4c0,0.2,0.2,0.4,0.4,0.4c0.2,0,0.4-0.2,0.4-0.4C56.7,37.4,56.6,37.2,56.4,37.2z"/>
	</g>
</g>
<g>
	<g>
		<g>
			<polygon class="st3" points="168.5,33.4 172,33.4 172,37.9 170.5,37.9 170.5,38.3 170.5,38.6 170.5,39.2 170.2,38.9 170,38.8 
				169.7,38.6 169.6,38.6 169.2,38.3 169.2,38.3 168.8,38.1 168.7,38 168.4,37.9 164,37.9 164,35 			"/>
			<path class="st2" d="M170.5,39.4c0,0-0.1,0-0.1,0l-2.1-1.3H164c-0.1,0-0.2-0.1-0.2-0.2V35c0-0.1,0.1-0.2,0.2-0.2
				c0.1,0,0.2,0.1,0.2,0.2v2.7h4.2c0,0,0.1,0,0.1,0l1.8,1.1l0-1c0-0.1,0-0.1,0.1-0.1c0,0,0.1-0.1,0.1-0.1h1.3v-4.1h-3.4
				c-0.1,0-0.2-0.1-0.2-0.2c0-0.1,0.1-0.2,0.2-0.2h3.6c0.1,0,0.2,0.1,0.2,0.2v4.5c0,0.1-0.1,0.2-0.2,0.2h-1.3l0,1.1
				C170.7,39.2,170.7,39.3,170.5,39.4C170.6,39.3,170.6,39.4,170.5,39.4z"/>
		</g>
	</g>
	<g>
		<polygon class="st1" points="160.4,30.5 160.4,35 161.9,35 161.9,36.3 164,35 168.5,35 168.5,30.5 		"/>
		<path class="st2" d="M161.9,36.5C161.9,36.5,161.9,36.5,161.9,36.5c-0.2-0.1-0.2-0.1-0.2-0.2l0-1.1h-1.3c-0.1,0-0.2-0.1-0.2-0.2
			v-4.5c0-0.1,0.1-0.2,0.2-0.2h8c0.1,0,0.2,0.1,0.2,0.2V35c0,0.1-0.1,0.2-0.2,0.2h-4.4l-2.1,1.3C162,36.5,162,36.5,161.9,36.5z
			 M160.6,34.8h1.3c0.1,0,0.1,0,0.1,0.1c0,0,0.1,0.1,0.1,0.1l0,1l1.8-1.1c0,0,0.1,0,0.1,0h4.2v-4.1h-7.6V34.8z"/>
	</g>
</g>
<g>
	<g>
		<circle class="st3" cx="94.7" cy="34.2" r="5.4"/>
		<path class="st2" d="M94.7,39.8c-3.1,0-5.6-2.5-5.6-5.6c0-3.1,2.5-5.6,5.6-5.6s5.6,2.5,5.6,5.6C100.3,37.2,97.8,39.8,94.7,39.8z
			 M94.7,28.9c-2.9,0-5.2,2.3-5.2,5.2c0,2.9,2.3,5.2,5.2,5.2c2.9,0,5.2-2.3,5.2-5.2C100,31.3,97.6,28.9,94.7,28.9z"/>
	</g>
	<g>
		<path class="st1" d="M98.9,34.2c0,2.3-1.9,4.1-4.1,4.1c-2.3,0-4.1-1.9-4.1-4.1s1.9-4.1,4.1-4.1C97,30,98.9,31.9,98.9,34.2z"/>
		<path class="st2" d="M94.7,38.5c-2.4,0-4.3-1.9-4.3-4.3s1.9-4.3,4.3-4.3c2.4,0,4.3,1.9,4.3,4.3S97.1,38.5,94.7,38.5z M94.7,30.2
			c-2.2,0-4,1.8-4,4c0,2.2,1.8,4,4,4c2.2,0,4-1.8,4-4C98.7,32,96.9,30.2,94.7,30.2z"/>
	</g>
	<g>
		<polygon class="st1" points="97.6,35.4 94.7,34.2 94.7,32.1 		"/>
		<path class="st2" d="M97.6,35.6C97.5,35.6,97.5,35.6,97.6,35.6l-2.9-1.3c-0.1,0-0.1-0.1-0.1-0.2v-2c0-0.1,0.1-0.2,0.2-0.2
			c0.1,0,0.2,0.1,0.2,0.2V34l2.7,1.2c0.1,0,0.1,0.2,0.1,0.3C97.7,35.6,97.6,35.6,97.6,35.6z"/>
	</g>
</g>
</svg>
