<?xml version="1.0" encoding="utf-8"?>
<!-- Generator: Adobe Illustrator 27.3.1, SVG Export Plug-In . SVG Version: 6.00 Build 0)  -->
<svg version="1.1" id="Layer_1" xmlns="http://www.w3.org/2000/svg" xmlns:xlink="http://www.w3.org/1999/xlink" x="0px" y="0px"
	 viewBox="0 0 300 300" style="enable-background:new 0 0 300 300;" xml:space="preserve">
<style type="text/css">
	.st0{fill:#FFFFFF;}
</style>
<g>
	<g>
		<circle cx="150.5" cy="150.5" r="67.5"/>
	</g>
	<path class="st0" d="M188.3,128.2c0-0.4,0-0.4-0.4-0.4c-1,0-2-0.1-2.9-0.3c-3.5-0.5-15-6.5-16.9-16.4c0-0.2-0.5-2.6-0.5-3.7
		c0-0.5,0-0.5-0.5-0.5c-0.1,0-0.2,0-0.3,0c-4.5,0-9,0-13.4,0c-0.9,0-0.8-0.1-0.8,0.8c0,19.4,0,38.9,0,58.3c0,0.7,0,1.4-0.1,2.2
		c-0.7,3.8-2.6,6.7-5.9,8.7c-2.8,1.7-5.9,2.2-9.1,1.6c-1-0.2-2-0.6-2.9-1c-0.1-0.1-0.2-0.1-0.2-0.2c-0.3-0.3-0.7-0.5-1-0.7
		c-4.1-2.9-6.1-6.9-5.5-11.9c0.6-5.1,3.5-8.5,8.3-10.3c1.4-0.5,2.9-0.8,4.5-0.7c1,0.1,2,0.2,2.9,0.4c0.3,0.1,0.5,0,0.5-0.4
		c0-0.1,0-0.2,0-0.4c0-3.5-0.1-11.1-0.1-11.1c0-1,0-2,0-3c0-0.3-0.1-0.3-0.4-0.4c-1.8-0.2-3.6-0.3-5.4-0.1c-2.5,0.2-4.9,0.7-7.3,1.6
		c-3.8,1.4-7.1,3.5-9.9,6.3c-2.5,2.4-4.4,5.2-5.8,8.3c-1.4,3-2.1,6.1-2.3,9.4c-0.1,1.4-0.1,2.9,0.1,4.3c0.2,2,0.6,3.9,1.2,5.8
		c1.7,5.4,4.9,9.9,9.3,13.4c0.4,0.4,0.9,0.8,1.4,1l0,0c0.2,0.2,0.4,0.4,0.7,0.6c0.7,0.5,1.5,1,2.3,1.4c5,2.5,10.2,3.5,15.8,2.8
		c7.2-0.9,13.2-4.1,17.9-9.5c4.4-5.2,6.6-11.2,6.6-18c0.1-9.7,0-19.4,0-29.1c0-0.2-0.1-0.6,0.1-0.7c0.2-0.1,0.4,0.2,0.6,0.3
		c3.6,2.4,7.5,4.1,11.7,5c2.4,0.6,4.9,0.9,7.4,0.9c0.8,0,0.9,0,0.9-0.8C188.5,138.5,188.3,129.1,188.3,128.2z"/>
</g>
</svg>
