<?xml version="1.0" encoding="utf-8"?>
<!-- Generator: Adobe Illustrator 27.3.1, SVG Export Plug-In . SVG Version: 6.00 Build 0)  -->
<svg version="1.1" id="Layer_1" xmlns="http://www.w3.org/2000/svg" xmlns:xlink="http://www.w3.org/1999/xlink" x="0px" y="0px"
	 viewBox="0 0 300 300" style="enable-background:new 0 0 300 300;" xml:space="preserve">
<style type="text/css">
	.st0{fill:#FDFDFD;}
</style>
<g>
	<circle cx="150.5" cy="150.5" r="67.5"/>
	<g>
		<g>
			<path class="st0" d="M155.7,141.3c1.1-1.2,2-2.5,3.2-3.6c3.5-3.3,7.6-5,12.5-4.9c2.7,0,5.3,0.2,7.8,0.9
				c5.9,1.7,9.3,5.7,10.9,11.4c1.2,4.3,1.4,8.7,1.4,13.1c0,9.3,0,18.6,0,28c0,0.9-0.2,1.1-1.1,1.1c-4.8,0-9.6,0-14.4,0
				c-0.9,0-1-0.2-1-1.1c0-8.9,0-17.7,0-26.6c0-2.2-0.1-4.4-0.8-6.6c-1.1-4-4-6-8.2-5.8c-5.7,0.3-8.7,3.1-9.4,8.9
				c-0.2,1.4-0.3,2.8-0.2,4.2c0,8.6,0,17.3,0,25.9c0,0.9-0.2,1.1-1.1,1.1c-4.8,0-9.7,0-14.5,0c-0.8,0-1-0.2-1-1
				c0-17.1,0-34.2,0-51.2c0-0.9,0.3-1,1.1-1c4.6,0,9.2,0,13.8,0c0.9,0,1.1,0.3,1.1,1.1C155.7,137.2,155.7,139.2,155.7,141.3z"/>
			<path class="st0" d="M129.4,160.8c0,8.4,0,16.9,0,25.4c0,0.9-0.2,1.2-1.2,1.2c-4.8-0.1-9.6,0-14.4,0c-0.8,0-1-0.2-1-1
				c0-17.1,0-34.2,0-51.3c0-0.7,0.2-1,0.9-1c4.9,0,9.7,0,14.6,0c0.9,0,1.1,0.4,1.1,1.2C129.4,143.8,129.4,152.3,129.4,160.8z"/>
			<path class="st0" d="M130.7,117.1c0,5.3-4.3,9.6-9.6,9.6c-5.2,0-9.6-4.3-9.6-9.6c0-5.3,4.3-9.6,9.6-9.6
				C126.4,107.6,130.7,111.9,130.7,117.1z"/>
		</g>
	</g>
</g>
</svg>
