<?xml version="1.0" encoding="utf-8"?>
<!-- Generator: Adobe Illustrator 27.3.1, SVG Export Plug-In . SVG Version: 6.00 Build 0)  -->
<svg version="1.1" id="Layer_1" xmlns="http://www.w3.org/2000/svg" xmlns:xlink="http://www.w3.org/1999/xlink" x="0px" y="0px"
	 viewBox="0 0 800 800" style="enable-background:new 0 0 800 800;" xml:space="preserve">
<style type="text/css">
	.st0{fill:url(#SVGID_1_);}
	.st1{fill:url(#SVGID_00000142880970556754117470000014783244994253745287_);}
	.st2{fill:url(#SVGID_00000153672741126141528470000010106501822763963574_);}
	.st3{fill:url(#SVGID_00000091695133693046688610000017492453184207997078_);}
	.st4{fill:url(#SVGID_00000156558833576385975170000004495922793771211668_);}
	.st5{fill:url(#SVGID_00000180345122436491774680000003684359891988774795_);}
	.st6{fill:url(#SVGID_00000000224521918271195700000010834395245882721688_);}
	.st7{fill:url(#SVGID_00000057863916395148662970000011837513527121756544_);}
	.st8{fill:url(#SVGID_00000087380267183812753060000009845117074155099012_);}
	.st9{fill:url(#SVGID_00000110428904437871056680000005421926793756056236_);}
	.st10{fill:url(#SVGID_00000117671981204416952730000016263596365792649861_);}
	.st11{fill:url(#SVGID_00000119835007026859042900000012339010047402694019_);}
	.st12{fill:url(#SVGID_00000043424896073717451980000003731383724011234218_);}
	.st13{fill:url(#SVGID_00000016062994274381305440000012666993565918100149_);}
	.st14{fill:url(#SVGID_00000134218796268948395280000008075872733837827716_);}
	.st15{fill:url(#SVGID_00000099652996000764219280000015733191739806756774_);}
	.st16{fill:url(#SVGID_00000093166349254021225620000012707450645430806184_);}
	.st17{fill:url(#SVGID_00000088825653083297353090000012422588972722550941_);}
	.st18{fill:url(#SVGID_00000176008975792666157160000009291043304610225844_);}
	.st19{fill:url(#SVGID_00000173838999070891460610000013610903387391564956_);}
	.st20{fill:url(#SVGID_00000060032809048749947150000012881886479191749254_);}
	.st21{fill:url(#SVGID_00000056417771941458942410000001766496693601297810_);}
	.st22{fill:url(#SVGID_00000174570950386451587420000015780854040195312567_);}
	.st23{fill:url(#SVGID_00000087384583281662293220000013898107169970532274_);}
	.st24{fill:url(#SVGID_00000045619613335853948320000009266996938959825843_);}
	.st25{fill:url(#SVGID_00000067923472896714880580000008825411629402436260_);}
	.st26{fill:url(#SVGID_00000029738392707242420490000007200592758557127067_);}
	.st27{fill:none;stroke:#000D20;stroke-width:4;stroke-miterlimit:10;}
	.st28{fill:#030104;}
</style>
<g id="OBJECTS">
	<g>
		
			<image style="overflow:visible;opacity:0.2;enable-background:new    ;" width="1693" height="1693" xlink:href="A1DC9A2B.png"  transform="matrix(0.4797 0 0 0.4797 -4.32 -4.08)">
		</image>
		<g>
			<g>
				<g>
					
						<radialGradient id="SVGID_1_" cx="-135.0229" cy="782.7379" r="200.5567" gradientTransform="matrix(4.9002 0 0 -4.8959 1091.609 3853.0803)" gradientUnits="userSpaceOnUse">
						<stop  offset="0.1344" style="stop-color:#FFFFFF"/>
						<stop  offset="0.3419" style="stop-color:#FCFCFD"/>
						<stop  offset="0.5209" style="stop-color:#F1F5F7"/>
						<stop  offset="0.6893" style="stop-color:#DFE7EC"/>
						<stop  offset="0.8502" style="stop-color:#C6D5DD"/>
						<stop  offset="1" style="stop-color:#A8BECB"/>
					</radialGradient>
					<ellipse class="st0" cx="399.8" cy="400.2" rx="400.2" ry="399.8"/>
					
						<radialGradient id="SVGID_00000048462264800388122470000002000265021335251621_" cx="-134.7414" cy="776.9896" r="197.9996" gradientTransform="matrix(4.9002 0 0 -4.8959 1091.609 3853.0803)" gradientUnits="userSpaceOnUse">
						<stop  offset="0.1344" style="stop-color:#FFFFFF"/>
						<stop  offset="0.3419" style="stop-color:#FCFCFD"/>
						<stop  offset="0.5209" style="stop-color:#F1F5F7"/>
						<stop  offset="0.6893" style="stop-color:#DFE7EC"/>
						<stop  offset="0.8502" style="stop-color:#C6D5DD"/>
						<stop  offset="1" style="stop-color:#A8BECB"/>
					</radialGradient>
					
						<ellipse style="fill:url(#SVGID_00000048462264800388122470000002000265021335251621_);" cx="399.8" cy="400.2" rx="393.5" ry="393.1"/>
					
						<radialGradient id="SVGID_00000134932808943784155370000003039119808784938650_" cx="-134.4696" cy="771.4271" r="195.2614" gradientTransform="matrix(4.9002 0 0 -4.8959 1091.609 3853.0803)" gradientUnits="userSpaceOnUse">
						<stop  offset="0.1344" style="stop-color:#FFFFFF"/>
						<stop  offset="0.3419" style="stop-color:#FCFCFD"/>
						<stop  offset="0.5209" style="stop-color:#F1F5F7"/>
						<stop  offset="0.6893" style="stop-color:#DFE7EC"/>
						<stop  offset="0.8502" style="stop-color:#C6D5DD"/>
						<stop  offset="1" style="stop-color:#A8BECB"/>
					</radialGradient>
					<path style="fill:url(#SVGID_00000134932808943784155370000003039119808784938650_);" d="M786.4,383
						c9.5,213.3-155.9,393.9-369.4,403.3C203.5,795.8,22.7,630.6,13.3,417.3C3.8,204,169.2,23.4,382.7,14
						C596.1,4.5,776.9,169.7,786.4,383z"/>
					
						<radialGradient id="SVGID_00000041991088666966544700000002716466407761414545_" cx="-134.2069" cy="766.0449" r="192.3634" gradientTransform="matrix(4.9002 0 0 -4.8959 1091.609 3853.0803)" gradientUnits="userSpaceOnUse">
						<stop  offset="0.1344" style="stop-color:#FFFFFF"/>
						<stop  offset="0.3419" style="stop-color:#FCFCFD"/>
						<stop  offset="0.5209" style="stop-color:#F1F5F7"/>
						<stop  offset="0.6893" style="stop-color:#DFE7EC"/>
						<stop  offset="0.8502" style="stop-color:#C6D5DD"/>
						<stop  offset="1" style="stop-color:#A8BECB"/>
					</radialGradient>
					<path style="fill:url(#SVGID_00000041991088666966544700000002716466407761414545_);" d="M779.5,374.5
						c14.2,209.5-144.3,390.9-354,405.1C215.8,793.8,34.3,635.4,20.1,425.9C5.9,216.3,164.4,35,374.1,20.8
						C583.8,6.6,765.3,164.9,779.5,374.5z"/>
					
						<radialGradient id="SVGID_00000150062766220911129460000001321963618202630810_" cx="-133.9523" cy="760.8375" r="189.326" gradientTransform="matrix(4.9002 0 0 -4.8959 1091.609 3853.0803)" gradientUnits="userSpaceOnUse">
						<stop  offset="0.1344" style="stop-color:#FFFFFF"/>
						<stop  offset="0.3419" style="stop-color:#FCFCFD"/>
						<stop  offset="0.5209" style="stop-color:#F1F5F7"/>
						<stop  offset="0.6893" style="stop-color:#DFE7EC"/>
						<stop  offset="0.8502" style="stop-color:#C6D5DD"/>
						<stop  offset="1" style="stop-color:#A8BECB"/>
					</radialGradient>
					<path style="fill:url(#SVGID_00000150062766220911129460000001321963618202630810_);" d="M772.7,365.9
						C791.7,571.7,640,753.8,434.1,772.7C228.1,791.7,45.8,640.2,26.9,434.4C8,228.6,159.6,46.5,365.5,27.6
						C571.5,8.7,753.8,160.1,772.7,365.9z"/>
					
						<radialGradient id="SVGID_00000166676969019286664700000010158827438208525201_" cx="-133.7051" cy="755.799" r="186.1696" gradientTransform="matrix(4.9002 0 0 -4.8959 1091.609 3853.0803)" gradientUnits="userSpaceOnUse">
						<stop  offset="0.1344" style="stop-color:#FFFFFF"/>
						<stop  offset="0.3419" style="stop-color:#FCFCFD"/>
						<stop  offset="0.5209" style="stop-color:#F1F5F7"/>
						<stop  offset="0.6893" style="stop-color:#DFE7EC"/>
						<stop  offset="0.8502" style="stop-color:#C6D5DD"/>
						<stop  offset="1" style="stop-color:#A8BECB"/>
					</radialGradient>
					<path style="fill:url(#SVGID_00000166676969019286664700000010158827438208525201_);" d="M765.9,357.3
						c23.7,202-121,385-323.2,408.6C240.5,789.6,57.4,645,33.7,443C10.1,241,154.8,58,357,34.4C559.1,10.8,742.2,155.3,765.9,357.3z
						"/>
					
						<radialGradient id="SVGID_00000174592593209979773980000012454488924398341784_" cx="-133.4644" cy="750.9229" r="182.9136" gradientTransform="matrix(4.9002 0 0 -4.8959 1091.609 3853.0803)" gradientUnits="userSpaceOnUse">
						<stop  offset="0.1344" style="stop-color:#FFFFFF"/>
						<stop  offset="0.3419" style="stop-color:#FCFCFD"/>
						<stop  offset="0.5209" style="stop-color:#F1F5F7"/>
						<stop  offset="0.6893" style="stop-color:#DFE7EC"/>
						<stop  offset="0.8502" style="stop-color:#C6D5DD"/>
						<stop  offset="1" style="stop-color:#A8BECB"/>
					</radialGradient>
					<path style="fill:url(#SVGID_00000174592593209979773980000012454488924398341784_);" d="M759.1,348.8
						c28.4,198.2-109.4,382-307.8,410.4C252.8,787.5,68.9,649.8,40.5,451.5C12.1,253.3,150,69.6,348.4,41.2
						C546.8,12.8,730.7,150.5,759.1,348.8z"/>
					
						<radialGradient id="SVGID_00000137813376167896264310000005880674822609960621_" cx="-133.2293" cy="746.2026" r="179.5769" gradientTransform="matrix(4.9002 0 0 -4.8959 1091.609 3853.0803)" gradientUnits="userSpaceOnUse">
						<stop  offset="0.1344" style="stop-color:#FFFFFF"/>
						<stop  offset="0.3419" style="stop-color:#FCFCFD"/>
						<stop  offset="0.5209" style="stop-color:#F1F5F7"/>
						<stop  offset="0.6893" style="stop-color:#DFE7EC"/>
						<stop  offset="0.8502" style="stop-color:#C6D5DD"/>
						<stop  offset="1" style="stop-color:#A8BECB"/>
					</radialGradient>
					<path style="fill:url(#SVGID_00000137813376167896264310000005880674822609960621_);" d="M752.3,340.2
						c33.2,194.5-97.8,379-292.4,412.1C265.2,785.4,80.5,654.6,47.4,460.1C14.2,265.6,145.1,81.1,339.8,48
						C534.4,14.9,719.1,145.7,752.3,340.2z"/>
					
						<radialGradient id="SVGID_00000178183477865047734710000000792452246491995312_" cx="-132.9988" cy="741.6309" r="176.178" gradientTransform="matrix(4.9002 0 0 -4.8959 1091.609 3853.0803)" gradientUnits="userSpaceOnUse">
						<stop  offset="0.1344" style="stop-color:#FFFFFF"/>
						<stop  offset="0.3419" style="stop-color:#FCFCFD"/>
						<stop  offset="0.5209" style="stop-color:#F1F5F7"/>
						<stop  offset="0.6893" style="stop-color:#DFE7EC"/>
						<stop  offset="0.8502" style="stop-color:#C6D5DD"/>
						<stop  offset="1" style="stop-color:#A8BECB"/>
					</radialGradient>
					<path style="fill:url(#SVGID_00000178183477865047734710000000792452246491995312_);" d="M745.4,331.6
						c37.9,190.7-86.2,376-277,413.8C277.5,783.3,92.1,659.4,54.2,468.7C16.3,278,140.4,92.7,331.2,54.8
						C522.1,17,707.6,140.9,745.4,331.6z"/>
					
						<radialGradient id="SVGID_00000116943687951864292150000010844178121943448459_" cx="-132.7718" cy="737.1998" r="172.7345" gradientTransform="matrix(4.9002 0 0 -4.8959 1091.609 3853.0803)" gradientUnits="userSpaceOnUse">
						<stop  offset="0.1344" style="stop-color:#FFFFFF"/>
						<stop  offset="0.3419" style="stop-color:#FCFCFD"/>
						<stop  offset="0.5209" style="stop-color:#F1F5F7"/>
						<stop  offset="0.6893" style="stop-color:#DFE7EC"/>
						<stop  offset="0.8502" style="stop-color:#C6D5DD"/>
						<stop  offset="1" style="stop-color:#A8BECB"/>
					</radialGradient>
					<path style="fill:url(#SVGID_00000116943687951864292150000010844178121943448459_);" d="M738.6,323.1
						c42.6,187-74.5,373-261.7,415.6c-187.1,42.6-373.3-74.5-416-261.4c-42.6-187,74.5-373,261.7-415.6
						C509.8,19.1,696,136.1,738.6,323.1z"/>
					
						<radialGradient id="SVGID_00000142154696870055449070000009347083951926616235_" cx="-132.5474" cy="732.9016" r="169.2633" gradientTransform="matrix(4.9002 0 0 -4.8959 1091.609 3853.0803)" gradientUnits="userSpaceOnUse">
						<stop  offset="0.1344" style="stop-color:#FFFFFF"/>
						<stop  offset="0.3419" style="stop-color:#FCFCFD"/>
						<stop  offset="0.5209" style="stop-color:#F1F5F7"/>
						<stop  offset="0.6893" style="stop-color:#DFE7EC"/>
						<stop  offset="0.8502" style="stop-color:#C6D5DD"/>
						<stop  offset="1" style="stop-color:#A8BECB"/>
					</radialGradient>
					<path style="fill:url(#SVGID_00000142154696870055449070000009347083951926616235_);" d="M731.8,314.5
						c47.4,183.2-62.9,370.1-246.3,417.4c-183.4,47.3-370.4-62.8-417.7-246s62.9-370,246.3-417.4
						C497.4,21.2,684.5,131.3,731.8,314.5z"/>
					
						<radialGradient id="SVGID_00000176007554896891414850000013001359347629373368_" cx="-132.3244" cy="728.7271" r="165.7808" gradientTransform="matrix(4.9002 0 0 -4.8959 1091.609 3853.0803)" gradientUnits="userSpaceOnUse">
						<stop  offset="0.1344" style="stop-color:#FFFFFF"/>
						<stop  offset="0.3419" style="stop-color:#FCFCFD"/>
						<stop  offset="0.5209" style="stop-color:#F1F5F7"/>
						<stop  offset="0.6893" style="stop-color:#DFE7EC"/>
						<stop  offset="0.8502" style="stop-color:#C6D5DD"/>
						<stop  offset="1" style="stop-color:#A8BECB"/>
					</radialGradient>
					<path style="fill:url(#SVGID_00000176007554896891414850000013001359347629373368_);" d="M725,305.9
						C777.1,485.4,673.7,673,494.1,725c-179.6,52-367.4-51.2-419.5-230.7C22.6,314.9,125.9,127.3,305.5,75.3
						C485.1,23.2,672.9,126.5,725,305.9z"/>
					
						<radialGradient id="SVGID_00000050663495028331966760000012226167240766108821_" cx="-132.1016" cy="724.6675" r="162.3023" gradientTransform="matrix(4.9002 0 0 -4.8959 1091.609 3853.0803)" gradientUnits="userSpaceOnUse">
						<stop  offset="0.1344" style="stop-color:#FFFFFF"/>
						<stop  offset="0.3419" style="stop-color:#FCFCFD"/>
						<stop  offset="0.5209" style="stop-color:#F1F5F7"/>
						<stop  offset="0.6893" style="stop-color:#DFE7EC"/>
						<stop  offset="0.8502" style="stop-color:#C6D5DD"/>
						<stop  offset="1" style="stop-color:#A8BECB"/>
					</radialGradient>
					<path style="fill:url(#SVGID_00000050663495028331966760000012226167240766108821_);" d="M718.2,297.4
						C775,473,678.5,661.5,502.7,718.2C326.9,775,138.3,678.6,81.5,503C24.6,327.3,121.1,138.9,297,82.1
						C472.8,25.3,661.3,121.7,718.2,297.4z"/>
					
						<radialGradient id="SVGID_00000170250439524451752640000007009629014651259052_" cx="-131.878" cy="720.713" r="158.8427" gradientTransform="matrix(4.9002 0 0 -4.8959 1091.609 3853.0803)" gradientUnits="userSpaceOnUse">
						<stop  offset="0.1344" style="stop-color:#FFFFFF"/>
						<stop  offset="0.3419" style="stop-color:#FCFCFD"/>
						<stop  offset="0.5209" style="stop-color:#F1F5F7"/>
						<stop  offset="0.6893" style="stop-color:#DFE7EC"/>
						<stop  offset="0.8502" style="stop-color:#C6D5DD"/>
						<stop  offset="1" style="stop-color:#A8BECB"/>
					</radialGradient>
					<path style="fill:url(#SVGID_00000170250439524451752640000007009629014651259052_);" d="M711.3,288.8
						c61.6,171.9-28,361.1-200.1,422.6c-172.1,61.5-361.4-28-423-199.9c-61.6-171.9,28-361.1,200.1-422.6
						C460.4,27.4,649.8,116.9,711.3,288.8z"/>
					
						<radialGradient id="SVGID_00000155142668094861542660000004842259870832616359_" cx="-131.6521" cy="716.8532" r="155.4161" gradientTransform="matrix(4.9002 0 0 -4.8959 1091.609 3853.0803)" gradientUnits="userSpaceOnUse">
						<stop  offset="0.1344" style="stop-color:#FFFFFF"/>
						<stop  offset="0.3419" style="stop-color:#FCFCFD"/>
						<stop  offset="0.5209" style="stop-color:#F1F5F7"/>
						<stop  offset="0.6893" style="stop-color:#DFE7EC"/>
						<stop  offset="0.8502" style="stop-color:#C6D5DD"/>
						<stop  offset="1" style="stop-color:#A8BECB"/>
					</radialGradient>
					<path style="fill:url(#SVGID_00000155142668094861542660000004842259870832616359_);" d="M704.5,280.2
						c66.3,168.1-16.4,358.1-184.7,424.4c-168.3,66.2-358.4-16.4-424.7-184.5C28.8,351.9,111.5,161.9,279.8,95.7
						C448.1,29.5,638.2,112.1,704.5,280.2z"/>
					
						<radialGradient id="SVGID_00000085212608184123821480000002129835688900853680_" cx="-131.4229" cy="713.0778" r="152.0359" gradientTransform="matrix(4.9002 0 0 -4.8959 1091.609 3853.0803)" gradientUnits="userSpaceOnUse">
						<stop  offset="0.1344" style="stop-color:#FFFFFF"/>
						<stop  offset="0.3419" style="stop-color:#FCFCFD"/>
						<stop  offset="0.5209" style="stop-color:#F1F5F7"/>
						<stop  offset="0.6893" style="stop-color:#DFE7EC"/>
						<stop  offset="0.8502" style="stop-color:#C6D5DD"/>
						<stop  offset="1" style="stop-color:#A8BECB"/>
					</radialGradient>
					<path style="fill:url(#SVGID_00000085212608184123821480000002129835688900853680_);" d="M697.7,271.7
						c71,164.4-4.8,355.2-169.3,426.1c-164.5,71-355.5-4.8-426.5-169.2c-71-164.4,4.8-355.2,169.3-426.1
						C435.7,31.6,626.7,107.3,697.7,271.7z"/>
					
						<radialGradient id="SVGID_00000021121478351464766640000005481210212578513317_" cx="-131.1889" cy="709.3754" r="148.7151" gradientTransform="matrix(4.9002 0 0 -4.8959 1091.609 3853.0803)" gradientUnits="userSpaceOnUse">
						<stop  offset="0.1344" style="stop-color:#FFFFFF"/>
						<stop  offset="0.3419" style="stop-color:#FCFCFD"/>
						<stop  offset="0.5209" style="stop-color:#F1F5F7"/>
						<stop  offset="0.6893" style="stop-color:#DFE7EC"/>
						<stop  offset="0.8502" style="stop-color:#C6D5DD"/>
						<stop  offset="1" style="stop-color:#A8BECB"/>
					</radialGradient>
					<path style="fill:url(#SVGID_00000021121478351464766640000005481210212578513317_);" d="M690.9,263.1
						C766.7,423.7,697.7,615.3,537,691c-160.8,75.7-352.5,6.8-428.2-153.8C33,376.6,101.9,185,262.7,109.3
						C423.4,33.7,615.1,102.5,690.9,263.1z"/>
					
						<radialGradient id="SVGID_00000139291672974782124960000002084002191328971175_" cx="-130.949" cy="705.7343" r="145.466" gradientTransform="matrix(4.9002 0 0 -4.8959 1091.609 3853.0803)" gradientUnits="userSpaceOnUse">
						<stop  offset="0.1344" style="stop-color:#FFFFFF"/>
						<stop  offset="0.3419" style="stop-color:#FCFCFD"/>
						<stop  offset="0.5209" style="stop-color:#F1F5F7"/>
						<stop  offset="0.6893" style="stop-color:#DFE7EC"/>
						<stop  offset="0.8502" style="stop-color:#C6D5DD"/>
						<stop  offset="1" style="stop-color:#A8BECB"/>
					</radialGradient>
					<path style="fill:url(#SVGID_00000139291672974782124960000002084002191328971175_);" d="M684.1,254.5
						c80.5,156.9,18.5,349.2-138.5,429.6c-157,80.4-349.5,18.5-430-138.4C35.1,388.9,97.1,196.6,254.1,116.1
						C411.1,35.7,603.6,97.7,684.1,254.5z"/>
					
						<radialGradient id="SVGID_00000053523999975383086320000016219859830003856772_" cx="-130.7018" cy="702.1428" r="142.301" gradientTransform="matrix(4.9002 0 0 -4.8959 1091.609 3853.0803)" gradientUnits="userSpaceOnUse">
						<stop  offset="0.1344" style="stop-color:#FFFFFF"/>
						<stop  offset="0.3419" style="stop-color:#FCFCFD"/>
						<stop  offset="0.5209" style="stop-color:#F1F5F7"/>
						<stop  offset="0.6893" style="stop-color:#DFE7EC"/>
						<stop  offset="0.8502" style="stop-color:#C6D5DD"/>
						<stop  offset="1" style="stop-color:#A8BECB"/>
					</radialGradient>
					<path style="fill:url(#SVGID_00000053523999975383086320000016219859830003856772_);" d="M677.2,246
						c85.2,153.1,30.1,346.2-123.1,431.4c-153.2,85.2-346.5,30.1-431.7-123C37.2,401.2,92.3,208.1,245.5,122.9
						C398.7,37.8,592,92.9,677.2,246z"/>
					
						<radialGradient id="SVGID_00000162314007959630448890000014837845436642760378_" cx="-130.446" cy="698.5883" r="139.2323" gradientTransform="matrix(4.9002 0 0 -4.8959 1091.609 3853.0803)" gradientUnits="userSpaceOnUse">
						<stop  offset="0.1344" style="stop-color:#FFFFFF"/>
						<stop  offset="0.3419" style="stop-color:#FCFCFD"/>
						<stop  offset="0.5209" style="stop-color:#F1F5F7"/>
						<stop  offset="0.6893" style="stop-color:#DFE7EC"/>
						<stop  offset="0.8502" style="stop-color:#C6D5DD"/>
						<stop  offset="1" style="stop-color:#A8BECB"/>
					</radialGradient>
					<path style="fill:url(#SVGID_00000162314007959630448890000014837845436642760378_);" d="M670.4,237.4
						c90,149.3,41.7,343.3-107.7,433.1c-149.5,89.9-343.5,41.7-433.5-107.7c-90-149.3-41.7-343.2,107.7-433.1
						C386.4,39.9,580.5,88.1,670.4,237.4z"/>
					
						<radialGradient id="SVGID_00000025433294047542777640000006776961704905430974_" cx="-130.1803" cy="695.0582" r="136.2724" gradientTransform="matrix(4.9002 0 0 -4.8959 1091.609 3853.0803)" gradientUnits="userSpaceOnUse">
						<stop  offset="0.1344" style="stop-color:#FFFFFF"/>
						<stop  offset="0.3419" style="stop-color:#FCFCFD"/>
						<stop  offset="0.5209" style="stop-color:#F1F5F7"/>
						<stop  offset="0.6893" style="stop-color:#DFE7EC"/>
						<stop  offset="0.8502" style="stop-color:#C6D5DD"/>
						<stop  offset="1" style="stop-color:#A8BECB"/>
					</radialGradient>
					<path style="fill:url(#SVGID_00000025433294047542777640000006776961704905430974_);" d="M663.6,228.8
						c94.7,145.6,53.4,340.3-92.3,434.9C425.6,758.4,230.7,717,136,571.5c-94.7-145.6-53.3-340.3,92.4-434.9
						C374,42,568.9,83.3,663.6,228.8z"/>
					
						<radialGradient id="SVGID_00000167384712255012137420000014833374336519696279_" cx="-129.9035" cy="691.5397" r="133.4348" gradientTransform="matrix(4.9002 0 0 -4.8959 1091.609 3853.0803)" gradientUnits="userSpaceOnUse">
						<stop  offset="0.1344" style="stop-color:#FFFFFF"/>
						<stop  offset="0.3419" style="stop-color:#FCFCFD"/>
						<stop  offset="0.5209" style="stop-color:#F1F5F7"/>
						<stop  offset="0.6893" style="stop-color:#DFE7EC"/>
						<stop  offset="0.8502" style="stop-color:#C6D5DD"/>
						<stop  offset="1" style="stop-color:#A8BECB"/>
					</radialGradient>
					<path style="fill:url(#SVGID_00000167384712255012137420000014833374336519696279_);" d="M656.8,220.3
						c99.5,141.8,65,337.3-77,436.6c-141.9,99.4-337.6,64.9-437-76.9c-99.4-141.8-65-337.3,77-436.6
						C361.7,44.1,557.4,78.5,656.8,220.3z"/>
					
						<radialGradient id="SVGID_00000051362089762947919730000009152435776139826334_" cx="-129.6143" cy="688.0198" r="130.7337" gradientTransform="matrix(4.9002 0 0 -4.8959 1091.609 3853.0803)" gradientUnits="userSpaceOnUse">
						<stop  offset="0.1344" style="stop-color:#FFFFFF"/>
						<stop  offset="0.3419" style="stop-color:#FCFCFD"/>
						<stop  offset="0.5209" style="stop-color:#F1F5F7"/>
						<stop  offset="0.6893" style="stop-color:#DFE7EC"/>
						<stop  offset="0.8502" style="stop-color:#C6D5DD"/>
						<stop  offset="1" style="stop-color:#A8BECB"/>
					</radialGradient>
					<path style="fill:url(#SVGID_00000051362089762947919730000009152435776139826334_);" d="M650,211.7
						c104.2,138.1,76.6,334.3-61.6,438.4c-138.2,104.1-334.6,76.5-438.8-61.5c-104.1-138-76.6-334.3,61.6-438.4
						C349.4,46.1,545.8,73.7,650,211.7z"/>
					
						<radialGradient id="SVGID_00000057845449699682006740000011579342200090926760_" cx="-129.3115" cy="684.4854" r="128.1857" gradientTransform="matrix(4.9002 0 0 -4.8959 1091.609 3853.0803)" gradientUnits="userSpaceOnUse">
						<stop  offset="0.1344" style="stop-color:#FFFFFF"/>
						<stop  offset="0.3419" style="stop-color:#FCFCFD"/>
						<stop  offset="0.5209" style="stop-color:#F1F5F7"/>
						<stop  offset="0.6893" style="stop-color:#DFE7EC"/>
						<stop  offset="0.8502" style="stop-color:#C6D5DD"/>
						<stop  offset="1" style="stop-color:#A8BECB"/>
					</radialGradient>
					<path style="fill:url(#SVGID_00000057845449699682006740000011579342200090926760_);" d="M643.2,203.1
						c108.9,134.3,88.2,331.3-46.2,440.2c-134.4,108.8-331.6,88.2-440.5-46.1C47.6,462.9,68.2,265.8,202.6,157
						C337,48.2,534.3,68.9,643.2,203.1z"/>
					
						<radialGradient id="SVGID_00000013158724206890464880000005462682563490770353_" cx="-128.9939" cy="680.9233" r="125.8091" gradientTransform="matrix(4.9002 0 0 -4.8959 1091.609 3853.0803)" gradientUnits="userSpaceOnUse">
						<stop  offset="0.1344" style="stop-color:#FFFFFF"/>
						<stop  offset="0.3419" style="stop-color:#FCFCFD"/>
						<stop  offset="0.5209" style="stop-color:#F1F5F7"/>
						<stop  offset="0.6893" style="stop-color:#DFE7EC"/>
						<stop  offset="0.8502" style="stop-color:#C6D5DD"/>
						<stop  offset="1" style="stop-color:#A8BECB"/>
					</radialGradient>
					<path style="fill:url(#SVGID_00000013158724206890464880000005462682563490770353_);" d="M636.3,194.6
						c113.7,130.5,99.9,328.4-30.8,441.9C474.9,750,276.9,736.3,163.3,605.7C49.7,475.2,63.5,277.4,194.1,163.8
						C324.7,50.3,522.7,64.1,636.3,194.6z"/>
					
						<radialGradient id="SVGID_00000044863739807305173960000013200017153235652999_" cx="-128.6605" cy="677.3207" r="123.6259" gradientTransform="matrix(4.9002 0 0 -4.8959 1091.609 3853.0803)" gradientUnits="userSpaceOnUse">
						<stop  offset="0.1344" style="stop-color:#FFFFFF"/>
						<stop  offset="0.3419" style="stop-color:#FCFCFD"/>
						<stop  offset="0.5209" style="stop-color:#F1F5F7"/>
						<stop  offset="0.6893" style="stop-color:#DFE7EC"/>
						<stop  offset="0.8502" style="stop-color:#C6D5DD"/>
						<stop  offset="1" style="stop-color:#A8BECB"/>
					</radialGradient>
					<path style="fill:url(#SVGID_00000044863739807305173960000013200017153235652999_);" d="M629.5,186
						C747.9,312.8,741,511.4,614.1,629.7c-126.9,118.3-325.6,111.4-444-15.4C51.8,487.5,58.6,288.9,185.5,170.6
						C312.4,52.4,511.1,59.3,629.5,186z"/>
					
						<radialGradient id="SVGID_00000135661006536344229340000009775523131097237670_" cx="-128.3102" cy="673.6647" r="121.6616" gradientTransform="matrix(4.9002 0 0 -4.8959 1091.609 3853.0803)" gradientUnits="userSpaceOnUse">
						<stop  offset="0.1344" style="stop-color:#FFFFFF"/>
						<stop  offset="0.3419" style="stop-color:#FCFCFD"/>
						<stop  offset="0.5209" style="stop-color:#F1F5F7"/>
						<stop  offset="0.6893" style="stop-color:#DFE7EC"/>
						<stop  offset="0.8502" style="stop-color:#C6D5DD"/>
						<stop  offset="1" style="stop-color:#A8BECB"/>
					</radialGradient>
					<path style="fill:url(#SVGID_00000135661006536344229340000009775523131097237670_);" d="M622.7,177.4
						c123.1,123,123.1,322.4,0,445.4c-123.1,123-322.6,123-445.8,0c-123.1-123-123.1-322.4,0-445.4C300,54.5,499.6,54.5,622.7,177.4
						z"/>
				</g>
				<path class="st27" d="M87.1,400.2c0-172.6,140-312.5,312.7-312.5s312.7,139.9,312.7,312.5s-140,312.5-312.7,312.5
					S87.1,572.7,87.1,400.2z"/>
				<g>
					<g>
						<path class="st28" d="M399.8,448l-41.5-36.3L239.8,513.3c4.3,4,10.1,6.5,16.6,6.5h286.9c6.4,0,12.2-2.5,16.5-6.5L441.3,411.7
							L399.8,448z"/>
						<path class="st28" d="M559.8,287.1c-4.3-4-10.1-6.5-16.5-6.5H256.4c-6.4,0-12.2,2.5-16.5,6.5l159.9,137L559.8,287.1z"/>
						<polygon class="st28" points="232.2,301.6 232.2,500.3 347.9,402.1 						"/>
						<polygon class="st28" points="451.7,402.1 567.4,500.3 567.4,301.5 						"/>
					</g>
				</g>
			</g>
		</g>
	</g>
</g>
<g id="DESIGNED_BY_FREEPIK">
</g>
</svg>
