<?xml version="1.0" encoding="utf-8"?>
<!-- Generator: Adobe Illustrator 27.3.1, SVG Export Plug-In . SVG Version: 6.00 Build 0)  -->
<svg version="1.1" id="Layer_1" xmlns="http://www.w3.org/2000/svg" xmlns:xlink="http://www.w3.org/1999/xlink" x="0px" y="0px"
	 viewBox="0 0 1366 368" style="enable-background:new 0 0 1366 368;" xml:space="preserve">
<style type="text/css">
	.st0{clip-path:url(#XMLID_00000087370874358329830880000014836433927424852879_);}
	.st1{fill:url(#SVGID_1_);}
	.st2{fill:url(#SVGID_00000182515019627013374610000005367868651082522804_);}
	.st3{fill:none;stroke:#333333;stroke-width:0.75;stroke-miterlimit:10;}
	.st4{clip-path:url(#SVGID_00000114779705438309915400000016246502695009712008_);}
	.st5{fill:#262626;}
	.st6{clip-path:url(#SVGID_00000149359626744134551360000013592383224161729949_);}
	.st7{clip-path:url(#SVGID_00000149356154195864294460000004701185447341852811_);}
	.st8{fill:#B6754D;}
	.st9{fill:#282828;}
	.st10{fill:#F2EADB;}
	.st11{fill:#F2F2F2;}
	.st12{font-family:'ArialMT';}
	.st13{font-size:32.0388px;}
</style>
<g>
	<g>
		<defs>
			<rect id="XMLID_27_" width="1366" height="368"/>
		</defs>
		<clipPath id="XMLID_00000134227293569337306690000003837755282293915825_">
			<use xlink:href="#XMLID_27_"  style="overflow:visible;"/>
		</clipPath>
		<g style="clip-path:url(#XMLID_00000134227293569337306690000003837755282293915825_);">
			<linearGradient id="SVGID_1_" gradientUnits="userSpaceOnUse" x1="1054.3373" y1="274.336" x2="1442.4203" y2="274.336">
				<stop  offset="0" style="stop-color:#38B0EF"/>
				<stop  offset="4.422938e-03" style="stop-color:#3AAEEB"/>
				<stop  offset="2.560000e-02" style="stop-color:#43A4E0"/>
				<stop  offset="5.530000e-02" style="stop-color:#48A0D9"/>
				<stop  offset="0.1379" style="stop-color:#499FD7"/>
				<stop  offset="0.1394" style="stop-color:#6A85B3"/>
				<stop  offset="0.1412" style="stop-color:#896A8C"/>
				<stop  offset="0.1431" style="stop-color:#A8526E"/>
				<stop  offset="0.1452" style="stop-color:#C03E53"/>
				<stop  offset="0.1475" style="stop-color:#D2303E"/>
				<stop  offset="0.15" style="stop-color:#E0242F"/>
				<stop  offset="0.1531" style="stop-color:#E81E27"/>
				<stop  offset="0.1579" style="stop-color:#EA1C24"/>
				<stop  offset="0.2926" style="stop-color:#E71C28"/>
				<stop  offset="0.4191" style="stop-color:#DD1C32"/>
				<stop  offset="0.5425" style="stop-color:#CD1B47"/>
				<stop  offset="0.6638" style="stop-color:#B51B61"/>
				<stop  offset="0.7827" style="stop-color:#981B82"/>
				<stop  offset="0.881" style="stop-color:#7C1AA2"/>
				<stop  offset="0.8921" style="stop-color:#7F1AA1"/>
				<stop  offset="0.8962" style="stop-color:#831A9A"/>
				<stop  offset="0.8986" style="stop-color:#8B1A91"/>
				<stop  offset="1" style="stop-color:#6F1AB4"/>
			</linearGradient>
			<ellipse class="st1" cx="1319" cy="274.3" rx="194" ry="193"/>
			
				<linearGradient id="SVGID_00000024707915499200416520000010724438163464390833_" gradientUnits="userSpaceOnUse" x1="190.0878" y1="-84.6371" x2="245.3216" y2="72.885">
				<stop  offset="0" style="stop-color:#38B0EF"/>
				<stop  offset="4.422938e-03" style="stop-color:#3AAEEB"/>
				<stop  offset="2.560000e-02" style="stop-color:#43A4E0"/>
				<stop  offset="5.530000e-02" style="stop-color:#48A0D9"/>
				<stop  offset="0.1379" style="stop-color:#499FD7"/>
				<stop  offset="0.1394" style="stop-color:#6A85B3"/>
				<stop  offset="0.1412" style="stop-color:#896A8C"/>
				<stop  offset="0.1431" style="stop-color:#A8526E"/>
				<stop  offset="0.1452" style="stop-color:#C03E53"/>
				<stop  offset="0.1475" style="stop-color:#D2303E"/>
				<stop  offset="0.15" style="stop-color:#E0242F"/>
				<stop  offset="0.1531" style="stop-color:#E81E27"/>
				<stop  offset="0.1579" style="stop-color:#EA1C24"/>
				<stop  offset="0.2926" style="stop-color:#E71C28"/>
				<stop  offset="0.4191" style="stop-color:#DD1C32"/>
				<stop  offset="0.5425" style="stop-color:#CD1B47"/>
				<stop  offset="0.6638" style="stop-color:#B51B61"/>
				<stop  offset="0.7827" style="stop-color:#981B82"/>
				<stop  offset="0.881" style="stop-color:#7C1AA2"/>
				<stop  offset="0.8921" style="stop-color:#7F1AA1"/>
				<stop  offset="0.8962" style="stop-color:#831A9A"/>
				<stop  offset="0.8986" style="stop-color:#8B1A91"/>
				<stop  offset="1" style="stop-color:#6F1AB4"/>
			</linearGradient>
			
				<ellipse style="fill:url(#SVGID_00000024707915499200416520000010724438163464390833_);" cx="217.1" cy="-7.7" rx="83.5" ry="83"/>
			<ellipse class="st3" cx="1399.1" cy="69.6" rx="155.9" ry="155"/>
			<ellipse class="st3" cx="99.9" cy="359.2" rx="114.2" ry="113.6"/>
			<g>
				<defs>
					<rect id="SVGID_00000090265586321553750890000000424864929841015172_" x="47.6" y="332.2" width="70.8" height="70.4"/>
				</defs>
				<clipPath id="SVGID_00000170245119464414752320000005641231272707567290_">
					<use xlink:href="#SVGID_00000090265586321553750890000000424864929841015172_"  style="overflow:visible;"/>
				</clipPath>
				<g style="clip-path:url(#SVGID_00000170245119464414752320000005641231272707567290_);">
					<polygon class="st5" points="159.6,361.4 76.9,443.6 77.1,443.8 159.8,361.6 					"/>
					<polygon class="st5" points="155.7,357.5 73,439.7 73.2,439.9 155.8,357.7 					"/>
					<polygon class="st5" points="151.7,353.6 69.1,435.8 69.2,436 151.9,353.7 					"/>
					<polygon class="st5" points="147.8,349.7 65.1,431.9 65.3,432 148,349.8 					"/>
					<polygon class="st5" points="143.9,345.8 61.2,428 61.4,428.1 144,345.9 					"/>
					<polygon class="st5" points="139.9,341.8 57.3,424.1 57.4,424.2 140.1,342 					"/>
					<polygon class="st5" points="136,337.9 53.3,420.1 53.5,420.3 136.2,338.1 					"/>
					<polygon class="st5" points="132.1,334 49.4,416.2 49.6,416.4 132.2,334.2 					"/>
					<polygon class="st5" points="128.1,330.1 45.5,412.3 45.6,412.5 128.3,330.3 					"/>
					<polygon class="st5" points="124.2,326.2 41.5,408.4 41.7,408.6 124.4,326.4 					"/>
					<polygon class="st5" points="120.3,322.3 37.6,404.5 37.8,404.7 120.4,322.4 					"/>
					<polygon class="st5" points="116.3,318.4 33.7,400.6 33.8,400.8 116.5,318.5 					"/>
					<polygon class="st5" points="112.4,314.5 29.7,396.7 29.9,396.8 112.6,314.6 					"/>
					<polygon class="st5" points="108.5,310.6 25.8,392.8 26,392.9 108.6,310.7 					"/>
					<polygon class="st5" points="104.5,306.6 21.9,388.9 22,389 104.7,306.8 					"/>
					<polygon class="st5" points="100.6,302.7 18,384.9 18.1,385.1 100.8,302.9 					"/>
					<polygon class="st5" points="96.7,298.8 14,381 14.2,381.2 96.8,299 					"/>
					<polygon class="st5" points="92.7,294.9 10.1,377.1 10.2,377.3 92.9,295.1 					"/>
					<polygon class="st5" points="88.8,291 6.2,373.2 6.3,373.4 89,291.2 					"/>
				</g>
			</g>
		</g>
	</g>
	<g>
		<defs>
			<rect id="SVGID_00000118375697262684031950000010744971903468967585_" x="495.7" y="128.4" width="43.4" height="43.1"/>
		</defs>
		<clipPath id="SVGID_00000148624765917789319100000004572950188981644442_">
			<use xlink:href="#SVGID_00000118375697262684031950000010744971903468967585_"  style="overflow:visible;"/>
		</clipPath>
		<g style="clip-path:url(#SVGID_00000148624765917789319100000004572950188981644442_);">
			<polygon class="st5" points="594,143.9 511.4,226.1 511.5,226.3 594.2,144.1 			"/>
			<polygon class="st5" points="590.1,140 507.4,222.2 507.6,222.4 590.3,140.2 			"/>
			<polygon class="st5" points="586.2,136.1 503.5,218.3 503.7,218.5 586.3,136.3 			"/>
			<polygon class="st5" points="582.2,132.2 499.6,214.4 499.7,214.6 582.4,132.4 			"/>
			<polygon class="st5" points="578.3,128.3 495.6,210.5 495.8,210.7 578.5,128.4 			"/>
			<polygon class="st5" points="574.4,124.4 491.7,206.6 491.9,206.8 574.5,124.5 			"/>
			<polygon class="st5" points="570.4,120.5 487.8,202.7 487.9,202.8 570.6,120.6 			"/>
			<polygon class="st5" points="566.5,116.5 483.8,198.8 484,198.9 566.7,116.7 			"/>
			<polygon class="st5" points="562.6,112.6 479.9,194.9 480.1,195 562.7,112.8 			"/>
			<polygon class="st5" points="558.6,108.7 476,190.9 476.1,191.1 558.8,108.9 			"/>
			<polygon class="st5" points="554.7,104.8 472,187 472.2,187.2 554.9,105 			"/>
			<polygon class="st5" points="550.8,100.9 468.1,183.1 468.3,183.3 550.9,101.1 			"/>
			<polygon class="st5" points="546.8,97 464.2,179.2 464.3,179.4 547,97.2 			"/>
			<polygon class="st5" points="542.9,93.1 460.2,175.3 460.4,175.5 543.1,93.2 			"/>
			<polygon class="st5" points="539,89.2 456.3,171.4 456.5,171.5 539.1,89.3 			"/>
			<polygon class="st5" points="535,85.3 452.4,167.5 452.5,167.6 535.2,85.4 			"/>
			<polygon class="st5" points="531.1,81.3 448.4,163.6 448.6,163.7 531.3,81.5 			"/>
			<polygon class="st5" points="527.2,77.4 444.5,159.6 444.7,159.8 527.3,77.6 			"/>
			<polygon class="st5" points="523.2,73.5 440.6,155.7 440.7,155.9 523.4,73.7 			"/>
		</g>
	</g>
	<g>
		<defs>
			<rect id="SVGID_00000142854955640741161840000010317163614675090365_" x="1246.7" y="267.5" width="70.8" height="70.4"/>
		</defs>
		<clipPath id="SVGID_00000103951638930436655960000013931798637448191631_">
			<use xlink:href="#SVGID_00000142854955640741161840000010317163614675090365_"  style="overflow:visible;"/>
		</clipPath>
		<g style="clip-path:url(#SVGID_00000103951638930436655960000013931798637448191631_);">
			<polygon class="st5" points="1358.8,296.7 1276.1,379 1276.3,379.1 1359,296.9 			"/>
			<polygon class="st5" points="1354.9,292.8 1272.2,375 1272.4,375.2 1355,293 			"/>
			<polygon class="st5" points="1350.9,288.9 1268.3,371.1 1268.4,371.3 1351.1,289.1 			"/>
			<polygon class="st5" points="1347,285 1264.3,367.2 1264.5,367.4 1347.2,285.2 			"/>
			<polygon class="st5" points="1343.1,281.1 1260.4,363.3 1260.6,363.5 1343.2,281.3 			"/>
			<polygon class="st5" points="1339.1,277.2 1256.5,359.4 1256.6,359.6 1339.3,277.3 			"/>
			<polygon class="st5" points="1335.2,273.3 1252.5,355.5 1252.7,355.7 1335.4,273.4 			"/>
			<polygon class="st5" points="1331.3,269.4 1248.6,351.6 1248.8,351.7 1331.4,269.5 			"/>
			<polygon class="st5" points="1327.3,265.4 1244.7,347.7 1244.8,347.8 1327.5,265.6 			"/>
			<polygon class="st5" points="1323.4,261.5 1240.7,343.8 1240.9,343.9 1323.6,261.7 			"/>
			<polygon class="st5" points="1319.5,257.6 1236.8,339.8 1237,340 1319.6,257.8 			"/>
			<polygon class="st5" points="1315.5,253.7 1232.9,335.9 1233,336.1 1315.7,253.9 			"/>
			<polygon class="st5" points="1311.6,249.8 1228.9,332 1229.1,332.2 1311.8,250 			"/>
			<polygon class="st5" points="1307.7,245.9 1225,328.1 1225.2,328.3 1307.8,246.1 			"/>
			<polygon class="st5" points="1303.7,242 1221.1,324.2 1221.2,324.4 1303.9,242.1 			"/>
			<polygon class="st5" points="1299.8,238.1 1217.1,320.3 1217.3,320.4 1300,238.2 			"/>
			<polygon class="st5" points="1295.9,234.2 1213.2,316.4 1213.4,316.5 1296,234.3 			"/>
			<polygon class="st5" points="1291.9,230.2 1209.3,312.5 1209.4,312.6 1292.1,230.4 			"/>
			<polygon class="st5" points="1288,226.3 1205.3,308.5 1205.5,308.7 1288.2,226.5 			"/>
		</g>
	</g>
</g>
<g>
	<path class="st8" d="M140.7,225c-0.2,1.9-0.5,3.8-0.9,5.7c-0.8,3.7-2.3,7.2-4.4,10.4l0,0c0.8,7.4,1.6,14.8,2.3,22.2
		c0.2,1.5,0.3,3,0.1,4.6c-0.5,3.5-2.3,6.9-4.5,9.7c1.2,11.3,1.7,22.6,1.4,33.9c-1.4-1-2-1.2-3.4-2.1c-0.9,8.1-0.2,16.4,1.8,24.3
		c0.2,0.6,0.3,1.3,0.8,1.8c1,1.1,3.3,1,3.8,2.4c-4.6-0.3-9.2-0.2-13.7,0.4c-4.4,0.6-9.4,1.3-13.3-0.7c-0.1,0.4-0.1,0.7-0.2,1.1
		c0,0.2-0.1,0.3-0.1,0.5c-6.2,1.5-12.8,0.8-18.6-1.9c-2.3-1.1-8.3-2.2-8.5-4.5c-0.7,0.1-0.5,2.9-0.5,2.9c-1.5,0.7-2.9,1.7-4.4,2.4
		c-2.9,1.3-6.2,1.2-9.3,1.1c-3.8-0.2-7.6-0.4-11.5-0.6c-1.7-0.1-3.6-0.2-5-1.2c-0.6-0.4-1.2-1-1.9-1.2c-0.8-0.2-1.6,0-2.4,0.1
		c-5.2,1.1-10.5,1.2-15.7,0.1c2.5-6.8,9.5-10.7,13.8-16.4c4.1-5.5,5.7-12.5,6.6-19.4c0.9-6.9,1.2-13.8,3.4-20.4c1-3,2.3-5.9,3.7-8.8
		c2.5-5.4,5.6-10.4,8.1-15.8c-1.4-0.5-1.7-2.3-1.4-3.7c0.3-1.4,1-2.8,0.9-4.2c-0.2-1.6-1.3-2.9-1.5-4.5c-0.1-0.9,0.2-1.9,0.1-2.8
		c-0.1-2.6-2.6-4.8-1.9-7.3c0.2-1,1-1.9,0.9-2.9c-0.1-0.6-0.4-1.1-0.7-1.6c-1.8-3.1-1.8-7.1-2.6-10.6c-0.7-3.6-1.5-7.1-2.2-10.7
		c-0.4-2-0.8-4-1.1-6c-1.2-10.9,1.6-21.5,1.8-32.4c0.2-7.9,0.4-15.8,0.6-23.7c0.1-2.6,0.1-5.2-0.1-7.8c-0.3-2.7-0.9-5.4-1.9-7.9
		c-0.9,0.2-1.1,1.3-1.2,2.2c0,0.1,0,0.2,0,0.2c0,6.6-4.1,12.9-3.5,19.4c0.6,6.8-2.4,13.3-4.5,19.8c-2,6.3-3.1,12.8-4.1,19.3
		c1.9,2.8,3.4,5.8,4.5,9c0.2,0.7,0.5,1.3,0.7,2c0.4,1.1,0.7,2.2,1.1,3.3c0.1,0.2,0.1,0.4,0,0.6c-0.1,0.1-0.2,0.1-0.4,0.1
		c-0.8-0.1-1.5-0.5-2-1.1c-0.6-0.7-0.8-1.7-1.4-2.5c-0.8-0.9-2-1.4-3.2-1.4c0.3,1.5,0.7,3.1,1.8,4.1c0.6,0.6,1.3,1,2,1.4
		s1.4,1,1.7,1.8s0.1,1.8-0.6,2.2c-0.2,0.1-0.5,0.2-0.5,0.4c0,0.1,0,0.3,0,0.5c-0.1,0.4-0.7,0.4-1.1,0.2c-1.3-0.4-2.6-0.9-4-1.3
		c-0.8-0.3-1.7-0.6-2.4-1.1s-1.2-1.3-1.8-2c-1.3-1.9-3.6-3.7-4-5.9c-2.7-13.9-1-28.2,0.8-42.2c0.3-2.6,0.6-5.2,1.1-7.8
		c1-5,3.5-9.3,4.7-14.3c0.3-1.3,0.5-2.7,0.4-4.1c0-0.2,0-0.3,0-0.4c-0.9-0.5-1.2-1.9-0.5-2.8c0.1-0.2,0.3-0.3,0.3-0.5
		c0.1-0.4-0.3-0.7-0.5-1.1c-0.3-0.6-0.2-1.4,0.2-1.9c0.4-0.6,0.9-1,1.4-1.5c0.1-0.1,0.3-0.3,0.3-0.5s-0.1-0.4-0.2-0.6
		c-0.6-1-0.7-2.3-0.2-3.3c0.3-0.5,0.7-1.1,0.7-1.7c0-0.3-0.2-0.6-0.2-0.9c-0.4-1.6,1.1-3.2,2.7-3.2c0.1,0,0.1,0,0.2-0.1
		c0.6-0.2,0.8-1,0.9-1.6c1-5.2,1.7-10.4,2.1-15.7c0.1-1.1,0.2-2.2,0.6-3.2c0.4-1,1.1-1.9,1.8-2.7c1-1.3,2-2.6,3.2-3.6
		c1.3-1.2,2.9-2.2,4.4-3.1c5.6-3.2,11.5-6,16.5-10.3c-0.5-0.7,0-1.6-0.3-2.4c-0.1-0.3-0.3-0.5-0.4-0.8c-0.2-0.7,0.6-1.8,0.3-2.5
		c-1.3-0.4-2.2-1.6-2.8-2.9c-0.5-1.3-0.8-2.7-1.6-3.9c-0.5-0.9-1.3-1.7-1.8-2.6c-0.8-1.5-1-3.2-1.2-4.8c-0.3-2.9-0.5-6.1,1.2-8.5
		c0.4-0.5,0.8-1,1.1-1.6c0.2-0.5,0.3-1.1,0.5-1.6c0.8-2.1,3.3-3.1,5.4-3.8c-0.2-1.5,0.4-3.1,1.5-4.1s2.8-1.4,4.2-1
		c0.5,0.1,1,0.4,1.6,0.5c1.3,0.3,2.5-0.1,3.8-0.3c3.2-0.5,6.5,0.1,9.7,0.8c1.8,0.4,3.6,0.7,5.1,1.6c1.6,0.8,3,2.2,3.4,4
		c2.5,0.2,5.4,1.3,6,3.8c0.2,0.7,0.2,1.5,0.3,2.2c0.4,2.8,2.8,5.3,2.2,8.1c-0.4,2.3-1.4,1.3-2.5,3.3c-0.9,1.7-2.5,2.9-2.6,3.5
		c-0.2,0.9,0.1,1.9,0,2.8c-0.1,0.6-0.3,1.1-0.7,1.6c-0.4,0.4-0.8,0.8-1.1,1.3c0,0-0.1,0.1,0,0.1c0.1,0.5,0,1.1,0,1.6
		c0,0.2,0,0.3,0,0.4c-0.1,0.3-0.4,0.4-0.6,0.5c-0.3,0-0.5,0-0.8,0s-0.7-0.3-0.5,0.7c0.1,0.3,0,0.7-0.2,0.9c-0.2,0.2-0.5,0.2-0.6,0.5
		c-0.1,0.2,0,0.4,0,0.6c0,0.5-0.5,0.8-0.9,0.9c-0.2,0-0.3,0.1-0.4,0.2c-0.2,0.2-0.1,0.5-0.1,0.7c0.2,1.5-0.9,3.1-2.3,3.6
		c5.8,3.5,12.4,6,18.2,9.4c0.9,0.5,1.9,1.1,2.5,2c0.7,0.9,1.1,2.1,1.4,3.2c0.8,2.5,2.5,5.9,3,8.8c0.1,0.6,0.2,1.2,0.2,1.7
		c0.1,0,2.4,11.9,4.2,20.4c0.5,2.2,0.9,4.1,1.3,5.5c0.3,1.1,0.5,1.9,0.7,2.3c7.6,16.7,7,36,8.4,54.4
		C142.7,195.7,141.9,213.9,140.7,225z"/>
	<path class="st9" d="M128.4,117c-3.7-6-6.9-12.3-9.7-18.9c2.9,0.1,5.7,0.9,8.2,2.2c0.1,0.6,0.2,1.2,0.2,1.7
		c0.1,0,2.4,11.9,4.2,20.4c-0.1-0.2-0.1-0.4-0.2-0.6C130.4,120.1,129.4,118.6,128.4,117z"/>
	<path class="st9" d="M140.7,225c-0.2,1.9-0.5,3.8-0.9,5.7c-0.8,3.7-2.3,7.2-4.4,10.4l0,0c0.8,7.4,1.6,14.8,2.3,22.2
		c0.2,1.5,0.3,3,0.1,4.6c-0.5,3.5-2.3,6.9-4.5,9.7c1.2,11.3,1.7,22.6,1.4,33.9c-1.4-1-2-1.2-3.4-2.1c-0.9,8.1-0.2,16.4,1.8,24.3
		c0.2,0.6,0.3,1.3,0.8,1.8c1,1.1,3.3,1,3.8,2.4c-4.6-0.3-9.2-0.2-13.7,0.4c-4.4,0.6-9.4,1.3-13.3-0.7c-0.1,0.4-0.1,0.7-0.2,1.1
		c0.3-3.5-3-5.2-7.5-7.8c-4.7-2.7-6-6-6-6c-1-5.3,2.9-15.4,10.3-31.7c7.4-16.4,4.5-33.5,4.7-38.5c0.2-5.1,3.7-14,4.1-19.6
		c0.4-5.7-2.3-11.6-2.3-11.6c-3.9,0.6-7.2,3-9.6,6.1s-3.9,6.8-5.1,10.5c-2.1,6.2-2.9,13.2-5.1,19.3c-8.6,23.8-4.5,47.6-6.4,54.7
		c-0.7,2.5-2.1,4.8-2.6,7.3c-0.4,2.1-0.1,4.3-0.3,6.4c-0.3,2.7-1.5,5.4-1.8,8c-1.5,0.7-2.9,1.7-4.4,2.4c-2.9,1.3-6.2,1.2-9.3,1.1
		c-3.8-0.2-7.6-0.4-11.5-0.6c-1.7-0.1-3.6-0.2-5-1.2c-0.6-0.4-1.2-1-1.9-1.2c-0.8-0.2-1.6,0-2.4,0.1c-5.2,1.1-10.5,1.2-15.7,0.1
		c2.5-6.8,9.5-10.7,13.8-16.4c4.1-5.5,5.7-12.5,6.6-19.4c0.9-6.9,1.2-13.8,3.4-20.4c1-3,2.3-5.9,3.7-8.8c2.5-5.4,5.6-10.4,8.1-15.8
		c-1.4-0.5-1.7-2.3-1.4-3.7c0.3-1.4,1-2.8,0.9-4.2c-0.2-1.6-1.3-2.9-1.5-4.5c-0.1-0.9,0.2-1.9,0.1-2.8c-0.1-2.6-2.6-4.8-1.9-7.3
		c0.2-1,1-1.9,0.9-2.9c-0.1-0.6-0.4-1.1-0.7-1.6c-1.8-3.1-1.8-7.1-2.6-10.6c-0.7-3.6-1.5-7.1-2.2-10.7c-0.4-2-0.8-4-1.1-6
		c-1.2-10.9,1.6-21.5,1.8-32.4c0.2-7.9,0.4-15.8,0.6-23.7c0.1-2.6,0.1-5.2-0.1-7.8c-0.3-2.7-12.5-2.7-16.9-4.6
		c-0.3-0.1-0.6-0.3-0.9-0.4c0-0.2,0-0.3,0-0.4c-0.9-0.5-1.2-1.9-0.5-2.8c0.1-0.2,0.3-0.3,0.3-0.5c0.1-0.4-0.3-0.7-0.5-1.1
		c-0.3-0.6-0.2-1.4,0.2-1.9c0.4-0.6,0.9-1,1.4-1.5c0.1-0.1,0.3-0.3,0.3-0.5s-0.1-0.4-0.2-0.6c-0.6-1-0.7-2.3-0.2-3.3
		c0.3-0.5,0.7-1.1,0.7-1.7c0-0.3-0.2-0.6-0.2-0.9c-0.4-1.6,1.1-3.2,2.7-3.2c0.1,0,0.1,0,0.2-0.1c0.1,0,0.3,0.1,0.4,0.2
		c10-2,17.7-11.3,27.9-12.9c2.9-0.4,5.9-0.2,8.8-0.8c2.4-0.5,4.6-1.4,6.9-2c5.3-1.4,11.1-0.8,16,1.7c1.2,4.6,2.7,9.4,3.9,14
		c0.4,1.4,0.7,2.8,0.6,4.2c-0.1,1-0.4,2-0.5,3.1c-0.2,2,0.6,4,1.4,5.8c1.1,2.7,2.3,5.4,4.1,7.6c1.8,2.3,4.2,4.2,7.1,4.7
		s6.1-0.6,7.6-3.1c0.9-1.5,1.1-3.4,1.2-5.2c0-1.2,0-2.3-0.1-3.5c0.3,1.1,0.5,1.9,0.7,2.3c7.6,16.7,7,36,8.4,54.4
		C142.7,195.7,141.9,213.9,140.7,225z"/>
	<g>
		<path class="st10" d="M81.3,60c0.2,0.8,0.5,1.7,1.2,2.3c0.6,0.5,1.4,0.8,2.2,0.7c-0.1,0-0.2-0.1-0.3-0.1c0.7,1.4,0.4,3.2,1.5,4.4
			c0.2,0.2,0.6-0.1,0.4-0.4c-0.5-0.6-0.7-1.4-0.8-2.2c-0.1-0.8-0.3-1.5-0.6-2.2c-0.1-0.1-0.2-0.1-0.3-0.1c-1.5,0.3-2.4-1.3-2.7-2.6
			C81.8,59.6,81.3,59.7,81.3,60L81.3,60z"/>
	</g>
	<g>
		<path class="st10" d="M87.6,70.5c0.4,0.8,0.9,1.6,1.5,2.3c0.6,0.7,1.4,1.3,2.2,1.7c0.9,0.4,1.9,0.7,2.8,1.1c1,0.4,2,0.7,3.1,1
			c1.2,0.4,2.4,0.7,3.6,0.9c0.3,0.1,0.4-0.4,0.1-0.5c-2-0.4-4-1-6-1.7c-0.9-0.3-1.9-0.7-2.8-1c-0.9-0.4-1.7-0.8-2.4-1.5
			c-0.7-0.7-1.2-1.7-1.7-2.6C87.8,69.9,87.4,70.2,87.6,70.5L87.6,70.5z"/>
	</g>
	<g>
		<path class="st10" d="M100.5,69.7c0,0.1,0,0.1,0,0.2c0,0.2,0.1,0.3,0.2,0.3c0.8,0.1,1.5,0.2,2.3,0.3c0.4,0,0.7,0.2,1,0.3
			s0.6,0.2,0.9,0.2s0.3-0.5,0-0.5s-0.6-0.2-0.9-0.3s-0.7-0.2-1-0.3c-0.8-0.1-1.5-0.2-2.3-0.3c0.1,0.1,0.2,0.2,0.2,0.3
			c0-0.1,0-0.1,0-0.2C101,69.5,100.5,69.4,100.5,69.7L100.5,69.7z"/>
	</g>
	<g>
		<path class="st10" d="M102.9,72.3c0.1,0,0.2,0,0.2,0S103.1,72.3,102.9,72.3c0.3,0,0.4,0.1,0.5,0.1c0,0,0,0-0.1,0l0,0
			c0.1,0,0.1,0,0.2,0s0.1-0.1,0.1-0.1c0-0.1,0-0.1,0-0.2s-0.1-0.1-0.1-0.1c-0.3-0.1-0.5-0.2-0.8-0.2c-0.1,0-0.3,0.1-0.2,0.2
			C102.6,72.2,102.7,72.3,102.9,72.3L102.9,72.3z"/>
	</g>
	<g>
		<path class="st10" d="M103.9,65.2c-0.4,0.2-0.9,0.5-1,1c-0.1,0.3-0.1,0.5-0.1,0.8s0.1,0.5,0.3,0.8c0.3,0.4,0.8,0.8,1.3,0.7
			c0.3,0,0.5-0.1,0.8-0.1s0.6,0.1,0.8,0.2c0.1,0,0.3-0.1,0.3-0.2s0-0.3-0.2-0.3c-0.4-0.2-0.9-0.2-1.4-0.2c-0.2,0-0.5,0.1-0.7,0.1
			s-0.4-0.2-0.5-0.3c-0.2-0.2-0.3-0.3-0.3-0.5s0-0.5,0-0.7c0.1-0.4,0.5-0.6,0.8-0.7c0.1-0.1,0.2-0.2,0.1-0.3
			C104.2,65.2,104,65.2,103.9,65.2L103.9,65.2z"/>
	</g>
	<g>
		<path class="st10" d="M98,58.2c1-0.4,2-0.9,3-1.2s2.1,0,3.1,0.4c0.5,0.2,0.9,0.4,1.3,0.6c0.2,0.1,0.4,0.2,0.6,0.4s0.1,0.5,0.1,0.8
			c-0.1,1.1-0.2,2.2-0.3,3.3c-0.2,1.2-0.4,2.4-0.7,3.6c-0.1,0.3,0.4,0.4,0.5,0.1c0.5-2.4,0.9-4.8,1-7.2c0-0.5-0.1-0.8-0.5-1.1
			s-0.9-0.5-1.4-0.8c-1-0.4-2.1-0.9-3.2-0.7c-0.6,0.1-1.3,0.3-1.9,0.6c-0.6,0.2-1.2,0.5-1.8,0.8C97.4,57.9,97.7,58.3,98,58.2
			L98,58.2z"/>
	</g>
	<g>
		<path class="st10" d="M98.7,60.1c1.4,1.2,3.6,1.9,5.2,0.7c0.3-0.2,0-0.6-0.3-0.4c-1.5,1-3.4,0.5-4.6-0.7
			C98.8,59.6,98.5,59.9,98.7,60.1L98.7,60.1z"/>
	</g>
	<g>
		<path class="st10" d="M100.8,58.6c1-0.1,2,0.1,2.8,0.7c0.3,0.2,0.5-0.2,0.3-0.4c-0.9-0.7-2.1-0.9-3.2-0.7c-0.1,0-0.2,0.2-0.2,0.3
			C100.5,58.5,100.6,58.6,100.8,58.6L100.8,58.6z"/>
	</g>
	<g>
		<path class="st10" d="M108.5,65.8c0.2-1.4,0.4-2.8,0.7-4.1c0.2-0.8,0.5-3.2,1.9-2.8c0.3,0.1,0.4-0.4,0.1-0.5
			c-0.6-0.2-1.2,0.1-1.6,0.6c-0.4,0.6-0.6,1.3-0.7,1.9c-0.4,1.6-0.7,3.2-0.9,4.8C108,66.1,108.5,66.1,108.5,65.8L108.5,65.8z"/>
	</g>
	<g>
		<path class="st10" d="M83.3,59.2c0.1,0.2,0.3,0.5,0.6,0.6c0.1,0.1,0.3,0.1,0.4,0s0.3-0.1,0.4-0.3s0.1-0.4,0-0.5s-0.2-0.2-0.3-0.1
			c-0.1,0.1-0.2,0.2-0.1,0.3l0,0l0,0l0,0c0,0,0-0.1,0,0c0,0,0-0.1,0,0l0,0c0-0.1,0,0,0,0l0,0c0-0.1,0,0,0,0l0,0l0,0c0,0,0,0-0.1,0
			c0.1,0,0,0,0,0l0,0c0,0,0.1,0,0,0l0,0c0,0-0.1,0,0,0s0,0,0,0l0,0l0,0l0,0l0,0l0,0c0.1,0,0,0,0,0s0,0-0.1-0.1l0,0l0,0
			c0,0,0-0.1-0.1-0.1c0-0.1-0.1-0.1-0.1-0.2c-0.1-0.1-0.2-0.2-0.3-0.1C83.3,59,83.2,59.1,83.3,59.2L83.3,59.2z"/>
	</g>
	<g>
		<path class="st10" d="M108.2,48.6c-0.5,1.8-2.3,3-4.2,2.8c-1.1-0.1-2.2-0.6-3.2-0.9s-2-0.4-3-0.2c-1.1,0.1-2.2,0.5-3.2,1.2
			c-0.3,0.2,0,0.6,0.3,0.4c0.9-0.6,2-1,3.1-1.1s2.2,0,3.2,0.4c1.1,0.3,2.1,0.8,3.3,0.8c0.9,0,1.8-0.2,2.6-0.8
			c0.8-0.6,1.5-1.4,1.7-2.4C108.7,48.4,108.3,48.3,108.2,48.6L108.2,48.6z"/>
	</g>
	<g>
		<path class="st10" d="M96.6,51.4c-2.2,1.3-3.6,3.4-5.3,5.2c-0.9,0.9-1.9,1.8-3.1,2.3c-0.7,0.3-1.4,0.3-2.1,0s-1.3-0.6-1.9-0.9
			c-1-0.5-2.5-0.6-3.3,0.4c-0.2,0.3,0.2,0.6,0.4,0.4c0.8-1,2.2-0.6,3.2-0.1c1.2,0.6,2.4,1.3,3.8,0.8c1.2-0.4,2.2-1.2,3-2.1
			c0.9-0.9,1.7-1.8,2.5-2.8c0.9-1,1.9-2.1,3.1-2.8C97.1,51.7,96.9,51.3,96.6,51.4L96.6,51.4z"/>
	</g>
	<g>
		<path class="st10" d="M82.2,58.8c-0.3,0.3-0.6,0.7-0.9,1s-0.7,0.6-1.1,0.7c-0.9,0.3-1.8,0.1-2.5-0.5c-0.2-0.2-0.6,0.1-0.4,0.4
			c0.8,0.7,1.9,0.9,2.9,0.7c0.5-0.1,0.9-0.4,1.3-0.7c0.4-0.4,0.7-0.8,1.1-1.2C82.8,58.9,82.4,58.6,82.2,58.8L82.2,58.8z"/>
	</g>
	<g>
		<path class="st10" d="M94.8,49.5c-0.8,0.4-1.7,0.9-2.3,1.6c-0.7,0.7-1,1.6-1.4,2.5s-0.8,1.8-1.5,2.5c-0.7,0.6-1.7,1-2.5,0.6
			c-0.3-0.1-0.5,0.3-0.3,0.4c0.8,0.4,1.8,0.3,2.5-0.2c0.9-0.5,1.4-1.4,1.8-2.3c0.5-1,0.8-2,1.4-2.8c0.6-0.9,1.6-1.4,2.5-1.9
			C95.3,49.8,95.1,49.3,94.8,49.5L94.8,49.5z"/>
	</g>
	<g>
		<path class="st10" d="M97.4,49.1c1.9-0.8,3.9,0.1,5.8,0.2c0.8,0,1.7,0,2.4-0.4c0.4-0.2,0.7-0.4,1-0.7s0.6-0.7,1.1-0.7
			c0.3,0,0.3-0.5,0-0.5c-0.9,0-1.4,1-2.1,1.4c-0.8,0.4-1.7,0.5-2.6,0.4c-2-0.1-3.9-1-5.9-0.1C96.9,48.8,97.1,49.2,97.4,49.1
			L97.4,49.1z"/>
	</g>
	<g>
		<path class="st10" d="M107.3,46.4c-1.3-0.2-2.6,0.2-3.5,1.1c-0.2,0.2,0.1,0.6,0.4,0.4c0.8-0.8,2-1.1,3.1-0.9
			C107.5,46.9,107.7,46.4,107.3,46.4L107.3,46.4z"/>
	</g>
	<g>
		<path class="st10" d="M107.5,45.3c-2.2-2.4-5.8-1.4-8.6-1.3c-0.9,0-1.8,0-2.7-0.3c-0.8-0.2-1.6-0.6-2.4-0.8
			c-1.5-0.4-3.1-0.6-4.7-0.5c-1.8,0.1-3.6,0.6-5.2,1.5c-0.3,0.2,0,0.6,0.3,0.4c2.8-1.5,6.1-1.8,9.1-1c0.8,0.2,1.5,0.5,2.3,0.8
			s1.6,0.4,2.4,0.4c1.6,0,3.2-0.3,4.9-0.3c1.5,0,3.2,0.3,4.2,1.5C107.4,45.9,107.7,45.5,107.5,45.3L107.5,45.3z"/>
	</g>
	<g>
		<path class="st10" d="M101.1,46c-1.2,0.2-2.5,0.5-3.8,0.2c-0.6-0.1-1.1-0.4-1.6-0.5c-0.5-0.2-1.1-0.3-1.6-0.4
			c-2.1-0.3-4.3,0-6.2,1c-0.3,0.1,0,0.6,0.3,0.4c1.9-1,4.2-1.3,6.3-0.9c1.1,0.2,2.1,0.8,3.2,0.9c1.2,0.2,2.4-0.1,3.5-0.3
			C101.5,46.4,101.4,45.9,101.1,46L101.1,46z"/>
	</g>
	<g>
		<path class="st10" d="M91,47.8c-0.8,0.7-1.6,1.4-2.4,2c-0.7,0.6-1.4,1.2-2.3,1.5c-1.9,0.9-3.9,0.1-5.8,0.3c-0.9,0.1-1.8,0.4-2.5,1
			c-0.2,0.2,0.1,0.6,0.4,0.4c1.4-1.3,3.5-0.8,5.3-0.8c1,0,1.9-0.1,2.8-0.5c0.8-0.4,1.5-0.9,2.2-1.4c0.9-0.7,1.8-1.5,2.6-2.3
			C91.6,48,91.2,47.6,91,47.8L91,47.8z"/>
	</g>
	<g>
		<path class="st10" d="M108.7,49.9c0,0.5,0,1.1,0.2,1.6c0.2,0.4,0.6,0.7,1,0.8c0.1,0,0.3,0,0.3-0.2c0-0.1,0-0.3-0.2-0.3
			c-0.4,0-0.6-0.3-0.8-0.6c-0.2-0.4-0.2-0.9-0.1-1.3c0-0.1-0.1-0.2-0.2-0.2S108.7,49.8,108.7,49.9L108.7,49.9z"/>
	</g>
	<g>
		<path class="st10" d="M109.9,51c0.7,0.6,1.6,0.9,2.5,1.2c0.8,0.3,1.6,0.7,1.9,1.6c0.1,0.3,0.6,0.2,0.5-0.1
			c-0.3-0.9-1.1-1.4-1.9-1.8c-0.9-0.4-1.9-0.6-2.6-1.2C110,50.5,109.6,50.8,109.9,51L109.9,51z"/>
	</g>
	<g>
		<path class="st10" d="M112,52.8c0.6,0.8,1,1.8,0.9,2.9c0,0.3,0.5,0.3,0.5,0c0.1-1.2-0.3-2.3-1.1-3.2c-0.1-0.1-0.3-0.1-0.4,0
			C111.9,52.6,111.9,52.7,112,52.8L112,52.8z"/>
	</g>
	<g>
		<path class="st10" d="M114.9,51.2c-0.5-0.9-1.6-1.3-2.5-1.1c-0.1,0-0.2,0.2-0.2,0.3s0.2,0.2,0.3,0.2c0.7-0.2,1.6,0.2,2,0.9
			C114.6,51.7,115,51.4,114.9,51.2L114.9,51.2z"/>
	</g>
	<g>
		<path class="st10" d="M110.4,48.7c0.5-0.3,1-0.4,1.5-0.3c0.1,0,0.3-0.1,0.2-0.2c0-0.1-0.1-0.2-0.2-0.2c-0.6-0.1-1.3,0.1-1.8,0.4
			c-0.1,0.1-0.2,0.2-0.1,0.3S110.2,48.8,110.4,48.7L110.4,48.7z"/>
	</g>
	<g>
		<path class="st10" d="M108.6,46c-0.2-0.8,0-1.6,0.5-2.3c0.2-0.3,0.6-0.6,0.9-0.8c0.2-0.1,0.4-0.2,0.5-0.3c0.1,0,0.2-0.1,0.3-0.1
			c0,0,0.1,0,0.1-0.1c0,0,0,0,0.1,0s0.1-0.1-0.1-0.3L111,42l0,0c-0.3,0.2,0,0.6,0.3,0.4c0.2-0.2,0.2-0.5-0.1-0.6
			c-0.2,0-0.6,0.1-0.8,0.2c-0.5,0.2-1,0.5-1.3,0.9c-0.8,0.8-1.2,2-0.9,3C108.2,46.4,108.7,46.3,108.6,46L108.6,46z"/>
	</g>
	<g>
		<path class="st10" d="M110.4,44.7c0.1-0.1,0.2-0.1,0.3-0.2c0,0,0,0-0.1,0c0.1,0,0.2-0.1,0.3-0.1c0.1,0,0.1-0.1,0.1-0.1
			c0-0.1,0-0.1,0-0.2c0-0.1-0.1-0.1-0.1-0.1c-0.1,0-0.1,0-0.2,0c-0.3,0-0.5,0.2-0.7,0.3c-0.1,0-0.1,0.1-0.1,0.1c0,0.1,0,0.1,0,0.2
			c0,0.1,0.1,0.1,0.1,0.1C110.3,44.7,110.4,44.7,110.4,44.7L110.4,44.7z"/>
	</g>
	<g>
		<path class="st10" d="M107,42.8c-0.9-1.9-2.7-3.3-4.8-3.5c-0.3,0-0.5,0.4-0.1,0.5c1.9,0.3,3.7,1.5,4.5,3.3
			C106.7,43.3,107.2,43.1,107,42.8L107,42.8z"/>
	</g>
	<g>
		<path class="st10" d="M106.7,41c-0.9-1.7-1.8-3.4-3.7-4.2c-1-0.4-2-0.4-3-0.5c-1.2-0.1-2.4-0.1-3.6-0.1c-0.3,0-0.3,0.5,0,0.5
			c1.1,0,2.2,0.1,3.4,0.1c1,0,2,0.1,2.9,0.4c1.9,0.6,2.8,2.4,3.6,4C106.4,41.5,106.8,41.2,106.7,41L106.7,41z"/>
	</g>
	<g>
		<path class="st10" d="M103.6,41.4c-2.7,0.2-5.1-1.3-7.3-2.5c-1.1-0.6-2.2-1.2-3.4-1.5c-1.2-0.4-2.5-0.5-3.8-0.4
			c-1.4,0.1-2.8,0.6-4.1,1.2c-0.3,0.1,0,0.6,0.3,0.4c2.3-1.1,5-1.5,7.4-0.8s4.4,2.3,6.8,3.3c1.3,0.5,2.7,0.9,4.1,0.8
			C103.9,41.9,103.9,41.4,103.6,41.4L103.6,41.4z"/>
	</g>
	<g>
		<path class="st10" d="M90,39.2c-1.6-0.1-3.1,0.5-4.6,1.1c-1.5,0.5-3.1,1-4.7,0.4c-0.3-0.1-0.4,0.4-0.1,0.5
			c3.3,1.2,6.2-1.7,9.4-1.5C90.3,39.7,90.3,39.2,90,39.2L90,39.2z"/>
	</g>
	<g>
		<path class="st10" d="M80.4,56.7c-1.2,1.1-2.8,1.9-4.5,1.7c-0.8-0.1-1.6-0.4-2.2-0.9s-1.2-1.4-0.9-2.2c0.1-0.3-0.3-0.5-0.4-0.3
			c-0.4,0.9,0,1.8,0.6,2.5s1.5,1.1,2.4,1.3c2,0.4,3.9-0.5,5.3-1.8C81,56.8,80.6,56.4,80.4,56.7L80.4,56.7z"/>
	</g>
	<g>
		<path class="st10" d="M79.4,56.1c-1,0.4-2.2,0.6-3.3,0.2c-0.9-0.3-1.7-1-2.1-1.9c-0.1-0.5-0.1-0.9-0.1-1.4s-0.4-0.7-0.8-0.9
			c-0.9-0.4-1.6-1.2-2-2c-0.5-1.1-0.5-2.5,0-3.7c0.1-0.3-0.3-0.5-0.4-0.3c-1,2.1-0.4,4.6,1.5,6c0.2,0.1,0.4,0.3,0.6,0.4
			c0.3,0.2,0.5,0.2,0.5,0.6c0,0.5,0,1,0.2,1.5c0.4,1,1.2,1.7,2.1,2.1c1.3,0.5,2.7,0.3,3.9-0.2C80,56.4,79.7,56,79.4,56.1L79.4,56.1z
			"/>
	</g>
	<g>
		<path class="st10" d="M71.8,44.1c-0.2,0.8,0,1.6,0.4,2.2c0.5,0.7,1.1,1.2,1.7,1.7c0.1,0.1,0.3,0,0.3-0.1c0.1-0.1,0-0.3-0.1-0.3
			c-1-0.8-2.4-1.9-1.9-3.3C72.4,43.9,71.9,43.8,71.8,44.1L71.8,44.1z"/>
	</g>
	<g>
		<path class="st10" d="M74,49.4c0.7,0.7,1.6,1,2.5,1.1c1,0.2,2,0.2,2.9,0c1-0.3,1.7-0.9,2.5-1.6s1.7-1.4,2.7-1.4
			c0.3,0,0.3-0.5,0-0.5c-2,0-3.1,1.9-4.8,2.7c-0.9,0.4-2,0.4-2.9,0.3c-0.9-0.2-1.9-0.4-2.6-1.1C74.1,48.8,73.8,49.2,74,49.4L74,49.4
			z"/>
	</g>
	<g>
		<path class="st10" d="M86,48.8c-0.4,0.4-1,0.7-1.5,0.9c-0.1,0-0.2,0.2-0.2,0.3s0.2,0.2,0.3,0.2c0.7-0.2,1.2-0.6,1.8-1
			c0.1-0.1,0.1-0.3,0-0.4C86.2,48.7,86.1,48.7,86,48.8L86,48.8z"/>
	</g>
	<g>
		<path class="st10" d="M81.6,45.4c-1,0.6-2.2,0.6-3.2,0.1c-0.6-0.3-0.9-0.8-1.4-1.2s-1-0.6-1.7-0.7c-0.3,0-0.3,0.5,0,0.5
			c0.8,0.1,1.3,0.5,1.8,1c0.4,0.4,0.9,0.8,1.4,1c1.1,0.4,2.3,0.3,3.3-0.3C82.1,45.6,81.9,45.2,81.6,45.4L81.6,45.4z"/>
	</g>
	<g>
		<path class="st10" d="M79.2,42.4c-0.7-0.5-1.4-0.9-2.2-1c-0.1,0-0.3,0-0.3,0.2c0,0.1,0,0.3,0.2,0.3c0.7,0.1,1.4,0.4,2,0.9
			c0.1,0.1,0.3,0.1,0.4,0C79.3,42.6,79.3,42.5,79.2,42.4L79.2,42.4z"/>
	</g>
	<g>
		<path class="st10" d="M80.6,38.1c0.7,0.3,1.5,0.2,2.1-0.3c0.1-0.1,0.1-0.3,0-0.4c-0.1-0.1-0.2-0.1-0.4,0c0,0-0.1,0.1-0.2,0.1
			c0,0-0.1,0-0.1,0.1l0,0l0,0c-0.1,0-0.1,0.1-0.2,0.1h-0.1h-0.1c-0.1,0-0.3,0-0.4,0h-0.1H81h-0.1c0,0,0,0-0.1,0l0,0
			c-0.1-0.1-0.3,0-0.3,0.1C80.4,37.9,80.5,38,80.6,38.1L80.6,38.1z"/>
	</g>
	<g>
		<path class="st10" d="M79.5,61.3c-0.3,1.9-1.1,3.7-1.6,5.6s-0.7,3.9-0.7,5.8c0,0.3,0.5,0.3,0.5,0c-0.1-2,0.1-3.9,0.7-5.8
			c0.5-1.8,1.3-3.6,1.6-5.4C80.1,61.1,79.6,61,79.5,61.3L79.5,61.3z"/>
	</g>
	<g>
		<path class="st10" d="M78,61.8c-0.3,0.3-0.6,0.6-1,0.8s-0.9,0.1-1.4,0c-0.7-0.3-1.5-0.7-1.7-1.6c-0.1-0.3-0.5-0.2-0.5,0.1
			c0.2,1,1.2,1.6,2,1.9c0.5,0.2,1.1,0.3,1.6,0c0.5-0.2,0.8-0.6,1.2-1C78.6,61.9,78.2,61.5,78,61.8L78,61.8z"/>
	</g>
	<g>
		<path class="st10" d="M75.3,60.8c-1,0.2-2.2-0.2-2.7-1.1c-0.2-0.3-0.6,0-0.4,0.3c0.7,1.1,2,1.6,3.3,1.3
			C75.7,61.2,75.6,60.7,75.3,60.8L75.3,60.8z"/>
	</g>
	<g>
		<path class="st10" d="M76.5,64.6L76.5,64.6C76.4,64.7,76.4,64.7,76.5,64.6L76.5,64.6c-0.2,0.1-0.2,0.1-0.3,0.2l0,0c0,0-0.1,0,0,0
			l0,0l0,0c-0.1,0-0.1,0-0.2,0h-0.1h-0.1c-0.1,0-0.1,0-0.2-0.1l0,0l0,0h-0.1c-0.1,0-0.1-0.1-0.2-0.1c-0.1-0.1-0.3,0-0.3,0.1
			c-0.1,0.1,0,0.3,0.1,0.3c0.5,0.4,1.3,0.4,1.8,0.1c0.1-0.1,0.2-0.2,0.1-0.3C76.8,64.6,76.6,64.5,76.5,64.6L76.5,64.6z"/>
	</g>
	<g>
		<path class="st10" d="M92.6,63.8c0.1,0.8,0.7,1.6,1.3,2c0.8,0.6,1.7,0.8,2.7,0.9c0.3,0,0.3-0.5,0-0.5c-0.8-0.1-1.7-0.3-2.4-0.8
			c-0.6-0.4-1-1-1.1-1.8c0-0.1-0.2-0.2-0.3-0.2C92.6,63.5,92.6,63.7,92.6,63.8L92.6,63.8z"/>
	</g>
	<g>
		<path class="st10" d="M100.6,95.5c1,0.9,2.1,1.5,3.3,1.9c0.6,0.2,1.1,0.4,1.7,0.6c0.5,0.2,1.2,0.6,1.4,1.1c0.1,0.3,0.6,0,0.4-0.3
			c-0.2-0.5-0.8-0.9-1.3-1.1c-0.5-0.3-1.1-0.5-1.7-0.7c-1.3-0.5-2.5-1-3.5-2C100.7,94.9,100.3,95.3,100.6,95.5L100.6,95.5z"/>
	</g>
	<g>
		<path class="st10" d="M101.9,96.6c-0.4,0.4-1,0.1-1.3-0.2c-0.4-0.4-0.6-0.9-0.8-1.4c-0.2-0.5-0.6-1.1-0.4-1.7
			c0.1-0.4,0.6-0.8,1-0.6c0.2,0.1,0.4-0.1,0.4-0.3c-0.4-1-0.7-2.1-0.1-3c0.5-0.7,1.2-1.2,1.6-2s0.6-1.7,1.5-2.2
			c0.5-0.2,1-0.3,1.5-0.4c0.6-0.1,1.1-0.3,1.7-0.4c0.5-0.1,1.1-0.3,1.6-0.4c0.6-0.1,1,0.2,1.4,0.6c0.6,0.7,1.1,1.5,1.6,2.2
			c0.5,0.8,1.2,1.3,2,1.8s1.4,1.2,1.9,2.1c0.5,1,0.8,2.1,1.1,3.2c0.4,1.3,0.8,2.5,1.2,3.8c0.1,0.3,0.6,0.2,0.5-0.1
			c-0.4-1.2-0.8-2.4-1.1-3.6c-0.3-1-0.6-2.1-1.1-3.1c-0.4-0.9-0.9-1.7-1.7-2.3c-0.4-0.3-0.9-0.6-1.3-0.9s-0.7-0.7-1-1.1
			c-0.6-0.8-1-1.6-1.7-2.3c-0.3-0.3-0.7-0.7-1.2-0.8c-0.6-0.1-1.1,0.2-1.7,0.3c-1.1,0.3-2.3,0.5-3.4,0.9c-0.5,0.2-0.9,0.4-1.2,0.8
			c-0.3,0.4-0.5,0.8-0.7,1.2c-0.2,0.5-0.5,0.9-0.9,1.3c-0.3,0.4-0.7,0.7-1,1.1c-0.7,1.1-0.3,2.3,0.1,3.5c0.1-0.1,0.2-0.2,0.4-0.3
			c-0.6-0.3-1.2,0-1.6,0.5c-0.5,0.7-0.3,1.5,0.1,2.2c0.3,0.7,0.6,1.6,1.3,2c0.5,0.4,1.3,0.5,1.8,0C102.5,96.7,102.1,96.3,101.9,96.6
			L101.9,96.6z"/>
	</g>
	<g>
		<path class="st10" d="M76.8,80c1.2,3.4,3.9,6.3,7.2,7.8c0.3,0.1,0.5-0.3,0.3-0.4c-3.2-1.4-5.8-4.2-7-7.5
			C77.2,79.5,76.7,79.7,76.8,80L76.8,80z"/>
	</g>
	<g>
		<path class="st10" d="M99,82.1c-0.6,1.2-1.5,2.1-2.6,2.9c-0.3,0.2,0,0.6,0.3,0.4c1.2-0.8,2.1-1.8,2.8-3
			C99.5,82.1,99.1,81.8,99,82.1L99,82.1z"/>
	</g>
	<g>
		<path class="st10" d="M81.1,67.9c1.6,3.8,2.9,7.7,3.9,11.7c0.3,1.1,0.5,2.2,0.7,3.4c0.1,0.3,0.5,0.2,0.5-0.1
			c-0.8-4.1-1.9-8.1-3.4-12c-0.4-1.1-0.8-2.2-1.3-3.2C81.5,67.4,81,67.7,81.1,67.9L81.1,67.9z"/>
	</g>
	<g>
		<path class="st10" d="M94.2,78.6c-0.3,1-0.8,1.9-1.4,2.8c-0.1,0.1,0,0.3,0.1,0.3c0.1,0.1,0.3,0,0.3-0.1c0.6-0.9,1.1-1.9,1.4-2.9
			C94.8,78.5,94.3,78.3,94.2,78.6L94.2,78.6z"/>
	</g>
	<g>
		<path class="st10" d="M60.9,108.4c0.2-1.6,0.2-3.2,0-4.8c0-0.3-0.5-0.3-0.5,0c0.2,1.6,0.2,3.2,0,4.8
			C60.4,108.7,60.9,108.7,60.9,108.4L60.9,108.4z"/>
	</g>
	<g>
		<path class="st10" d="M65.6,84.7c-0.3,3.3-1.6,6.4-3.7,9c-0.2,0.2,0.1,0.6,0.4,0.4c2.2-2.6,3.5-5.9,3.8-9.3
			C66.1,84.4,65.6,84.4,65.6,84.7L65.6,84.7z"/>
	</g>
	<g>
		<path class="st10" d="M112.2,119.7c0.4,1.8,0.9,3.6,1.3,5.3c0.4,1.6,0.8,3.1,1.3,4.7c1,2.8,2.5,5.5,5,7.2c1.3,0.9,2.8,1.5,4.3,1.6
			c0.3,0,0.3-0.5,0-0.5c-2.8-0.2-5.2-2-6.8-4.2c-1.8-2.5-2.6-5.6-3.3-8.6c-0.5-1.9-0.9-3.8-1.4-5.7
			C112.6,119.2,112.1,119.4,112.2,119.7L112.2,119.7z"/>
	</g>
	<g>
		<path class="st10" d="M47.8,141.5c1,0.7,2,1.4,3,2.1c0.3,0.2,0.5-0.2,0.3-0.4c-1-0.7-2-1.4-3-2.1
			C47.8,140.9,47.6,141.3,47.8,141.5L47.8,141.5z"/>
	</g>
	<g>
		<path class="st10" d="M39.1,201.6c0.7,0.9,1.5,1.8,2.2,2.7s1.5,1.7,2.4,2.4c1.6,1.3,3.5,2.2,5.6,2.5c0.3,0.1,0.4-0.4,0.1-0.5
			c-2-0.4-3.9-1.2-5.5-2.5c-0.8-0.7-1.6-1.5-2.2-2.3c-0.7-0.9-1.5-1.8-2.2-2.7C39.2,201,38.9,201.4,39.1,201.6L39.1,201.6z"/>
	</g>
	<g>
		<path class="st10" d="M41.5,189.4c0.9,0,1.7,0.1,2.5,0.4c0.3,0.1,0.4-0.4,0.1-0.5c-0.9-0.3-1.8-0.4-2.6-0.4
			C41.2,188.9,41.2,189.4,41.5,189.4L41.5,189.4z"/>
	</g>
	<g>
		<path class="st10" d="M57.1,112.9c-0.7,0.7-1.5,1.3-2.3,1.8s-1.5,1-2.3,1.5c-1.6,0.9-3.3,1.7-5.2,1.7c-0.3,0-0.3,0.5,0,0.5
			c1.9,0,3.7-0.7,5.3-1.7c0.8-0.5,1.7-1,2.5-1.6s1.6-1.1,2.3-1.8C57.7,113,57.3,112.6,57.1,112.9L57.1,112.9z"/>
	</g>
	<g>
		<path class="st10" d="M46,116.3c0.9,0.1,1.7,0.2,2.6,0.1c0.1,0,0.2-0.1,0.2-0.2s-0.1-0.3-0.2-0.2c-0.8,0.1-1.7,0-2.5-0.1
			c-0.1,0-0.3,0-0.3,0.2C45.8,116.1,45.8,116.3,46,116.3L46,116.3z"/>
	</g>
	<g>
		<path class="st10" d="M58.5,113.2c-0.9,1.9-1.9,3.7-3,5.4c-1,1.6-2.1,3.4-3.9,4.4c-1,0.5-2,0.8-3.1,1.1c-0.3,0.1-0.2,0.6,0.1,0.5
			c0.9-0.3,1.9-0.5,2.8-0.9c0.9-0.4,1.6-1,2.3-1.7c0.7-0.8,1.3-1.6,1.8-2.5c0.6-0.9,1.2-1.8,1.7-2.8c0.6-1.1,1.2-2.1,1.7-3.2
			C59.1,113.2,58.7,112.9,58.5,113.2L58.5,113.2z"/>
	</g>
	<g>
		<path class="st10" d="M44.7,121.6c1.1,1.2,2.7,1.8,4.3,1.5c0.1,0,0.2-0.2,0.2-0.3c0-0.1-0.2-0.2-0.3-0.2c-1.4,0.2-2.8-0.4-3.8-1.4
			C44.8,121,44.5,121.3,44.7,121.6L44.7,121.6z"/>
	</g>
	<g>
		<path class="st10" d="M60.3,118.4c-1.5,3.1-4,5.6-7.1,7.3c-0.9,0.5-1.8,0.8-2.7,1.1c-0.3,0.1-0.2,0.6,0.1,0.5
			c3.4-1.1,6.3-3.2,8.5-6c0.6-0.8,1.1-1.7,1.6-2.6C60.9,118.4,60.5,118.1,60.3,118.4L60.3,118.4z"/>
	</g>
	<g>
		<path class="st10" d="M45,126.2c0.8,0.3,1.7,0.4,2.6,0.4c0.3,0,0.3-0.5,0-0.5c-0.8,0-1.7-0.1-2.5-0.4
			C44.8,125.6,44.7,126.1,45,126.2L45,126.2z"/>
	</g>
	<g>
		<path class="st10" d="M62.1,122.1c-3,3.7-7.3,6.2-11.9,7c-1.3,0.2-2.6,0.3-4,0.3c-0.3,0-0.3,0.5,0,0.5c4.8,0.2,9.6-1.5,13.3-4.5
			c1.1-0.9,2-1.8,2.9-2.9C62.7,122.2,62.4,121.8,62.1,122.1L62.1,122.1z"/>
	</g>
	<g>
		<path class="st10" d="M43.9,128.6c0.2,0.2,0.4,0.3,0.7,0.5c0,0,0.1,0,0.2,0c0.1,0,0.1-0.1,0.1-0.1c0-0.1,0-0.1,0-0.2
			c0-0.1-0.1-0.1-0.1-0.1c-0.2-0.2-0.4-0.3-0.7-0.5c0,0-0.1,0-0.2,0c-0.1,0-0.1,0.1-0.1,0.1C43.8,128.4,43.8,128.4,43.9,128.6
			C43.8,128.6,43.8,128.6,43.9,128.6L43.9,128.6z"/>
	</g>
	<g>
		<path class="st10" d="M58.1,128c-2.4,3.4-6.9,3.9-10.6,4.3c-0.3,0-0.3,0.5,0,0.5c4-0.4,8.6-1,11.1-4.5
			C58.7,128,58.3,127.7,58.1,128L58.1,128z"/>
	</g>
	<g>
		<path class="st10" d="M56.6,133.7c1,0,1.9-0.1,2.8-0.4c0.3-0.1,0.2-0.6-0.1-0.5c-0.9,0.3-1.8,0.4-2.7,0.3
			C56.3,133.2,56.3,133.7,56.6,133.7L56.6,133.7z"/>
	</g>
	<g>
		<path class="st10" d="M62.5,110c0.1,4.6,0.6,9.3,1.6,13.8s2.5,9,4.4,13.2c1.1,2.4,2.3,4.7,3.6,7c0.2,0.3,0.6,0,0.4-0.3
			c-2.4-4-4.3-8.2-5.8-12.5c-1.5-4.4-2.6-8.9-3.2-13.5c-0.3-2.6-0.5-5.2-0.5-7.8C63,109.7,62.5,109.7,62.5,110L62.5,110z"/>
	</g>
	<g>
		<path class="st10" d="M75.1,116.8c1.3,0.3,2.6,0.6,4,0.9c1.3,0.3,2.5,0.7,3.8,0.7c2.5,0.1,4.6-1.5,6.5-2.9
			c1.1-0.9,2.2-1.8,3.3-2.7c0.2-0.2-0.1-0.6-0.4-0.4c-1.8,1.6-3.7,3.2-5.7,4.4c-1,0.6-2.1,1.1-3.3,1.1c-1.3,0.1-2.5-0.3-3.8-0.6
			c-1.4-0.3-2.9-0.7-4.3-1C74.9,116.2,74.7,116.7,75.1,116.8L75.1,116.8z"/>
	</g>
	<g>
		<path class="st10" d="M95.4,103.7c-2.8,2.6-6.5,3.9-10.1,4.6c-1.1,0.2-2.1,0.4-3.2,0.6c-0.3,0-0.2,0.5,0.1,0.5
			c3.8-0.6,7.6-1.4,11-3.4c0.9-0.6,1.8-1.2,2.6-2C96,103.8,95.6,103.5,95.4,103.7L95.4,103.7z"/>
	</g>
	<g>
		<path class="st10" d="M99.5,117.1c-1.6,0.8-3.1,1.9-4.5,3.2c-0.2,0.2,0.1,0.6,0.4,0.4c1.3-1.2,2.8-2.3,4.4-3.1
			C100,117.4,99.8,117,99.5,117.1L99.5,117.1z"/>
	</g>
	<g>
		<path class="st10" d="M102.5,118.6c-0.3,0.2-0.6,0.4-0.8,0.6c-0.1,0-0.1,0.1-0.1,0.1c0,0.1,0,0.1,0,0.2c0.1,0.1,0.2,0.2,0.3,0.1
			c0.3-0.2,0.6-0.4,0.8-0.6c0.1,0,0.1-0.1,0.1-0.1c0-0.1,0-0.1,0-0.2C102.8,118.5,102.6,118.5,102.5,118.6L102.5,118.6z"/>
	</g>
	<g>
		<path class="st10" d="M73,123.4c0.4,1.4,0.8,2.8,1.4,4.2c0.1,0.3,0.6,0.2,0.5-0.1c-0.5-1.4-1-2.8-1.4-4.2
			C73.4,122.9,73,123.1,73,123.4L73,123.4z"/>
	</g>
	<g>
		<path class="st10" d="M76.4,125.9c0.9,5.2,2,10.4,3.3,15.6s2.8,10.3,4.4,15.3c0.9,2.8,1.9,5.7,2.9,8.5c0.1,0.3,0.6,0.2,0.5-0.1
			c-1.8-5-3.5-10-5-15.1s-2.8-10.3-3.9-15.5c-0.6-2.9-1.2-5.8-1.7-8.8C76.8,125.4,76.3,125.6,76.4,125.9L76.4,125.9z"/>
	</g>
	<g>
		<path class="st10" d="M69,162.1c1,6.1,4,11.7,7.7,16.7c1.8,2.4,3.8,4.7,5.9,6.9c2,2.2,4.1,4.4,5.9,6.8c2,2.6,3.7,5.5,4.6,8.7
			c0.1,0.3,0.6,0.2,0.5-0.1c-1.7-5.7-5.7-10.3-9.6-14.6c-2-2.2-4.1-4.4-6-6.8c-1.9-2.5-3.7-5.1-5.1-7.9c-1.6-3.1-2.8-6.4-3.4-9.8
			C69.5,161.6,69,161.7,69,162.1L69,162.1z"/>
	</g>
	<g>
		<path class="st10" d="M102.7,161.2c0.2,4.3,0.4,8.6-0.1,12.9c-0.3,2.1-0.7,4.2-1.5,6.2c-0.7,2-1.8,3.7-2.7,5.6c-1,2-1.9,4-2,6.3
			c0,0.3,0.5,0.3,0.5,0c0.1-2,0.8-3.9,1.8-5.7c0.9-1.8,2-3.5,2.7-5.4c1.6-4,2-8.3,2-12.5c0-2.4-0.1-4.9-0.2-7.3
			C103.2,160.9,102.7,160.9,102.7,161.2L102.7,161.2z"/>
	</g>
	<g>
		<path class="st10" d="M100.5,175.4c-0.8,5.3-4.6,9.5-6,14.6c-0.4,1.4-0.6,2.9-0.5,4.4c0,0.3,0.5,0.3,0.5,0
			c-0.3-5.4,3.3-9.9,5.3-14.7c0.6-1.3,1-2.7,1.2-4.2C101,175.2,100.5,175.1,100.5,175.4L100.5,175.4z"/>
	</g>
	<g>
		<path class="st10" d="M63,165.3c0.7,4,2.8,7.6,5.3,10.8c2.7,3.3,5.8,6.2,8.8,9.2c1.7,1.8,3.3,3.6,4.7,5.6c0.2,0.3,0.6,0,0.4-0.3
			c-2.4-3.5-5.5-6.5-8.6-9.5c-2.9-2.9-5.8-6-7.8-9.6c-1.1-2-2-4.1-2.3-6.4C63.4,164.9,63,165,63,165.3L63,165.3z"/>
	</g>
	<g>
		<path class="st10" d="M90.2,206.2c2.4,5.6,2.7,11.7,2.7,17.7c0,1.7-0.1,3.4-0.1,5.1c0,0.3,0.5,0.3,0.5,0
			c0.2-6.1,0.3-12.3-1.1-18.2c-0.4-1.7-0.9-3.3-1.6-4.8C90.5,205.7,90.1,205.9,90.2,206.2L90.2,206.2z"/>
	</g>
	<g>
		<path class="st10" d="M96.1,200.2c-0.6,4.3-1,8.6-1.3,12.9c-0.1,1.2-0.1,2.5-0.2,3.7c0,0.3,0.5,0.3,0.5,0c0.2-4.3,0.5-8.5,1-12.8
			c0.1-1.2,0.3-2.5,0.5-3.7C96.7,200,96.2,199.9,96.1,200.2L96.1,200.2z"/>
	</g>
	<g>
		<path class="st10" d="M107.2,117c-1.2,4.9-2,10.5,1.1,14.9c0.7,1,1.6,1.9,2.7,2.5c0.2,0.1,0.4-0.1,0.4-0.3
			c-1.6-4.9-3.6-10.3-2.1-15.5c0.4-1.3,0.9-2.5,1.8-3.5c0.2-0.2-0.2-0.6-0.4-0.4c-1.5,1.9-2.2,4.3-2.4,6.7c-0.2,2.7,0.4,5.5,1.2,8.1
			c0.5,1.6,1,3.2,1.5,4.7c0.1-0.1,0.2-0.2,0.4-0.3c-1.9-1.1-3.2-2.9-3.9-5c-0.9-2.4-0.9-4.9-0.6-7.3c0.2-1.5,0.5-3.1,0.9-4.6
			C107.7,116.8,107.2,116.7,107.2,117L107.2,117z"/>
	</g>
	<g>
		<path class="st10" d="M110.2,136c1.1,2.7,2.2,5.5,3.6,8.1c0.7,1.3,1.4,2.6,2.3,3.8c0.8,1.2,1.8,2.4,2.7,3.5
			c0.9,1.2,1.8,2.4,2.6,3.7c0.8,1.3,1.5,2.6,2.1,3.9c1.2,2.8,2.1,5.7,2.8,8.6c0.7,3.4,1.1,6.8,1.2,10.3c0,0.3,0.5,0.3,0.5,0
			c0-6.1-1.2-12.2-3.5-17.9c-0.5-1.4-1.2-2.7-1.9-4c-0.7-1.3-1.6-2.5-2.5-3.7c-1.8-2.4-3.7-4.7-5.1-7.3c-1.7-2.9-2.9-6.1-4.2-9.2
			C110.6,135.5,110.1,135.7,110.2,136L110.2,136z"/>
	</g>
	<g>
		<path class="st10" d="M127.8,180.2c-1.5,6.9-0.7,13.9-0.7,20.9c0,7.1-0.4,14.2-1.2,21.2c-0.5,4-1.1,7.9-1.8,11.9
			c-0.1,0.3,0.4,0.4,0.5,0.1c1.3-7,2.2-14,2.6-21.1c0.2-3.5,0.4-7.1,0.4-10.6s-0.1-7-0.1-10.5c-0.1-3.9,0-7.9,0.9-11.8
			C128.4,180,127.9,179.9,127.8,180.2L127.8,180.2z"/>
	</g>
	<g>
		<path class="st10" d="M117.1,139.6c0.3,1.8,0.6,3.5,0.9,5.3c0.1,0.3,0.5,0.2,0.5-0.1c-0.3-1.8-0.6-3.5-0.9-5.3
			C117.5,139.1,117.1,139.2,117.1,139.6L117.1,139.6z"/>
	</g>
	<g>
		<path class="st10" d="M136.2,174.8c0.6,3.8,1.2,7.6,1.8,11.5c0.1,0.9,0.3,1.9,0.4,2.8c0.1,0.9,0.4,1.9,0.4,2.8
			c0,0.9-0.5,1.7-0.9,2.5s-0.9,1.6-1.4,2.3c-0.9,1.5-1.9,2.9-2.9,4.4c-0.9,1.3-1.9,2.7-2.4,4.3c-0.5,1.4-0.6,3,0,4.4
			c0.5,1.4,1.4,2.5,2.4,3.6c1.2,1.3,2.6,2.4,3.7,3.8c1.1,1.4,1.9,3.2,1.5,5c-0.1,0.3,0.4,0.4,0.5,0.1c0.7-3.3-1.9-6-4-8
			c-1.1-1-2.2-2.1-2.9-3.4c-0.8-1.4-1.1-2.9-0.8-4.5s1.2-3,2.1-4.4c1-1.5,2-2.9,3-4.4c0.5-0.8,0.9-1.5,1.4-2.3
			c0.4-0.8,0.9-1.6,1.2-2.4c0.3-0.9,0.1-1.7,0-2.6c-0.1-0.9-0.3-1.9-0.4-2.8c-0.7-4.3-1.3-8.6-2-12.9
			C136.6,174.3,136.1,174.5,136.2,174.8L136.2,174.8z"/>
	</g>
	<g>
		<path class="st10" d="M132.5,140.4c0.5,3.2,0.5,6.5,0.4,9.8c0,3.3-0.1,6.5-0.1,9.8c0,6.6,0.2,13.2,0.6,19.8
			c0.2,3.7,0.4,7.4,0.7,11c0,0.3,0.5,0.3,0.5,0c-0.5-6.6-0.9-13.2-1.1-19.9c-0.2-6.6-0.3-13.2-0.2-19.8c0.1-3.6,0.1-7.3-0.4-10.9
			C132.9,140,132.4,140.1,132.5,140.4L132.5,140.4z"/>
	</g>
	<g>
		<path class="st10" d="M129.6,153.1c-0.2,5.9-0.3,11.7,0,17.6c0.2,5.8,0.7,11.7,1.3,17.5c0.4,3.3,0.8,6.5,1.3,9.7
			c0.1,0.3,0.5,0.2,0.5-0.1c-0.9-5.8-1.6-11.6-2.1-17.4c-0.5-5.8-0.7-11.6-0.7-17.4c0-3.3,0.1-6.6,0.2-9.8
			C130.1,152.8,129.6,152.8,129.6,153.1L129.6,153.1z"/>
	</g>
	<g>
		<path class="st10" d="M130.9,213.4c0.1,4.3,0.3,8.5,0.4,12.8c0.1,2.1,0.2,4.3,0.2,6.4c0,1.1,0.1,2.1,0.1,3.2c0,0.9,0,1.7,0.1,2.6
			c0.2,1.6,0.6,3.3,2.1,4.1c0.3,0.2,0.5-0.3,0.3-0.4c-1.3-0.7-1.7-2.2-1.9-3.6c-0.1-0.8-0.1-1.7-0.1-2.5c0-1-0.1-2.1-0.1-3.1
			c-0.1-4.1-0.3-8.2-0.4-12.4c-0.1-2.3-0.2-4.7-0.2-7C131.4,213,130.9,213,130.9,213.4L130.9,213.4z"/>
	</g>
	<g>
		<path class="st10" d="M127.6,223c-0.5,7.1-0.8,14.2-0.9,21.3c-0.1,3.5-0.1,7.1-0.1,10.6c0,0.9,0,1.7,0,2.6c0,0.7,0,1.5,0.3,2.1
			c0.6,1.2,1.9,1.6,3,2c2.9,1,5.3,3.3,6.5,6.1c0.1,0.3,0.6,0.2,0.5-0.1c-1-2.5-2.9-4.5-5.2-5.8c-0.6-0.3-1.2-0.5-1.8-0.8
			c-0.6-0.2-1.2-0.4-1.8-0.8s-0.9-1.1-1-1.8c-0.1-0.8,0-1.6-0.1-2.5c-0.1-7,0.1-14.1,0.4-21.1c0.2-4,0.4-7.9,0.7-11.9
			C128.1,222.7,127.6,222.7,127.6,223L127.6,223z"/>
	</g>
	<g>
		<path class="st10" d="M128,260c0.2-2.2,2.5-3.4,4.4-4c0.6-0.2,1.2-0.3,1.7-0.5s1.1-0.3,1.6-0.6s0.2-1,0.1-1.4
			c-0.1-0.6-0.2-1.3-0.3-2c-0.2-1.4-0.2-2.9-0.2-4.3c0-0.3-0.5-0.3-0.5,0c0,1.3,0,2.6,0.2,3.9c0.1,0.6,0.2,1.2,0.3,1.9
			c0.1,0.3,0.1,0.6,0.2,0.9c0,0.2,0.1,0.3,0.1,0.5c0,0.1,0,0.2-0.1,0.2c-0.1,0.1-0.2,0.1-0.3,0.1c-2.1,0.8-4.4,1.1-6.1,2.6
			c-0.8,0.7-1.4,1.7-1.5,2.8C127.4,260.3,127.9,260.3,128,260L128,260z"/>
	</g>
	<g>
		<path class="st10" d="M129.2,241.8c-0.3,4.1-0.2,8.2,0.1,12.3c0,0.3,0.5,0.3,0.5,0c-0.4-4.1-0.4-8.2-0.1-12.3
			C129.7,241.5,129.2,241.5,129.2,241.8L129.2,241.8z"/>
	</g>
	<g>
		<path class="st10" d="M133.4,275.1c-1.4,1.7-2.8,3.4-4.1,5.1c-1.2,1.5-2.4,3.2-2.6,5.2c-0.2,1.6,0.3,3.1,1.4,4.3
			c0.9,1,2,1.8,3.1,2.7c1.1,0.9,2.2,2,2.5,3.5c0.1,0.3,0.5,0.2,0.5-0.1c-0.5-2.6-3.1-4-5-5.7c-1.1-1-1.9-2.2-2-3.6
			c-0.1-2,0.9-3.8,2.1-5.4c1.4-1.9,3-3.7,4.5-5.6C133.9,275.2,133.6,274.9,133.4,275.1L133.4,275.1z"/>
	</g>
	<g>
		<path class="st10" d="M126.6,263.5c0.2,5.5,0.3,11.1,0.3,16.6c0,1.6,0,3.1-0.1,4.7c0,0.3,0.5,0.3,0.5,0c0.1-5.5,0.1-11.1,0-16.6
			c0-1.6-0.1-3.1-0.2-4.7C127.1,263.1,126.6,263.1,126.6,263.5L126.6,263.5z"/>
	</g>
	<g>
		<path class="st10" d="M129.7,265.8c0,2.6,0,5.3,0,7.9c0,0.3,0.5,0.3,0.5,0c0-2.6,0-5.3,0-7.9C130.2,265.5,129.7,265.5,129.7,265.8
			L129.7,265.8z"/>
	</g>
	<g>
		<path class="st10" d="M131.6,266.5c0,1,0,2,0,3c0,0.3,0.5,0.3,0.5,0c0-1,0-2,0-3C132.1,266.2,131.6,266.2,131.6,266.5L131.6,266.5
			z"/>
	</g>
	<g>
		<path class="st10" d="M133.4,296.9c-0.4,1-1,1.9-1.7,2.8c-0.7,0.8-1.5,1.4-2.2,2.3c-0.5,0.7-0.9,1.4-0.9,2.3
			c0,0.8,0.2,1.6,0.6,2.3c0.5,0.8,1.2,1.4,2,1.6c0.3,0.1,0.4-0.4,0.1-0.5c-1.4-0.5-2.3-2-2.3-3.5c0.1-1.9,1.9-2.9,3-4.2
			c0.7-0.8,1.3-1.8,1.7-2.8C134,296.9,133.5,296.6,133.4,296.9L133.4,296.9z"/>
	</g>
	<g>
		<path class="st10" d="M129,291.9c0.2,3,0.3,6,0.5,9c0,0.3,0.5,0.3,0.5,0c-0.2-3-0.3-6-0.5-9C129.5,291.6,129,291.6,129,291.9
			L129,291.9z"/>
	</g>
	<g>
		<path class="st10" d="M130.5,294.6c0,0.9,0,1.9,0,2.8c0,0.3,0.5,0.3,0.5,0c0-0.9,0-1.9,0-2.8C131,294.3,130.5,294.3,130.5,294.6
			L130.5,294.6z"/>
	</g>
	<g>
		<path class="st10" d="M117.9,257.8c-0.5,8.3-1.3,16.5-2.1,24.8c-0.8,8.2-1.5,16.4-1.7,24.6c-0.1,4.6,0,9.3,0.3,13.9
			c0,0.3,0.5,0.3,0.5,0c-0.6-8.2-0.3-16.5,0.2-24.8c0.6-8.2,1.4-16.4,2.2-24.6c0.4-4.6,0.8-9.3,1.1-13.9
			C118.4,257.5,117.9,257.5,117.9,257.8L117.9,257.8z"/>
	</g>
	<g>
		<path class="st10" d="M118,287.9c-0.1,5.2-0.1,10.4-0.1,15.5c0,5.2,0,10.4,0.1,15.5c0,2.9,0.1,5.8,0.2,8.7c0,0.3,0.5,0.3,0.5,0
			c-0.1-5.2-0.2-10.4-0.2-15.5c0-5.2,0-10.4,0-15.5c0-2.9,0.1-5.8,0.1-8.7C118.5,287.6,118,287.6,118,287.9L118,287.9z"/>
	</g>
	<g>
		<path class="st10" d="M123.5,305.8c0,4.5,0,9,0,13.6c0,2.2-0.1,4.4,0,6.7c0,1.8,0.3,3.8,1.5,5.2c1.2,1.5,3,2.3,4.9,2.3
			c0.3,0,0.3-0.5,0-0.5c-1.7,0-3.3-0.7-4.4-2c-1.2-1.4-1.5-3.3-1.5-5.2c0-2.1,0-4.2,0-6.4c0-2.2,0-4.3,0-6.5c0-2.4,0-4.9,0-7.3
			C124,305.5,123.5,305.5,123.5,305.8L123.5,305.8z"/>
	</g>
	<g>
		<path class="st10" d="M107.6,308.9c0,4.7,0.1,9.4,0.5,14c0,0.3,0.5,0.3,0.5,0c-0.3-4.7-0.5-9.3-0.5-14
			C108.1,308.6,107.6,308.6,107.6,308.9L107.6,308.9z"/>
	</g>
	<g>
		<path class="st10" d="M105.2,302.4c-0.1,6.3-0.2,12.6-0.2,18.8c0,1.8,0,3.6-0.1,5.4c0,0.3,0.5,0.3,0.5,0
			c0.1-6.3,0.2-12.6,0.2-18.8c0-1.8,0-3.6,0.1-5.4C105.7,302.1,105.2,302.1,105.2,302.4L105.2,302.4z"/>
	</g>
	<g>
		<path class="st10" d="M69.4,222.9c3.1-0.4,6.2,0.1,9.1,1.2c2.9,1.2,5.5,3.1,7.4,5.5c1.1,1.4,2,2.9,2.7,4.5
			c0.1-0.1,0.2-0.2,0.4-0.3c-3.6-2.5-7.5-4.4-11.7-5.6c-1.2-0.4-2.4-0.7-3.6-0.9c-0.3-0.1-0.4,0.4-0.1,0.5c4.2,0.9,8.3,2.4,12.1,4.5
			c1.1,0.6,2.1,1.3,3.1,2c0.2,0.1,0.4-0.1,0.4-0.3c-1.2-3-3.2-5.6-5.7-7.5c-2.5-2-5.5-3.4-8.6-3.9c-1.8-0.3-3.6-0.4-5.4-0.1
			C69.1,222.5,69.1,223,69.4,222.9L69.4,222.9z"/>
	</g>
	<g>
		<path class="st10" d="M67.2,234.1c4.3,0.9,8.6,2.4,12.3,4.8c3.6,2.3,6.5,5.7,7.9,9.8c0.7,2.2,1,4.6,0.6,6.9
			c-0.1,0.3,0.4,0.5,0.5,0.1c0.7-4.2-0.7-8.5-3.2-12c-2.6-3.6-6.5-6.1-10.6-7.8c-2.4-1-4.9-1.7-7.4-2.2
			C67,233.5,66.9,234,67.2,234.1L67.2,234.1z"/>
	</g>
	<g>
		<path class="st10" d="M70.5,240.9c2.3,0.1,4.7,0.7,6.7,1.8c0.3,0.1,0.5-0.3,0.3-0.4c-2.2-1.1-4.5-1.8-7-1.9
			C70.2,240.4,70.2,240.9,70.5,240.9L70.5,240.9z"/>
	</g>
	<g>
		<path class="st10" d="M94.4,235.2c-0.3,4-0.7,8-1.3,11.9c-0.6,3.9-1.4,7.9-2.3,11.8c-0.9,3.9-1.9,7.7-3,11.6
			c-1.1,3.8-2.3,7.7-3.5,11.5s-2.5,7.6-3.8,11.4c-0.2,0.5-0.3,0.9-0.5,1.4c-0.1,0.3,0.4,0.4,0.5,0.1c1.3-3.8,2.6-7.6,3.8-11.4
			c1.2-3.8,2.5-7.6,3.6-11.5c1.1-3.8,2.2-7.7,3.1-11.6s1.8-7.8,2.4-11.8c0.7-3.9,1.2-7.9,1.5-11.8c0-0.5,0.1-1,0.1-1.5
			C94.9,234.9,94.4,234.9,94.4,235.2L94.4,235.2z"/>
	</g>
	<g>
		<path class="st10" d="M86.1,262.8c-1.2,3.7-2.6,7.5-4,11.2s-2.8,7.3-4.4,10.9c-1.5,3.7-3.1,7.3-4.8,10.9
			c-1.7,3.6-3.4,7.1-5.2,10.6c-1.8,3.5-3.7,7-5.6,10.4c-0.2,0.4-0.5,0.8-0.7,1.3c-0.2,0.3,0.3,0.5,0.4,0.3c2-3.4,3.9-6.9,5.7-10.4
			s3.6-7.1,5.3-10.7c1.7-3.6,3.3-7.2,4.9-10.8c1.5-3.6,3-7.3,4.4-10.9c1.4-3.7,2.8-7.4,4-11.2c0.2-0.5,0.3-0.9,0.5-1.4
			C86.7,262.7,86.2,262.5,86.1,262.8L86.1,262.8z"/>
	</g>
	<g>
		<path class="st10" d="M67.1,299.9c-2.5,4.2-5.3,8.3-8.2,12.3s-6,7.8-9.2,11.5c-1.8,2.1-3.7,4.1-5.6,6.1c-0.2,0.2,0.1,0.6,0.4,0.4
			c3.5-3.5,6.7-7.3,9.9-11.1c3.1-3.8,6-7.8,8.8-11.9c1.6-2.3,3-4.7,4.5-7.1C67.7,299.9,67.3,299.6,67.1,299.9L67.1,299.9z"/>
	</g>
	<g>
		<path class="st10" d="M77.8,307.6c-1.4,6.1-3.3,12-5.5,17.8c-0.6,1.7-1.3,3.3-2,4.9c-0.1,0.3,0.3,0.5,0.4,0.3
			c2.5-5.7,4.6-11.6,6.3-17.7c0.5-1.7,0.9-3.4,1.3-5.2C78.4,307.4,77.9,307.3,77.8,307.6L77.8,307.6z"/>
	</g>
	<g>
		<path class="st10" d="M98.9,257.9c2.4,1.1,5.4,0.6,7.4-1.2c0.2-0.2-0.1-0.6-0.4-0.4c-1.8,1.7-4.6,2.1-6.8,1.1
			C98.9,257.3,98.6,257.8,98.9,257.9L98.9,257.9z"/>
	</g>
	<g>
		<path class="st10" d="M103.3,253.2c0.3-0.2,0.5-0.4,0.8-0.5c0.1-0.1,0.2-0.2,0.1-0.3s-0.2-0.2-0.3-0.1c-0.3,0.2-0.5,0.4-0.8,0.5
			c-0.1,0.1-0.2,0.2-0.1,0.3C103,253.2,103.1,253.3,103.3,253.2L103.3,253.2z"/>
	</g>
	<g>
		<path class="st10" d="M97.4,272.5c-1.1,6.4-2.2,12.8-3.5,19.2c-0.4,1.8-0.7,3.6-1.1,5.4c-0.1,0.3,0.4,0.4,0.5,0.1
			c1.3-6.4,2.5-12.8,3.7-19.2c0.3-1.8,0.6-3.7,0.9-5.5C97.9,272.4,97.4,272.2,97.4,272.5L97.4,272.5z"/>
	</g>
	<g>
		<path class="st10" d="M88.1,319.1v0.1l0,0c0,0,0,0,0,0.1s-0.1,0.1-0.1,0.2c-0.1,0.1-0.1,0.3-0.2,0.4c0,0.1-0.1,0.1-0.1,0.2
			c0,0,0,0.1-0.1,0.1l0,0l0,0l-0.1,0.1c0,0,0,0-0.1,0l0,0l0,0c-0.1,0.1-0.2,0.2-0.1,0.3c0.1,0.1,0.2,0.2,0.3,0.1
			c0.2-0.2,0.4-0.4,0.5-0.6c0.2-0.3,0.3-0.6,0.5-0.9c0-0.1-0.1-0.3-0.2-0.3C88.2,318.9,88.1,318.9,88.1,319.1L88.1,319.1z"/>
	</g>
	<g>
		<path class="st10" d="M87.4,333.5c3.1,1.2,6.1,2.5,9.1,3.9c0.3,0.1,0.5-0.3,0.3-0.4c-3-1.5-6.1-2.8-9.2-4
			C87.2,332.9,87.1,333.4,87.4,333.5L87.4,333.5z"/>
	</g>
	<g>
		<path class="st10" d="M99.7,338.8c0.6,0.4,1.3,0.5,2.1,0.5c0.9-0.1,1.7-0.3,2.6-0.2c0.8,0,1.7,0.1,2.5,0s1.5-0.4,2.1-0.9
			c0.3-0.2,0-0.6-0.3-0.4c-0.6,0.4-1.2,0.7-2,0.8c-0.8,0.1-1.6,0-2.4,0s-1.5,0.1-2.3,0.2c-0.7,0.1-1.5,0.1-2.1-0.4
			C99.7,338.1,99.4,338.6,99.7,338.8L99.7,338.8z"/>
	</g>
	<g>
		<path class="st10" d="M106.4,334.5c0.7,0.4,1.2,1.1,1.5,1.8c0,0.1,0.2,0.2,0.3,0.2c0.1,0,0.2-0.2,0.2-0.3c-0.3-0.9-1-1.6-1.8-2.1
			C106.4,333.9,106.1,334.4,106.4,334.5L106.4,334.5z"/>
	</g>
	<g>
		<path class="st10" d="M104.2,336c0.1,0.2,0.3,0.5,0.6,0.6c0.1,0,0.1,0,0.2,0s0.1-0.1,0.1-0.1c0-0.1,0-0.1,0-0.2s-0.1-0.1-0.1-0.1
			l-0.1-0.1c0,0,0,0,0.1,0c-0.1-0.1-0.2-0.2-0.2-0.2s0,0,0,0.1c0-0.1-0.1-0.1-0.1-0.2s-0.1-0.1-0.1-0.1c-0.1,0-0.1,0-0.2,0
			s-0.1,0.1-0.1,0.1C104.2,335.9,104.2,335.9,104.2,336L104.2,336z"/>
	</g>
</g>
<text transform="matrix(1 0 0 1 201.3467 57.9952)" class="st11 st12 st13">In addition to website development, we also excel in web design.</text>
<text transform="matrix(1 0 0 1 201.3467 96.3952)" class="st11 st12 st13"> Are you in need of a website but unsure about its visual aesthetics? </text>
<text transform="matrix(1 0 0 1 201.3467 134.8952)" class="st11 st12 st13">Stark Company simplifies the process for you. We offer expert web design </text>
<text transform="matrix(1 0 0 1 201.3467 173.2953)" class="st11 st12 st13">services to help you visualize and conceptualize your website. Our team</text>
<text transform="matrix(1 0 0 1 201.3467 211.7953)" class="st11 st12 st13"> creates website prototypes and models, allowing you to explore different </text>
<text transform="matrix(1 0 0 1 201.3467 250.1953)" class="st11 st12 st13">designs and tailor them to your exact specifications. With Stark Company </text>
<text transform="matrix(1 0 0 1 201.3467 288.6953)" class="st11 st12 st13">bringing your website vision to life has never been easier Let us assist you </text>
<text transform="matrix(1 0 0 1 201.3467 327.0952)" class="st11 st12 st13">in designing and crafting a website that perfectly aligns with your vision and goals.</text>
</svg>
