<?xml version="1.0" encoding="utf-8"?>
<!-- Generator: Adobe Illustrator 27.3.1, SVG Export Plug-In . SVG Version: 6.00 Build 0)  -->
<svg version="1.1" id="Layer_1" xmlns="http://www.w3.org/2000/svg" xmlns:xlink="http://www.w3.org/1999/xlink" x="0px" y="0px"
	 viewBox="0 0 1366 368" style="enable-background:new 0 0 1366 368;" xml:space="preserve">
<style type="text/css">
	.st0{clip-path:url(#XMLID_00000032627919097670399150000001590276338701845937_);}
	.st1{fill:url(#SVGID_1_);}
	.st2{fill:url(#SVGID_00000011009789838618638040000001251333966894377388_);}
	.st3{fill:none;stroke:#333333;stroke-width:0.75;stroke-miterlimit:10;}
	.st4{clip-path:url(#SVGID_00000023273572657262380990000005600833836826293377_);}
	.st5{fill:#262626;}
	.st6{clip-path:url(#SVGID_00000138544529027930084530000012074216054911207857_);}
	.st7{clip-path:url(#SVGID_00000145019725986778082150000008750659165401132463_);}
	.st8{fill:#B6754D;}
	.st9{fill:#282828;}
	.st10{fill:#F2EADB;}
	.st11{fill:#FFFFFF;}
	.st12{font-family:'ArialMT';}
	.st13{font-size:27.3478px;}
</style>
<g>
	<g>
		<defs>
			<rect id="XMLID_27_" width="1366" height="368"/>
		</defs>
		<clipPath id="XMLID_00000016797829629070315510000014312842476845035136_">
			<use xlink:href="#XMLID_27_"  style="overflow:visible;"/>
		</clipPath>
		<g style="clip-path:url(#XMLID_00000016797829629070315510000014312842476845035136_);">
			<linearGradient id="SVGID_1_" gradientUnits="userSpaceOnUse" x1="1054.3373" y1="274.336" x2="1442.4203" y2="274.336">
				<stop  offset="0" style="stop-color:#38B0EF"/>
				<stop  offset="4.422938e-03" style="stop-color:#3AAEEB"/>
				<stop  offset="2.560000e-02" style="stop-color:#43A4E0"/>
				<stop  offset="5.530000e-02" style="stop-color:#48A0D9"/>
				<stop  offset="0.1379" style="stop-color:#499FD7"/>
				<stop  offset="0.1394" style="stop-color:#6A85B3"/>
				<stop  offset="0.1412" style="stop-color:#896A8C"/>
				<stop  offset="0.1431" style="stop-color:#A8526E"/>
				<stop  offset="0.1452" style="stop-color:#C03E53"/>
				<stop  offset="0.1475" style="stop-color:#D2303E"/>
				<stop  offset="0.15" style="stop-color:#E0242F"/>
				<stop  offset="0.1531" style="stop-color:#E81E27"/>
				<stop  offset="0.1579" style="stop-color:#EA1C24"/>
				<stop  offset="0.2926" style="stop-color:#E71C28"/>
				<stop  offset="0.4191" style="stop-color:#DD1C32"/>
				<stop  offset="0.5425" style="stop-color:#CD1B47"/>
				<stop  offset="0.6638" style="stop-color:#B51B61"/>
				<stop  offset="0.7827" style="stop-color:#981B82"/>
				<stop  offset="0.881" style="stop-color:#7C1AA2"/>
				<stop  offset="0.8921" style="stop-color:#7F1AA1"/>
				<stop  offset="0.8962" style="stop-color:#831A9A"/>
				<stop  offset="0.8986" style="stop-color:#8B1A91"/>
				<stop  offset="1" style="stop-color:#6F1AB4"/>
			</linearGradient>
			<ellipse class="st1" cx="1319" cy="274.3" rx="194" ry="193"/>
			
				<linearGradient id="SVGID_00000142152162706994146270000012641435273365586332_" gradientUnits="userSpaceOnUse" x1="190.0878" y1="-84.6371" x2="245.3216" y2="72.885">
				<stop  offset="0" style="stop-color:#38B0EF"/>
				<stop  offset="4.422938e-03" style="stop-color:#3AAEEB"/>
				<stop  offset="2.560000e-02" style="stop-color:#43A4E0"/>
				<stop  offset="5.530000e-02" style="stop-color:#48A0D9"/>
				<stop  offset="0.1379" style="stop-color:#499FD7"/>
				<stop  offset="0.1394" style="stop-color:#6A85B3"/>
				<stop  offset="0.1412" style="stop-color:#896A8C"/>
				<stop  offset="0.1431" style="stop-color:#A8526E"/>
				<stop  offset="0.1452" style="stop-color:#C03E53"/>
				<stop  offset="0.1475" style="stop-color:#D2303E"/>
				<stop  offset="0.15" style="stop-color:#E0242F"/>
				<stop  offset="0.1531" style="stop-color:#E81E27"/>
				<stop  offset="0.1579" style="stop-color:#EA1C24"/>
				<stop  offset="0.2926" style="stop-color:#E71C28"/>
				<stop  offset="0.4191" style="stop-color:#DD1C32"/>
				<stop  offset="0.5425" style="stop-color:#CD1B47"/>
				<stop  offset="0.6638" style="stop-color:#B51B61"/>
				<stop  offset="0.7827" style="stop-color:#981B82"/>
				<stop  offset="0.881" style="stop-color:#7C1AA2"/>
				<stop  offset="0.8921" style="stop-color:#7F1AA1"/>
				<stop  offset="0.8962" style="stop-color:#831A9A"/>
				<stop  offset="0.8986" style="stop-color:#8B1A91"/>
				<stop  offset="1" style="stop-color:#6F1AB4"/>
			</linearGradient>
			
				<ellipse style="fill:url(#SVGID_00000142152162706994146270000012641435273365586332_);" cx="217.1" cy="-7.7" rx="83.5" ry="83"/>
			<ellipse class="st3" cx="1399.1" cy="69.6" rx="155.9" ry="155"/>
			<ellipse class="st3" cx="99.9" cy="359.2" rx="114.2" ry="113.6"/>
			<g>
				<defs>
					<rect id="SVGID_00000016049003982950698950000006623043368958026128_" x="47.6" y="332.2" width="70.8" height="70.4"/>
				</defs>
				<clipPath id="SVGID_00000178906532050887502620000010475431279390295485_">
					<use xlink:href="#SVGID_00000016049003982950698950000006623043368958026128_"  style="overflow:visible;"/>
				</clipPath>
				<g style="clip-path:url(#SVGID_00000178906532050887502620000010475431279390295485_);">
					<polygon class="st5" points="159.6,361.4 76.9,443.6 77.1,443.8 159.8,361.6 					"/>
					<polygon class="st5" points="155.7,357.5 73,439.7 73.2,439.9 155.8,357.7 					"/>
					<polygon class="st5" points="151.7,353.6 69.1,435.8 69.2,436 151.9,353.7 					"/>
					<polygon class="st5" points="147.8,349.7 65.1,431.9 65.3,432 148,349.8 					"/>
					<polygon class="st5" points="143.9,345.8 61.2,428 61.4,428.1 144,345.9 					"/>
					<polygon class="st5" points="139.9,341.8 57.3,424.1 57.4,424.2 140.1,342 					"/>
					<polygon class="st5" points="136,337.9 53.3,420.1 53.5,420.3 136.2,338.1 					"/>
					<polygon class="st5" points="132.1,334 49.4,416.2 49.6,416.4 132.2,334.2 					"/>
					<polygon class="st5" points="128.1,330.1 45.5,412.3 45.6,412.5 128.3,330.3 					"/>
					<polygon class="st5" points="124.2,326.2 41.5,408.4 41.7,408.6 124.4,326.4 					"/>
					<polygon class="st5" points="120.3,322.3 37.6,404.5 37.8,404.7 120.4,322.4 					"/>
					<polygon class="st5" points="116.3,318.4 33.7,400.6 33.8,400.8 116.5,318.5 					"/>
					<polygon class="st5" points="112.4,314.5 29.7,396.7 29.9,396.8 112.6,314.6 					"/>
					<polygon class="st5" points="108.5,310.6 25.8,392.8 26,392.9 108.6,310.7 					"/>
					<polygon class="st5" points="104.5,306.6 21.9,388.9 22,389 104.7,306.8 					"/>
					<polygon class="st5" points="100.6,302.7 18,384.9 18.1,385.1 100.8,302.9 					"/>
					<polygon class="st5" points="96.7,298.8 14,381 14.2,381.2 96.8,299 					"/>
					<polygon class="st5" points="92.7,294.9 10.1,377.1 10.2,377.3 92.9,295.1 					"/>
					<polygon class="st5" points="88.8,291 6.2,373.2 6.3,373.4 89,291.2 					"/>
				</g>
			</g>
		</g>
	</g>
	<g>
		<defs>
			<rect id="SVGID_00000122693912877466672700000015680157399646305171_" x="495.7" y="128.4" width="43.4" height="43.1"/>
		</defs>
		<clipPath id="SVGID_00000121985398112545205370000000977590027864439950_">
			<use xlink:href="#SVGID_00000122693912877466672700000015680157399646305171_"  style="overflow:visible;"/>
		</clipPath>
		<g style="clip-path:url(#SVGID_00000121985398112545205370000000977590027864439950_);">
			<polygon class="st5" points="594,143.9 511.4,226.1 511.5,226.3 594.2,144.1 			"/>
			<polygon class="st5" points="590.1,140 507.4,222.2 507.6,222.4 590.3,140.2 			"/>
			<polygon class="st5" points="586.2,136.1 503.5,218.3 503.7,218.5 586.3,136.3 			"/>
			<polygon class="st5" points="582.2,132.2 499.6,214.4 499.7,214.6 582.4,132.4 			"/>
			<polygon class="st5" points="578.3,128.3 495.6,210.5 495.8,210.7 578.5,128.4 			"/>
			<polygon class="st5" points="574.4,124.4 491.7,206.6 491.9,206.8 574.5,124.5 			"/>
			<polygon class="st5" points="570.4,120.5 487.8,202.7 487.9,202.8 570.6,120.6 			"/>
			<polygon class="st5" points="566.5,116.5 483.8,198.8 484,198.9 566.7,116.7 			"/>
			<polygon class="st5" points="562.6,112.6 479.9,194.9 480.1,195 562.7,112.8 			"/>
			<polygon class="st5" points="558.6,108.7 476,190.9 476.1,191.1 558.8,108.9 			"/>
			<polygon class="st5" points="554.7,104.8 472,187 472.2,187.2 554.9,105 			"/>
			<polygon class="st5" points="550.8,100.9 468.1,183.1 468.3,183.3 550.9,101.1 			"/>
			<polygon class="st5" points="546.8,97 464.2,179.2 464.3,179.4 547,97.2 			"/>
			<polygon class="st5" points="542.9,93.1 460.2,175.3 460.4,175.5 543.1,93.2 			"/>
			<polygon class="st5" points="539,89.2 456.3,171.4 456.5,171.5 539.1,89.3 			"/>
			<polygon class="st5" points="535,85.3 452.4,167.5 452.5,167.6 535.2,85.4 			"/>
			<polygon class="st5" points="531.1,81.3 448.4,163.6 448.6,163.7 531.3,81.5 			"/>
			<polygon class="st5" points="527.2,77.4 444.5,159.6 444.7,159.8 527.3,77.6 			"/>
			<polygon class="st5" points="523.2,73.5 440.6,155.7 440.7,155.9 523.4,73.7 			"/>
		</g>
	</g>
	<g>
		<defs>
			<rect id="SVGID_00000175319748050202046920000018367429491647388570_" x="1246.7" y="267.5" width="70.8" height="70.4"/>
		</defs>
		<clipPath id="SVGID_00000005231045023354495550000005824389286941259450_">
			<use xlink:href="#SVGID_00000175319748050202046920000018367429491647388570_"  style="overflow:visible;"/>
		</clipPath>
		<g style="clip-path:url(#SVGID_00000005231045023354495550000005824389286941259450_);">
			<polygon class="st5" points="1358.8,296.7 1276.1,379 1276.3,379.1 1359,296.9 			"/>
			<polygon class="st5" points="1354.9,292.8 1272.2,375 1272.4,375.2 1355,293 			"/>
			<polygon class="st5" points="1350.9,288.9 1268.3,371.1 1268.4,371.3 1351.1,289.1 			"/>
			<polygon class="st5" points="1347,285 1264.3,367.2 1264.5,367.4 1347.2,285.2 			"/>
			<polygon class="st5" points="1343.1,281.1 1260.4,363.3 1260.6,363.5 1343.2,281.3 			"/>
			<polygon class="st5" points="1339.1,277.2 1256.5,359.4 1256.6,359.6 1339.3,277.3 			"/>
			<polygon class="st5" points="1335.2,273.3 1252.5,355.5 1252.7,355.7 1335.4,273.4 			"/>
			<polygon class="st5" points="1331.3,269.4 1248.6,351.6 1248.8,351.7 1331.4,269.5 			"/>
			<polygon class="st5" points="1327.3,265.4 1244.7,347.7 1244.8,347.8 1327.5,265.6 			"/>
			<polygon class="st5" points="1323.4,261.5 1240.7,343.8 1240.9,343.9 1323.6,261.7 			"/>
			<polygon class="st5" points="1319.5,257.6 1236.8,339.8 1237,340 1319.6,257.8 			"/>
			<polygon class="st5" points="1315.5,253.7 1232.9,335.9 1233,336.1 1315.7,253.9 			"/>
			<polygon class="st5" points="1311.6,249.8 1228.9,332 1229.1,332.2 1311.8,250 			"/>
			<polygon class="st5" points="1307.7,245.9 1225,328.1 1225.2,328.3 1307.8,246.1 			"/>
			<polygon class="st5" points="1303.7,242 1221.1,324.2 1221.2,324.4 1303.9,242.1 			"/>
			<polygon class="st5" points="1299.8,238.1 1217.1,320.3 1217.3,320.4 1300,238.2 			"/>
			<polygon class="st5" points="1295.9,234.2 1213.2,316.4 1213.4,316.5 1296,234.3 			"/>
			<polygon class="st5" points="1291.9,230.2 1209.3,312.5 1209.4,312.6 1292.1,230.4 			"/>
			<polygon class="st5" points="1288,226.3 1205.3,308.5 1205.5,308.7 1288.2,226.5 			"/>
		</g>
	</g>
</g>
<g>
	<path class="st8" d="M191,215.7c-0.5-2.5-0.9-4.9-1.4-7.3c-0.3-1.7-0.7-3.5-1.4-5.1c-0.5-1.3-1.3-2.4-2.1-3.6
		c-1.3-2-2.8-3.7-4.1-5.7c0.4-8.1,0.7-16.3,1.1-24.4c0.3-7.1,0.4-14.9-4-20.5c-1-1.3-2.3-2.5-2.9-4c-0.4-1-0.4-2-0.5-3.1
		c-0.4-4.8-2.5-9.4-3-14.2c-0.6-5.1,0.2-10.3-0.4-15.4c-0.4-4.3-1.8-8.6-4.4-12c-2.6-3.5-6.5-6-10.7-6.6c-2-0.3-4-0.1-6,0
		c-5.8,0.1-11.6-0.8-17.1-2.6c0.8-0.6,0.8-1.8,0.4-2.8c-0.2-0.6-0.4-1.2-0.2-1.7c0.3-0.8,1.4-0.8,2.1-1.4c0.6-0.5,0.9-1.4,0.8-2.2
		c-0.1-0.8-0.4-1.6-0.8-2.3c1.4,0.3,2.6-1.1,3-2.4c0.3-1.4,0.2-2.9,0.9-4.2c0.7-1.4,2.3-2.6,2-4.1c-0.1-0.5-0.4-1-0.5-1.5
		c-0.4-1.4,0.5-2.8,1.2-4.1c2.1-3.7,2.7-8,2.5-12.2s-1.2-8.3-2.3-12.3c-0.5-1.8-1.3-3.9-3.1-4.4c-1.2-0.3-2.5,0.2-3.7,0.9
		c-1.4,0.9-3,1.8-4.2,3c-1.1-1.9-3.2-3.1-5.3-3.5c-2.1-0.5-4.4-0.3-6.5,0.1c-6.8,1.2-13.6,4.5-17,10.5c-1.9,3.4-2.6,7.4-2.6,11.3
		c0,1.7,0.1,3.3-0.9,4.7c-1.2,0.2-2.6,0.4-3.4,1.4c-0.9,1.1-0.6,2.7-0.1,4c0.4,1,0.9,2,1.4,3c0.5,0.8,1,1.9,0.4,2.6
		c-0.2,0.2-0.5,0.4-0.8,0.5c-1.9,1-2.5,3.8-1.2,5.5c0.3,0.4,0.6,0.7,0.8,1.1c0.2,0.3,0.2,0.8,0.4,1.1c0.4,1,1.5,1.5,2.5,1.3
		c-0.8,1-0.9,2-1.5,3.1c-0.2,0.3-0.4,0.7-0.4,1c0,0.6,0.4,1.2,1,1.5c0.5,0.3,1.2,0.4,1.8,0.5c1.1,0.3,2.3,0.8,2.9,1.7
		c0.3,0.4,0.4,0.9,0.8,1.2c0.7,0.6,1.9,0.4,2.2,1.3c0.3,0.8,0.2,2-0.3,2.7c0,0.1-0.1,0.1-0.1,0.1c-0.5,0.6-1.2,1.1-1.9,1.5
		c-2,1.2-4.8,0.5-7.1,0.7c-1.3,0.1-2.6,0.3-3.7,1c-0.9,0.6-1.5,1.5-2.4,2.2c-2.2,1.9-5.4,2.1-8.2,3c-3.6,1.2-6.6,4.1-7.7,7.7
		c-0.5,1.7-0.6,3.5-0.6,5.2c-0.1,3.5-0.1,6.9,0.1,10.4c0,0.5,0.1,1.1-0.1,1.6c-0.2,0.6-0.7,1-1.2,1.4c-1.8,1.9-2.3,5-1,7.4
		c-2-0.4-4.3,1-4.8,3.1c-0.1,0.4-0.1,0.8-0.4,1c-0.7,0.9-2.6-0.1-3.2,0.9l0,0l-0.1-0.1c-0.4-0.4-0.9-0.8-1.4-1.2
		c-1.7-1.3-3.6-2.6-4.9-4.1c-4.5-5.1-6.3-12.1-10.7-17.3c-4.1-4.8-10.3-7.7-16.6-7.8c-0.6,1.3,0.2,3,1.4,3.8c1.2,0.9,2.7,1.2,4,1.9
		c1.8,0.9,3.2,2.4,4,4.2c-2.9-0.4-5-1.3-7.7-2.4c-0.9-0.3-1.8-0.8-2.1-1.7c-0.2-0.7,0.1-1.4,0.1-2.2c0-0.7-0.4-1.6-1.2-1.5
		c-1.8,1.2-2.9,3.3-3.1,5.4c0,0.5,0,1-0.3,1.4c-0.2,0.4-0.6,0.6-0.8,1.1c-0.4,0.7,0,1.6,0,2.4c-0.1,1.2-1,2.6-0.3,3.5
		c0.3,0.4,0.9,0.6,1,1.1s-0.5,1-0.6,1.5c-0.3,0.9,0.4,1.8,1.1,2.4c1.5,1.4,3,2.8,4.5,4.2c1.1,1.1,2.3,2.1,3.8,2.7
		c2.7,1,5.9,0.1,8.6,1.3c4.6,2,6.6,7.2,8.5,11.8s3.6,9.4,7,13.1c2.1,2.3,4.8,4,7.4,5.7c1.8,1.1,3.7,2.3,5.8,2.3
		c0.7,0,1.5-0.5,2.2-0.9c0.2-0.1,0.3-0.2,0.4-0.3c0.4,2-1.1,3.5-2.3,5.1c-3.6,4.6-6.6,10.2-6.4,16.1c0.1,2.2,0.6,4.3,1.2,6.4
		c3.8,13.5,11,26.5,10.9,40.5c0,1.5-0.1,3,0.6,4.3c0.4,0.8,1.1,1.5,1.8,2.1c2.4,2.2,5.1,4.1,7.9,5.8c0.1,0.3,0.1,0.6,0.1,1
		c-0.1,2.3-1.6,4.7-1.2,7c0.2,0.8,0.5,1.6,0.9,2.4c2.5,5.4,5,10.8,7.5,16.2c3.2,7,2.5,14.8,5.8,21.7s7.4,13.5,10.7,20.4
		c2.8,5.8,5.1,12.2,3.9,18.5c-0.5,2.5-1.6,4.9-3.8,6.3c-1.2,0.8-2.7,1.1-4,1.5c-1.9,0.6-4,0.7-5.2,2.3c-0.4,0.5-0.6,1.1-1.1,1.5
		c-0.6,0.5-1.3,0.6-2,1c-0.7,0.3-1.3,1.1-1,1.8c1.1,0.6,2.4,0.9,3.6,0.8c0.8-0.1,1.6-0.4,2.5-0.4c1-0.1,2,0.2,3,0.2
		c0.9,0.1,1.7,0,2.6-0.1c4.2-0.4,8.4-0.9,12.5-1.3c2.5-0.3,5.2,0.8,7.7,0.4c1-0.2,2.1-0.6,2.7-1.4c0.6-0.7,0.8-1.8,0.9-2.7
		c0.2-2.9-0.6-5.7-1.4-8.4c-3.4-12.1-4.5-27.1-6.5-39.5c-1.7-10.2-4-20.5-9.2-29.4c-2.7-4.7,0.9-11.1,0.7-16.4c0-1.4-0.2-3,0.6-4.2
		l0,0c0.1-0.1,0.2-0.3,0.3-0.4c1.7,4.9,4.5,9.4,8.2,13c-0.3,8.5,2.5,17.3,7.7,24c1.8,2.4,4,4.5,5.4,7.2c0.9,1.8,1.5,3.8,2.4,5.6
		c1.3,2.6,3.2,4.7,4.9,7s2.2,6.5,2.7,9.4c0.1,0.7,0.1,1.5,0.2,2.2c0.4,4,3.5,7.2,5.2,10.8c1.4,2.8,1.9,6.1,3.9,8.5
		c0.4,0.5,0.9,0.9,1.4,1.2c1.1,0.6,2.4,0.4,3.6,0.4c3.1,0,6.1,0.9,9.2,0.7c1.5-0.1,3-0.5,4.5-0.9c2.1-0.6,4.2-1.2,6.3-1.8
		c0.8-0.2,1.7-0.7,1.6-1.4c-0.1-0.3-0.3-0.6-0.5-0.8c-0.9-1-1.8-2-2.8-3c-0.7-0.8-1.4-1.5-2.3-2c-1.4-0.8-3-0.9-4.4-1.5
		c-2.4-1.1-3.8-3.6-5.4-5.8c-2.7-3.6-6.8-6.3-8.4-10.5c-2.5-6.2-2.8-13-3.5-19.7c-0.8-7.9-2.2-15.6-4.2-23.3c-0.5-1.8-1-3.7-1.8-5.4
		c-0.8-1.6-1.8-3.1-2.9-4.6c-1.9-2.9-3.6-6.2-5.2-9.3c0.1-0.1,0.2-0.2,0.4-0.3c4.5-3.6,8.8-7.6,12.9-11.7c1.9-2,3.8-4.1,6.2-5.4
		c1.8-1,3.8-1.6,5.4-2.8c2.8-2.1,5.1-5.4,8.1-7.1c1.9-1.1,3.8-2.3,5.5-3.7c0.1,0.2,0.1,0.3,0.1,0.5c0.1,0.5,0.1,0.9,0.1,1.4
		c-0.1,1.5-0.3,3.2,0.6,4.4c0.2,0.3,0.5,0.6,0.7,0.9c0.3,0.6,0.3,1.3,0.5,1.8c0.3,0.6,1.1,1,1.5,0.6c0.3-1.3,1.1-2.4,1.6-3.6
		c0.4-1,0.6-2.1,0.9-3.1c0.6-2,2-4.2,2.5-6.2C191.4,217.4,191.2,216.5,191,215.7z M174.1,206.1c-2.5-0.6-4.6-2.7-7.2-3
		c-1.8-0.2-3.7,0.6-5.5,0.3c-0.8-0.1-1.5-0.5-2.3-0.8c-2.8-0.9-5.8-0.4-8.7,0.2c0.3-4.5-3.3-8.1-5.2-12.2c-1-2.2-1.6-4.6-3.3-6.3
		c-1.1-1.1-2.4-2.2-3.2-3.5c-0.1-0.1-0.1-0.3-0.2-0.4c2-3.4,3.2-7.2,3.6-11.1c0.1-1.4,0.1-2.9,0.6-4.2c1.1-3.2,4.4-5.2,6.1-8.2
		c0.7-1.3,1.2-2.7,1.7-4c1.3-3.4,2.9-6.8,5.1-9.7c0.4,0,0.8,0.4,1,0.8c2.4,3.9,4.5,8.3,6.1,12.7c-1.6,5.3-0.3,11.1,1,16.5
		c2.5,10.1,4.9,20.6,10.1,29.5c0.6,1,0.9,2.2,1.1,3.4c0,0.1,0,0.1,0,0.2C174.8,206.3,174.4,206.2,174.1,206.1z"/>
	<g>
		<path class="st9" d="M41.4,112.9c0.5,1,0.8,2.4,0.9,4c-1-0.7-1.9-1-2.9-1.7c-0.6-0.4-1.2-0.8-1.8-1.1c-0.7-0.3-1.4-0.4-2.1-0.5
			c-1-0.2-1.9-0.3-2.9-0.5c-3.8-19.3,3.5-32.1,9.2-39.7c6.5-8.5,5.1-18.5,5.1-18.5c-1.2-0.6-0.3-2.6-0.3-2.6h2.8
			c0,0,0.8,1.1,0.8,5.9c0,10.4-7.7,20.1-11.1,30.7c-3.4,10.7-0.5,24.1-0.5,24.1L41.4,112.9L41.4,112.9z"/>
		<path class="st9" d="M31.8,162.1c0.9,14.4,4,36.5,2.2,43.1c-0.2,0.7-0.5,1.4-0.8,2c-0.2,0.4-0.5,0.9-0.9,1.2
			c-0.2,0.1-0.4,0.2-0.6,0.3c-0.8,0.3-1.8,0.2-2.5-0.3s-1.1-1.5-0.8-2.3c0.1-0.2,0.2-0.4,0.4-0.6c0.1-0.1,0.3-0.1,0.4-0.2
			c0.3-0.1,0.7-0.2,0.9-0.2c2.8-8-1.3-27.7-3.8-49.4c-1.3-10.5,0.6-18.7,2.8-24.2c0.2,0,0.5,0,0.7-0.1c0.8-0.2,1.9-0.7,2.5-1.3
			c0.2-0.2,0.4-0.5,0.3-0.8c0-0.1,0-0.2-0.1-0.2c-0.1-0.1-0.2-0.1-0.4-0.1c-0.6,0-1.2,0-1.9,0c0.3-0.6,0.5-1.1,0.8-1.5
			c0.7-0.2,1.4-0.3,2.1-0.4c0.3-0.1,0.6-0.1,0.8-0.3c0.4-0.3,0.5-0.9,0.5-1.5c0-0.2-0.1-0.4,0-0.6c0.1-0.4,0.5-0.6,0.8-0.9
			c0.5-0.6,0.3-1.6-0.3-2c-0.2-0.1-0.4-0.2-0.7-0.2l0.1-1.2c-0.3-0.9-0.6-1.8-0.8-2.7c1.6,0.7,3.3,1,4.3,2.6c0.6,1,0.8,2.3,1.1,3.4
			c0.5,1.8,1.6,3.2,2.9,4.6c-0.4,3.5-1,7.4-1.5,10.1c-0.4,2.2-2.2,3.9-4.5,4l-3.3,0.2C32.6,142.4,31.2,152.7,31.8,162.1z"/>
		<path class="st9" d="M176.3,355.5c6.5,0.1,13.3,0.1,19.3-2.6c0.4-0.2,0.7-0.3,0.9-0.7c0.3-0.4,0.2-0.9,0.2-1.4
			c-0.3-3.5-0.8-7.3-3.5-9.5c-1.6-1.2-3.6-1.6-5.5-2c-3-0.6-6-1.2-9-1.8c-3.3-0.7-6.6-1.3-10-1c-3,0.3-6,1.3-9,1.4
			c-3.9,0.1-7.6-1.4-11.5-1.9c-3.9-0.4-8.5,0.7-10,4.2c-1.2,2.7-2,9.3-0.6,12.1c1.5,3.1,5.3,2.8,8.2,2.9
			C155.9,355.3,166.1,355.4,176.3,355.5z"/>
		<path class="st9" d="M106.2,96.1c-0.1,1-0.9,1.9-1.8,2.5c-1.3,0.8-2.8,1.3-3.6,2.5c-0.4,0.6-0.5,1.2-0.9,1.7
			c-0.8,0.9-2.1,1.1-3.1,1.7c-1.2,0.8-1.8,2.2-2.3,3.6c-2.7,7.2-5.4,15-3.6,22.5c0.2,0.9,0.5,1.8,0.5,2.7c0,0.7-0.2,1.4-0.4,2.1
			c-1.4,5.7,1.1,11.5-0.9,17c-1.3,3.8-5,6.2-7.7,9.2c-0.7,0.8-1.3,1.6-1.7,2.6c-0.8,1.9-0.4,3.9-0.1,5.9c-1.6,3.9-3.2,7.8-4.8,11.7
			c-0.6,1.4-1.2,2.8-1.5,4.3c-0.7,3-0.4,6.2,0,9.2c1,9.2,1.3,17.9,3.9,26.7c2.8,9.4,5.6,18.8,10.6,27.2c0.2,0.4,0.4,0.8,0.4,1.2
			c-0.1,0.4-0.3,0.6-0.5,0.9c-0.7,1.1-1.1,2.4-0.9,3.7c-0.1,0-0.1,0-0.2-0.1c0-0.3,0-0.6-0.1-1c-2.9-1.6-5.5-3.5-7.9-5.8
			c-0.7-0.6-1.4-1.3-1.8-2.1c-0.6-1.3-0.6-2.8-0.6-4.3c0.1-14.1-7.1-27-10.9-40.5c-0.6-2.1-1.1-4.2-1.2-6.4
			c-0.2-5.9,2.8-11.4,6.4-16.1c1.2-1.6,2.7-3.1,2.3-5.1c-0.1,0.1-0.3,0.2-0.4,0.3c0.3-5.8-0.8-11.5-1.9-17.2
			c-0.5-2.7-1.1-5.5-2.3-8.1c-1.1-2.4-3-4.6-5.4-5.6c0.6-0.9,2.5,0,3.2-0.9c0.2-0.3,0.3-0.7,0.4-1c0.5-2,2.7-3.5,4.8-3.1
			c-1.3-2.3-0.8-5.5,1-7.4c0.4-0.4,0.9-0.8,1.2-1.4c0.2-0.5,0.2-1,0.1-1.6c-0.2-3.5-0.3-7-0.1-10.4c0.1-1.8,0.1-3.5,0.6-5.2
			c1.1-3.6,4.2-6.4,7.7-7.7c2.8-1,6-1.1,8.2-3c0.8-0.7,1.5-1.6,2.4-2.2c1.1-0.7,2.4-0.9,3.7-1c2.3-0.3,5.1,0.5,7.1-0.7
			C105,97.2,105.7,96.8,106.2,96.1z"/>
		<path class="st9" d="M86.2,244.8c1,1.9,2.9,3.1,3.9,4.8c0.6,1,0.8,2.1,1.1,3.2c0.9,3.1,2.1,6.4,2.6,9.6c0.9,5.9,1.4,11.7,1.9,17.6
			c0.2,2.4,1.8,5.3,1.8,9.3c-1.5-1.3-2.9-5.3-3.8-7.1c-0.9-1.7-2-3.1-2.9-4.8c-1.1-2.2-2.7-4-3.7-6.2c-1.2-2.5-2.7-5.4-2.9-8.1
			c-0.2-2.9,0.5-5.7,0.5-8.6c0.1-1.6-0.2-3.2-0.1-4.8c0-1,0.2-2.1,0.3-3.1C85.1,246,85.8,245.2,86.2,244.8z"/>
		<path class="st9" d="M184.5,220.3c-0.5,0.7-1.1,1.3-1.7,1.9c0-0.2-0.1-0.3-0.1-0.5c-1.7,1.4-3.6,2.6-5.5,3.7
			c-3.1,1.7-5.3,5-8.1,7.1c-1.6,1.2-3.6,1.8-5.4,2.8c-2.4,1.4-4.3,3.4-6.2,5.4c-4,4.2-8.3,8.1-12.9,11.7c-0.3-0.5-0.6-0.9-0.9-1.4
			c-0.8-1.2-1.6-2.5-2.1-3.9c-0.7-2.5-0.1-5.1,0.5-7.6c0.7-2.8,0.6-5.6,1.6-8.3c0.8-2.3-0.1-4.9-1.8-6.7c-1.6-1.8-3.8-3-5.9-4.1
			c-2.5-1.3-4.9-2.6-7.4-3.9c-0.7-0.4-1.4-0.7-2.2-0.5c-0.5,0.1-0.9,0.5-1.3,0.9c-2.5,2.5-5.1,5.1-6.6,8.4
			c-1.4,3.2-1.6,6.7-1.8,10.1c-0.1,2.6-0.3,5.1-0.4,7.7c-0.2,3.4-0.3,7.2,1.8,10l0.1,0.1l-0.1-0.1c-4.4-3.3-8-7.7-10.5-12.6
			c-0.8-1.6-1.5-3.3-2.6-4.7c-0.9-1.1-2.1-2.1-2.5-3.4c-0.6-2,0.7-4.1,0.6-6.2c0-0.5-0.1-1-0.4-1.4c-0.4-0.6-1-0.9-1.6-1.2
			c-2.3-1.1-5-2.4-5.5-5c-0.2-1.3,0.3-2.6,0.3-3.9c0-3.2-2.6-5.7-3.6-8.7c-1.4-4.1,0.1-8.6,1.5-12.7c0.2-0.7,0.5-1.5,0.2-2.2
			c-0.2-0.6-0.7-0.9-1.2-1.3c-1.1-0.8-2.1-1.6-3.2-2.4c-0.5-0.4-1.1-0.9-1-1.6c0-0.3,0.2-0.6,0.4-0.8c2-2.8,5.5-4.2,8.9-4.3
			c3.4-0.2,6.8,0.7,10.1,1.6c1.1,0.3,2.2,0.6,3.3,0.5c1,0,2-0.3,3-0.5c2.1-0.3,4.3,0.1,6.5,0c3.2-0.2,6.2-1.6,9.4-2.2
			c2.9-0.5,6-0.3,8.9,0.6c0.8,1.4,2.1,2.4,3.2,3.5c1.7,1.7,2.3,4.1,3.3,6.3c1.9,4.1,5.4,7.7,5.2,12.2c2.9-0.5,5.9-1.1,8.7-0.2
			c0.8,0.3,1.5,0.6,2.3,0.8c1.8,0.3,3.6-0.4,5.5-0.3c2.6,0.2,4.7,2.3,7.2,3c0.3,0.1,0.7,0.1,1,0.2c0-0.1,0-0.1,0-0.2
			c0.8,0.3,1.6,0.6,2.5,0.8c1.8,0.4,4,0.5,4.9,2.1c0.7,1.1,0.4,2.5,0.4,3.8s0.8,2.8,2,2.8s2-1.4,2-2.6c0-1.2-0.4-2.5-0.1-3.7
			C188.7,212.7,187,217.1,184.5,220.3z"/>
		<g>
			<path class="st10" d="M128.6,58.3c-0.3-0.6-0.7-1.3-1.4-1.7c-0.6-0.4-1.4-0.5-2.1-0.2c-1.3,0.5-2.4,1.5-3.1,2.7
				c-0.1,0.3,0.2,0.5,0.4,0.3c0.7-0.6,1.4-1,2.3-1.2c0.4-0.1,1-0.2,1.4-0.1c0.4,0.1,0.7,0.5,0.9,0.9c0.1,0.2,0.2,0.4,0.2,0.6
				c0,0.1,0,0.2,0.1,0.1H127c-0.5,0-1,0-1.4,0c-1-0.1-2-0.2-3-0.5c-0.3-0.1-0.4,0.4-0.1,0.5c0.9,0.2,1.9,0.4,2.9,0.5
				c0.5,0,1,0.1,1.4,0c0.3,0,0.9,0.1,1-0.3c0.1-0.3-0.1-0.8-0.2-1c-0.1-0.4-0.3-0.7-0.6-1c-0.6-0.6-1.5-0.5-2.3-0.3
				c-0.9,0.2-1.8,0.7-2.5,1.3c0.1,0.1,0.3,0.2,0.4,0.3c0.6-1,1.5-1.9,2.6-2.4c0.6-0.3,1.3-0.3,1.9,0s0.9,0.9,1.2,1.5
				C128.3,58.9,128.7,58.6,128.6,58.3L128.6,58.3z"/>
		</g>
		<g>
			<path class="st10" d="M128.1,60.8c0,0.1-0.1,0.2-0.1,0.2s0,0.1-0.1,0.1c0,0,0,0.1,0,0l0,0c-0.1,0.1-0.2,0.3-0.4,0.4l0,0l0,0
				l-0.1,0.1c-0.1,0-0.1,0.1-0.2,0.1s-0.1,0.1-0.2,0.1l0,0c0,0,0,0-0.1,0h-0.1c-0.1,0-0.2,0.2-0.2,0.3s0.2,0.2,0.3,0.2
				c0.7-0.2,1.3-0.7,1.7-1.4c0.1-0.1,0-0.3-0.1-0.3C128.3,60.7,128.2,60.7,128.1,60.8L128.1,60.8z"/>
		</g>
		<g>
			<path class="st10" d="M121.4,57.2c2.4-0.9,4.8-1.7,7.2-2.3c1-0.3,2.5-0.6,3.1,0.6c0.2,0.5,0.2,1.1,0.2,1.7c0,0.6,0,1.3,0,1.9
				c0,1.5-0.2,2.9-0.3,4.4c0,0.3,0.5,0.3,0.5,0c0.1-1.4,0.2-2.8,0.3-4.2c0-0.7,0-1.4,0-2.1c0-0.6,0-1.1-0.2-1.7
				c-0.4-1.1-1.5-1.4-2.6-1.3c-0.7,0.1-1.4,0.3-2,0.5c-0.7,0.2-1.3,0.4-2,0.6c-1.5,0.4-2.9,0.9-4.4,1.5
				C120.9,56.8,121.1,57.3,121.4,57.2L121.4,57.2z"/>
		</g>
		<g>
			<path class="st10" d="M130.1,63.7c-0.4,0.3-0.8,0.6-1.2,0.9c-0.3,0.3-0.7,0.6-0.8,1c-0.3,0.9,0.4,1.7,1.1,2.2
				c0.3,0.2,0.7,0.5,1.2,0.3c0.4-0.2,0.7-0.6,1-0.9c0.5-0.5,1.6-1,2.2-0.2c0.2,0.3,0.6,0,0.4-0.3c-0.4-0.5-1.1-0.7-1.7-0.6
				c-0.8,0.2-1.4,0.8-1.9,1.4c-0.1,0.1-0.2,0.2-0.3,0.1c-0.1,0-0.2-0.1-0.3-0.2c-0.2-0.1-0.4-0.2-0.5-0.4c-0.3-0.3-0.6-0.6-0.6-1.1
				s0.4-0.8,0.7-1c0.4-0.3,0.7-0.6,1.1-0.9C130.6,64,130.4,63.5,130.1,63.7L130.1,63.7z"/>
		</g>
		<g>
			<path class="st10" d="M134.5,68.5c0.6-0.3,1.2-0.7,1.8-1c0.5-0.3,0.8-0.7,0.8-1.2c0-0.6-0.1-1.2-0.3-1.8
				c-0.1-0.7-0.3-1.4-0.4-2.1c-0.1-0.7-0.3-1.4-0.4-2.1c-0.1-0.7-0.3-1.4-0.3-2s0.1-1.2,0.4-1.6c0.1-0.2,0.4-0.5,0.7-0.5
				c0.2,0,0.4,0.3,0.5,0.4c0.7,0.7,1.5,1.6,2,2.5c0.2,0.3,0.6,0,0.4-0.3c-0.5-0.9-1.2-1.7-1.8-2.4c-0.3-0.3-0.6-0.8-1-0.8
				c-0.5-0.1-1,0.5-1.2,0.9c-0.7,1.1-0.4,2.5-0.1,3.7c0.3,1.5,0.6,3,0.9,4.4c0.1,0.6,0.5,1.7,0,2.2c-0.3,0.3-0.6,0.4-1,0.6
				s-0.8,0.5-1.2,0.7C134,68.2,134.3,68.7,134.5,68.5L134.5,68.5z"/>
		</g>
		<g>
			<path class="st10" d="M136.1,52c0.9,1.4,1.7,2.9,2.4,4.4c0.3,0.7,0.7,1.5,0.8,2.3c0,0.8-0.4,1.4-0.8,2c-0.4,0.6-0.7,1.2-0.8,1.9
				c-0.1,0.8-0.1,1.5,0.2,2.2c0.2,0.7,0.6,1.5,0.5,2.2c-0.1,0.8-0.6,1.4-0.9,2.1c-0.7,1.6-0.9,3.3-0.6,5c0.1,0.3,0.5,0.2,0.5-0.1
				c-0.3-1.6-0.1-3.3,0.6-4.7c0.3-0.7,0.8-1.3,0.9-2.1c0.2-0.8-0.1-1.4-0.3-2.1c-0.3-0.7-0.5-1.5-0.3-2.3c0.1-0.8,0.5-1.4,0.9-2.1
				c0.4-0.6,0.7-1.2,0.7-1.9c0.1-0.8-0.3-1.5-0.6-2.2c-0.8-1.7-1.6-3.4-2.7-5C136.3,51.4,135.9,51.7,136.1,52L136.1,52z"/>
		</g>
		<g>
			<path class="st10" d="M117.8,62.8c0.2,1.5,1.1,2.8,2.5,3.4c0.4,0.1,0.7,0.2,1.1,0.3c0.2,0,0.4,0,0.6,0s0.4-0.1,0.6,0
				c0.4,0.1,0.6,0.7,0.8,1c0.2,0.4,0.4,0.8,0.6,1.2c0.1,0.3,0.6,0,0.4-0.3c-0.3-0.7-0.7-1.5-1.2-2.1s-1.4-0.3-2.1-0.4
				c-1.5-0.3-2.7-1.6-2.9-3.1C118.3,62.5,117.8,62.5,117.8,62.8L117.8,62.8z"/>
		</g>
		<g>
			<path class="st10" d="M127.5,67.9c-0.4,0.5-0.7,1-1,1.5c-0.1,0.1,0,0.3,0.1,0.3c0.1,0.1,0.3,0,0.3-0.1c0.1-0.3,0.3-0.5,0.4-0.8
				c0.1-0.1,0.2-0.2,0.2-0.4l0,0l0,0c0,0,0-0.1,0.1-0.1c0-0.1,0.1-0.1,0.2-0.2s0.1-0.3,0-0.4C127.7,67.8,127.6,67.8,127.5,67.9
				L127.5,67.9z"/>
		</g>
		<g>
			<path class="st10" d="M126.6,73.2c1.8-0.5,3.3-1.4,4.8-2.5c0.3-0.3,0.8-0.6,1.2-0.6s0.7,0.3,1,0.5c0.2,0.2,0.5,0.4,0.7,0.5
				c0.1,0,0.3,0,0.4,0c0.2,0,0.5-0.2,0.7-0.1s0.2,0.4,0.2,0.6c0,0.3,0,0.6,0,0.9c0,0.6,0,1.2,0,1.8c0.2,0,0.3,0,0.5-0.1
				c-0.3-1.6-2-2.4-3.5-2.5c-1,0-2,0.2-2.9,0.4c-1.1,0.2-2.1,0.4-3.2,0.6C126.2,72.8,126.3,73.3,126.6,73.2c0.9-0.1,1.8-0.3,2.7-0.5
				c0.9-0.2,1.8-0.4,2.7-0.4c1.4-0.1,3.2,0.5,3.5,2.1c0.1,0.3,0.5,0.2,0.5-0.1c0-0.6,0-1.1,0-1.7c0-0.5,0-1-0.1-1.4
				c-0.1-0.3-0.3-0.6-0.7-0.6c-0.2,0-0.4,0.2-0.7,0.2c-0.2,0-0.3-0.1-0.5-0.2c-0.3-0.2-0.5-0.5-0.8-0.7c-0.4-0.2-0.8-0.2-1.2-0.1
				c-0.5,0.1-0.8,0.4-1.2,0.7c-0.4,0.3-0.8,0.6-1.2,0.9c-1,0.6-2.1,1.1-3.2,1.4C126.2,72.8,126.3,73.3,126.6,73.2L126.6,73.2z"/>
		</g>
		<g>
			<path class="st10" d="M130.5,73.4c0.2,0.2,0.5,0.4,0.8,0.5s0.7,0.1,1,0.1c0.7,0,1.3,0.3,2,0.6c0.3,0.1,0.5-0.3,0.3-0.4
				c-0.6-0.3-1.2-0.6-1.9-0.7c-0.3,0-0.7,0-1,0s-0.6-0.2-0.8-0.4C130.6,72.8,130.3,73.2,130.5,73.4L130.5,73.4z"/>
		</g>
		<g>
			<path class="st10" d="M107.3,66.8c0.1,0.8,0.7,1.5,1.4,1.8c1,0.4,2.1,0.3,3.1,0.1c-0.1-0.1-0.2-0.1-0.3-0.2
				c0.1,0.4,0.2,0.7,0.3,1.1c0.1,0.3,0.6,0.2,0.5-0.1c-0.1-0.4-0.2-0.7-0.3-1.1c0-0.1-0.2-0.2-0.3-0.2c-0.9,0.1-1.8,0.3-2.6-0.1
				c-0.6-0.2-1.2-0.8-1.3-1.4C107.7,66.5,107.2,66.5,107.3,66.8L107.3,66.8z"/>
		</g>
		<g>
			<path class="st10" d="M109,64.5c0.6,0.8,1.6,1.2,2.5,1c0.1,0,0.2-0.2,0.2-0.3c-0.1-0.7-0.6-1.3-1.3-1.6c-0.1-0.1-0.3,0.1-0.3,0.2
				c0,0.1,0,0.3,0.2,0.3c0.5,0.2,0.9,0.7,0.9,1.3c0.1-0.1,0.1-0.2,0.2-0.3c-0.7,0.1-1.5-0.2-2-0.8c-0.1-0.1-0.2-0.2-0.3-0.1
				C109,64.2,109,64.4,109,64.5L109,64.5z"/>
		</g>
		<g>
			<path class="st10" d="M111.2,60c-0.3,1,0.3,1.9,1,2.5c0.4,0.3,0.8,0.5,1.3,0.6s1-0.1,1.1-0.6c0.1-0.3-0.4-0.4-0.5-0.1
				s-0.5,0.3-0.7,0.2c-0.3-0.1-0.7-0.3-0.9-0.5c-0.5-0.5-0.9-1.2-0.7-1.9C111.7,59.8,111.2,59.7,111.2,60L111.2,60z"/>
		</g>
		<g>
			<path class="st10" d="M113,61c0.5,0.7,1.2,1.4,2.2,1.3c0.4-0.1,0.8-0.3,1-0.6s0.3-0.9,0-1.2c-0.2-0.2-0.6,0.1-0.4,0.4
				c0.2,0.2,0,0.5-0.1,0.6c-0.2,0.2-0.5,0.3-0.7,0.3c-0.7,0-1.2-0.5-1.5-1C113.2,60.5,112.8,60.8,113,61L113,61z"/>
		</g>
		<g>
			<path class="st10" d="M114.9,60.6c-0.2-0.1-0.2-0.3-0.3-0.4c0-0.2,0.1-0.5,0.2-0.7c0.2-0.4,0.5-0.8,0.9-1.1
				c0.1-0.1,0.1-0.3,0-0.4c-0.1-0.1-0.2-0.1-0.4,0c-0.5,0.4-0.9,0.9-1.1,1.5s-0.2,1.3,0.5,1.6c0.1,0.1,0.3-0.1,0.3-0.2
				C115.1,60.7,115,60.6,114.9,60.6L114.9,60.6z"/>
		</g>
		<g>
			<path class="st10" d="M108.1,60.4c4.3-1.2,8.1-3.5,12-5.8c1.9-1.1,3.9-2.3,5.8-3.3c2-1,4.2-2,6.5-2c1.3,0,2.5,0.3,3.5,1
				s1.8,1.6,2.6,2.6c0.2,0.3,0.6-0.1,0.4-0.4c-1.4-1.7-3-3.3-5.2-3.7s-4.5,0.4-6.5,1.3c-4.2,1.9-8,4.6-12,6.7
				c-2.3,1.2-4.6,2.3-7.1,3C107.7,60,107.8,60.5,108.1,60.4L108.1,60.4z"/>
		</g>
		<g>
			<path class="st10" d="M130.7,41.2c-3.2,2.8-6.6,5.5-10.1,8.1c-3.5,2.5-7.1,4.9-10.8,7.1c-2.1,1.2-4.2,2.4-6.3,3.5
				c-0.3,0.1,0,0.6,0.3,0.4c3.8-2,7.6-4.2,11.2-6.6c3.6-2.4,7.1-4.9,10.5-7.6c1.9-1.5,3.8-3.1,5.6-4.7
				C131.3,41.3,130.9,41,130.7,41.2L130.7,41.2z"/>
		</g>
		<g>
			<path class="st10" d="M102.7,61.1c-0.5,0.1-0.9,0.6-1,1c-0.1,0.6,0,1.1,0.4,1.6s1,0.8,1.6,1c0.7,0.2,1.5,0.3,2.3,0.3
				c0.3,0,0.3-0.5,0-0.5c-0.6,0-1.3,0-1.9-0.2c-0.5-0.1-1-0.3-1.4-0.7c-0.3-0.3-0.5-0.7-0.5-1.2c0-0.4,0.3-0.7,0.6-0.8
				C103.2,61.5,103,61,102.7,61.1L102.7,61.1z"/>
		</g>
		<g>
			<path class="st10" d="M103.9,62.4c0.7,0.5,1.4,0.7,2.2,0.7c0.4,0,0.8,0,1.2-0.1c0.3-0.1,0.8-0.2,0.7-0.7
				c-0.1-0.3-0.5-0.2-0.5,0.1c0-0.1,0-0.1,0,0h-0.1c-0.1,0-0.2,0-0.2,0.1c-0.1,0-0.3,0.1-0.4,0.1c-0.3,0-0.6,0-0.9,0
				c-0.6-0.1-1.2-0.3-1.7-0.6C103.9,61.8,103.7,62.2,103.9,62.4L103.9,62.4z"/>
		</g>
		<g>
			<path class="st10" d="M106.6,60.8C106.6,60.9,106.5,60.9,106.6,60.8C106.5,60.8,106.5,60.8,106.6,60.8
				C106.4,60.9,106.5,60.9,106.6,60.8c-0.1,0-0.2,0-0.2,0s0,0-0.1,0l0,0c-0.1,0,0,0,0,0h-0.1h-0.1l0,0l0,0c0,0,0,0-0.1,0l-0.1-0.1
				l0,0l0,0c0,0,0,0-0.1-0.1s-0.3-0.1-0.4,0s-0.1,0.3,0,0.4c0.3,0.3,0.9,0.5,1.3,0.4c0.1,0,0.2-0.2,0.2-0.3
				C106.8,60.9,106.7,60.8,106.6,60.8L106.6,60.8z"/>
		</g>
		<g>
			<path class="st10" d="M98.4,64c0.2,1.9,1.5,3.7,3.2,4.4c0.9,0.4,2,0.5,3,0.4c0.5-0.1,1-0.2,1.4-0.4c0.3-0.2,0.4-0.7-0.1-0.7
				c-0.3,0-0.3,0.5,0,0.5c0,0,0,0,0.1,0c-0.1,0-0.1,0-0.2-0.1l0,0c0-0.1,0-0.1-0.1-0.2c0.1-0.1,0.1-0.1,0,0c0,0-0.1,0-0.1,0.1
				c-0.1,0-0.2,0.1-0.3,0.1c-0.2,0.1-0.4,0.1-0.6,0.2c-0.4,0.1-0.8,0.1-1.2,0.1c-0.8,0-1.6-0.3-2.3-0.7c-1.3-0.8-2.2-2.2-2.4-3.7
				C98.8,63.7,98.3,63.7,98.4,64L98.4,64z"/>
		</g>
		<g>
			<path class="st10" d="M105.7,66.5c-1,0.2-2,0-2.8-0.7c-0.1-0.1-0.3-0.1-0.4,0s-0.1,0.3,0,0.4c0.9,0.7,2.1,1,3.2,0.8
				C106.2,66.9,106,66.5,105.7,66.5L105.7,66.5z"/>
		</g>
		<g>
			<path class="st10" d="M106.4,68.9c-1.5,0.9-3.1,1.6-4.8,1.8c-1.5,0.2-3.3-0.2-4.1-1.7c-0.2-0.3-0.6,0-0.4,0.3
				c0.8,1.5,2.7,2.1,4.3,1.9c1.9-0.2,3.7-0.9,5.3-1.9C107,69.2,106.7,68.7,106.4,68.9L106.4,68.9z"/>
		</g>
		<g>
			<path class="st10" d="M96.2,65c0.2,0.9,0.8,1.6,1.6,2.1c0.3,0.2,0.5-0.3,0.3-0.4c-0.7-0.4-1.2-1-1.4-1.8
				C96.6,64.5,96.1,64.6,96.2,65L96.2,65z"/>
		</g>
		<g>
			<path class="st10" d="M107.1,69.2c0,1-0.5,1.9-1.1,2.6s-1.3,1.4-2,2s-1.5,1.2-2.3,1.7c-0.4,0.2-0.9,0.5-1.3,0.6s-1,0.4-1.4,0.1
				c-0.3-0.2-0.5,0.2-0.3,0.4c0.4,0.3,0.9,0.2,1.4,0.1s1-0.4,1.5-0.6c0.9-0.5,1.8-1.1,2.6-1.9c0.8-0.7,1.6-1.5,2.3-2.3
				c0.7-0.8,1.2-1.8,1.1-2.8C107.5,68.9,107,68.9,107.1,69.2L107.1,69.2z"/>
		</g>
		<g>
			<path class="st10" d="M95.9,79.8c1,1.2,2.7,1,4,0.5c1.4-0.5,2.6-1.4,3.6-2.5c0.2-0.2-0.1-0.6-0.4-0.4c-0.9,1-1.9,1.8-3.1,2.3
				s-2.8,0.8-3.7-0.3C96,79.2,95.7,79.6,95.9,79.8L95.9,79.8z"/>
		</g>
		<g>
			<path class="st10" d="M99.3,83.2c1.7,0.6,3.3-0.6,4.6-1.5c1.3-1,2.6-2.1,3.6-3.5c0.2-0.3-0.3-0.5-0.4-0.3
				c-0.9,1.3-2.1,2.3-3.3,3.2c-1.2,0.9-2.7,2.1-4.3,1.5C99.1,82.6,99,83.1,99.3,83.2L99.3,83.2z"/>
		</g>
		<g>
			<path class="st10" d="M107.5,75.1c-0.5,0.6-1.1,1.2-1.8,1.4c-0.1,0-0.2,0.2-0.2,0.3s0.2,0.2,0.3,0.2c0.9-0.3,1.6-0.9,2.1-1.7
				c0.1-0.1,0-0.3-0.1-0.3C107.7,75,107.6,75,107.5,75.1L107.5,75.1z"/>
		</g>
		<g>
			<path class="st10" d="M108,69.6c-0.1,4-0.2,8-0.3,12.1c0,2-0.1,4.1-0.1,6.1c0,1.8,0,3.6-0.2,5.4c-0.2,1.9-0.6,3.9-1.6,5.6
				c-0.2,0.3,0.3,0.5,0.4,0.3c1.9-3,1.8-6.8,1.9-10.2c0.1-4.1,0.2-8.1,0.3-12.2c0-2.3,0.1-4.6,0.1-7C108.5,69.2,108,69.2,108,69.6
				L108,69.6z"/>
		</g>
		<g>
			<path class="st10" d="M107.3,83.9c-0.8,0.5-1.6,1.2-1.9,2.1s-0.2,1.9,0.4,2.6c0.2,0.2,0.6-0.1,0.4-0.4c-0.5-0.6-0.6-1.5-0.3-2.2
				c0.3-0.8,0.9-1.3,1.7-1.7C107.9,84.2,107.6,83.7,107.3,83.9L107.3,83.9z"/>
		</g>
		<g>
			<path class="st10" d="M105.7,90.8c-1,0.1-1.8-0.6-2.2-1.4c-0.5-1-0.4-2.2-0.1-3.3c0.1-0.3-0.4-0.4-0.5-0.1
				c-0.3,1.2-0.5,2.6,0.2,3.7c0.5,0.9,1.5,1.7,2.6,1.6C106,91.2,106,90.7,105.7,90.8L105.7,90.8z"/>
		</g>
		<g>
			<path class="st10" d="M100.9,88.2c-0.8-1.2,0-2.7,0.8-3.7s2-1.8,3.3-1.9c0.3,0,0.3-0.5,0-0.5c-1.5,0.1-2.8,1-3.7,2.2
				c-0.9,1.1-1.7,2.8-0.8,4.2C100.6,88.7,101.1,88.4,100.9,88.2L100.9,88.2z"/>
		</g>
		<g>
			<path class="st10" d="M104.7,84.7c0-0.1,0.1-0.1,0.1-0.2c0,0,0-0.1,0.1-0.1l0,0l0,0c0.1-0.1,0.2-0.2,0.3-0.3
				c0.1,0,0.1-0.1,0.2-0.1l0,0l0,0c0,0,0.1,0,0.1-0.1c0.1-0.1,0.2-0.1,0.4-0.2c0.1-0.1,0.2-0.2,0.1-0.3s-0.2-0.2-0.3-0.1
				c-0.6,0.3-1,0.7-1.3,1.2c-0.1,0.1,0,0.3,0.1,0.3C104.5,84.8,104.7,84.8,104.7,84.7L104.7,84.7z"/>
		</g>
		<g>
			<path class="st10" d="M110.4,69.7c-0.4,0.8-0.4,1.7,0,2.4c0.4,0.7,1.2,1.1,2,1.1c0.3,0,0.3-0.5,0-0.5c-0.6,0-1.2-0.4-1.6-0.9
				c-0.4-0.6-0.4-1.3,0-1.9C110.9,69.7,110.5,69.4,110.4,69.7L110.4,69.7z"/>
		</g>
		<g>
			<path class="st10" d="M110.6,73.1c-0.5,1.5-0.2,3.2,0.8,4.5c0.3,0.3,0.6,0.6,0.9,0.9c0.3,0.4,0.2,0.9,0.4,1.3
				c0.2,0.7,0.8,1.3,1.5,1.6c0.4,0.1,1,0,1.4,0.4c0.3,0.4,0.5,1,0.6,1.5c0.1,0.3,0.6,0.2,0.5-0.1c-0.2-0.7-0.4-1.7-1.2-2
				c-0.4-0.2-0.8-0.1-1.2-0.3c-0.4-0.1-0.7-0.4-0.9-0.7c-0.2-0.4-0.3-0.8-0.3-1.2c-0.1-0.4-0.3-0.8-0.6-1.1
				c-0.6-0.6-1.1-1.2-1.3-1.9c-0.3-0.9-0.3-1.8,0-2.7C111.2,72.9,110.7,72.8,110.6,73.1L110.6,73.1z"/>
		</g>
		<g>
			<path class="st10" d="M117.5,83.7c0.3-0.4,0.4-0.9,0.2-1.4c0-0.1-0.2-0.2-0.3-0.2c-0.1,0-0.2,0.2-0.2,0.3v0.1c0,0,0,0,0,0.1l0,0
				l0,0c0,0,0,0.1,0,0.2c0,0,0,0.1,0,0.2c0-0.1,0,0,0,0s0,0,0,0.1v0.1l0,0l0,0c0,0,0,0,0,0.1l-0.1,0.1c-0.1,0.1,0,0.3,0.1,0.3
				C117.3,83.9,117.4,83.9,117.5,83.7L117.5,83.7z"/>
		</g>
		<g>
			<path class="st10" d="M118.6,84.7c0.8-0.1,1.6-0.6,1.9-1.3c0.1-0.1,0-0.3-0.1-0.3c-0.1-0.1-0.3,0-0.3,0.1s-0.1,0.2-0.1,0.2
				s0,0.1-0.1,0.1l0,0l0,0c-0.1,0.1-0.1,0.1-0.2,0.2l-0.1,0.1l0,0l0,0c-0.1,0-0.1,0.1-0.2,0.1c0,0-0.1,0-0.1,0.1c0,0,0,0-0.1,0l0,0
				c-0.1,0-0.2,0.1-0.2,0.1h-0.1c0,0-0.1,0,0,0c0,0,0,0-0.1,0s-0.3,0.1-0.2,0.2C118.4,84.5,118.5,84.7,118.6,84.7L118.6,84.7z"/>
		</g>
		<g>
			<path class="st10" d="M120.6,84.4c0.5,0.6,1.4,0.4,2.1,0.2c0.5-0.1,0.9-0.2,1.4,0c0.4,0.1,0.8,0.4,1.2,0.5c1.4,0.6,3.1,0.2,4.1-1
				c0.2-0.2-0.1-0.6-0.4-0.4c-0.5,0.5-1.1,0.9-1.8,1.1c-0.7,0.2-1.4,0-2.1-0.3s-1.3-0.7-2.1-0.5c-0.6,0.1-1.6,0.6-2.1,0
				C120.8,83.8,120.4,84.2,120.6,84.4L120.6,84.4z"/>
		</g>
		<g>
			<path class="st10" d="M129.5,85.8c1-0.4,1.6-1.5,1.4-2.5c0-0.1-0.2-0.2-0.3-0.2s-0.2,0.2-0.2,0.3c0.1,0.8-0.3,1.6-1.1,1.9
				c-0.1,0-0.2,0.2-0.2,0.3C129.2,85.7,129.4,85.8,129.5,85.8L129.5,85.8z"/>
		</g>
		<g>
			<path class="st10" d="M131.6,84.8c0.5-0.1,0.9-0.4,1.2-0.8c0.3-0.5,0.4-1.1,0.7-1.7c-0.1,0-0.1,0.1-0.2,0.1
				c1-0.1,2.1-0.3,2.9-0.9c0.7-0.5,1.2-1.4,1-2.3c-0.1-0.3-0.5-0.2-0.5,0.1c0.1,0.6-0.2,1.2-0.7,1.7s-1.2,0.7-1.9,0.8
				c-0.2,0-0.3,0.1-0.5,0.1c-0.1,0-0.3,0-0.5,0.1s-0.4,0.6-0.4,0.9c-0.2,0.5-0.4,1.4-1.1,1.5C131.3,84.3,131.3,84.8,131.6,84.8
				L131.6,84.8z"/>
		</g>
		<g>
			<path class="st10" d="M137.9,79.1c0.2-0.4,0.1-0.8-0.1-1.1c-0.2-0.3-0.6-0.6-1-0.5c-0.1,0-0.3,0.1-0.2,0.2c0,0.1,0.1,0.3,0.2,0.2
				h0.1c0,0,0,0,0.1,0l0,0l0,0h0.1c0.1,0,0,0,0,0l0,0c0,0,0.1,0,0.1,0.1c0.1,0,0,0,0,0l0,0c0,0,0.1,0,0.1,0.1l0,0l0,0l0,0
				c0,0,0,0.1,0.1,0.1l0,0l0,0l0,0v0.1v0.1l0,0c0,0,0,0,0,0.1l0,0l0,0l0,0v0.1c0,0,0,0,0,0.1l0,0l0,0c-0.1,0.1,0,0.3,0.1,0.3
				C137.7,79.2,137.9,79.2,137.9,79.1L137.9,79.1z"/>
		</g>
		<g>
			<path class="st10" d="M138.5,77.2c-0.4-0.7-1.3-1.1-2-0.9c-0.1,0-0.2,0.2-0.2,0.3s0.2,0.2,0.3,0.2h0.1c0,0,0,0,0.1,0l0,0
				c0.1,0,0.2,0,0.2,0s0,0,0.1,0c0,0-0.1,0,0,0h0.1h0.1c0,0,0,0,0.1,0c0,0,0.1,0,0,0c0.1,0,0.1,0.1,0.2,0.1c0,0,0.1,0,0.1,0.1l0,0
				l0,0c0.1,0.1,0.1,0.1,0.2,0.2l0,0l0,0c0,0,0,0.1,0.1,0.1c0.1,0.1,0.2,0.2,0.3,0.1C138.5,77.5,138.5,77.3,138.5,77.2L138.5,77.2z"
				/>
		</g>
		<g>
			<path class="st10" d="M138.3,75.5c-0.1-0.4-0.4-0.7-0.8-0.9c-0.4-0.2-0.9-0.1-1.3,0.1c-0.2,0.1-0.4,0.2-0.7,0.3
				c-0.3,0-0.6,0-0.8-0.1c-0.6-0.1-1.1-0.1-1.7,0c-0.3,0.1-0.2,0.5,0.1,0.5c0.5-0.1,1-0.1,1.5,0c0.4,0.1,0.8,0.2,1.3,0
				c0.4-0.1,0.7-0.4,1.1-0.4c0.4,0,0.7,0.2,0.9,0.6C137.9,76,138.4,75.8,138.3,75.5L138.3,75.5z"/>
		</g>
		<g>
			<path class="st10" d="M133.8,76.7c0.4,0.1,0.7,0.3,0.9,0.6c0.1,0.2,0.2,0.3,0.2,0.5c0,0.1,0,0.1,0,0.2l0,0c0,0,0,0,0,0.1
				s0,0.1,0,0.2s0,0.1,0,0.1c0,0.1,0,0.3,0.2,0.3c0.1,0,0.3,0,0.3-0.2c0.2-1-0.5-2-1.5-2.3c-0.1,0-0.3,0-0.3,0.2
				C133.6,76.5,133.7,76.7,133.8,76.7L133.8,76.7z"/>
		</g>
		<g>
			<path class="st10" d="M133.2,78.6c0.3,0.4,0.3,1.1,0.1,1.5c-0.3,0.6-0.7,1-1.2,1.5c-0.2,0.2,0.1,0.6,0.4,0.4
				c0.5-0.5,1.1-1.1,1.3-1.8c0.2-0.6,0.2-1.4-0.2-1.9c-0.1-0.1-0.3-0.1-0.4,0C133.1,78.3,133.1,78.5,133.2,78.6L133.2,78.6z"/>
		</g>
		<g>
			<path class="st10" d="M114.4,65.7c-0.5,0.6-1,1-1.7,1.3c-0.1,0.1-0.2,0.2-0.1,0.3c0.1,0.1,0.2,0.1,0.3,0.1
				c0.7-0.3,1.3-0.8,1.8-1.3c0.1-0.1,0.1-0.3,0-0.4C114.7,65.7,114.5,65.6,114.4,65.7L114.4,65.7z"/>
		</g>
		<g>
			<path class="st10" d="M114.5,67c0,0.1-0.1,0.1-0.1,0.2l0,0l0,0c0,0,0,0.1-0.1,0.1c-0.1,0.1-0.2,0.2-0.3,0.3
				c-0.1,0.1-0.2,0.2-0.3,0.3c-0.1,0.1-0.1,0.1-0.2,0.2c0,0-0.1,0-0.1,0.1l0,0c0,0-0.1,0,0,0c-0.1,0-0.1,0.1-0.1,0.1
				c0,0.1,0,0.1,0,0.2c0.1,0.1,0.2,0.2,0.3,0.1c0.5-0.4,1-0.9,1.4-1.4c0.1-0.1,0-0.3-0.1-0.3C114.7,66.8,114.6,66.9,114.5,67
				L114.5,67z"/>
		</g>
		<g>
			<path class="st10" d="M114.9,68.9c0,0.3-0.1,0.5-0.3,0.7c-0.2,0.2-0.4,0.4-0.6,0.7c-0.4,0.4-0.9,0.8-1.4,1.1
				c-0.3,0.2,0,0.6,0.3,0.4c0.6-0.4,1.1-0.8,1.5-1.3c0.4-0.4,1-1,0.9-1.7C115.4,68.5,114.9,68.5,114.9,68.9L114.9,68.9z"/>
		</g>
		<g>
			<path class="st10" d="M115.2,70.8c-0.3,0.9-1.1,1.4-1.7,2s-1.1,1.6-0.7,2.5c0.1,0.3,0.6,0.2,0.5-0.1c-0.4-0.9,0.3-1.7,0.9-2.3
				s1.3-1.1,1.6-1.9C115.7,70.6,115.3,70.5,115.2,70.8L115.2,70.8z"/>
		</g>
		<g>
			<path class="st10" d="M113.9,74.1c-0.1,0.4-0.1,0.9,0.1,1.2c0.2,0.3,0.6,0.6,1,0.5c0.1,0,0.2-0.2,0.2-0.3s-0.2-0.2-0.3-0.2
				c0,0-0.1,0,0,0l0,0l0,0l0,0l0,0l0,0h-0.1l0,0l0,0c0,0,0,0-0.1-0.1l0,0l0,0c0,0,0-0.1-0.1-0.1l0,0c0,0,0,0,0-0.1v-0.1
				c0,0,0-0.1,0,0c0,0,0,0,0-0.1v-0.1c0-0.1,0-0.2,0-0.2s0-0.1,0,0l0,0v-0.1c0-0.1,0-0.3-0.2-0.3C114.1,73.9,114,74,113.9,74.1
				L113.9,74.1z"/>
		</g>
		<g>
			<path class="st10" d="M116.5,71.2c0.2,0.3,0.2,0.7,0.2,1s-0.2,0.6,0,0.9c0.1,0.2,0.4,0.3,0.6,0.4c0.3,0.1,0.6,0.3,0.9,0.4
				c0.5,0.3,1,0.6,1.2,1.2c0.2,0.4,0.1,1-0.3,1.3c-0.3,0.2,0,0.6,0.3,0.4c1.1-0.7,0.6-2.2-0.2-2.9c-0.5-0.4-1.2-0.7-1.8-1l-0.2-0.1
				c-0.1-0.1,0-0.2,0-0.3c0-0.2,0.1-0.3,0.1-0.5c0-0.4-0.1-0.7-0.3-1.1C116.8,70.6,116.4,70.9,116.5,71.2L116.5,71.2z"/>
		</g>
		<g>
			<path class="st10" d="M120.7,75.7L120.7,75.7L120.7,75.7C120.7,75.8,120.7,75.8,120.7,75.7c0,0.2,0,0.2,0,0.3
				c0,0.1,0,0.1-0.1,0.2c0,0,0,0.1,0,0v0.1c-0.1,0.1-0.1,0.2-0.2,0.3c0,0,0,0-0.1,0.1l0,0l-0.1,0.1c-0.1,0.1-0.1,0.3,0,0.4
				s0.3,0.1,0.4,0c0.4-0.4,0.6-0.9,0.7-1.5c0-0.1-0.1-0.3-0.2-0.2C120.8,75.5,120.7,75.6,120.7,75.7L120.7,75.7z"/>
		</g>
		<g>
			<path class="st10" d="M118.8,72.5c0.3,0.4,0.7,0.8,1.2,1c0.1,0.1,0.3,0,0.3-0.1c0.1-0.1,0-0.3-0.1-0.3c-0.1-0.1-0.2-0.1-0.3-0.2
				l-0.1-0.1l0,0l0,0c0,0,0,0-0.1-0.1s-0.2-0.2-0.3-0.2l-0.1-0.1l0,0l0,0c0,0,0-0.1-0.1-0.1c-0.1-0.1-0.2-0.2-0.3-0.1
				C118.8,72.2,118.7,72.4,118.8,72.5L118.8,72.5z"/>
		</g>
		<g>
			<path class="st10" d="M121.1,73c0.8,0.3,1.2,1.3,0.9,2c0,0.1,0.1,0.3,0.2,0.3s0.3,0,0.3-0.2c0.4-1-0.2-2.3-1.2-2.7
				c-0.1,0-0.3,0.1-0.3,0.2C120.9,72.9,121,73,121.1,73L121.1,73z"/>
		</g>
		<g>
			<path class="st10" d="M123.4,74c0.2,0.3,0.4,0.7,0.4,1.1s-0.1,0.8-0.3,1.2c-0.3,0.6-0.5,1.3,0,1.9c0.3,0.3,0.6,0.2,0.9,0.3
				s0.5,0.4,0.5,0.7c0.1,0.6,0.1,2.1-0.8,2c-0.3,0-0.3,0.5,0,0.5c1,0.1,1.3-1,1.3-1.8c0-0.7-0.1-1.5-0.8-1.8c-0.4-0.2-0.9,0-1.1-0.5
				c-0.1-0.5,0.2-0.9,0.3-1.3c0.3-0.8,0.3-1.8-0.3-2.5C123.6,73.5,123.2,73.7,123.4,74L123.4,74z"/>
		</g>
		<g>
			<path class="st10" d="M126.2,82.1c0.9-0.5,1.3-1.7,1-2.7c-0.1-0.1-0.2-0.2-0.3-0.2c-0.1,0-0.2,0.2-0.2,0.3c0.3,0.8,0,1.7-0.7,2.1
				C125.7,81.8,125.9,82.2,126.2,82.1L126.2,82.1z"/>
		</g>
		<g>
			<path class="st10" d="M126.6,77.4c0.2-0.6,0-1.2-0.5-1.6c-0.1-0.1-0.3-0.1-0.4,0s-0.1,0.3,0,0.4l0.1,0.1l0,0l0,0l0,0l0,0
				c0,0.1,0.1,0.1,0.1,0.2l0,0l0,0v0.1c0,0.1,0,0.1,0,0.2l0,0l0,0v0.1V77c0,0,0,0,0,0.1c0,0,0,0.1,0,0l0,0l0,0v0.1
				c0,0.1,0,0.3,0.2,0.3C126.5,77.6,126.6,77.5,126.6,77.4L126.6,77.4z"/>
		</g>
		<g>
			<path class="st10" d="M128.4,76.2c0.1-0.1,0.4,0.1,0.5,0.2c0.2,0.2,0.3,0.4,0.4,0.6c0.2,0.5,0.2,1,0.1,1.5
				c-0.1,0.3,0.4,0.4,0.5,0.1c0.2-0.7,0.1-1.4-0.2-2c-0.3-0.5-1-1.4-1.6-0.8c-0.1,0.1-0.1,0.3,0,0.4
				C128.2,76.3,128.3,76.3,128.4,76.2L128.4,76.2z"/>
		</g>
		<g>
			<path class="st10" d="M132.3,77.6C132.4,77.6,132.3,77.5,132.3,77.6C132.4,77.6,132.4,77.6,132.3,77.6
				C132.4,77.6,132.4,77.7,132.3,77.6C132.4,77.7,132.4,77.7,132.3,77.6c0.1,0.1,0.1,0.2,0.2,0.2c0,0,0,0,0,0.1l0,0V78
				c0,0,0,0.1,0,0c0,0,0,0,0,0.1v0.1l0,0c0,0,0,0,0,0.1c0,0,0,0,0,0.1l0,0c0,0,0,0.1-0.1,0.1c0,0,0,0,0,0.1l0,0l-0.1,0.1l0,0l0,0
				c0,0-0.1,0-0.1,0.1c-0.1,0,0,0,0,0l0,0c0,0,0,0-0.1,0c0,0-0.1,0,0,0c-0.1,0-0.3,0.1-0.2,0.2c0,0.1,0.1,0.3,0.2,0.2
				c0.5-0.1,0.9-0.4,1-0.8c0.1-0.5-0.1-0.9-0.5-1.2c-0.1-0.1-0.3,0-0.3,0.1C132.2,77.4,132.2,77.5,132.3,77.6L132.3,77.6z"/>
		</g>
		<g>
			<path class="st10" d="M116.2,77.1c-0.1,0.3-0.1,0.7,0.1,1s0.4,0.5,0.7,0.6c0.1,0,0.3,0.1,0.4,0.2s0.1,0.3,0.2,0.4
				c0.1,0.2,0.2,0.3,0.4,0.4c0.2,0.1,0.4,0,0.5-0.1c0.2-0.2-0.1-0.6-0.4-0.4l0,0l0,0l0,0l0,0l0,0l0,0c-0.1-0.1-0.1-0.3-0.1-0.4
				c-0.1-0.3-0.4-0.4-0.7-0.5c-0.2-0.1-0.4-0.2-0.5-0.4c-0.1-0.2-0.1-0.4,0-0.6c0-0.1-0.1-0.3-0.2-0.3
				C116.4,76.8,116.3,76.9,116.2,77.1L116.2,77.1z"/>
		</g>
		<g>
			<path class="st10" d="M120.8,79.4C120.8,79.4,120.9,79.4,120.8,79.4C120.8,79.5,120.8,79.5,120.8,79.4
				C120.8,79.6,120.8,79.5,120.8,79.4c0,0.2,0,0.2,0,0.3l0,0l0,0v0.1c0,0,0,0,0,0.1l0,0l0,0V80v0.1l0,0l0,0l0,0c0,0,0,0-0.1,0.1l0,0
				l0,0l0,0c0,0,0,0-0.1,0l0,0l0,0l0,0h-0.1c-0.1,0-0.2,0.2-0.2,0.3s0.2,0.2,0.3,0.2c0.6-0.2,1-0.9,0.8-1.5c0-0.1-0.2-0.2-0.3-0.2
				C120.9,79.1,120.8,79.2,120.8,79.4L120.8,79.4z"/>
		</g>
		<g>
			<path class="st10" d="M114,78.6c-0.1,0.2-0.2,0.4-0.1,0.6s0.2,0.4,0.5,0.5c0.1,0,0.3,0,0.3-0.2c0-0.1,0-0.3-0.2-0.3l0,0
				c0,0,0,0,0.1,0c0,0-0.1,0-0.1-0.1c0,0,0,0,0.1,0l-0.1-0.1c0,0,0,0,0,0.1c0,0,0-0.1-0.1-0.1c0,0,0,0,0,0.1V79c0,0,0,0,0,0.1V79
				c0,0,0,0,0,0.1V79c0,0,0,0,0,0.1c0,0,0-0.1,0.1-0.1c0,0,0-0.1,0-0.2s-0.1-0.1-0.1-0.1c-0.1,0-0.1,0-0.2,0
				C114.1,78.5,114.1,78.6,114,78.6L114,78.6z"/>
		</g>
		<g>
			<path class="st10" d="M126.3,83.5c0.3-0.1,0.6-0.2,1-0.3c0.1,0,0.2-0.2,0.2-0.3s-0.2-0.2-0.3-0.2c-0.3,0.1-0.6,0.2-1,0.3
				c-0.1,0-0.2,0.2-0.2,0.3C126,83.5,126.1,83.6,126.3,83.5L126.3,83.5z"/>
		</g>
		<g>
			<path class="st10" d="M130.3,81.6c0-0.1,0.1-0.2,0.1-0.3c0,0,0,0,0,0.1c0.1-0.1,0.1-0.2,0.2-0.3c0,0,0-0.1,0-0.2
				s-0.1-0.1-0.1-0.1c-0.1,0-0.1,0-0.2,0c0,0,0,0-0.1,0l-0.1,0.1c-0.2,0.2-0.3,0.5-0.3,0.7c0,0.1,0,0.1,0,0.2s0.1,0.1,0.1,0.1
				c0.1,0,0.1,0,0.2,0C130.2,81.7,130.2,81.7,130.3,81.6L130.3,81.6z"/>
		</g>
		<g>
			<path class="st10" d="M133.8,65.4c0.5,0.2,1,0.3,1.5,0.3c0.1,0,0.3-0.1,0.2-0.2c0-0.1-0.1-0.3-0.2-0.2c-0.1,0-0.2,0-0.4,0
				c-0.1,0-0.1,0-0.2,0c0,0-0.1,0,0,0h-0.1c-0.1,0-0.2,0-0.3-0.1c-0.1,0-0.1,0-0.2-0.1c0,0,0,0-0.1,0c0,0,0,0-0.1,0
				c-0.1-0.1-0.3,0-0.3,0.1C133.7,65.1,133.7,65.3,133.8,65.4L133.8,65.4z"/>
		</g>
		<g>
			<path class="st10" d="M139.1,60.8c0.6,0.2,0.9,0.9,0.9,1.6c-0.1,0.8-0.6,1.5-1.2,2c-0.2,0.2,0.1,0.6,0.4,0.4
				c0.7-0.6,1.3-1.5,1.3-2.4c0-0.8-0.5-1.7-1.3-1.9C138.9,60.2,138.8,60.7,139.1,60.8L139.1,60.8z"/>
		</g>
		<g>
			<path class="st10" d="M140,65.7c0.2,0,0.3-0.1,0.5-0.1c0.1-0.1,0.2-0.2,0.3-0.3c0.2-0.2,0.3-0.5,0.4-0.8c0-0.1-0.1-0.3-0.2-0.2
				c-0.1,0-0.2,0.1-0.2,0.2l0,0c0,0,0-0.1,0,0v0.1v0.1l0,0c0-0.1,0,0,0,0c0,0.1-0.1,0.1-0.1,0.1l0,0l0,0c0,0,0,0-0.1,0.1l-0.1,0.1
				c0.1-0.1,0,0,0,0l0,0c0,0,0,0-0.1,0c0,0,0,0-0.1,0c0.1,0,0,0,0,0l0,0h-0.1l0,0c0,0-0.1,0,0,0c-0.1,0-0.1,0-0.2,0.1
				c0,0-0.1,0.1-0.1,0.2s0,0.1,0.1,0.2C139.8,65.7,139.9,65.7,140,65.7L140,65.7z"/>
		</g>
		<g>
			<path class="st10" d="M138.1,69.2c0.6,0.4,1.5,0.5,2.2,0.3c0.7-0.3,1.2-0.8,1.5-1.5c0.1-0.1-0.1-0.3-0.2-0.3
				c-0.1,0-0.3,0.1-0.3,0.2c-0.2,0.5-0.7,0.9-1.2,1.1c-0.6,0.2-1.2,0.1-1.8-0.2C138.1,68.6,137.8,69,138.1,69.2L138.1,69.2z"/>
		</g>
		<g>
			<path class="st10" d="M138.8,71c0.6,0.3,1.2,0.6,1.8,0.5c0.6,0,1.1-0.3,1.4-0.8c0.2-0.3-0.3-0.5-0.4-0.3c-0.2,0.4-0.6,0.5-1,0.6
				c-0.5,0-1-0.2-1.5-0.5C138.8,70.4,138.6,70.9,138.8,71L138.8,71z"/>
		</g>
		<g>
			<path class="st10" d="M137.7,73c0.3,0.2,0.6,0.4,1,0.5c0.2,0,0.4,0.1,0.6,0c0.1,0,0.2-0.1,0.2-0.2c0.1-0.1,0-0.3-0.1-0.4
				s-0.3-0.1-0.4,0c-0.1,0.1-0.1,0.2,0,0.4c0,0-0.1-0.1,0-0.1v-0.1l0,0l0,0l0,0c0,0,0.1,0,0,0l0,0c0,0,0.1,0,0,0l0,0l0,0l0,0h-0.1
				c-0.1,0-0.1,0-0.2-0.1h-0.1l0,0l0,0c-0.1,0-0.1-0.1-0.2-0.1c-0.1,0-0.1-0.1-0.2-0.1c0,0,0,0-0.1-0.1l0,0l0,0
				c-0.1-0.1-0.3-0.1-0.4,0C137.6,72.7,137.6,72.9,137.7,73L137.7,73z"/>
		</g>
		<g>
			<path class="st10" d="M114.9,92.9c-0.1,2.9-0.1,5.8-0.2,8.7c0,0.1,0.1,0.2,0.2,0.2c2.1,0.2,4-1.1,5.5-2.6
				c0.7-0.7,1.5-1.5,2.1-2.4c0.6-0.8,1.2-1.6,1.4-2.6c0.3-1,0.2-2.1-0.5-3c-0.2-0.3-0.6,0-0.4,0.3c1.2,1.6,0.2,3.6-0.9,5
				c-0.6,0.8-1.3,1.5-1.9,2.2c-0.7,0.7-1.4,1.4-2.2,1.8c-0.9,0.6-2,0.9-3.1,0.8c0.1,0.1,0.2,0.2,0.2,0.2c0.1-2.9,0.1-5.8,0.2-8.7
				C115.4,92.6,114.9,92.6,114.9,92.9L114.9,92.9z"/>
		</g>
		<g>
			<path class="st10" d="M94.7,130.5c2.1-1.3,4.6-2,7-2.1c2.5-0.1,5.1,0.3,7.6-0.3c1.2-0.3,2.3-0.7,3.3-1.5c0.3-0.2-0.1-0.6-0.4-0.4
				c-1.8,1.5-4.3,1.7-6.6,1.7c-1.3,0-2.7-0.1-4,0c-1.2,0.1-2.4,0.2-3.6,0.6c-1.3,0.4-2.5,0.9-3.7,1.6
				C94.2,130.3,94.4,130.7,94.7,130.5L94.7,130.5z"/>
		</g>
		<g>
			<path class="st10" d="M114.2,116.9c0,1.8-0.3,3.6-0.8,5.3c-0.1,0.3,0.4,0.4,0.5,0.1c0.6-1.8,0.8-3.6,0.8-5.4
				C114.7,116.6,114.2,116.6,114.2,116.9L114.2,116.9z"/>
		</g>
		<g>
			<path class="st10" d="M118.9,126.4c2.8-0.3,5.7-0.2,8.5,0.4c1.4,0.3,2.7,0.6,4,1c1.3,0.4,2.6,0.9,4,1.1c2.4,0.5,5,0.4,7.3-0.5
				c2.2-0.8,4.2-2.3,5.6-4.2c1.6-2.1,2.5-4.7,2.6-7.4c-0.1,0.1-0.1,0.2-0.2,0.2c1.8-0.5,3.6-1.4,5.1-2.5c0.3-0.2,0-0.6-0.3-0.4
				c-1.5,1.1-3.2,2-5,2.5c-0.1,0-0.2,0.1-0.2,0.2c-0.1,4.8-3.1,9.1-7.5,10.9c-2.3,0.9-4.7,1.1-7.1,0.7c-2.6-0.5-5.1-1.6-7.7-2.1
				c-3-0.6-6.1-0.8-9.1-0.5C118.6,125.9,118.6,126.4,118.9,126.4L118.9,126.4z"/>
		</g>
		<g>
			<path class="st10" d="M152.2,124.3c0.1,2.6,0.2,5.1,0.6,7.7c0.2,1.2,0.3,2.4,0.6,3.6c0.2,1,0.4,2,0.8,3c0.4,1,1,2,1.8,2.7
				c0.2,0.2,0.6-0.1,0.4-0.4c-1.5-1.3-2-3.3-2.4-5.2c-0.4-2.4-0.8-4.8-0.9-7.3c-0.1-1.4-0.2-2.8-0.2-4.1
				C152.7,124,152.2,124,152.2,124.3L152.2,124.3z"/>
		</g>
		<g>
			<path class="st10" d="M109,144.6c-0.6,1.8,0.6,3.7,2.2,4.5c0.9,0.5,2,0.7,3.1,0.9c1.2,0.1,2.4,0.2,3.6,0.3
				c2.6,0.2,5.1,0.4,7.7,0.6c1.3,0.1,2.5,0.2,3.8,0.3c1.1,0.1,2.1,0.2,3.2,0.2c2,0,4.2-0.2,5.6-1.8c0.2-0.2-0.1-0.6-0.4-0.4
				c-1.2,1.3-3,1.6-4.8,1.7c-0.9,0-1.9-0.1-2.8-0.1c-1.2-0.1-2.4-0.2-3.5-0.3c-2.4-0.2-4.8-0.4-7.2-0.5c-1.2-0.1-2.4-0.2-3.5-0.3
				s-2.1-0.2-3.2-0.4c-1.1-0.3-2-0.8-2.7-1.7c-0.6-0.8-0.9-1.8-0.6-2.8C109.6,144.4,109.1,144.3,109,144.6L109,144.6z"/>
		</g>
		<g>
			<path class="st10" d="M146.7,136.2c0.1,3.1-0.5,6.2-2,9c-0.7,1.3-1.6,2.5-1.8,4.1c-0.1,0.8-0.1,1.6-0.1,2.3
				c-0.1,0.8-0.2,1.7-0.3,2.5c-0.3,1.8-0.8,3.6-1.5,5.3c-0.1,0.3,0.4,0.4,0.5,0.1c0.6-1.5,1.1-3.1,1.4-4.7c0.3-1.6,0.4-3.2,0.5-4.8
				c0-0.8,0.2-1.6,0.6-2.4c0.3-0.7,0.8-1.3,1.1-2c0.7-1.3,1.3-2.8,1.7-4.3c0.4-1.7,0.6-3.4,0.5-5.1
				C147.2,135.9,146.7,135.9,146.7,136.2L146.7,136.2z"/>
		</g>
		<g>
			<path class="st10" d="M95.2,149.9c3.6-0.4,7.6,0.7,10.9-1.4c0.7-0.5,1.3-1.1,1.8-1.8c0.2-0.3-0.3-0.5-0.4-0.3
				c-1,1.7-2.9,2.5-4.8,2.8c-2.5,0.4-5-0.1-7.4,0.2C94.9,149.5,94.9,150,95.2,149.9L95.2,149.9z"/>
		</g>
		<g>
			<path class="st10" d="M110,138.9c0.3-1.3,0.5-2.5,0.8-3.8c0.1-0.3-0.4-0.4-0.5-0.1c-0.3,1.3-0.5,2.5-0.8,3.8
				C109.4,139.1,109.9,139.2,110,138.9L110,138.9z"/>
		</g>
		<g>
			<path class="st10" d="M104.2,161.2c0.2,0.8,0.9,1.4,1.7,1.5c0.8,0.1,1.6-0.4,2-1.1c0.1-0.1,0-0.3-0.1-0.3c-0.1-0.1-0.3,0-0.3,0.1
				c-0.2,0.6-0.8,1-1.5,0.9c-0.6-0.1-1.1-0.5-1.3-1.1C104.6,160.7,104.1,160.9,104.2,161.2L104.2,161.2z"/>
		</g>
		<g>
			<path class="st10" d="M117.5,160.6c2.1-0.6,4.4-0.5,6.5-0.3c0.6,0.1,1.1,0.2,1.7,0.2c0.5,0.1,1,0.2,1.5,0.2c1,0,1.5-0.7,2.1-1.4
				c0.8-1.1,1.6-2.1,2.3-3.2c0.2-0.3-0.2-0.5-0.4-0.3c-0.7,0.9-1.3,1.8-2,2.7c-0.3,0.4-0.6,0.8-0.9,1.2c-0.4,0.4-0.8,0.5-1.3,0.5
				s-1-0.2-1.5-0.2c-0.5-0.1-1-0.1-1.5-0.2c-1-0.1-2.1-0.2-3.2-0.2c-1.2,0-2.3,0.2-3.5,0.5C117.1,160.2,117.2,160.6,117.5,160.6
				L117.5,160.6z"/>
		</g>
		<g>
			<path class="st10" d="M127.8,164.9c0.1,2.5,0,5.2-1.5,7.2c-1.3,1.9-3.6,2.7-5.5,3.8c-1,0.6-2,1.4-2.6,2.4
				c-0.2,0.3,0.3,0.5,0.4,0.3c1.2-2,3.5-2.8,5.4-3.9c1-0.6,1.9-1.2,2.5-2.1c0.8-1,1.2-2.2,1.5-3.4c0.3-1.4,0.3-2.9,0.3-4.3
				C128.3,164.6,127.8,164.6,127.8,164.9L127.8,164.9z"/>
		</g>
		<g>
			<path class="st10" d="M82.1,169.3c0.7,0,1.4,0,2,0s1.3,0,1.8,0.3c1.2,0.5,1.2,2,1.1,3c-0.2,2.1-0.1,4.3,1.6,5.9
				c0.8,0.7,1.8,1.4,2.2,2.4c0.1,0.3,0.6,0.2,0.5-0.1c-0.4-1-1.2-1.6-1.9-2.2c-0.4-0.4-0.8-0.7-1.1-1.2c-0.3-0.5-0.5-1-0.6-1.6
				c-0.3-1.2-0.1-2.4-0.1-3.6c0-1.1-0.2-2.3-1.1-2.9c-0.6-0.3-1.3-0.4-1.9-0.4c-0.8-0.1-1.6-0.1-2.5,0
				C81.8,168.8,81.8,169.3,82.1,169.3L82.1,169.3z"/>
		</g>
		<g>
			<path class="st10" d="M95.3,155.2c-0.4,0.7-0.7,1.4-1,2.1s-0.5,1.4-0.4,2.2c0.2,1.3,1.5,1.8,2.6,2.1c0.3,0.1,0.4-0.4,0.1-0.5
				c-1-0.3-2.2-0.7-2.2-1.9c0-0.6,0.3-1.3,0.5-1.9c0.3-0.7,0.6-1.3,0.9-1.9C95.9,155.1,95.5,154.9,95.3,155.2L95.3,155.2z"/>
		</g>
		<g>
			<path class="st10" d="M102.8,189.7c1.7-0.9,3.6-0.8,5.4-0.3c1.9,0.5,3.6,1.4,5.3,2.3c3.7,1.8,7.4,3.7,11.2,5.2
				c1.8,0.7,3.6,1.3,5.5,1.9c1.6,0.5,3.3,1,4.9,1.7c1.6,0.7,3.1,1.5,4.3,2.7c1.2,1.1,2.1,2.5,2.8,3.9c1.4,2.8,2.4,6,4.5,8.3
				c0.3,0.3,0.5,0.6,0.8,0.8c0.2,0.2,0.6-0.1,0.4-0.4c-2.5-2.2-3.5-5.4-4.9-8.3c-0.7-1.5-1.5-2.9-2.6-4.1c-1.1-1.3-2.6-2.2-4.1-2.9
				c-3.3-1.6-6.9-2.3-10.3-3.6c-4-1.5-7.8-3.3-11.6-5.2c-1.8-0.9-3.5-1.8-5.4-2.5c-1.7-0.6-3.6-0.9-5.3-0.4
				c-0.4,0.1-0.8,0.3-1.2,0.5C102.3,189.4,102.6,189.8,102.8,189.7L102.8,189.7z"/>
		</g>
		<g>
			<path class="st10" d="M121.5,195.8c-3.7,3.8-7,8.1-9.6,12.8c-1.3,2.3-2.6,4.8-3.6,7.3c-0.5,1.3-0.9,2.6-1.1,4
				c-0.2,1.1-0.2,2.3-0.3,3.4c-0.2,2.4-0.5,5.1-2.4,6.8c0.1,0,0.3,0.1,0.4,0.1c-0.1-0.6-0.1-1.1,0.1-1.6c0.1-0.3-0.4-0.4-0.5-0.1
				c-0.2,0.6-0.3,1.3-0.1,1.9c0,0.2,0.3,0.2,0.4,0.1c1.6-1.5,2.1-3.7,2.4-5.8c0.3-2.4,0.3-4.8,1.1-7.2c0.8-2.6,2.1-5.1,3.4-7.6
				c1.3-2.4,2.7-4.6,4.3-6.8c1.8-2.4,3.7-4.8,5.8-6.9C122.1,196,121.7,195.6,121.5,195.8L121.5,195.8z"/>
		</g>
		<g>
			<path class="st10" d="M106.5,223.8c-2.5,0.1-5-0.7-7-2.2c-0.3-0.2-0.5,0.2-0.3,0.4c2.1,1.5,4.7,2.3,7.3,2.3
				C106.8,224.3,106.8,223.8,106.5,223.8L106.5,223.8z"/>
		</g>
		<g>
			<path class="st10" d="M109.4,212.8c-1.8-2.5-2.2-5.6-2.4-8.6c0-0.3,0-0.7,0-1c0-0.4-0.1-0.8,0-1.2c0.1-0.7,1-1.1,1.6-1.4
				c1.1-0.7,2.2-1.3,3-2.4c1-1.4,0.9-3.1,1.7-4.6c0.2-0.3-0.3-0.5-0.4-0.3c-0.8,1.3-0.7,3-1.5,4.3c-0.7,1.2-2.1,1.9-3.2,2.6
				c-0.5,0.3-1.2,0.7-1.5,1.3c-0.2,0.3-0.2,0.7-0.2,1.1c0,0.4,0,0.8,0,1.2c0.1,1.5,0.2,3,0.5,4.5c0.4,1.7,1,3.3,2,4.7
				C109.1,213.3,109.6,213.1,109.4,212.8L109.4,212.8z"/>
		</g>
		<g>
			<path class="st10" d="M102.6,194.4c-2.1,2.3-3.6,5.1-4.4,8.1c-0.2,0.8-0.3,1.5-0.4,2.3c-0.1,0.7-0.1,1.5,0.2,2.2
				c0.4,0.7,1.2,1.2,1.8,1.8c0.7,0.6,1.5,1.2,2.2,1.8c1.6,1.4,3.2,2.7,4.9,4.1c0.2,0.2,0.6-0.1,0.4-0.4c-1.4-1.1-2.7-2.3-4.1-3.4
				c-1.4-1.1-2.7-2.2-4.1-3.4c-0.3-0.3-0.6-0.6-0.7-1s-0.1-0.8-0.1-1.2c0-0.7,0.2-1.5,0.3-2.2c0.3-1.5,0.8-2.9,1.5-4.2
				c0.8-1.5,1.7-2.9,2.9-4.2C103.2,194.5,102.8,194.2,102.6,194.4L102.6,194.4z"/>
		</g>
		<g>
			<path class="st10" d="M107.8,215.1c-3.9,0.5-8-0.9-10.8-3.7c-0.2-0.2-0.6,0.1-0.4,0.4c2.9,2.9,7.1,4.4,11.1,3.8
				C108.1,215.6,108.1,215.1,107.8,215.1L107.8,215.1z"/>
		</g>
		<g>
			<path class="st10" d="M112.7,234.4c-0.3-1.2,0.1-2.4,0.6-3.5s1.2-2.1,1.8-3.1c1.2-2.1,2.5-4.1,3.8-6.2c1.3-2,2.7-4,4.2-5.9
				c1.4-1.8,3-3.5,4.7-5c1.9-1.6,4-2.9,6.5-3.4c0.3-0.1,0.2-0.5-0.1-0.5c-4.6,0.9-8,4.6-10.9,8c-3.2,3.8-5.8,8-8.3,12.3
				c-0.7,1.2-1.5,2.4-2.1,3.7c-0.6,1.2-0.9,2.5-0.6,3.8C112.3,234.8,112.8,234.7,112.7,234.4L112.7,234.4z"/>
		</g>
		<g>
			<path class="st10" d="M128.2,215.2c2.7-2.6,5.7-5.1,9.5-5.9c1.1-0.2,2.1-0.2,3.2-0.1c0-0.2,0-0.3-0.1-0.5
				c-1.6,0.7-3.1,1.4-4.7,2.2c-0.3,0.1,0,0.6,0.3,0.4c1.6-0.7,3.1-1.4,4.7-2.2c0.2-0.1,0.1-0.4-0.1-0.5c-4-0.6-7.6,1.4-10.6,3.8
				c-0.9,0.7-1.7,1.5-2.6,2.3C127.6,215.1,128,215.4,128.2,215.2L128.2,215.2z"/>
		</g>
		<g>
			<path class="st10" d="M131.1,212.8c4.7,0.4,9.2,3.1,11.9,7c2.8,4,3.6,9.1,2.3,13.8c-0.7,2.6-2.1,5.1-4,7
				c-0.2,0.2,0.1,0.6,0.4,0.4c3.5-3.6,5.3-8.8,4.7-13.8c-0.5-5-3.4-9.4-7.5-12.1c-2.3-1.5-4.9-2.5-7.7-2.7
				C130.8,212.3,130.8,212.8,131.1,212.8L131.1,212.8z"/>
		</g>
		<g>
			<path class="st10" d="M114.7,245.3c-1-1.4-1.6-3.1-1.6-4.8c0-0.9,0-1.7,0.2-2.6c0.2-0.9,0.4-1.7,0.1-2.6
				c-0.3-0.8-0.7-1.6-0.9-2.5c-0.2-0.9-0.3-1.8-0.3-2.7c0-1.8,0.2-3.6,0.3-5.4c0.1-1,0.2-2-0.1-3c-0.3-0.7-0.9-1.4-1.7-1.3
				c-0.1,0-0.3,0.1-0.2,0.2c0,2.1,0,4.2,0.1,6.4c0,1.9,0,3.8,0.8,5.6c0.1,0.3,0.6,0,0.4-0.3c-0.8-1.7-0.7-3.7-0.7-5.6
				c0-2,0-4.1-0.1-6.1c-0.1,0.1-0.2,0.2-0.2,0.2c0.9,0,1.3,1,1.4,1.8c0.1,0.9,0,1.7-0.1,2.6c-0.1,1.7-0.3,3.5-0.2,5.2
				c0,0.9,0.1,1.7,0.3,2.6c0.2,0.8,0.6,1.6,0.9,2.4c0.3,0.9,0.1,1.7-0.1,2.6c-0.2,0.8-0.2,1.6-0.2,2.3c0.1,1.8,0.7,3.6,1.7,5.1
				C114.4,245.8,114.9,245.5,114.7,245.3L114.7,245.3z"/>
		</g>
		<g>
			<path class="st10" d="M148.9,220.1c0.6,2.5,0.3,5.2-1,7.5c-0.3,0.6-0.7,1.1-0.9,1.7c-0.2,0.5-0.3,1.1-0.3,1.6
				c-0.1,1.2,0.2,2.3,0.4,3.5c0.2,1.3,0.5,2.7,0.1,4c-0.1,0.3,0.4,0.4,0.5,0.1c0.6-2.4-0.5-4.8-0.5-7.2c0-0.6,0.1-1.2,0.2-1.7
				c0.2-0.7,0.6-1.2,0.9-1.8c0.6-1.1,1.1-2.3,1.3-3.6c0.2-1.4,0.2-2.9-0.2-4.3C149.3,219.7,148.8,219.8,148.9,220.1L148.9,220.1z"/>
		</g>
		<g>
			<path class="st10" d="M143.6,243.2c4.5-3,8-7.4,10.4-12.2c1.4-2.7,2.5-5.6,3.4-8.6c0.5-1.5,0.9-3,1.2-4.5
				c0.4-1.4,0.6-2.9,1.1-4.3c0.3-0.7,0.6-1.4,1.2-1.9c0.6-0.6,1.3-0.9,2.1-1.3c1.6-0.8,3.3-1.7,4.9-2.5c0.3-0.1,0-0.6-0.3-0.4
				c-1.5,0.7-2.9,1.5-4.4,2.2c-1.2,0.6-2.6,1.2-3.4,2.4c-0.8,1.1-1,2.6-1.3,3.9c-0.4,1.5-0.7,3-1.2,4.5c-1.6,5.7-3.8,11.2-7.4,15.9
				c-1.9,2.4-4.1,4.6-6.7,6.3C143.1,242.9,143.3,243.3,143.6,243.2L143.6,243.2z"/>
		</g>
		<g>
			<path class="st10" d="M180,212.3c-2.8,4.5-6.5,8.4-10.7,11.7c-2.1,1.7-4.3,3.2-6.6,4.6c-2.1,1.3-4.3,2.4-6.3,3.8
				c-2,1.5-3.8,3.4-4.4,5.9c-0.1,0.3,0.4,0.4,0.5,0.1c0.5-2.3,2-4,3.8-5.4c1.9-1.5,4.1-2.5,6.2-3.8c4.5-2.7,8.8-5.9,12.4-9.7
				c2-2.1,3.9-4.5,5.4-7C180.6,212.2,180.2,212,180,212.3L180,212.3z"/>
		</g>
		<g>
			<path class="st10" d="M180.7,216.5c-0.3,1.2-1.1,2.3-2,3.2c-0.2,0.2,0.1,0.6,0.4,0.4c1-0.9,1.8-2.1,2.2-3.4
				C181.2,216.3,180.8,216.2,180.7,216.5L180.7,216.5z"/>
		</g>
		<g>
			<path class="st10" d="M160.1,205.2c-1,1-2,1.9-3,2.9c-0.7,0.6-2,2.2-3,1.3c0,0.1,0,0.2,0,0.3c0.5-0.7,1.2-1.3,2-1.5
				c0.3-0.1,0.2-0.6-0.1-0.5c-1,0.3-1.8,0.9-2.3,1.8c-0.1,0.1,0,0.2,0,0.3c0.4,0.4,1,0.5,1.5,0.3c0.7-0.2,1.2-0.7,1.6-1.1
				c1.2-1.1,2.4-2.2,3.5-3.4C160.7,205.3,160.4,205,160.1,205.2L160.1,205.2z"/>
		</g>
		<g>
			<path class="st10" d="M130.1,192.8c5.5,0.9,9.7,4.9,12.4,9.5c0.8,1.4,1.5,2.8,2.1,4.3c0,0.1,0.2,0.2,0.3,0.2
				c2.3-0.7,4.8-1,7.2-0.8c0.3,0,0.3-0.5,0-0.5c-2.5-0.2-5,0-7.3,0.8c0.1,0.1,0.2,0.1,0.3,0.2c-2.1-5.2-5.3-10.1-10.4-12.7
				c-1.4-0.7-2.9-1.2-4.4-1.4C129.9,192.2,129.8,192.7,130.1,192.8L130.1,192.8z"/>
		</g>
		<g>
			<path class="st10" d="M146.8,204.3c0.4-1.2,0.5-2.5,0.4-3.7c0-0.3-0.5-0.3-0.5,0c0.1,1.2,0,2.4-0.4,3.6
				C146.3,204.5,146.8,204.6,146.8,204.3L146.8,204.3z"/>
		</g>
		<g>
			<path class="st10" d="M80.2,164.4c0-3.6-0.3-7.3-0.8-10.9c-0.2-1.8-0.5-3.5-0.8-5.3c-0.3-1.6-0.6-3.1-1.2-4.6
				c-0.3-0.8-0.7-1.6-1.2-2.3c-0.4-0.6-1-1.3-1.8-1.4c-0.2,0-0.3,0.2-0.2,0.3c1.1,3.5,1.7,7.1,1.8,10.8c0,0.3,0.5,0.3,0.5,0
				c-0.1-3.7-0.7-7.4-1.8-10.9c-0.1,0.1-0.2,0.2-0.2,0.3c0.7,0.1,1.2,0.9,1.6,1.5s0.7,1.3,1,2c0.5,1.4,0.8,2.9,1.1,4.4
				c0.6,3.4,1.1,6.8,1.3,10.2c0.1,1.9,0.2,3.8,0.2,5.7C79.7,164.7,80.2,164.7,80.2,164.4L80.2,164.4z"/>
		</g>
		<g>
			<path class="st10" d="M86.9,151.7c0.6-6.4,1.3-12.8,0.7-19.2c-0.5-5.8-2.4-12-0.1-17.7c1.2-3,3.3-5.4,5.4-7.8
				c0.2-0.2-0.1-0.6-0.4-0.4c-1.8,2.1-3.7,4.3-5,6.9c-1.3,2.7-1.7,5.6-1.6,8.5c0.1,3,0.7,6,1,9.1c0.4,3.2,0.5,6.4,0.3,9.6
				c-0.1,3.7-0.5,7.3-0.9,11C86.4,152,86.9,152,86.9,151.7L86.9,151.7z"/>
		</g>
		<g>
			<path class="st10" d="M93.9,101.5c-2.8,2.3-5.1,5-7,8.1c-0.2,0.3,0.3,0.5,0.4,0.3c1.8-3,4.2-5.7,6.9-8
				C94.5,101.7,94.1,101.3,93.9,101.5L93.9,101.5z"/>
		</g>
		<g>
			<path class="st10" d="M76.5,130.7c2.6,2.8,4.5,6.3,5.4,10.1c0.3,1.1,0.4,2.1,0.5,3.2c0,0.3,0.5,0.3,0.5,0
				c-0.3-4-1.7-7.8-3.9-11.1c-0.6-0.9-1.3-1.8-2.1-2.6C76.7,130.2,76.3,130.5,76.5,130.7L76.5,130.7z"/>
		</g>
		<g>
			<path class="st10" d="M96.1,264.4c2.1,1.8,5.3,1.9,7.6,0.3c0.3-0.2,0-0.6-0.3-0.4c-2.1,1.5-5,1.4-7-0.3
				C96.2,263.9,95.9,264.2,96.1,264.4L96.1,264.4z"/>
		</g>
		<g>
			<path class="st10" d="M96.3,249.2c3.2,0.3,6.1,2.1,7.8,4.8c0.2,0.3,0.6,0,0.4-0.3c-1.8-2.9-4.9-4.8-8.2-5.1
				C96,248.7,96,249.2,96.3,249.2L96.3,249.2z"/>
		</g>
		<g>
			<path class="st10" d="M105.9,252.8c0.3,0.2,0.5,0.4,0.8,0.6c0,0,0.1,0,0.2,0s0.1-0.1,0.1-0.1c0-0.1,0-0.1,0-0.2
				c0-0.1-0.1-0.1-0.1-0.1c-0.3-0.2-0.5-0.4-0.8-0.6c0,0-0.1,0-0.2,0s-0.1,0.1-0.1,0.1c0,0.1,0,0.1,0,0.2
				C105.8,252.7,105.9,252.7,105.9,252.8L105.9,252.8z"/>
		</g>
		<g>
			<path class="st10" d="M124.7,258.3c1.5,1.3,3.1,2.7,4.9,3.6c1.8,0.8,3.8,1.1,5.7,0.3c0.3-0.1,0.2-0.6-0.1-0.5
				c-3.8,1.6-7.4-1.4-10.1-3.8C124.8,257.7,124.5,258.1,124.7,258.3L124.7,258.3z"/>
		</g>
		<g>
			<path class="st10" d="M133.5,246.7c1.2,0.7,2.3,1.5,3.5,2.2c0.3,0.2,0.5-0.3,0.3-0.4c-1.2-0.7-2.3-1.5-3.5-2.2
				C133.5,246.1,133.3,246.5,133.5,246.7L133.5,246.7z"/>
		</g>
		<g>
			<path class="st10" d="M136.8,274.2c2.6,4.2,5,8.7,6,13.6c0.3,1.4,0.5,2.8,0.5,4.2c0,0.3,0.5,0.3,0.5,0c-0.1-5.1-2-9.8-4.4-14.2
				c-0.7-1.3-1.4-2.5-2.2-3.8C137,273.7,136.6,274,136.8,274.2L136.8,274.2z"/>
		</g>
		<g>
			<path class="st10" d="M113.8,287.9c0.6,4.6,1.8,9.1,3.4,13.4c0.4,1.2,0.9,2.4,1.5,3.6c0.1,0.3,0.6,0,0.4-0.3
				c-1.8-4.2-3.2-8.6-4.1-13c-0.3-1.3-0.5-2.5-0.6-3.8C114.3,287.4,113.8,287.6,113.8,287.9L113.8,287.9z"/>
		</g>
		<g>
			<path class="st10" d="M105.6,354.6c-0.3-0.7-0.1-1.6,0.6-2c0.4-0.3,0.9-0.2,1.4-0.3c0.4,0,0.9-0.1,1.3-0.3c1.7-0.6,3-1.9,4.8-2.2
				c0.3-0.1,0.2-0.5-0.1-0.5c-1.5,0.3-2.7,1.3-4.1,2c-0.3,0.2-0.7,0.3-1.1,0.4s-0.9,0.1-1.3,0.1c-0.7,0.1-1.3,0.3-1.7,1
				c-0.4,0.6-0.5,1.4-0.1,2.1C105.3,355.2,105.8,354.9,105.6,354.6L105.6,354.6z"/>
		</g>
		<g>
			<path class="st10" d="M128.1,335.5c0.6,1,0.6,2.3,0.1,3.4c-0.5,1-1.3,1.7-2.4,2c-0.3,0.1-0.2,0.6,0.1,0.5
				c1.2-0.3,2.2-1.2,2.7-2.3c0.6-1.2,0.5-2.6-0.1-3.8C128.3,335,127.9,335.2,128.1,335.5L128.1,335.5z"/>
		</g>
		<g>
			<path class="st10" d="M105.5,351.2c0.3-0.1,0.6-0.1,1-0.2c0.1,0,0.2-0.2,0.2-0.3c0-0.1-0.2-0.2-0.3-0.2c-0.3,0.1-0.6,0.1-1,0.2
				c-0.1,0-0.2,0.2-0.2,0.3C105.3,351.2,105.4,351.2,105.5,351.2L105.5,351.2z"/>
		</g>
		<g>
			<path class="st10" d="M153.4,319.3c1,1.4,1.5,3.1,1.5,4.8c0,0.3,0.5,0.3,0.5,0c0-1.8-0.5-3.6-1.6-5.1
				C153.7,318.8,153.3,319,153.4,319.3L153.4,319.3z"/>
		</g>
		<g>
			<path class="st10" d="M158.3,332.2c0.4,0.3,0.8,0.5,1.1,0.8c0.1,0.1,0.3,0,0.3-0.1c0.1-0.1,0-0.3-0.1-0.3
				c-0.4-0.3-0.8-0.5-1.1-0.8c-0.1-0.1-0.3,0-0.3,0.1C158.1,332,158.2,332.1,158.3,332.2L158.3,332.2z"/>
		</g>
		<g>
			<path class="st10" d="M176.8,335.4c1.1,0.3,2.2,0.7,3.2,1.1c0.3,0.1,0.5-0.3,0.3-0.4c-1.1-0.5-2.2-0.9-3.3-1.2
				C176.6,334.8,176.5,335.3,176.8,335.4L176.8,335.4z"/>
		</g>
		<g>
			<path class="st10" d="M158.9,342.1c2.3,2,3.7,5,3.9,8c0,0.3,0.5,0.3,0.5,0c-0.1-3.2-1.6-6.3-4-8.4
				C159,341.6,158.6,341.9,158.9,342.1L158.9,342.1z"/>
		</g>
		<g>
			<path class="st10" d="M171.8,346c2.9-1,5.9-1.7,9-1.9c2.5-0.2,5.2-0.3,7.6,0.5c1.2,0.4,2.4,1.1,3.1,2.2c0-0.1,0-0.2,0-0.3
				c-0.1,0.1-0.2,0.3-0.2,0.4c-0.2,0.3,0.3,0.5,0.4,0.3c0.1-0.1,0.2-0.3,0.2-0.4s0.1-0.2,0-0.3c-1.4-2-3.9-2.8-6.3-3
				c-1.4-0.1-2.7-0.1-4.1,0c-1.6,0.1-3.2,0.3-4.7,0.6c-1.8,0.3-3.5,0.8-5.2,1.4C171.4,345.6,171.5,346.1,171.8,346L171.8,346z"/>
		</g>
		<g>
			<path class="st10" d="M184.6,347.7c1.2-0.3,2.5-0.1,3.6,0.5c0.3,0.2,0.5-0.3,0.3-0.4c-1.2-0.7-2.6-0.9-4-0.6
				C184.1,347.3,184.3,347.7,184.6,347.7L184.6,347.7z"/>
		</g>
		<g>
			<path class="st10" d="M73.2,181c-1.2,4.3-2.2,8.7-2.9,13.1c-0.3,2.2-0.6,4.4-0.3,6.6c0.3,2.2,1,4.3,1.7,6.4
				c0.8,2.5,1.5,5,2.3,7.4c0.1,0.3,0.6,0.2,0.5-0.1c-0.7-2.2-1.3-4.3-2-6.5c-0.7-2.1-1.4-4.2-1.8-6.4s-0.3-4.5,0-6.7
				s0.7-4.4,1.1-6.5c0.5-2.4,1.1-4.8,1.8-7.2C73.8,180.9,73.3,180.7,73.2,181L73.2,181z"/>
		</g>
		<g>
			<path class="st10" d="M79.9,235c0,2.9-1.7,5.7-0.8,8.6c0.4,1.3,1.4,2.2,2.5,2.9c1.1,0.8,2.2,1.7,3.1,2.7c1,1.2,1.9,2.5,2.5,3.9
				c0.1,0.3,0.6,0,0.4-0.3c-1.1-2.4-2.8-4.6-5-6.2c-1.1-0.8-2.3-1.4-2.9-2.7c-0.6-1.2-0.5-2.6-0.3-3.9c0.3-1.7,0.9-3.4,0.9-5.1
				C80.4,234.7,79.9,234.7,79.9,235L79.9,235z"/>
		</g>
		<g>
			<path class="st10" d="M88.9,250.9c0,3-1.8,5.5-2.5,8.3c-0.7,3,0.1,6.1,1.4,8.8c0.8,1.6,1.7,3.2,2.6,4.7c0.2,0.3,0.6,0,0.4-0.3
				c-1.6-2.6-3.3-5.4-3.9-8.4c-0.3-1.5-0.4-3,0-4.5c0.3-1.4,0.9-2.7,1.4-4c0.6-1.5,1.1-3,1.1-4.6C89.3,250.6,88.8,250.6,88.9,250.9
				L88.9,250.9z"/>
		</g>
		<g>
			<path class="st10" d="M165.6,154.3c0.1-0.6,0.6-1,1-1.4c0.6-0.5,1.1-0.9,1.7-1.3c1.1-0.8,2.3-1.6,3.5-2.4c0.3-0.2,0-0.6-0.3-0.4
				c-1.3,0.8-2.6,1.7-3.8,2.6c-0.6,0.4-1.1,0.9-1.7,1.3c-0.5,0.4-0.9,0.8-1,1.5C165,154.4,165.5,154.6,165.6,154.3L165.6,154.3z"/>
		</g>
		<g>
			<path class="st10" d="M176.2,201.4c0.3,2.3,1.5,4.5,3.4,5.9c0.5,0.4,1.1,0.6,1.6,1s0.9,0.9,1.1,1.5c0.2,0.5,0.3,1.1,0.3,1.7
				c0.1,0.6,0,1.3,0.1,1.9c0.1,0.6,0.4,1.2,0.9,1.5s1.2,0.4,1.8,0.4c0.3,0,0.3-0.5,0-0.5c-0.5,0-1.1-0.1-1.5-0.3
				c-0.5-0.4-0.7-1-0.7-1.6c0-1.1,0-2.2-0.5-3.3c-0.2-0.5-0.4-0.9-0.8-1.3c-0.4-0.4-1-0.7-1.5-1c-1-0.6-1.8-1.4-2.4-2.3
				c-0.7-1.1-1.2-2.3-1.3-3.6C176.7,201.1,176.2,201.1,176.2,201.4L176.2,201.4z"/>
		</g>
		<g>
			<path class="st10" d="M184.9,212.3c0.4-0.1,0.8-0.1,1.2-0.2c0.1,0,0.1-0.1,0.1-0.1c0-0.1,0-0.1,0-0.2c0-0.1-0.2-0.2-0.3-0.2
				c-0.4,0.1-0.8,0.1-1.2,0.2c-0.1,0-0.1,0.1-0.1,0.1c0,0.1,0,0.1,0,0.2C184.6,212.2,184.8,212.3,184.9,212.3L184.9,212.3z"/>
		</g>
		<g>
			<path class="st10" d="M189.9,218.5c-1,1.5-2,3-2.8,4.6c-0.4,0.8-0.7,1.6-0.9,2.4c-0.1,0.4-0.2,0.9-0.4,1.3
				c-0.1,0.2-0.2,0.3-0.4,0.4c-0.1,0.1-0.2,0.1-0.2,0.1c-0.1,0-0.3,0-0.3,0.1c0.1-0.3-0.4-0.4-0.5-0.1c-0.1,0.4,0.3,0.6,0.6,0.6
				c0.4,0,0.8-0.3,1-0.6c0.3-0.4,0.4-0.9,0.5-1.3c0.1-0.5,0.3-1.1,0.5-1.6c0.8-2.1,2-3.9,3.2-5.7
				C190.5,218.5,190.1,218.2,189.9,218.5L189.9,218.5z"/>
		</g>
		<g>
			<path class="st10" d="M186.5,229.3C186.5,229.3,186.5,229.2,186.5,229.3C186.5,229.2,186.5,229.2,186.5,229.3
				c0-0.1,0.1-0.2,0.2-0.3c0,0,0,0,0,0.1c0.1-0.1,0.1-0.1,0.2-0.2c0,0,0,0-0.1,0l0,0c0.1,0,0.1-0.1,0.1-0.1c0-0.1,0-0.1,0-0.2
				c0-0.1-0.1-0.1-0.1-0.1c-0.1,0-0.1,0-0.2,0c-0.1,0-0.1,0.1-0.2,0.2c-0.1,0.1-0.1,0.1-0.2,0.2c-0.1,0.1-0.1,0.3-0.2,0.4
				c0,0.1,0,0.3,0.2,0.3C186.3,229.5,186.4,229.4,186.5,229.3L186.5,229.3z"/>
		</g>
	</g>
</g>
<text transform="matrix(1 0 0 1 216.3662 76.412)" class="st11 st12 st13">Are you looking to showcase your work or present your services through a professionally </text>
<text transform="matrix(1 0 0 1 216.3662 109.2636)" class="st11 st12 st13">designed website? Look no further than Stark Company. We specialize in creating customized </text>
<text transform="matrix(1 0 0 1 216.3662 142.0175)" class="st11 st12 st13">websites tailored to your unique vision and needs.</text>
<text transform="matrix(1 0 0 1 216.3662 174.869)" class="st11 st12 st13">Our team is dedicated to bringing your ideas to life, crafting a website that reflects your style</text>
<text transform="matrix(1 0 0 1 216.3662 207.7196)" class="st11 st12 st13"> and preferences. With Stark Company, you have the opportunity to own a website that&apos;s </text>
<text transform="matrix(1 0 0 1 216.3662 240.4735)" class="st11 st12 st13">not just functional but also a true reflection of your brand and identity.</text>
<text transform="matrix(1 0 0 1 216.3662 273.3251)" class="st11 st12 st13">Discover the possibilities with Stark Company and let us transform your online presence </text>
<text transform="matrix(1 0 0 1 216.3662 306.1766)" class="st11 st12 st13">into something exceptional</text>
</svg>
