<?xml version="1.0" encoding="utf-8"?>
<!-- Generator: Adobe Illustrator 27.3.1, SVG Export Plug-In . SVG Version: 6.00 Build 0)  -->
<svg version="1.1" id="Layer_1" xmlns="http://www.w3.org/2000/svg" xmlns:xlink="http://www.w3.org/1999/xlink" x="0px" y="0px"
	 viewBox="0 0 300 300" style="enable-background:new 0 0 300 300;" xml:space="preserve">
<style type="text/css">
	.st0{fill:#FFFFFF;}
</style>
<g>
	<circle cx="150.5" cy="150.5" r="67.5"/>
	<g>
		<g>
			<path class="st0" d="M150.5,115.7c11.4,0,12.7,0,17.2,0.2c4.1,0.2,6.4,0.9,7.9,1.5c2,0.8,3.4,1.7,4.9,3.2s2.4,2.9,3.2,4.9
				c0.6,1.5,1.3,3.7,1.5,7.9c0.2,4.5,0.2,5.8,0.2,17.2c0,11.4,0,12.7-0.2,17.2c-0.2,4.1-0.9,6.4-1.5,7.9c-0.8,2-1.7,3.4-3.2,4.9
				c-1.5,1.5-2.9,2.4-4.9,3.2c-1.5,0.6-3.8,1.3-7.9,1.5c-4.5,0.2-5.8,0.2-17.2,0.2c-11.4,0-12.7,0-17.2-0.2
				c-4.1-0.2-6.4-0.9-7.9-1.5c-2-0.8-3.4-1.7-4.9-3.2c-1.5-1.5-2.4-2.9-3.2-4.9c-0.6-1.5-1.3-3.8-1.5-7.9c-0.2-4.5-0.2-5.8-0.2-17.2
				c0-11.4,0-12.7,0.2-17.2c0.2-4.1,0.9-6.4,1.5-7.9c0.8-2,1.7-3.4,3.2-4.9s2.9-2.4,4.9-3.2c1.5-0.6,3.8-1.3,7.9-1.5
				C137.8,115.7,139.1,115.7,150.5,115.7 M150.5,108c-11.5,0-13,0.1-17.5,0.3c-4.5,0.2-7.6,0.9-10.3,2c-2.8,1.1-5.2,2.5-7.5,4.9
				c-2.4,2.4-3.8,4.7-4.9,7.5c-1.1,2.7-1.8,5.8-2,10.3c-0.2,4.5-0.3,6-0.3,17.5c0,11.5,0.1,13,0.3,17.5c0.2,4.5,0.9,7.6,2,10.3
				c1.1,2.8,2.5,5.2,4.9,7.5c2.4,2.4,4.7,3.8,7.5,4.9c2.7,1.1,5.8,1.8,10.3,2c4.5,0.2,6,0.3,17.5,0.3c11.5,0,13-0.1,17.5-0.3
				c4.5-0.2,7.6-0.9,10.3-2c2.8-1.1,5.2-2.5,7.5-4.9c2.4-2.4,3.8-4.7,4.9-7.5c1.1-2.7,1.8-5.8,2-10.3c0.2-4.5,0.3-6,0.3-17.5
				s-0.1-13-0.3-17.5c-0.2-4.5-0.9-7.6-2-10.3c-1.1-2.8-2.5-5.2-4.9-7.5c-2.4-2.4-4.7-3.8-7.5-4.9c-2.7-1.1-5.8-1.8-10.3-2
				S162,108,150.5,108L150.5,108z"/>
			<path class="st0" d="M150.5,128.7c-12.1,0-21.8,9.8-21.8,21.8c0,12.1,9.8,21.8,21.8,21.8s21.8-9.8,21.8-21.8
				C172.3,138.4,162.5,128.7,150.5,128.7z M150.5,164.7c-7.8,0-14.2-6.3-14.2-14.2s6.3-14.2,14.2-14.2s14.2,6.3,14.2,14.2
				S158.3,164.7,150.5,164.7z"/>
			<circle class="st0" cx="173.2" cy="127.8" r="5.1"/>
		</g>
	</g>
</g>
</svg>
